<?xml version="1.0" encoding="utf-8" standalone="no"?>
<!DOCTYPE svg PUBLIC "-//W3C//DTD SVG 1.1//EN"
  "http://www.w3.org/Graphics/SVG/1.1/DTD/svg11.dtd">
<svg xmlns:xlink="http://www.w3.org/1999/xlink" width="460.8pt" height="345.6pt" viewBox="0 0 460.8 345.6" xmlns="http://www.w3.org/2000/svg" version="1.1">
 <metadata>
  <rdf:RDF xmlns:dc="http://purl.org/dc/elements/1.1/" xmlns:cc="http://creativecommons.org/ns#" xmlns:rdf="http://www.w3.org/1999/02/22-rdf-syntax-ns#">
   <cc:Work>
    <dc:type rdf:resource="http://purl.org/dc/dcmitype/StillImage"/>
    <dc:date>2024-05-07T16:54:27.337357</dc:date>
    <dc:format>image/svg+xml</dc:format>
    <dc:creator>
     <cc:Agent>
      <dc:title>Matplotlib v3.7.1, https://matplotlib.org/</dc:title>
     </cc:Agent>
    </dc:creator>
   </cc:Work>
  </rdf:RDF>
 </metadata>
 <defs>
  <style type="text/css">*{stroke-linejoin: round; stroke-linecap: butt}</style>
 </defs>
 <g id="figure_1">
  <g id="patch_1">
   <path d="M 0 345.6 
L 460.8 345.6 
L 460.8 0 
L 0 0 
L 0 345.6 
z
" style="fill: none"/>
  </g>
  <g id="axes_1">
   <g id="patch_2">
    <path d="M 57.6 307.584 
L 414.72 307.584 
L 414.72 41.472 
L 57.6 41.472 
L 57.6 307.584 
z
" style="fill: none"/>
   </g>
   <g id="matplotlib.axis_1">
    <g id="xtick_1">
     <g id="line2d_1">
      <defs>
       <path id="mdc988f5b4a" d="M 0 0 
L 0 -3.5 
" style="stroke: #000000; stroke-width: 0.8"/>
      </defs>
      <g>
       <use xlink:href="#mdc988f5b4a" x="57.6" y="307.584" style="stroke: #000000; stroke-width: 0.8"/>
      </g>
     </g>
     <g id="text_1">
      <!-- 0.40 -->
      <g transform="translate(46.467188 323.182437) scale(0.1 -0.1)">
       <defs>
        <path id="DejaVuSans-30" d="M 2034 4250 
Q 1547 4250 1301 3770 
Q 1056 3291 1056 2328 
Q 1056 1369 1301 889 
Q 1547 409 2034 409 
Q 2525 409 2770 889 
Q 3016 1369 3016 2328 
Q 3016 3291 2770 3770 
Q 2525 4250 2034 4250 
z
M 2034 4750 
Q 2819 4750 3233 4129 
Q 3647 3509 3647 2328 
Q 3647 1150 3233 529 
Q 2819 -91 2034 -91 
Q 1250 -91 836 529 
Q 422 1150 422 2328 
Q 422 3509 836 4129 
Q 1250 4750 2034 4750 
z
" transform="scale(0.015625)"/>
        <path id="DejaVuSans-2e" d="M 684 794 
L 1344 794 
L 1344 0 
L 684 0 
L 684 794 
z
" transform="scale(0.015625)"/>
        <path id="DejaVuSans-34" d="M 2419 4116 
L 825 1625 
L 2419 1625 
L 2419 4116 
z
M 2253 4666 
L 3047 4666 
L 3047 1625 
L 3713 1625 
L 3713 1100 
L 3047 1100 
L 3047 0 
L 2419 0 
L 2419 1100 
L 313 1100 
L 313 1709 
L 2253 4666 
z
" transform="scale(0.015625)"/>
       </defs>
       <use xlink:href="#DejaVuSans-30"/>
       <use xlink:href="#DejaVuSans-2e" x="63.623047"/>
       <use xlink:href="#DejaVuSans-34" x="95.410156"/>
       <use xlink:href="#DejaVuSans-30" x="159.033203"/>
      </g>
     </g>
    </g>
    <g id="xtick_2">
     <g id="line2d_2">
      <g>
       <use xlink:href="#mdc988f5b4a" x="117.12" y="307.584" style="stroke: #000000; stroke-width: 0.8"/>
      </g>
     </g>
     <g id="text_2">
      <!-- 0.45 -->
      <g transform="translate(105.987188 323.182437) scale(0.1 -0.1)">
       <defs>
        <path id="DejaVuSans-35" d="M 691 4666 
L 3169 4666 
L 3169 4134 
L 1269 4134 
L 1269 2991 
Q 1406 3038 1543 3061 
Q 1681 3084 1819 3084 
Q 2600 3084 3056 2656 
Q 3513 2228 3513 1497 
Q 3513 744 3044 326 
Q 2575 -91 1722 -91 
Q 1428 -91 1123 -41 
Q 819 9 494 109 
L 494 744 
Q 775 591 1075 516 
Q 1375 441 1709 441 
Q 2250 441 2565 725 
Q 2881 1009 2881 1497 
Q 2881 1984 2565 2268 
Q 2250 2553 1709 2553 
Q 1456 2553 1204 2497 
Q 953 2441 691 2322 
L 691 4666 
z
" transform="scale(0.015625)"/>
       </defs>
       <use xlink:href="#DejaVuSans-30"/>
       <use xlink:href="#DejaVuSans-2e" x="63.623047"/>
       <use xlink:href="#DejaVuSans-34" x="95.410156"/>
       <use xlink:href="#DejaVuSans-35" x="159.033203"/>
      </g>
     </g>
    </g>
    <g id="xtick_3">
     <g id="line2d_3">
      <g>
       <use xlink:href="#mdc988f5b4a" x="176.64" y="307.584" style="stroke: #000000; stroke-width: 0.8"/>
      </g>
     </g>
     <g id="text_3">
      <!-- 0.50 -->
      <g transform="translate(165.507188 323.182437) scale(0.1 -0.1)">
       <use xlink:href="#DejaVuSans-30"/>
       <use xlink:href="#DejaVuSans-2e" x="63.623047"/>
       <use xlink:href="#DejaVuSans-35" x="95.410156"/>
       <use xlink:href="#DejaVuSans-30" x="159.033203"/>
      </g>
     </g>
    </g>
    <g id="xtick_4">
     <g id="line2d_4">
      <g>
       <use xlink:href="#mdc988f5b4a" x="236.16" y="307.584" style="stroke: #000000; stroke-width: 0.8"/>
      </g>
     </g>
     <g id="text_4">
      <!-- 0.55 -->
      <g transform="translate(225.027188 323.182437) scale(0.1 -0.1)">
       <use xlink:href="#DejaVuSans-30"/>
       <use xlink:href="#DejaVuSans-2e" x="63.623047"/>
       <use xlink:href="#DejaVuSans-35" x="95.410156"/>
       <use xlink:href="#DejaVuSans-35" x="159.033203"/>
      </g>
     </g>
    </g>
    <g id="xtick_5">
     <g id="line2d_5">
      <g>
       <use xlink:href="#mdc988f5b4a" x="295.68" y="307.584" style="stroke: #000000; stroke-width: 0.8"/>
      </g>
     </g>
     <g id="text_5">
      <!-- 0.60 -->
      <g transform="translate(284.547188 323.182437) scale(0.1 -0.1)">
       <defs>
        <path id="DejaVuSans-36" d="M 2113 2584 
Q 1688 2584 1439 2293 
Q 1191 2003 1191 1497 
Q 1191 994 1439 701 
Q 1688 409 2113 409 
Q 2538 409 2786 701 
Q 3034 994 3034 1497 
Q 3034 2003 2786 2293 
Q 2538 2584 2113 2584 
z
M 3366 4563 
L 3366 3988 
Q 3128 4100 2886 4159 
Q 2644 4219 2406 4219 
Q 1781 4219 1451 3797 
Q 1122 3375 1075 2522 
Q 1259 2794 1537 2939 
Q 1816 3084 2150 3084 
Q 2853 3084 3261 2657 
Q 3669 2231 3669 1497 
Q 3669 778 3244 343 
Q 2819 -91 2113 -91 
Q 1303 -91 875 529 
Q 447 1150 447 2328 
Q 447 3434 972 4092 
Q 1497 4750 2381 4750 
Q 2619 4750 2861 4703 
Q 3103 4656 3366 4563 
z
" transform="scale(0.015625)"/>
       </defs>
       <use xlink:href="#DejaVuSans-30"/>
       <use xlink:href="#DejaVuSans-2e" x="63.623047"/>
       <use xlink:href="#DejaVuSans-36" x="95.410156"/>
       <use xlink:href="#DejaVuSans-30" x="159.033203"/>
      </g>
     </g>
    </g>
    <g id="xtick_6">
     <g id="line2d_6">
      <g>
       <use xlink:href="#mdc988f5b4a" x="355.2" y="307.584" style="stroke: #000000; stroke-width: 0.8"/>
      </g>
     </g>
     <g id="text_6">
      <!-- 0.65 -->
      <g transform="translate(344.067188 323.182437) scale(0.1 -0.1)">
       <use xlink:href="#DejaVuSans-30"/>
       <use xlink:href="#DejaVuSans-2e" x="63.623047"/>
       <use xlink:href="#DejaVuSans-36" x="95.410156"/>
       <use xlink:href="#DejaVuSans-35" x="159.033203"/>
      </g>
     </g>
    </g>
    <g id="xtick_7">
     <g id="line2d_7">
      <g>
       <use xlink:href="#mdc988f5b4a" x="414.72" y="307.584" style="stroke: #000000; stroke-width: 0.8"/>
      </g>
     </g>
     <g id="text_7">
      <!-- 0.70 -->
      <g transform="translate(403.587188 323.182437) scale(0.1 -0.1)">
       <defs>
        <path id="DejaVuSans-37" d="M 525 4666 
L 3525 4666 
L 3525 4397 
L 1831 0 
L 1172 0 
L 2766 4134 
L 525 4134 
L 525 4666 
z
" transform="scale(0.015625)"/>
       </defs>
       <use xlink:href="#DejaVuSans-30"/>
       <use xlink:href="#DejaVuSans-2e" x="63.623047"/>
       <use xlink:href="#DejaVuSans-37" x="95.410156"/>
       <use xlink:href="#DejaVuSans-30" x="159.033203"/>
      </g>
     </g>
    </g>
    <g id="text_8">
     <!-- Wavelength (μm) -->
     <g transform="translate(192.955312 336.860562) scale(0.1 -0.1)">
      <defs>
       <path id="DejaVuSans-57" d="M 213 4666 
L 850 4666 
L 1831 722 
L 2809 4666 
L 3519 4666 
L 4500 722 
L 5478 4666 
L 6119 4666 
L 4947 0 
L 4153 0 
L 3169 4050 
L 2175 0 
L 1381 0 
L 213 4666 
z
" transform="scale(0.015625)"/>
       <path id="DejaVuSans-61" d="M 2194 1759 
Q 1497 1759 1228 1600 
Q 959 1441 959 1056 
Q 959 750 1161 570 
Q 1363 391 1709 391 
Q 2188 391 2477 730 
Q 2766 1069 2766 1631 
L 2766 1759 
L 2194 1759 
z
M 3341 1997 
L 3341 0 
L 2766 0 
L 2766 531 
Q 2569 213 2275 61 
Q 1981 -91 1556 -91 
Q 1019 -91 701 211 
Q 384 513 384 1019 
Q 384 1609 779 1909 
Q 1175 2209 1959 2209 
L 2766 2209 
L 2766 2266 
Q 2766 2663 2505 2880 
Q 2244 3097 1772 3097 
Q 1472 3097 1187 3025 
Q 903 2953 641 2809 
L 641 3341 
Q 956 3463 1253 3523 
Q 1550 3584 1831 3584 
Q 2591 3584 2966 3190 
Q 3341 2797 3341 1997 
z
" transform="scale(0.015625)"/>
       <path id="DejaVuSans-76" d="M 191 3500 
L 800 3500 
L 1894 563 
L 2988 3500 
L 3597 3500 
L 2284 0 
L 1503 0 
L 191 3500 
z
" transform="scale(0.015625)"/>
       <path id="DejaVuSans-65" d="M 3597 1894 
L 3597 1613 
L 953 1613 
Q 991 1019 1311 708 
Q 1631 397 2203 397 
Q 2534 397 2845 478 
Q 3156 559 3463 722 
L 3463 178 
Q 3153 47 2828 -22 
Q 2503 -91 2169 -91 
Q 1331 -91 842 396 
Q 353 884 353 1716 
Q 353 2575 817 3079 
Q 1281 3584 2069 3584 
Q 2775 3584 3186 3129 
Q 3597 2675 3597 1894 
z
M 3022 2063 
Q 3016 2534 2758 2815 
Q 2500 3097 2075 3097 
Q 1594 3097 1305 2825 
Q 1016 2553 972 2059 
L 3022 2063 
z
" transform="scale(0.015625)"/>
       <path id="DejaVuSans-6c" d="M 603 4863 
L 1178 4863 
L 1178 0 
L 603 0 
L 603 4863 
z
" transform="scale(0.015625)"/>
       <path id="DejaVuSans-6e" d="M 3513 2113 
L 3513 0 
L 2938 0 
L 2938 2094 
Q 2938 2591 2744 2837 
Q 2550 3084 2163 3084 
Q 1697 3084 1428 2787 
Q 1159 2491 1159 1978 
L 1159 0 
L 581 0 
L 581 3500 
L 1159 3500 
L 1159 2956 
Q 1366 3272 1645 3428 
Q 1925 3584 2291 3584 
Q 2894 3584 3203 3211 
Q 3513 2838 3513 2113 
z
" transform="scale(0.015625)"/>
       <path id="DejaVuSans-67" d="M 2906 1791 
Q 2906 2416 2648 2759 
Q 2391 3103 1925 3103 
Q 1463 3103 1205 2759 
Q 947 2416 947 1791 
Q 947 1169 1205 825 
Q 1463 481 1925 481 
Q 2391 481 2648 825 
Q 2906 1169 2906 1791 
z
M 3481 434 
Q 3481 -459 3084 -895 
Q 2688 -1331 1869 -1331 
Q 1566 -1331 1297 -1286 
Q 1028 -1241 775 -1147 
L 775 -588 
Q 1028 -725 1275 -790 
Q 1522 -856 1778 -856 
Q 2344 -856 2625 -561 
Q 2906 -266 2906 331 
L 2906 616 
Q 2728 306 2450 153 
Q 2172 0 1784 0 
Q 1141 0 747 490 
Q 353 981 353 1791 
Q 353 2603 747 3093 
Q 1141 3584 1784 3584 
Q 2172 3584 2450 3431 
Q 2728 3278 2906 2969 
L 2906 3500 
L 3481 3500 
L 3481 434 
z
" transform="scale(0.015625)"/>
       <path id="DejaVuSans-74" d="M 1172 4494 
L 1172 3500 
L 2356 3500 
L 2356 3053 
L 1172 3053 
L 1172 1153 
Q 1172 725 1289 603 
Q 1406 481 1766 481 
L 2356 481 
L 2356 0 
L 1766 0 
Q 1100 0 847 248 
Q 594 497 594 1153 
L 594 3053 
L 172 3053 
L 172 3500 
L 594 3500 
L 594 4494 
L 1172 4494 
z
" transform="scale(0.015625)"/>
       <path id="DejaVuSans-68" d="M 3513 2113 
L 3513 0 
L 2938 0 
L 2938 2094 
Q 2938 2591 2744 2837 
Q 2550 3084 2163 3084 
Q 1697 3084 1428 2787 
Q 1159 2491 1159 1978 
L 1159 0 
L 581 0 
L 581 4863 
L 1159 4863 
L 1159 2956 
Q 1366 3272 1645 3428 
Q 1925 3584 2291 3584 
Q 2894 3584 3203 3211 
Q 3513 2838 3513 2113 
z
" transform="scale(0.015625)"/>
       <path id="DejaVuSans-20" transform="scale(0.015625)"/>
       <path id="DejaVuSans-28" d="M 1984 4856 
Q 1566 4138 1362 3434 
Q 1159 2731 1159 2009 
Q 1159 1288 1364 580 
Q 1569 -128 1984 -844 
L 1484 -844 
Q 1016 -109 783 600 
Q 550 1309 550 2009 
Q 550 2706 781 3412 
Q 1013 4119 1484 4856 
L 1984 4856 
z
" transform="scale(0.015625)"/>
       <path id="DejaVuSans-3bc" d="M 544 -1331 
L 544 3500 
L 1119 3500 
L 1119 1325 
Q 1119 872 1334 640 
Q 1550 409 1972 409 
Q 2434 409 2667 671 
Q 2900 934 2900 1459 
L 2900 3500 
L 3475 3500 
L 3475 806 
Q 3475 619 3529 530 
Q 3584 441 3700 441 
Q 3728 441 3778 458 
Q 3828 475 3916 513 
L 3916 50 
Q 3788 -22 3673 -56 
Q 3559 -91 3450 -91 
Q 3234 -91 3106 31 
Q 2978 153 2931 403 
Q 2775 156 2548 32 
Q 2322 -91 2016 -91 
Q 1697 -91 1473 31 
Q 1250 153 1119 397 
L 1119 -1331 
L 544 -1331 
z
" transform="scale(0.015625)"/>
       <path id="DejaVuSans-6d" d="M 3328 2828 
Q 3544 3216 3844 3400 
Q 4144 3584 4550 3584 
Q 5097 3584 5394 3201 
Q 5691 2819 5691 2113 
L 5691 0 
L 5113 0 
L 5113 2094 
Q 5113 2597 4934 2840 
Q 4756 3084 4391 3084 
Q 3944 3084 3684 2787 
Q 3425 2491 3425 1978 
L 3425 0 
L 2847 0 
L 2847 2094 
Q 2847 2600 2669 2842 
Q 2491 3084 2119 3084 
Q 1678 3084 1418 2786 
Q 1159 2488 1159 1978 
L 1159 0 
L 581 0 
L 581 3500 
L 1159 3500 
L 1159 2956 
Q 1356 3278 1631 3431 
Q 1906 3584 2284 3584 
Q 2666 3584 2933 3390 
Q 3200 3197 3328 2828 
z
" transform="scale(0.015625)"/>
       <path id="DejaVuSans-29" d="M 513 4856 
L 1013 4856 
Q 1481 4119 1714 3412 
Q 1947 2706 1947 2009 
Q 1947 1309 1714 600 
Q 1481 -109 1013 -844 
L 513 -844 
Q 928 -128 1133 580 
Q 1338 1288 1338 2009 
Q 1338 2731 1133 3434 
Q 928 4138 513 4856 
z
" transform="scale(0.015625)"/>
      </defs>
      <use xlink:href="#DejaVuSans-57"/>
      <use xlink:href="#DejaVuSans-61" x="92.501953"/>
      <use xlink:href="#DejaVuSans-76" x="153.78125"/>
      <use xlink:href="#DejaVuSans-65" x="212.960938"/>
      <use xlink:href="#DejaVuSans-6c" x="274.484375"/>
      <use xlink:href="#DejaVuSans-65" x="302.267578"/>
      <use xlink:href="#DejaVuSans-6e" x="363.791016"/>
      <use xlink:href="#DejaVuSans-67" x="427.169922"/>
      <use xlink:href="#DejaVuSans-74" x="490.646484"/>
      <use xlink:href="#DejaVuSans-68" x="529.855469"/>
      <use xlink:href="#DejaVuSans-20" x="593.234375"/>
      <use xlink:href="#DejaVuSans-28" x="625.021484"/>
      <use xlink:href="#DejaVuSans-3bc" x="664.035156"/>
      <use xlink:href="#DejaVuSans-6d" x="727.658203"/>
      <use xlink:href="#DejaVuSans-29" x="825.070312"/>
     </g>
    </g>
   </g>
   <g id="matplotlib.axis_2">
    <g id="ytick_1">
     <g id="line2d_8">
      <defs>
       <path id="m26e8176fb0" d="M 0 0 
L 3.5 0 
" style="stroke: #000000; stroke-width: 0.8"/>
      </defs>
      <g>
       <use xlink:href="#m26e8176fb0" x="57.6" y="307.584" style="stroke: #000000; stroke-width: 0.8"/>
      </g>
     </g>
     <g id="text_9">
      <!-- 0.0 -->
      <g transform="translate(31.696875 311.383219) scale(0.1 -0.1)">
       <use xlink:href="#DejaVuSans-30"/>
       <use xlink:href="#DejaVuSans-2e" x="63.623047"/>
       <use xlink:href="#DejaVuSans-30" x="95.410156"/>
      </g>
     </g>
    </g>
    <g id="ytick_2">
     <g id="line2d_9">
      <g>
       <use xlink:href="#m26e8176fb0" x="57.6" y="254.3616" style="stroke: #000000; stroke-width: 0.8"/>
      </g>
     </g>
     <g id="text_10">
      <!-- 0.2 -->
      <g transform="translate(31.696875 258.160819) scale(0.1 -0.1)">
       <defs>
        <path id="DejaVuSans-32" d="M 1228 531 
L 3431 531 
L 3431 0 
L 469 0 
L 469 531 
Q 828 903 1448 1529 
Q 2069 2156 2228 2338 
Q 2531 2678 2651 2914 
Q 2772 3150 2772 3378 
Q 2772 3750 2511 3984 
Q 2250 4219 1831 4219 
Q 1534 4219 1204 4116 
Q 875 4013 500 3803 
L 500 4441 
Q 881 4594 1212 4672 
Q 1544 4750 1819 4750 
Q 2544 4750 2975 4387 
Q 3406 4025 3406 3419 
Q 3406 3131 3298 2873 
Q 3191 2616 2906 2266 
Q 2828 2175 2409 1742 
Q 1991 1309 1228 531 
z
" transform="scale(0.015625)"/>
       </defs>
       <use xlink:href="#DejaVuSans-30"/>
       <use xlink:href="#DejaVuSans-2e" x="63.623047"/>
       <use xlink:href="#DejaVuSans-32" x="95.410156"/>
      </g>
     </g>
    </g>
    <g id="ytick_3">
     <g id="line2d_10">
      <g>
       <use xlink:href="#m26e8176fb0" x="57.6" y="201.1392" style="stroke: #000000; stroke-width: 0.8"/>
      </g>
     </g>
     <g id="text_11">
      <!-- 0.4 -->
      <g transform="translate(31.696875 204.938419) scale(0.1 -0.1)">
       <use xlink:href="#DejaVuSans-30"/>
       <use xlink:href="#DejaVuSans-2e" x="63.623047"/>
       <use xlink:href="#DejaVuSans-34" x="95.410156"/>
      </g>
     </g>
    </g>
    <g id="ytick_4">
     <g id="line2d_11">
      <g>
       <use xlink:href="#m26e8176fb0" x="57.6" y="147.9168" style="stroke: #000000; stroke-width: 0.8"/>
      </g>
     </g>
     <g id="text_12">
      <!-- 0.6 -->
      <g transform="translate(31.696875 151.716019) scale(0.1 -0.1)">
       <use xlink:href="#DejaVuSans-30"/>
       <use xlink:href="#DejaVuSans-2e" x="63.623047"/>
       <use xlink:href="#DejaVuSans-36" x="95.410156"/>
      </g>
     </g>
    </g>
    <g id="ytick_5">
     <g id="line2d_12">
      <g>
       <use xlink:href="#m26e8176fb0" x="57.6" y="94.6944" style="stroke: #000000; stroke-width: 0.8"/>
      </g>
     </g>
     <g id="text_13">
      <!-- 0.8 -->
      <g transform="translate(31.696875 98.493619) scale(0.1 -0.1)">
       <defs>
        <path id="DejaVuSans-38" d="M 2034 2216 
Q 1584 2216 1326 1975 
Q 1069 1734 1069 1313 
Q 1069 891 1326 650 
Q 1584 409 2034 409 
Q 2484 409 2743 651 
Q 3003 894 3003 1313 
Q 3003 1734 2745 1975 
Q 2488 2216 2034 2216 
z
M 1403 2484 
Q 997 2584 770 2862 
Q 544 3141 544 3541 
Q 544 4100 942 4425 
Q 1341 4750 2034 4750 
Q 2731 4750 3128 4425 
Q 3525 4100 3525 3541 
Q 3525 3141 3298 2862 
Q 3072 2584 2669 2484 
Q 3125 2378 3379 2068 
Q 3634 1759 3634 1313 
Q 3634 634 3220 271 
Q 2806 -91 2034 -91 
Q 1263 -91 848 271 
Q 434 634 434 1313 
Q 434 1759 690 2068 
Q 947 2378 1403 2484 
z
M 1172 3481 
Q 1172 3119 1398 2916 
Q 1625 2713 2034 2713 
Q 2441 2713 2670 2916 
Q 2900 3119 2900 3481 
Q 2900 3844 2670 4047 
Q 2441 4250 2034 4250 
Q 1625 4250 1398 4047 
Q 1172 3844 1172 3481 
z
" transform="scale(0.015625)"/>
       </defs>
       <use xlink:href="#DejaVuSans-30"/>
       <use xlink:href="#DejaVuSans-2e" x="63.623047"/>
       <use xlink:href="#DejaVuSans-38" x="95.410156"/>
      </g>
     </g>
    </g>
    <g id="ytick_6">
     <g id="line2d_13">
      <g>
       <use xlink:href="#m26e8176fb0" x="57.6" y="41.472" style="stroke: #000000; stroke-width: 0.8"/>
      </g>
     </g>
     <g id="text_14">
      <!-- 1.0 -->
      <g transform="translate(31.696875 45.271219) scale(0.1 -0.1)">
       <defs>
        <path id="DejaVuSans-31" d="M 794 531 
L 1825 531 
L 1825 4091 
L 703 3866 
L 703 4441 
L 1819 4666 
L 2450 4666 
L 2450 531 
L 3481 531 
L 3481 0 
L 794 0 
L 794 531 
z
" transform="scale(0.015625)"/>
       </defs>
       <use xlink:href="#DejaVuSans-31"/>
       <use xlink:href="#DejaVuSans-2e" x="63.623047"/>
       <use xlink:href="#DejaVuSans-30" x="95.410156"/>
      </g>
     </g>
    </g>
    <g id="text_15">
     <!-- Optical efficiency -->
     <g transform="translate(25.617187 217.856906) rotate(-90) scale(0.1 -0.1)">
      <defs>
       <path id="DejaVuSans-4f" d="M 2522 4238 
Q 1834 4238 1429 3725 
Q 1025 3213 1025 2328 
Q 1025 1447 1429 934 
Q 1834 422 2522 422 
Q 3209 422 3611 934 
Q 4013 1447 4013 2328 
Q 4013 3213 3611 3725 
Q 3209 4238 2522 4238 
z
M 2522 4750 
Q 3503 4750 4090 4092 
Q 4678 3434 4678 2328 
Q 4678 1225 4090 567 
Q 3503 -91 2522 -91 
Q 1538 -91 948 565 
Q 359 1222 359 2328 
Q 359 3434 948 4092 
Q 1538 4750 2522 4750 
z
" transform="scale(0.015625)"/>
       <path id="DejaVuSans-70" d="M 1159 525 
L 1159 -1331 
L 581 -1331 
L 581 3500 
L 1159 3500 
L 1159 2969 
Q 1341 3281 1617 3432 
Q 1894 3584 2278 3584 
Q 2916 3584 3314 3078 
Q 3713 2572 3713 1747 
Q 3713 922 3314 415 
Q 2916 -91 2278 -91 
Q 1894 -91 1617 61 
Q 1341 213 1159 525 
z
M 3116 1747 
Q 3116 2381 2855 2742 
Q 2594 3103 2138 3103 
Q 1681 3103 1420 2742 
Q 1159 2381 1159 1747 
Q 1159 1113 1420 752 
Q 1681 391 2138 391 
Q 2594 391 2855 752 
Q 3116 1113 3116 1747 
z
" transform="scale(0.015625)"/>
       <path id="DejaVuSans-69" d="M 603 3500 
L 1178 3500 
L 1178 0 
L 603 0 
L 603 3500 
z
M 603 4863 
L 1178 4863 
L 1178 4134 
L 603 4134 
L 603 4863 
z
" transform="scale(0.015625)"/>
       <path id="DejaVuSans-63" d="M 3122 3366 
L 3122 2828 
Q 2878 2963 2633 3030 
Q 2388 3097 2138 3097 
Q 1578 3097 1268 2742 
Q 959 2388 959 1747 
Q 959 1106 1268 751 
Q 1578 397 2138 397 
Q 2388 397 2633 464 
Q 2878 531 3122 666 
L 3122 134 
Q 2881 22 2623 -34 
Q 2366 -91 2075 -91 
Q 1284 -91 818 406 
Q 353 903 353 1747 
Q 353 2603 823 3093 
Q 1294 3584 2113 3584 
Q 2378 3584 2631 3529 
Q 2884 3475 3122 3366 
z
" transform="scale(0.015625)"/>
       <path id="DejaVuSans-66" d="M 2375 4863 
L 2375 4384 
L 1825 4384 
Q 1516 4384 1395 4259 
Q 1275 4134 1275 3809 
L 1275 3500 
L 2222 3500 
L 2222 3053 
L 1275 3053 
L 1275 0 
L 697 0 
L 697 3053 
L 147 3053 
L 147 3500 
L 697 3500 
L 697 3744 
Q 697 4328 969 4595 
Q 1241 4863 1831 4863 
L 2375 4863 
z
" transform="scale(0.015625)"/>
       <path id="DejaVuSans-79" d="M 2059 -325 
Q 1816 -950 1584 -1140 
Q 1353 -1331 966 -1331 
L 506 -1331 
L 506 -850 
L 844 -850 
Q 1081 -850 1212 -737 
Q 1344 -625 1503 -206 
L 1606 56 
L 191 3500 
L 800 3500 
L 1894 763 
L 2988 3500 
L 3597 3500 
L 2059 -325 
z
" transform="scale(0.015625)"/>
      </defs>
      <use xlink:href="#DejaVuSans-4f"/>
      <use xlink:href="#DejaVuSans-70" x="78.710938"/>
      <use xlink:href="#DejaVuSans-74" x="142.1875"/>
      <use xlink:href="#DejaVuSans-69" x="181.396484"/>
      <use xlink:href="#DejaVuSans-63" x="209.179688"/>
      <use xlink:href="#DejaVuSans-61" x="264.160156"/>
      <use xlink:href="#DejaVuSans-6c" x="325.439453"/>
      <use xlink:href="#DejaVuSans-20" x="353.222656"/>
      <use xlink:href="#DejaVuSans-65" x="385.009766"/>
      <use xlink:href="#DejaVuSans-66" x="446.533203"/>
      <use xlink:href="#DejaVuSans-66" x="481.738281"/>
      <use xlink:href="#DejaVuSans-69" x="516.943359"/>
      <use xlink:href="#DejaVuSans-63" x="544.726562"/>
      <use xlink:href="#DejaVuSans-69" x="599.707031"/>
      <use xlink:href="#DejaVuSans-65" x="627.490234"/>
      <use xlink:href="#DejaVuSans-6e" x="689.013672"/>
      <use xlink:href="#DejaVuSans-63" x="752.392578"/>
      <use xlink:href="#DejaVuSans-79" x="807.373047"/>
     </g>
    </g>
   </g>
   <g id="line2d_14">
    <path d="M 414.72 119.465308 
L 412.635063 114.438822 
L 410.560532 109.936472 
L 408.496332 105.950058 
L 406.442384 102.681271 
L 404.398613 99.896745 
L 402.364942 97.812829 
L 400.341298 96.12045 
L 398.327607 95.001019 
L 396.323794 94.146325 
L 392.345517 93.27972 
L 388.405895 92.614517 
L 386.450404 92.035012 
L 384.504367 91.251049 
L 376.813408 87.369679 
L 367.404416 83.001385 
L 365.549268 81.854888 
L 363.702857 80.536877 
L 361.865121 79.051934 
L 360.036 77.423273 
L 358.215433 75.587633 
L 356.403359 73.530525 
L 354.599721 70.901654 
L 352.804458 67.25199 
L 351.017514 62.693432 
L 349.238829 60.186825 
L 347.468347 60.292007 
L 345.706012 61.668805 
L 343.951767 64.219434 
L 342.205557 67.582888 
L 340.467327 70.416199 
L 338.737021 71.828955 
L 337.014587 72.028957 
L 333.593117 71.269873 
L 331.893976 71.69209 
L 330.202494 73.786494 
L 328.518621 77.279072 
L 326.842304 80.393168 
L 325.173493 81.817117 
L 323.512137 81.548448 
L 321.858187 79.872756 
L 320.211594 77.173851 
L 318.572308 74.002036 
L 316.94028 71.260845 
L 315.315464 69.866488 
L 313.69781 70.353432 
L 312.087273 72.711165 
L 310.483804 76.620492 
L 308.887358 81.754624 
L 307.297888 87.877856 
L 305.715349 94.893324 
L 304.139695 102.731084 
L 302.570883 111.365598 
L 301.008866 120.694799 
L 297.905047 141.264054 
L 296.363156 152.777191 
L 294.827888 165.434515 
L 287.249405 232.961464 
L 285.752989 243.963496 
L 284.262906 253.555383 
L 282.779113 261.724909 
L 281.301573 268.575098 
L 279.830245 274.272203 
L 278.365091 279.008125 
L 276.906071 282.981511 
L 275.453148 286.344496 
L 274.006282 289.223097 
L 272.565437 291.674039 
L 271.130574 293.734001 
L 269.701657 295.399759 
L 268.278649 296.679608 
L 266.861513 297.573035 
L 265.450213 298.079906 
L 264.044712 298.242195 
L 261.250969 298.17463 
L 259.862655 298.313978 
L 258.48 298.704656 
L 257.102969 299.24974 
L 255.731529 299.645826 
L 254.365645 299.426729 
L 253.005283 298.443513 
L 251.65041 297.223961 
L 250.300993 296.336865 
L 248.956999 295.932221 
L 247.618396 295.95488 
L 246.28515 296.338669 
L 244.95723 297.016115 
L 243.634605 297.921961 
L 239.698177 300.980106 
L 238.396414 301.588627 
L 237.099789 301.598295 
L 235.808273 300.929412 
L 234.521835 299.75003 
L 233.240445 298.385916 
L 231.964073 297.229836 
L 230.692691 296.514201 
L 229.426268 296.246879 
L 228.164776 296.286615 
L 225.656471 296.764007 
L 221.930283 297.498736 
L 220.697781 297.630621 
L 219.470013 297.554939 
L 217.028571 297.116703 
L 213.401243 296.786524 
L 212.201316 296.868525 
L 211.005938 297.220486 
L 209.815082 297.874578 
L 207.446834 299.543362 
L 206.269392 300.05763 
L 205.09637 300.078131 
L 203.927745 299.711115 
L 202.763491 299.597554 
L 201.603584 300.277639 
L 199.296714 302.597121 
L 198.149703 303.56437 
L 197.006943 304.354679 
L 195.868409 304.989812 
L 194.73408 305.425871 
L 193.603931 305.522715 
L 192.47794 305.049716 
L 191.356083 303.770382 
L 190.238338 301.621512 
L 189.124683 298.797412 
L 186.90955 292.095042 
L 185.808029 288.06086 
L 184.710508 282.987915 
L 183.616967 276.372798 
L 181.441734 260.782306 
L 180.36 256.748207 
L 179.28216 257.596134 
L 177.138075 263.838742 
L 175.009315 268.847279 
L 173.95063 271.781409 
L 172.895715 275.803165 
L 171.84455 281.947493 
L 169.753388 299.393158 
L 168.713353 301.033482 
L 167.676988 299.002539 
L 166.644275 297.388936 
L 165.615193 296.810253 
L 164.589725 296.834664 
L 163.56785 297.178109 
L 162.549551 297.70117 
L 159.515916 299.710952 
L 158.511731 300.010194 
L 157.511029 299.771746 
L 156.513791 298.791087 
L 155.52 297.477586 
L 154.529638 296.681738 
L 153.542687 296.494625 
L 150.602125 296.652024 
L 149.628643 296.605403 
L 148.658486 296.718519 
L 147.691636 297.107675 
L 143.856975 299.514533 
L 141.959055 300.133698 
L 139.136072 300.811726 
L 130.835193 304.081959 
L 129.024 304.881264 
L 127.22471 305.361467 
L 126.329492 305.418746 
L 122.777795 305.171461 
L 121.019253 305.51085 
L 118.402759 306.073265 
L 116.672481 306.241918 
L 115.811517 306.238733 
L 113.245165 305.120616 
L 112.395184 304.862758 
L 111.547915 304.816294 
L 109.861463 305.070862 
L 107.35181 305.77004 
L 102.403346 305.908255 
L 100.774487 305.785778 
L 97.547136 305.288594 
L 95.152825 305.301641 
L 92.780626 305.368496 
L 91.994754 305.293037 
L 91.211294 305.099137 
L 90.430235 304.737038 
L 88.875275 303.741411 
L 88.101352 303.463169 
L 86.560568 303.432569 
L 85.029126 303.369278 
L 81.993933 302.731334 
L 80.490015 302.934947 
L 78.251007 303.441747 
L 77.509129 303.420061 
L 76.769463 303.048603 
L 76.032 302.205341 
L 74.563642 300.036329 
L 70.930609 295.370376 
L 69.492341 292.933526 
L 68.0625 289.925929 
L 65.933379 285.033246 
L 64.524285 282.713724 
L 63.822807 281.970669 
L 63.123364 281.939422 
L 62.425946 282.983554 
L 61.037151 285.748287 
L 59.656353 287.787216 
L 57.6 290.303501 
L 57.6 290.303501 
" clip-path="url(#p2d32e43e1e)" style="fill: none; stroke: #000000; stroke-width: 1.5; stroke-linecap: square"/>
   </g>
   <g id="line2d_15">
    <path d="M 414.72 288.90154 
L 410.560532 294.241428 
L 408.496332 296.391586 
L 406.442384 298.175283 
L 404.398613 299.425894 
L 402.364942 300.282309 
L 400.341298 300.73192 
L 398.327607 300.912284 
L 396.323794 300.898403 
L 388.405895 300.335698 
L 386.450404 300.35271 
L 382.567717 300.845235 
L 374.913631 302.308857 
L 369.268364 303.103627 
L 351.017514 305.390574 
L 349.238829 304.98679 
L 345.706012 303.571541 
L 343.951767 303.008064 
L 342.205557 302.681957 
L 338.737021 302.524497 
L 337.014587 302.285095 
L 335.29997 301.763092 
L 333.593117 300.844563 
L 331.893976 299.275266 
L 330.202494 296.871193 
L 328.518621 294.14541 
L 326.842304 292.101094 
L 325.173493 291.131026 
L 323.512137 291.033342 
L 321.858187 291.606927 
L 320.211594 292.647641 
L 318.572308 293.845588 
L 316.94028 294.664803 
L 315.315464 294.576245 
L 313.69781 293.27721 
L 312.087273 290.817648 
L 310.483804 287.41044 
L 308.887358 283.287207 
L 307.297888 278.590973 
L 305.715349 273.387928 
L 304.139695 267.6844 
L 302.570883 261.446852 
L 301.008866 254.624363 
L 299.453602 247.096222 
L 297.905047 238.665045 
L 296.363156 229.035333 
L 294.827888 218.120237 
L 291.777049 193.687551 
L 288.752193 168.906612 
L 285.752989 146.613195 
L 284.262906 136.964202 
L 282.779113 128.451145 
L 281.301573 121.032804 
L 279.830245 114.632246 
L 278.365091 109.104166 
L 276.906071 104.317744 
L 275.453148 100.139678 
L 274.006282 96.488009 
L 272.565437 93.314582 
L 271.130574 90.623182 
L 269.701657 88.44183 
L 268.278649 86.806758 
L 266.861513 85.715678 
L 265.450213 85.041243 
L 262.644976 83.978457 
L 261.250969 83.179243 
L 259.862655 82.001385 
L 258.48 80.464737 
L 257.102969 78.763258 
L 255.731529 77.361987 
L 254.365645 76.979167 
L 253.005283 78.081073 
L 250.300993 81.921691 
L 248.956999 83.341801 
L 247.618396 84.312572 
L 246.28515 84.918497 
L 244.95723 85.240247 
L 241.005109 85.637332 
L 238.396414 86.250644 
L 237.099789 85.788367 
L 235.808273 84.632594 
L 234.521835 83.112405 
L 233.240445 81.291912 
L 230.692691 77.249628 
L 229.426268 75.572642 
L 228.164776 74.328466 
L 226.908187 73.518862 
L 225.656471 73.073105 
L 224.4096 72.968335 
L 223.167547 73.164509 
L 221.930283 73.765886 
L 219.470013 76.073978 
L 218.246952 75.722096 
L 217.028571 75.07048 
L 215.814844 75.359377 
L 213.401243 76.518485 
L 212.201316 76.641649 
L 211.005938 76.186969 
L 209.815082 75.241462 
L 208.628722 74.145202 
L 207.446834 73.386538 
L 206.269392 73.357998 
L 205.09637 74.354415 
L 203.927745 76.548958 
L 202.763491 79.818267 
L 200.448 86.89728 
L 197.006943 96.680134 
L 194.73408 103.93523 
L 192.47794 112.353126 
L 188.015094 130.867866 
L 186.90955 136.297177 
L 185.808029 143.188212 
L 184.710508 152.479435 
L 183.616967 165.152654 
L 182.527382 181.353163 
L 180.36 216.929413 
L 179.28216 231.845987 
L 178.208192 243.801411 
L 177.138075 252.347798 
L 176.07179 257.404817 
L 175.009315 259.376965 
L 173.95063 259.019231 
L 172.895715 257.472206 
L 171.84455 256.97063 
L 170.797114 261.179447 
L 169.753388 270.944381 
L 168.713353 278.058195 
L 167.676988 279.808716 
L 166.644275 280.262537 
L 164.589725 281.751624 
L 163.56785 282.484184 
L 162.549551 283.062573 
L 161.534808 283.383635 
L 160.523603 283.266187 
L 159.515916 282.678219 
L 158.511731 281.611301 
L 157.511029 280.338525 
L 156.513791 279.551682 
L 155.52 280.10747 
L 153.542687 282.700465 
L 152.559129 283.504712 
L 151.578947 284.130446 
L 150.602125 284.958896 
L 149.628643 286.330393 
L 148.658486 288.329071 
L 146.728077 292.630831 
L 145.767792 294.230131 
L 144.810763 295.458086 
L 142.906411 297.350344 
L 141.959055 298.11598 
L 141.014891 298.661518 
L 140.073901 298.899757 
L 139.136072 298.905894 
L 138.201385 298.791166 
L 137.269827 298.515616 
L 135.416031 297.577518 
L 134.493762 297.099792 
L 133.57456 296.765824 
L 132.658407 296.61999 
L 129.928101 296.438773 
L 128.122874 296.196152 
L 127.22471 296.190478 
L 126.329492 296.410641 
L 125.437205 296.987905 
L 122.777795 300.001276 
L 121.897093 300.554613 
L 121.019253 300.830165 
L 119.272099 300.977374 
L 115.811517 301.078683 
L 113.245165 302.075492 
L 111.547915 302.809118 
L 109.861463 303.431211 
L 108.185708 303.9066 
L 106.520548 304.101108 
L 104.042454 304.056814 
L 100.774487 303.927399 
L 99.155782 304.099844 
L 96.746556 304.754167 
L 95.152825 304.665903 
L 93.568921 304.335725 
L 91.994754 303.783664 
L 88.875275 302.179631 
L 85.793684 301.772664 
L 84.266882 301.024192 
L 82.749296 300.080941 
L 81.993933 299.77657 
L 81.240843 299.67677 
L 78.995107 299.785769 
L 78.251007 299.592505 
L 76.032 298.62354 
L 75.296729 298.867486 
L 74.563642 299.259191 
L 73.832727 299.335057 
L 73.103976 299.0786 
L 72.377379 298.581557 
L 71.652927 297.92352 
L 68.0625 293.927117 
L 67.350717 293.779827 
L 66.641013 294.27892 
L 65.933379 295.556088 
L 63.822807 301.15388 
L 63.123364 303.008229 
L 62.425946 304.07588 
L 61.730545 304.058892 
L 61.037151 303.275925 
L 59.656353 300.737718 
L 57.6 296.573087 
L 57.6 296.573087 
" clip-path="url(#p2d32e43e1e)" style="fill: none; stroke: #000000; stroke-width: 1.5; stroke-linecap: square"/>
   </g>
   <g id="line2d_16">
    <path d="M 414.72 289.913777 
L 410.560532 292.812099 
L 408.496332 294.136781 
L 404.398613 296.428195 
L 400.341298 298.213023 
L 396.323794 299.37647 
L 394.329788 299.681265 
L 392.345517 299.869101 
L 384.504367 299.973405 
L 380.640385 300.503975 
L 365.549268 303.568965 
L 356.403359 305.256657 
L 352.804458 306.239455 
L 351.017514 306.507678 
L 349.238829 306.072663 
L 345.706012 304.810078 
L 343.951767 304.369638 
L 342.205557 304.237525 
L 340.467327 304.48645 
L 335.29997 305.783645 
L 331.893976 306.190615 
L 328.518621 306.502845 
L 325.173493 306.934677 
L 323.512137 307.001377 
L 321.858187 306.930542 
L 318.572308 306.477799 
L 315.315464 305.963508 
L 310.483804 305.533961 
L 305.715349 305.083286 
L 299.453602 304.441359 
L 294.827888 304.085153 
L 288.752193 303.354184 
L 284.262906 303.166481 
L 278.365091 302.959496 
L 275.453148 302.688873 
L 266.861513 301.54041 
L 265.450213 301.564488 
L 264.044712 301.70846 
L 262.644976 301.993958 
L 259.862655 302.960163 
L 258.48 303.460571 
L 257.102969 303.749651 
L 255.731529 303.587492 
L 254.365645 302.783141 
L 251.65041 300.135221 
L 250.300993 299.059975 
L 247.618396 297.439182 
L 239.698177 293.110855 
L 238.396414 292.301038 
L 237.099789 291.926942 
L 235.808273 292.123919 
L 234.521835 292.819623 
L 233.240445 293.926011 
L 230.692691 296.520238 
L 229.426268 297.527415 
L 228.164776 298.229183 
L 226.908187 298.655761 
L 225.656471 298.872219 
L 224.4096 298.896004 
L 223.167547 298.745911 
L 221.930283 298.33804 
L 220.697781 297.591149 
L 219.470013 296.65679 
L 218.246952 296.633838 
L 217.028571 296.849028 
L 215.814844 296.450795 
L 213.401243 295.156088 
L 212.201316 294.786603 
L 211.005938 294.831533 
L 209.815082 295.292278 
L 207.446834 296.680283 
L 206.269392 297.104232 
L 205.09637 297.021577 
L 203.927745 296.051173 
L 202.763491 293.812061 
L 199.296714 284.849784 
L 195.868409 276.876654 
L 194.73408 273.815863 
L 192.47794 266.814507 
L 191.356083 263.277233 
L 190.238338 260.22296 
L 189.124683 257.939726 
L 188.015094 256.366641 
L 184.710508 253.097295 
L 183.616967 251.132793 
L 182.527382 247.403374 
L 181.441734 240.564078 
L 180.36 229.316624 
L 178.208192 200.372735 
L 177.138075 190.094779 
L 176.07179 183.900455 
L 175.009315 180.684185 
L 173.95063 178.771054 
L 172.895715 176.260987 
L 171.84455 170.15305 
L 170.797114 156.271472 
L 169.753388 134.758827 
L 168.713353 117.844123 
L 167.676988 109.564355 
L 166.644275 104.701241 
L 165.615193 101.085617 
L 164.589725 98.38874 
L 163.56785 96.407789 
L 162.549551 95.166843 
L 161.534808 94.746532 
L 160.523603 95.364398 
L 159.515916 97.037744 
L 158.511731 99.84098 
L 156.513791 107.25785 
L 155.52 108.750793 
L 154.529638 107.866507 
L 153.542687 106.425351 
L 152.559129 105.392728 
L 151.578947 104.693973 
L 150.602125 103.660658 
L 149.628643 101.461085 
L 148.658486 97.596431 
L 146.728077 87.624028 
L 145.767792 83.448623 
L 144.810763 80.244117 
L 143.856975 77.866486 
L 142.906411 76.120262 
L 141.959055 74.928905 
L 141.014891 74.345024 
L 140.073901 74.356448 
L 139.136072 74.581684 
L 136.341381 74.976652 
L 134.493762 75.340072 
L 133.57456 75.319802 
L 132.658407 75.077237 
L 131.74529 74.633796 
L 127.22471 71.733844 
L 125.437205 70.823852 
L 122.777795 69.177727 
L 121.897093 68.881724 
L 121.019253 68.71906 
L 119.272099 68.753636 
L 117.536224 68.97433 
L 116.672481 68.849697 
L 115.811517 68.419603 
L 114.953319 68.32025 
L 112.395184 69.102801 
L 111.547915 68.369177 
L 109.861463 65.645673 
L 109.022255 64.223029 
L 108.185708 63.36508 
L 107.35181 63.208196 
L 104.865882 63.416008 
L 102.403346 63.490814 
L 100.774487 63.811785 
L 99.963871 64.085178 
L 99.155782 64.215605 
L 98.350207 63.857661 
L 96.746556 62.415402 
L 95.948456 62.10461 
L 95.152825 61.993679 
L 93.568921 62.082866 
L 92.780626 62.275966 
L 91.994754 62.615825 
L 91.211294 63.238256 
L 90.430235 64.205652 
L 88.875275 66.643332 
L 88.101352 67.277476 
L 87.329787 67.388377 
L 85.793684 67.257349 
L 85.029126 67.374764 
L 82.749296 68.217188 
L 80.490015 68.275078 
L 79.74144 68.615712 
L 78.995107 69.338739 
L 78.251007 70.720064 
L 77.509129 73.177565 
L 76.032 81.168623 
L 75.296729 83.706867 
L 74.563642 83.817082 
L 73.832727 83.031277 
L 73.103976 82.832975 
L 72.377379 83.379398 
L 71.652927 84.378626 
L 70.930609 85.769363 
L 68.776372 90.988963 
L 68.0625 92.237459 
L 67.350717 92.728271 
L 66.641013 92.33788 
L 65.227806 90.008229 
L 64.524285 89.431809 
L 63.822807 89.388211 
L 63.123364 89.161704 
L 61.037151 86.560968 
L 60.345757 86.681268 
L 59.656353 87.636707 
L 58.968931 89.766336 
L 58.283483 92.808031 
L 57.6 96.679306 
L 57.6 96.679306 
" clip-path="url(#p2d32e43e1e)" style="fill: none; stroke: #000000; stroke-width: 1.5; stroke-linecap: square"/>
   </g>
   <g id="line2d_17">
    <path d="M 414.72 149.342411 
L 410.560532 139.309098 
L 406.442384 131.276956 
L 404.398613 128.080229 
L 402.364942 125.224938 
L 400.341298 122.868156 
L 398.327607 120.924438 
L 396.323794 119.251621 
L 392.345517 116.689051 
L 390.370909 115.639276 
L 386.450404 112.970286 
L 380.640385 107.967975 
L 378.722304 106.563209 
L 376.813408 105.317466 
L 374.913631 104.306988 
L 365.549268 100.002767 
L 361.865121 97.566881 
L 358.215433 94.432954 
L 356.403359 92.47089 
L 354.599721 90.080134 
L 351.017514 83.463215 
L 349.238829 82.232643 
L 347.468347 82.9014 
L 345.706012 84.19429 
L 343.951767 85.946442 
L 342.205557 87.891289 
L 340.467327 89.117501 
L 338.737021 89.439737 
L 335.29997 88.700436 
L 333.593117 88.626756 
L 331.893976 89.617341 
L 330.202494 92.322997 
L 328.518621 96.421861 
L 326.842304 100.108738 
L 325.173493 102.235031 
L 323.512137 102.819355 
L 321.858187 102.082084 
L 320.211594 100.31438 
L 316.94028 95.577624 
L 315.315464 94.259812 
L 313.69781 94.627845 
L 312.087273 96.768444 
L 310.483804 100.558728 
L 308.887358 105.671772 
L 307.297888 111.922386 
L 305.715349 119.128398 
L 304.139695 127.183666 
L 301.008866 145.255103 
L 297.905047 164.85705 
L 294.827888 186.05875 
L 288.752193 231.112039 
L 287.249405 241.16901 
L 285.752989 250.300518 
L 284.262906 258.417413 
L 282.779113 265.478218 
L 281.301573 271.527242 
L 279.830245 276.661645 
L 278.365091 281.007818 
L 276.906071 284.708166 
L 275.453148 287.873032 
L 274.006282 290.59746 
L 272.565437 292.921354 
L 271.130574 294.871528 
L 269.701657 296.444314 
L 268.278649 297.647945 
L 266.861513 298.484492 
L 265.450213 298.954233 
L 264.044712 299.098498 
L 261.250969 299.006793 
L 259.862655 299.114082 
L 258.48 299.453306 
L 257.102969 299.937656 
L 255.731529 300.288237 
L 254.365645 300.07392 
L 253.005283 299.154108 
L 251.65041 298.014205 
L 250.300993 297.181378 
L 248.956999 296.799523 
L 247.618396 296.820664 
L 246.28515 297.18591 
L 244.95723 297.830658 
L 242.317241 299.676945 
L 239.698177 301.573437 
L 238.396414 302.14061 
L 237.099789 302.148377 
L 235.808273 301.523846 
L 234.521835 300.419023 
L 233.240445 299.132709 
L 231.964073 298.036061 
L 230.692691 297.353329 
L 229.426268 297.095752 
L 228.164776 297.127395 
L 225.656471 297.562443 
L 221.930283 298.244608 
L 220.697781 298.382032 
L 219.470013 298.325295 
L 217.028571 297.845093 
L 213.401243 297.539654 
L 212.201316 297.635434 
L 211.005938 297.994876 
L 209.815082 298.64623 
L 207.446834 300.282301 
L 206.269392 300.788057 
L 205.09637 300.825033 
L 203.927745 300.484569 
L 202.763491 300.353371 
L 201.603584 300.948134 
L 199.296714 303.053602 
L 198.149703 303.938937 
L 197.006943 304.666472 
L 195.868409 305.256969 
L 194.73408 305.671199 
L 193.603931 305.78992 
L 192.47794 305.431395 
L 191.356083 304.437709 
L 190.238338 302.814487 
L 188.015094 298.541847 
L 185.808029 293.692239 
L 184.710508 290.547685 
L 183.616967 286.386198 
L 181.441734 275.76322 
L 180.36 272.795515 
L 179.28216 273.563792 
L 178.208192 276.008586 
L 177.138075 278.083494 
L 173.95063 282.547113 
L 172.895715 284.783672 
L 171.84455 288.546291 
L 169.753388 301.179409 
L 168.713353 302.553846 
L 167.676988 301.131529 
L 166.644275 300.024827 
L 165.615193 299.67757 
L 164.589725 299.76056 
L 162.549551 300.45884 
L 159.515916 301.836174 
L 158.511731 301.976611 
L 157.511029 301.68879 
L 156.513791 300.799067 
L 155.52 299.622716 
L 154.529638 298.860813 
L 153.542687 298.601972 
L 150.602125 298.436938 
L 149.628643 298.302332 
L 148.658486 298.311822 
L 147.691636 298.577299 
L 143.856975 300.577423 
L 141.959055 301.125509 
L 139.136072 301.726352 
L 127.22471 305.594223 
L 125.437205 305.571167 
L 123.661371 305.377648 
L 121.897093 305.547483 
L 118.402759 306.237317 
L 116.672481 306.392637 
L 115.811517 306.389861 
L 113.245165 305.380749 
L 112.395184 305.15098 
L 111.547915 305.108287 
L 109.861463 305.324094 
L 107.35181 305.958008 
L 102.403346 306.082693 
L 100.774487 305.968387 
L 97.547136 305.537464 
L 95.152825 305.552522 
L 92.780626 305.604962 
L 91.211294 305.354642 
L 90.430235 305.023205 
L 88.875275 304.108049 
L 88.101352 303.844993 
L 86.560568 303.797036 
L 85.029126 303.727529 
L 81.993933 303.20427 
L 80.490015 303.462275 
L 78.251007 303.96486 
L 77.509129 303.955647 
L 76.769463 303.648646 
L 76.032 302.965378 
L 74.563642 301.343824 
L 70.930609 298.090441 
L 69.492341 296.328464 
L 68.0625 294.059327 
L 65.933379 290.082963 
L 64.524285 288.22858 
L 63.822807 287.813482 
L 63.123364 288.085547 
L 61.730545 290.455985 
L 60.345757 292.576635 
L 57.6 296.125247 
L 57.6 296.125247 
" clip-path="url(#p2d32e43e1e)" style="fill: none; stroke-dasharray: 5.55,2.4; stroke-dashoffset: 0; stroke: #000000; stroke-width: 1.5"/>
   </g>
   <g id="line2d_18">
    <path d="M 414.72 291.868698 
L 410.560532 296.224283 
L 408.496332 298.013548 
L 406.442384 299.488339 
L 404.398613 300.532961 
L 402.364942 301.236466 
L 400.341298 301.598629 
L 398.327607 301.725866 
L 396.323794 301.684787 
L 388.405895 301.066836 
L 386.450404 301.055052 
L 382.567717 301.446561 
L 373.022907 302.998056 
L 365.549268 303.883923 
L 351.017514 305.576604 
L 349.238829 305.21823 
L 343.951767 303.416593 
L 342.205557 303.096758 
L 338.737021 302.902439 
L 337.014587 302.66896 
L 335.29997 302.184224 
L 333.593117 301.339563 
L 331.893976 299.906641 
L 330.202494 297.720552 
L 328.518621 295.262417 
L 326.842304 293.444697 
L 325.173493 292.619 
L 323.512137 292.59083 
L 321.858187 293.165216 
L 316.94028 295.99414 
L 315.315464 295.911033 
L 313.69781 294.74114 
L 312.087273 292.534972 
L 310.483804 289.501331 
L 308.887358 285.860433 
L 307.297888 281.763955 
L 305.715349 277.284405 
L 304.139695 272.447077 
L 302.570883 267.22797 
L 301.008866 261.584127 
L 299.453602 255.392295 
L 297.905047 248.44141 
L 296.363156 240.405256 
L 294.827888 231.100388 
L 293.2992 220.624725 
L 290.261394 197.522772 
L 285.752989 162.646951 
L 284.262906 152.318263 
L 282.779113 143.112161 
L 281.301573 135.150759 
L 279.830245 128.472599 
L 278.365091 122.993455 
L 276.906071 118.583405 
L 275.453148 115.06876 
L 274.006282 112.289112 
L 272.565437 110.112951 
L 271.130574 108.442585 
L 269.701657 107.228878 
L 268.278649 106.412335 
L 264.044712 104.98549 
L 262.644976 104.176419 
L 261.250969 103.025556 
L 259.862655 101.471615 
L 255.731529 95.9931 
L 254.365645 95.275143 
L 253.005283 95.922978 
L 250.300993 98.865978 
L 248.956999 100.033305 
L 247.618396 100.935049 
L 241.005109 104.821831 
L 239.698177 105.902693 
L 238.396414 106.628399 
L 237.099789 106.171252 
L 235.808273 104.548169 
L 234.521835 102.28148 
L 230.692691 94.709754 
L 229.426268 92.944621 
L 228.164776 91.687934 
L 226.908187 90.878155 
L 225.656471 90.378285 
L 224.4096 90.214967 
L 223.167547 90.36722 
L 221.930283 91.058295 
L 219.470013 93.856832 
L 218.246952 92.750227 
L 217.028571 91.250437 
L 215.814844 91.285053 
L 212.201316 93.170249 
L 208.628722 94.110828 
L 207.446834 94.909419 
L 206.269392 96.089408 
L 205.09637 97.562861 
L 203.927745 99.246476 
L 202.763491 101.373425 
L 201.603584 104.023093 
L 199.296714 110.043859 
L 198.149703 113.322334 
L 197.006943 117.043026 
L 195.868409 121.540414 
L 194.73408 127.085239 
L 193.603931 133.863437 
L 191.356083 150.281265 
L 189.124683 166.735997 
L 186.90955 182.117089 
L 185.808029 190.607587 
L 184.710508 200.151851 
L 182.527382 222.36503 
L 180.36 245.546299 
L 179.28216 256.039031 
L 178.208192 264.531289 
L 177.138075 270.334342 
L 176.07179 273.525246 
L 175.009315 274.466166 
L 173.95063 273.622473 
L 172.895715 271.632605 
L 171.84455 269.998435 
L 170.797114 271.800188 
L 169.753388 278.934713 
L 168.713353 284.911085 
L 167.676988 286.699537 
L 165.615193 288.03447 
L 163.56785 289.426243 
L 162.549551 289.904944 
L 161.534808 290.138653 
L 160.523603 289.985503 
L 159.515916 289.401196 
L 158.511731 288.354697 
L 157.511029 287.024276 
L 156.513791 285.953237 
L 155.52 285.939483 
L 153.542687 287.429156 
L 152.559129 287.863834 
L 151.578947 288.168364 
L 150.602125 288.653002 
L 149.628643 289.615499 
L 148.658486 291.152594 
L 146.728077 294.662294 
L 145.767792 296.009049 
L 144.810763 297.058113 
L 142.906411 298.703344 
L 141.959055 299.376397 
L 141.014891 299.857767 
L 140.073901 300.06947 
L 138.201385 299.980451 
L 137.269827 299.7401 
L 135.416031 298.901363 
L 133.57456 298.132084 
L 131.74529 297.902642 
L 129.928101 297.710919 
L 128.122874 297.428028 
L 127.22471 297.383675 
L 126.329492 297.543656 
L 125.437205 298.037628 
L 122.777795 300.775702 
L 121.897093 301.284693 
L 121.019253 301.540427 
L 119.272099 301.686082 
L 115.811517 301.809493 
L 109.861463 303.849659 
L 107.35181 304.409696 
L 105.69191 304.486847 
L 99.963871 304.337248 
L 98.350207 304.686555 
L 97.547136 304.935411 
L 96.746556 305.064771 
L 95.152825 304.986666 
L 93.568921 304.687096 
L 91.994754 304.182229 
L 88.875275 302.695285 
L 85.793684 302.27312 
L 84.266882 301.582024 
L 82.749296 300.761469 
L 81.993933 300.537474 
L 81.240843 300.513165 
L 78.995107 300.749368 
L 78.251007 300.601727 
L 76.769463 299.963654 
L 76.032 299.889707 
L 75.296729 300.229273 
L 74.563642 300.701311 
L 73.832727 300.881329 
L 73.103976 300.771625 
L 72.377379 300.457684 
L 71.652927 300.013114 
L 69.492341 298.16035 
L 68.0625 297.123918 
L 67.350717 296.981238 
L 66.641013 297.318405 
L 65.933379 298.249459 
L 64.524285 301.071124 
L 63.123364 304.104884 
L 62.425946 304.961723 
L 61.730545 304.9825 
L 61.037151 304.435484 
L 57.6 300.282629 
L 57.6 300.282629 
" clip-path="url(#p2d32e43e1e)" style="fill: none; stroke-dasharray: 5.55,2.4; stroke-dashoffset: 0; stroke: #000000; stroke-width: 1.5"/>
   </g>
   <g id="line2d_19">
    <path d="M 414.72 292.720171 
L 410.560532 295.007368 
L 408.496332 296.0855 
L 404.398613 297.942055 
L 400.341298 299.398343 
L 396.323794 300.341869 
L 392.345517 300.711831 
L 384.504367 300.677689 
L 380.640385 301.110476 
L 354.599721 305.869105 
L 352.804458 306.349152 
L 351.017514 306.598964 
L 349.238829 306.207339 
L 345.706012 305.064165 
L 343.951767 304.656609 
L 342.205557 304.520697 
L 340.467327 304.7307 
L 335.29997 305.913897 
L 331.893976 306.296497 
L 328.518621 306.59271 
L 325.173493 306.993401 
L 323.512137 307.056204 
L 320.211594 306.826731 
L 313.69781 305.970375 
L 293.2992 304.404572 
L 288.752193 303.86291 
L 284.262906 303.564013 
L 276.906071 303.174823 
L 272.565437 302.687024 
L 268.278649 302.156743 
L 265.450213 302.118251 
L 264.044712 302.247033 
L 262.644976 302.498898 
L 259.862655 303.35925 
L 258.48 303.808232 
L 257.102969 304.066141 
L 255.731529 303.910916 
L 254.365645 303.164037 
L 251.65041 300.7034 
L 250.300993 299.700018 
L 247.618396 298.19446 
L 243.634605 296.362935 
L 241.005109 295.143537 
L 238.396414 293.708112 
L 237.099789 293.365816 
L 235.808273 293.504921 
L 234.521835 294.080448 
L 233.240445 295.034904 
L 230.692691 297.358908 
L 229.426268 298.280407 
L 228.164776 298.925392 
L 226.908187 299.317918 
L 225.656471 299.515085 
L 224.4096 299.53466 
L 223.167547 299.394488 
L 221.930283 299.02184 
L 220.697781 298.34554 
L 219.470013 297.496136 
L 218.246952 297.438027 
L 217.028571 297.596044 
L 215.814844 297.214297 
L 213.401243 296.022941 
L 212.201316 295.702516 
L 211.005938 295.784432 
L 209.815082 296.269157 
L 207.446834 297.682341 
L 206.269392 298.121284 
L 205.09637 298.072633 
L 203.927745 297.18419 
L 202.763491 295.115402 
L 200.448 289.44153 
L 198.149703 284.616028 
L 194.73408 277.654495 
L 192.47794 272.954639 
L 191.356083 271.030256 
L 190.238338 269.698957 
L 189.124683 269.053734 
L 188.015094 268.970661 
L 186.90955 269.250337 
L 185.808029 269.647928 
L 184.710508 269.844145 
L 183.616967 269.24387 
L 182.527382 266.955806 
L 181.441734 262.016714 
L 180.36 254.023245 
L 178.208192 235.217298 
L 177.138075 228.352751 
L 176.07179 223.634699 
L 173.95063 217.504619 
L 172.895715 213.369741 
L 171.84455 205.527568 
L 170.797114 190.9028 
L 169.753388 172.44837 
L 168.713353 161.882428 
L 167.676988 158.691408 
L 166.644275 157.155726 
L 165.615193 156.04294 
L 164.589725 155.330259 
L 163.56785 154.814507 
L 161.534808 154.155588 
L 157.511029 153.635571 
L 156.513791 153.005009 
L 155.52 150.954004 
L 153.542687 144.652119 
L 150.602125 136.956169 
L 149.628643 133.320891 
L 148.658486 128.388794 
L 146.728077 117.506698 
L 145.767792 113.306533 
L 144.810763 110.241849 
L 143.856975 108.124312 
L 142.906411 106.722272 
L 141.959055 105.900799 
L 141.014891 105.615684 
L 140.073901 105.770729 
L 139.136072 106.049678 
L 137.269827 106.223819 
L 136.341381 106.165648 
L 135.416031 105.945684 
L 134.493762 105.44824 
L 133.57456 104.653137 
L 131.74529 102.471467 
L 128.122874 97.654757 
L 126.329492 95.261724 
L 125.437205 94.278962 
L 124.547837 93.649428 
L 123.661371 93.455064 
L 121.897093 93.673603 
L 120.144259 94.045861 
L 118.402759 94.814733 
L 116.672481 95.660113 
L 115.811517 95.287414 
L 114.953319 94.100499 
L 114.097873 93.873835 
L 112.395184 94.361678 
L 111.547915 93.606336 
L 110.703346 92.03953 
L 109.022255 88.225806 
L 108.185708 87.834095 
L 106.520548 89.156916 
L 105.69191 89.458593 
L 104.865882 89.542351 
L 103.221613 89.215902 
L 101.587641 88.652031 
L 100.774487 88.566683 
L 99.963871 88.808907 
L 98.350207 89.645593 
L 97.547136 89.585385 
L 95.948456 89.146188 
L 91.994754 88.307177 
L 91.211294 88.363023 
L 90.430235 88.669206 
L 88.875275 89.632486 
L 88.101352 89.543582 
L 85.793684 87.9536 
L 85.029126 87.792495 
L 84.266882 88.069947 
L 83.506942 88.728567 
L 82.749296 89.927773 
L 81.993933 91.557786 
L 79.74144 97.142425 
L 78.251007 100.632906 
L 77.509129 103.32808 
L 76.769463 107.452015 
L 75.296729 118.683358 
L 74.563642 122.580586 
L 69.492341 139.889077 
L 68.776372 141.617647 
L 68.0625 142.645743 
L 67.350717 142.55679 
L 66.641013 141.50989 
L 65.933379 139.665554 
L 65.227806 138.18759 
L 64.524285 137.805937 
L 63.822807 139.162188 
L 62.425946 143.637896 
L 61.730545 144.994026 
L 61.037151 146.051374 
L 60.345757 147.722823 
L 59.656353 150.427803 
L 58.968931 154.825042 
L 58.283483 160.570519 
L 57.6 167.732433 
L 57.6 167.732433 
" clip-path="url(#p2d32e43e1e)" style="fill: none; stroke-dasharray: 5.55,2.4; stroke-dashoffset: 0; stroke: #000000; stroke-width: 1.5"/>
   </g>
   <g id="patch_3">
    <path d="M 57.6 307.584 
L 57.6 41.472 
" style="fill: none; stroke: #000000; stroke-width: 0.8; stroke-linejoin: miter; stroke-linecap: square"/>
   </g>
   <g id="patch_4">
    <path d="M 414.72 307.584 
L 414.72 41.472 
" style="fill: none; stroke: #000000; stroke-width: 0.8; stroke-linejoin: miter; stroke-linecap: square"/>
   </g>
   <g id="patch_5">
    <path d="M 57.6 307.584 
L 414.72 307.584 
" style="fill: none; stroke: #000000; stroke-width: 0.8; stroke-linejoin: miter; stroke-linecap: square"/>
   </g>
   <g id="patch_6">
    <path d="M 57.6 41.472 
L 414.72 41.472 
" style="fill: none; stroke: #000000; stroke-width: 0.8; stroke-linejoin: miter; stroke-linecap: square"/>
   </g>
  </g>
 </g>
 <defs>
  <clipPath id="p2d32e43e1e">
   <rect x="57.6" y="41.472" width="357.12" height="266.112"/>
  </clipPath>
 </defs>
</svg>
