<?xml version="1.0" encoding="utf-8" standalone="no"?>
<!DOCTYPE svg PUBLIC "-//W3C//DTD SVG 1.1//EN"
  "http://www.w3.org/Graphics/SVG/1.1/DTD/svg11.dtd">
<svg xmlns:xlink="http://www.w3.org/1999/xlink" width="460.8pt" height="345.6pt" viewBox="0 0 460.8 345.6" xmlns="http://www.w3.org/2000/svg" version="1.1">
 <metadata>
  <rdf:RDF xmlns:dc="http://purl.org/dc/elements/1.1/" xmlns:cc="http://creativecommons.org/ns#" xmlns:rdf="http://www.w3.org/1999/02/22-rdf-syntax-ns#">
   <cc:Work>
    <dc:type rdf:resource="http://purl.org/dc/dcmitype/StillImage"/>
    <dc:date>2024-05-07T17:16:11.478604</dc:date>
    <dc:format>image/svg+xml</dc:format>
    <dc:creator>
     <cc:Agent>
      <dc:title>Matplotlib v3.7.1, https://matplotlib.org/</dc:title>
     </cc:Agent>
    </dc:creator>
   </cc:Work>
  </rdf:RDF>
 </metadata>
 <defs>
  <style type="text/css">*{stroke-linejoin: round; stroke-linecap: butt}</style>
 </defs>
 <g id="figure_1">
  <g id="patch_1">
   <path d="M 0 345.6 
L 460.8 345.6 
L 460.8 0 
L 0 0 
L 0 345.6 
z
" style="fill: none"/>
  </g>
  <g id="axes_1">
   <g id="patch_2">
    <path d="M 57.6 307.584 
L 414.72 307.584 
L 414.72 41.472 
L 57.6 41.472 
L 57.6 307.584 
z
" style="fill: none"/>
   </g>
   <g id="matplotlib.axis_1">
    <g id="xtick_1">
     <g id="line2d_1">
      <defs>
       <path id="mebf239ef42" d="M 0 0 
L 0 -3.5 
" style="stroke: #000000; stroke-width: 0.8"/>
      </defs>
      <g>
       <use xlink:href="#mebf239ef42" x="57.6" y="307.584" style="stroke: #000000; stroke-width: 0.8"/>
      </g>
     </g>
     <g id="text_1">
      <!-- 0.40 -->
      <g transform="translate(46.467188 323.182437) scale(0.1 -0.1)">
       <defs>
        <path id="DejaVuSans-30" d="M 2034 4250 
Q 1547 4250 1301 3770 
Q 1056 3291 1056 2328 
Q 1056 1369 1301 889 
Q 1547 409 2034 409 
Q 2525 409 2770 889 
Q 3016 1369 3016 2328 
Q 3016 3291 2770 3770 
Q 2525 4250 2034 4250 
z
M 2034 4750 
Q 2819 4750 3233 4129 
Q 3647 3509 3647 2328 
Q 3647 1150 3233 529 
Q 2819 -91 2034 -91 
Q 1250 -91 836 529 
Q 422 1150 422 2328 
Q 422 3509 836 4129 
Q 1250 4750 2034 4750 
z
" transform="scale(0.015625)"/>
        <path id="DejaVuSans-2e" d="M 684 794 
L 1344 794 
L 1344 0 
L 684 0 
L 684 794 
z
" transform="scale(0.015625)"/>
        <path id="DejaVuSans-34" d="M 2419 4116 
L 825 1625 
L 2419 1625 
L 2419 4116 
z
M 2253 4666 
L 3047 4666 
L 3047 1625 
L 3713 1625 
L 3713 1100 
L 3047 1100 
L 3047 0 
L 2419 0 
L 2419 1100 
L 313 1100 
L 313 1709 
L 2253 4666 
z
" transform="scale(0.015625)"/>
       </defs>
       <use xlink:href="#DejaVuSans-30"/>
       <use xlink:href="#DejaVuSans-2e" x="63.623047"/>
       <use xlink:href="#DejaVuSans-34" x="95.410156"/>
       <use xlink:href="#DejaVuSans-30" x="159.033203"/>
      </g>
     </g>
    </g>
    <g id="xtick_2">
     <g id="line2d_2">
      <g>
       <use xlink:href="#mebf239ef42" x="117.12" y="307.584" style="stroke: #000000; stroke-width: 0.8"/>
      </g>
     </g>
     <g id="text_2">
      <!-- 0.45 -->
      <g transform="translate(105.987188 323.182437) scale(0.1 -0.1)">
       <defs>
        <path id="DejaVuSans-35" d="M 691 4666 
L 3169 4666 
L 3169 4134 
L 1269 4134 
L 1269 2991 
Q 1406 3038 1543 3061 
Q 1681 3084 1819 3084 
Q 2600 3084 3056 2656 
Q 3513 2228 3513 1497 
Q 3513 744 3044 326 
Q 2575 -91 1722 -91 
Q 1428 -91 1123 -41 
Q 819 9 494 109 
L 494 744 
Q 775 591 1075 516 
Q 1375 441 1709 441 
Q 2250 441 2565 725 
Q 2881 1009 2881 1497 
Q 2881 1984 2565 2268 
Q 2250 2553 1709 2553 
Q 1456 2553 1204 2497 
Q 953 2441 691 2322 
L 691 4666 
z
" transform="scale(0.015625)"/>
       </defs>
       <use xlink:href="#DejaVuSans-30"/>
       <use xlink:href="#DejaVuSans-2e" x="63.623047"/>
       <use xlink:href="#DejaVuSans-34" x="95.410156"/>
       <use xlink:href="#DejaVuSans-35" x="159.033203"/>
      </g>
     </g>
    </g>
    <g id="xtick_3">
     <g id="line2d_3">
      <g>
       <use xlink:href="#mebf239ef42" x="176.64" y="307.584" style="stroke: #000000; stroke-width: 0.8"/>
      </g>
     </g>
     <g id="text_3">
      <!-- 0.50 -->
      <g transform="translate(165.507188 323.182437) scale(0.1 -0.1)">
       <use xlink:href="#DejaVuSans-30"/>
       <use xlink:href="#DejaVuSans-2e" x="63.623047"/>
       <use xlink:href="#DejaVuSans-35" x="95.410156"/>
       <use xlink:href="#DejaVuSans-30" x="159.033203"/>
      </g>
     </g>
    </g>
    <g id="xtick_4">
     <g id="line2d_4">
      <g>
       <use xlink:href="#mebf239ef42" x="236.16" y="307.584" style="stroke: #000000; stroke-width: 0.8"/>
      </g>
     </g>
     <g id="text_4">
      <!-- 0.55 -->
      <g transform="translate(225.027188 323.182437) scale(0.1 -0.1)">
       <use xlink:href="#DejaVuSans-30"/>
       <use xlink:href="#DejaVuSans-2e" x="63.623047"/>
       <use xlink:href="#DejaVuSans-35" x="95.410156"/>
       <use xlink:href="#DejaVuSans-35" x="159.033203"/>
      </g>
     </g>
    </g>
    <g id="xtick_5">
     <g id="line2d_5">
      <g>
       <use xlink:href="#mebf239ef42" x="295.68" y="307.584" style="stroke: #000000; stroke-width: 0.8"/>
      </g>
     </g>
     <g id="text_5">
      <!-- 0.60 -->
      <g transform="translate(284.547188 323.182437) scale(0.1 -0.1)">
       <defs>
        <path id="DejaVuSans-36" d="M 2113 2584 
Q 1688 2584 1439 2293 
Q 1191 2003 1191 1497 
Q 1191 994 1439 701 
Q 1688 409 2113 409 
Q 2538 409 2786 701 
Q 3034 994 3034 1497 
Q 3034 2003 2786 2293 
Q 2538 2584 2113 2584 
z
M 3366 4563 
L 3366 3988 
Q 3128 4100 2886 4159 
Q 2644 4219 2406 4219 
Q 1781 4219 1451 3797 
Q 1122 3375 1075 2522 
Q 1259 2794 1537 2939 
Q 1816 3084 2150 3084 
Q 2853 3084 3261 2657 
Q 3669 2231 3669 1497 
Q 3669 778 3244 343 
Q 2819 -91 2113 -91 
Q 1303 -91 875 529 
Q 447 1150 447 2328 
Q 447 3434 972 4092 
Q 1497 4750 2381 4750 
Q 2619 4750 2861 4703 
Q 3103 4656 3366 4563 
z
" transform="scale(0.015625)"/>
       </defs>
       <use xlink:href="#DejaVuSans-30"/>
       <use xlink:href="#DejaVuSans-2e" x="63.623047"/>
       <use xlink:href="#DejaVuSans-36" x="95.410156"/>
       <use xlink:href="#DejaVuSans-30" x="159.033203"/>
      </g>
     </g>
    </g>
    <g id="xtick_6">
     <g id="line2d_6">
      <g>
       <use xlink:href="#mebf239ef42" x="355.2" y="307.584" style="stroke: #000000; stroke-width: 0.8"/>
      </g>
     </g>
     <g id="text_6">
      <!-- 0.65 -->
      <g transform="translate(344.067188 323.182437) scale(0.1 -0.1)">
       <use xlink:href="#DejaVuSans-30"/>
       <use xlink:href="#DejaVuSans-2e" x="63.623047"/>
       <use xlink:href="#DejaVuSans-36" x="95.410156"/>
       <use xlink:href="#DejaVuSans-35" x="159.033203"/>
      </g>
     </g>
    </g>
    <g id="xtick_7">
     <g id="line2d_7">
      <g>
       <use xlink:href="#mebf239ef42" x="414.72" y="307.584" style="stroke: #000000; stroke-width: 0.8"/>
      </g>
     </g>
     <g id="text_7">
      <!-- 0.70 -->
      <g transform="translate(403.587188 323.182437) scale(0.1 -0.1)">
       <defs>
        <path id="DejaVuSans-37" d="M 525 4666 
L 3525 4666 
L 3525 4397 
L 1831 0 
L 1172 0 
L 2766 4134 
L 525 4134 
L 525 4666 
z
" transform="scale(0.015625)"/>
       </defs>
       <use xlink:href="#DejaVuSans-30"/>
       <use xlink:href="#DejaVuSans-2e" x="63.623047"/>
       <use xlink:href="#DejaVuSans-37" x="95.410156"/>
       <use xlink:href="#DejaVuSans-30" x="159.033203"/>
      </g>
     </g>
    </g>
    <g id="text_8">
     <!-- Wavelength (μm) -->
     <g transform="translate(192.955312 336.860562) scale(0.1 -0.1)">
      <defs>
       <path id="DejaVuSans-57" d="M 213 4666 
L 850 4666 
L 1831 722 
L 2809 4666 
L 3519 4666 
L 4500 722 
L 5478 4666 
L 6119 4666 
L 4947 0 
L 4153 0 
L 3169 4050 
L 2175 0 
L 1381 0 
L 213 4666 
z
" transform="scale(0.015625)"/>
       <path id="DejaVuSans-61" d="M 2194 1759 
Q 1497 1759 1228 1600 
Q 959 1441 959 1056 
Q 959 750 1161 570 
Q 1363 391 1709 391 
Q 2188 391 2477 730 
Q 2766 1069 2766 1631 
L 2766 1759 
L 2194 1759 
z
M 3341 1997 
L 3341 0 
L 2766 0 
L 2766 531 
Q 2569 213 2275 61 
Q 1981 -91 1556 -91 
Q 1019 -91 701 211 
Q 384 513 384 1019 
Q 384 1609 779 1909 
Q 1175 2209 1959 2209 
L 2766 2209 
L 2766 2266 
Q 2766 2663 2505 2880 
Q 2244 3097 1772 3097 
Q 1472 3097 1187 3025 
Q 903 2953 641 2809 
L 641 3341 
Q 956 3463 1253 3523 
Q 1550 3584 1831 3584 
Q 2591 3584 2966 3190 
Q 3341 2797 3341 1997 
z
" transform="scale(0.015625)"/>
       <path id="DejaVuSans-76" d="M 191 3500 
L 800 3500 
L 1894 563 
L 2988 3500 
L 3597 3500 
L 2284 0 
L 1503 0 
L 191 3500 
z
" transform="scale(0.015625)"/>
       <path id="DejaVuSans-65" d="M 3597 1894 
L 3597 1613 
L 953 1613 
Q 991 1019 1311 708 
Q 1631 397 2203 397 
Q 2534 397 2845 478 
Q 3156 559 3463 722 
L 3463 178 
Q 3153 47 2828 -22 
Q 2503 -91 2169 -91 
Q 1331 -91 842 396 
Q 353 884 353 1716 
Q 353 2575 817 3079 
Q 1281 3584 2069 3584 
Q 2775 3584 3186 3129 
Q 3597 2675 3597 1894 
z
M 3022 2063 
Q 3016 2534 2758 2815 
Q 2500 3097 2075 3097 
Q 1594 3097 1305 2825 
Q 1016 2553 972 2059 
L 3022 2063 
z
" transform="scale(0.015625)"/>
       <path id="DejaVuSans-6c" d="M 603 4863 
L 1178 4863 
L 1178 0 
L 603 0 
L 603 4863 
z
" transform="scale(0.015625)"/>
       <path id="DejaVuSans-6e" d="M 3513 2113 
L 3513 0 
L 2938 0 
L 2938 2094 
Q 2938 2591 2744 2837 
Q 2550 3084 2163 3084 
Q 1697 3084 1428 2787 
Q 1159 2491 1159 1978 
L 1159 0 
L 581 0 
L 581 3500 
L 1159 3500 
L 1159 2956 
Q 1366 3272 1645 3428 
Q 1925 3584 2291 3584 
Q 2894 3584 3203 3211 
Q 3513 2838 3513 2113 
z
" transform="scale(0.015625)"/>
       <path id="DejaVuSans-67" d="M 2906 1791 
Q 2906 2416 2648 2759 
Q 2391 3103 1925 3103 
Q 1463 3103 1205 2759 
Q 947 2416 947 1791 
Q 947 1169 1205 825 
Q 1463 481 1925 481 
Q 2391 481 2648 825 
Q 2906 1169 2906 1791 
z
M 3481 434 
Q 3481 -459 3084 -895 
Q 2688 -1331 1869 -1331 
Q 1566 -1331 1297 -1286 
Q 1028 -1241 775 -1147 
L 775 -588 
Q 1028 -725 1275 -790 
Q 1522 -856 1778 -856 
Q 2344 -856 2625 -561 
Q 2906 -266 2906 331 
L 2906 616 
Q 2728 306 2450 153 
Q 2172 0 1784 0 
Q 1141 0 747 490 
Q 353 981 353 1791 
Q 353 2603 747 3093 
Q 1141 3584 1784 3584 
Q 2172 3584 2450 3431 
Q 2728 3278 2906 2969 
L 2906 3500 
L 3481 3500 
L 3481 434 
z
" transform="scale(0.015625)"/>
       <path id="DejaVuSans-74" d="M 1172 4494 
L 1172 3500 
L 2356 3500 
L 2356 3053 
L 1172 3053 
L 1172 1153 
Q 1172 725 1289 603 
Q 1406 481 1766 481 
L 2356 481 
L 2356 0 
L 1766 0 
Q 1100 0 847 248 
Q 594 497 594 1153 
L 594 3053 
L 172 3053 
L 172 3500 
L 594 3500 
L 594 4494 
L 1172 4494 
z
" transform="scale(0.015625)"/>
       <path id="DejaVuSans-68" d="M 3513 2113 
L 3513 0 
L 2938 0 
L 2938 2094 
Q 2938 2591 2744 2837 
Q 2550 3084 2163 3084 
Q 1697 3084 1428 2787 
Q 1159 2491 1159 1978 
L 1159 0 
L 581 0 
L 581 4863 
L 1159 4863 
L 1159 2956 
Q 1366 3272 1645 3428 
Q 1925 3584 2291 3584 
Q 2894 3584 3203 3211 
Q 3513 2838 3513 2113 
z
" transform="scale(0.015625)"/>
       <path id="DejaVuSans-20" transform="scale(0.015625)"/>
       <path id="DejaVuSans-28" d="M 1984 4856 
Q 1566 4138 1362 3434 
Q 1159 2731 1159 2009 
Q 1159 1288 1364 580 
Q 1569 -128 1984 -844 
L 1484 -844 
Q 1016 -109 783 600 
Q 550 1309 550 2009 
Q 550 2706 781 3412 
Q 1013 4119 1484 4856 
L 1984 4856 
z
" transform="scale(0.015625)"/>
       <path id="DejaVuSans-3bc" d="M 544 -1331 
L 544 3500 
L 1119 3500 
L 1119 1325 
Q 1119 872 1334 640 
Q 1550 409 1972 409 
Q 2434 409 2667 671 
Q 2900 934 2900 1459 
L 2900 3500 
L 3475 3500 
L 3475 806 
Q 3475 619 3529 530 
Q 3584 441 3700 441 
Q 3728 441 3778 458 
Q 3828 475 3916 513 
L 3916 50 
Q 3788 -22 3673 -56 
Q 3559 -91 3450 -91 
Q 3234 -91 3106 31 
Q 2978 153 2931 403 
Q 2775 156 2548 32 
Q 2322 -91 2016 -91 
Q 1697 -91 1473 31 
Q 1250 153 1119 397 
L 1119 -1331 
L 544 -1331 
z
" transform="scale(0.015625)"/>
       <path id="DejaVuSans-6d" d="M 3328 2828 
Q 3544 3216 3844 3400 
Q 4144 3584 4550 3584 
Q 5097 3584 5394 3201 
Q 5691 2819 5691 2113 
L 5691 0 
L 5113 0 
L 5113 2094 
Q 5113 2597 4934 2840 
Q 4756 3084 4391 3084 
Q 3944 3084 3684 2787 
Q 3425 2491 3425 1978 
L 3425 0 
L 2847 0 
L 2847 2094 
Q 2847 2600 2669 2842 
Q 2491 3084 2119 3084 
Q 1678 3084 1418 2786 
Q 1159 2488 1159 1978 
L 1159 0 
L 581 0 
L 581 3500 
L 1159 3500 
L 1159 2956 
Q 1356 3278 1631 3431 
Q 1906 3584 2284 3584 
Q 2666 3584 2933 3390 
Q 3200 3197 3328 2828 
z
" transform="scale(0.015625)"/>
       <path id="DejaVuSans-29" d="M 513 4856 
L 1013 4856 
Q 1481 4119 1714 3412 
Q 1947 2706 1947 2009 
Q 1947 1309 1714 600 
Q 1481 -109 1013 -844 
L 513 -844 
Q 928 -128 1133 580 
Q 1338 1288 1338 2009 
Q 1338 2731 1133 3434 
Q 928 4138 513 4856 
z
" transform="scale(0.015625)"/>
      </defs>
      <use xlink:href="#DejaVuSans-57"/>
      <use xlink:href="#DejaVuSans-61" x="92.501953"/>
      <use xlink:href="#DejaVuSans-76" x="153.78125"/>
      <use xlink:href="#DejaVuSans-65" x="212.960938"/>
      <use xlink:href="#DejaVuSans-6c" x="274.484375"/>
      <use xlink:href="#DejaVuSans-65" x="302.267578"/>
      <use xlink:href="#DejaVuSans-6e" x="363.791016"/>
      <use xlink:href="#DejaVuSans-67" x="427.169922"/>
      <use xlink:href="#DejaVuSans-74" x="490.646484"/>
      <use xlink:href="#DejaVuSans-68" x="529.855469"/>
      <use xlink:href="#DejaVuSans-20" x="593.234375"/>
      <use xlink:href="#DejaVuSans-28" x="625.021484"/>
      <use xlink:href="#DejaVuSans-3bc" x="664.035156"/>
      <use xlink:href="#DejaVuSans-6d" x="727.658203"/>
      <use xlink:href="#DejaVuSans-29" x="825.070312"/>
     </g>
    </g>
   </g>
   <g id="matplotlib.axis_2">
    <g id="ytick_1">
     <g id="line2d_8">
      <defs>
       <path id="m321a33303c" d="M 0 0 
L 3.5 0 
" style="stroke: #000000; stroke-width: 0.8"/>
      </defs>
      <g>
       <use xlink:href="#m321a33303c" x="57.6" y="307.584" style="stroke: #000000; stroke-width: 0.8"/>
      </g>
     </g>
     <g id="text_9">
      <!-- 0.0 -->
      <g transform="translate(31.696875 311.383219) scale(0.1 -0.1)">
       <use xlink:href="#DejaVuSans-30"/>
       <use xlink:href="#DejaVuSans-2e" x="63.623047"/>
       <use xlink:href="#DejaVuSans-30" x="95.410156"/>
      </g>
     </g>
    </g>
    <g id="ytick_2">
     <g id="line2d_9">
      <g>
       <use xlink:href="#m321a33303c" x="57.6" y="254.3616" style="stroke: #000000; stroke-width: 0.8"/>
      </g>
     </g>
     <g id="text_10">
      <!-- 0.2 -->
      <g transform="translate(31.696875 258.160819) scale(0.1 -0.1)">
       <defs>
        <path id="DejaVuSans-32" d="M 1228 531 
L 3431 531 
L 3431 0 
L 469 0 
L 469 531 
Q 828 903 1448 1529 
Q 2069 2156 2228 2338 
Q 2531 2678 2651 2914 
Q 2772 3150 2772 3378 
Q 2772 3750 2511 3984 
Q 2250 4219 1831 4219 
Q 1534 4219 1204 4116 
Q 875 4013 500 3803 
L 500 4441 
Q 881 4594 1212 4672 
Q 1544 4750 1819 4750 
Q 2544 4750 2975 4387 
Q 3406 4025 3406 3419 
Q 3406 3131 3298 2873 
Q 3191 2616 2906 2266 
Q 2828 2175 2409 1742 
Q 1991 1309 1228 531 
z
" transform="scale(0.015625)"/>
       </defs>
       <use xlink:href="#DejaVuSans-30"/>
       <use xlink:href="#DejaVuSans-2e" x="63.623047"/>
       <use xlink:href="#DejaVuSans-32" x="95.410156"/>
      </g>
     </g>
    </g>
    <g id="ytick_3">
     <g id="line2d_10">
      <g>
       <use xlink:href="#m321a33303c" x="57.6" y="201.1392" style="stroke: #000000; stroke-width: 0.8"/>
      </g>
     </g>
     <g id="text_11">
      <!-- 0.4 -->
      <g transform="translate(31.696875 204.938419) scale(0.1 -0.1)">
       <use xlink:href="#DejaVuSans-30"/>
       <use xlink:href="#DejaVuSans-2e" x="63.623047"/>
       <use xlink:href="#DejaVuSans-34" x="95.410156"/>
      </g>
     </g>
    </g>
    <g id="ytick_4">
     <g id="line2d_11">
      <g>
       <use xlink:href="#m321a33303c" x="57.6" y="147.9168" style="stroke: #000000; stroke-width: 0.8"/>
      </g>
     </g>
     <g id="text_12">
      <!-- 0.6 -->
      <g transform="translate(31.696875 151.716019) scale(0.1 -0.1)">
       <use xlink:href="#DejaVuSans-30"/>
       <use xlink:href="#DejaVuSans-2e" x="63.623047"/>
       <use xlink:href="#DejaVuSans-36" x="95.410156"/>
      </g>
     </g>
    </g>
    <g id="ytick_5">
     <g id="line2d_12">
      <g>
       <use xlink:href="#m321a33303c" x="57.6" y="94.6944" style="stroke: #000000; stroke-width: 0.8"/>
      </g>
     </g>
     <g id="text_13">
      <!-- 0.8 -->
      <g transform="translate(31.696875 98.493619) scale(0.1 -0.1)">
       <defs>
        <path id="DejaVuSans-38" d="M 2034 2216 
Q 1584 2216 1326 1975 
Q 1069 1734 1069 1313 
Q 1069 891 1326 650 
Q 1584 409 2034 409 
Q 2484 409 2743 651 
Q 3003 894 3003 1313 
Q 3003 1734 2745 1975 
Q 2488 2216 2034 2216 
z
M 1403 2484 
Q 997 2584 770 2862 
Q 544 3141 544 3541 
Q 544 4100 942 4425 
Q 1341 4750 2034 4750 
Q 2731 4750 3128 4425 
Q 3525 4100 3525 3541 
Q 3525 3141 3298 2862 
Q 3072 2584 2669 2484 
Q 3125 2378 3379 2068 
Q 3634 1759 3634 1313 
Q 3634 634 3220 271 
Q 2806 -91 2034 -91 
Q 1263 -91 848 271 
Q 434 634 434 1313 
Q 434 1759 690 2068 
Q 947 2378 1403 2484 
z
M 1172 3481 
Q 1172 3119 1398 2916 
Q 1625 2713 2034 2713 
Q 2441 2713 2670 2916 
Q 2900 3119 2900 3481 
Q 2900 3844 2670 4047 
Q 2441 4250 2034 4250 
Q 1625 4250 1398 4047 
Q 1172 3844 1172 3481 
z
" transform="scale(0.015625)"/>
       </defs>
       <use xlink:href="#DejaVuSans-30"/>
       <use xlink:href="#DejaVuSans-2e" x="63.623047"/>
       <use xlink:href="#DejaVuSans-38" x="95.410156"/>
      </g>
     </g>
    </g>
    <g id="ytick_6">
     <g id="line2d_13">
      <g>
       <use xlink:href="#m321a33303c" x="57.6" y="41.472" style="stroke: #000000; stroke-width: 0.8"/>
      </g>
     </g>
     <g id="text_14">
      <!-- 1.0 -->
      <g transform="translate(31.696875 45.271219) scale(0.1 -0.1)">
       <defs>
        <path id="DejaVuSans-31" d="M 794 531 
L 1825 531 
L 1825 4091 
L 703 3866 
L 703 4441 
L 1819 4666 
L 2450 4666 
L 2450 531 
L 3481 531 
L 3481 0 
L 794 0 
L 794 531 
z
" transform="scale(0.015625)"/>
       </defs>
       <use xlink:href="#DejaVuSans-31"/>
       <use xlink:href="#DejaVuSans-2e" x="63.623047"/>
       <use xlink:href="#DejaVuSans-30" x="95.410156"/>
      </g>
     </g>
    </g>
    <g id="text_15">
     <!-- Optical efficiency -->
     <g transform="translate(25.617187 217.856906) rotate(-90) scale(0.1 -0.1)">
      <defs>
       <path id="DejaVuSans-4f" d="M 2522 4238 
Q 1834 4238 1429 3725 
Q 1025 3213 1025 2328 
Q 1025 1447 1429 934 
Q 1834 422 2522 422 
Q 3209 422 3611 934 
Q 4013 1447 4013 2328 
Q 4013 3213 3611 3725 
Q 3209 4238 2522 4238 
z
M 2522 4750 
Q 3503 4750 4090 4092 
Q 4678 3434 4678 2328 
Q 4678 1225 4090 567 
Q 3503 -91 2522 -91 
Q 1538 -91 948 565 
Q 359 1222 359 2328 
Q 359 3434 948 4092 
Q 1538 4750 2522 4750 
z
" transform="scale(0.015625)"/>
       <path id="DejaVuSans-70" d="M 1159 525 
L 1159 -1331 
L 581 -1331 
L 581 3500 
L 1159 3500 
L 1159 2969 
Q 1341 3281 1617 3432 
Q 1894 3584 2278 3584 
Q 2916 3584 3314 3078 
Q 3713 2572 3713 1747 
Q 3713 922 3314 415 
Q 2916 -91 2278 -91 
Q 1894 -91 1617 61 
Q 1341 213 1159 525 
z
M 3116 1747 
Q 3116 2381 2855 2742 
Q 2594 3103 2138 3103 
Q 1681 3103 1420 2742 
Q 1159 2381 1159 1747 
Q 1159 1113 1420 752 
Q 1681 391 2138 391 
Q 2594 391 2855 752 
Q 3116 1113 3116 1747 
z
" transform="scale(0.015625)"/>
       <path id="DejaVuSans-69" d="M 603 3500 
L 1178 3500 
L 1178 0 
L 603 0 
L 603 3500 
z
M 603 4863 
L 1178 4863 
L 1178 4134 
L 603 4134 
L 603 4863 
z
" transform="scale(0.015625)"/>
       <path id="DejaVuSans-63" d="M 3122 3366 
L 3122 2828 
Q 2878 2963 2633 3030 
Q 2388 3097 2138 3097 
Q 1578 3097 1268 2742 
Q 959 2388 959 1747 
Q 959 1106 1268 751 
Q 1578 397 2138 397 
Q 2388 397 2633 464 
Q 2878 531 3122 666 
L 3122 134 
Q 2881 22 2623 -34 
Q 2366 -91 2075 -91 
Q 1284 -91 818 406 
Q 353 903 353 1747 
Q 353 2603 823 3093 
Q 1294 3584 2113 3584 
Q 2378 3584 2631 3529 
Q 2884 3475 3122 3366 
z
" transform="scale(0.015625)"/>
       <path id="DejaVuSans-66" d="M 2375 4863 
L 2375 4384 
L 1825 4384 
Q 1516 4384 1395 4259 
Q 1275 4134 1275 3809 
L 1275 3500 
L 2222 3500 
L 2222 3053 
L 1275 3053 
L 1275 0 
L 697 0 
L 697 3053 
L 147 3053 
L 147 3500 
L 697 3500 
L 697 3744 
Q 697 4328 969 4595 
Q 1241 4863 1831 4863 
L 2375 4863 
z
" transform="scale(0.015625)"/>
       <path id="DejaVuSans-79" d="M 2059 -325 
Q 1816 -950 1584 -1140 
Q 1353 -1331 966 -1331 
L 506 -1331 
L 506 -850 
L 844 -850 
Q 1081 -850 1212 -737 
Q 1344 -625 1503 -206 
L 1606 56 
L 191 3500 
L 800 3500 
L 1894 763 
L 2988 3500 
L 3597 3500 
L 2059 -325 
z
" transform="scale(0.015625)"/>
      </defs>
      <use xlink:href="#DejaVuSans-4f"/>
      <use xlink:href="#DejaVuSans-70" x="78.710938"/>
      <use xlink:href="#DejaVuSans-74" x="142.1875"/>
      <use xlink:href="#DejaVuSans-69" x="181.396484"/>
      <use xlink:href="#DejaVuSans-63" x="209.179688"/>
      <use xlink:href="#DejaVuSans-61" x="264.160156"/>
      <use xlink:href="#DejaVuSans-6c" x="325.439453"/>
      <use xlink:href="#DejaVuSans-20" x="353.222656"/>
      <use xlink:href="#DejaVuSans-65" x="385.009766"/>
      <use xlink:href="#DejaVuSans-66" x="446.533203"/>
      <use xlink:href="#DejaVuSans-66" x="481.738281"/>
      <use xlink:href="#DejaVuSans-69" x="516.943359"/>
      <use xlink:href="#DejaVuSans-63" x="544.726562"/>
      <use xlink:href="#DejaVuSans-69" x="599.707031"/>
      <use xlink:href="#DejaVuSans-65" x="627.490234"/>
      <use xlink:href="#DejaVuSans-6e" x="689.013672"/>
      <use xlink:href="#DejaVuSans-63" x="752.392578"/>
      <use xlink:href="#DejaVuSans-79" x="807.373047"/>
     </g>
    </g>
   </g>
   <g id="line2d_14">
    <path d="M 414.72 152.34013 
L 412.635063 152.034746 
L 410.560532 151.532242 
L 408.496332 150.796881 
L 404.398613 148.616446 
L 398.327607 145.272053 
L 396.323794 144.419807 
L 394.329788 143.808935 
L 392.345517 143.589678 
L 388.405895 143.839903 
L 386.450404 143.643368 
L 384.504367 143.029989 
L 382.567717 141.983692 
L 378.722304 139.198794 
L 376.813408 137.793283 
L 374.913631 136.555793 
L 373.022907 135.60265 
L 371.141173 134.932155 
L 369.268364 134.519097 
L 367.404416 134.373149 
L 365.549268 134.477501 
L 363.702857 134.81622 
L 361.865121 135.384302 
L 360.036 136.139238 
L 354.599721 138.865569 
L 352.804458 139.835173 
L 351.017514 141.045202 
L 349.238829 142.555733 
L 345.706012 145.919117 
L 343.951767 147.282881 
L 342.205557 148.225782 
L 338.737021 149.718032 
L 335.29997 151.686972 
L 333.593117 152.388128 
L 331.893976 152.568186 
L 330.202494 152.26818 
L 326.842304 151.254702 
L 325.173493 151.117441 
L 323.512137 151.367984 
L 321.858187 151.919145 
L 320.211594 152.796955 
L 318.572308 154.195691 
L 316.94028 156.31835 
L 315.315464 159.186812 
L 310.483804 169.181864 
L 308.887358 172.817726 
L 307.297888 176.997626 
L 304.139695 186.592977 
L 297.905047 207.170777 
L 296.363156 211.618567 
L 294.827888 215.443177 
L 293.2992 218.761267 
L 291.777049 221.703821 
L 290.261394 224.258755 
L 288.752193 226.328011 
L 287.249405 227.854557 
L 285.752989 228.888902 
L 282.779113 230.341162 
L 281.301573 231.421107 
L 279.830245 233.153572 
L 278.365091 235.652145 
L 274.006282 244.955499 
L 272.565437 247.364473 
L 271.130574 249.219241 
L 268.278649 252.254485 
L 266.861513 253.508778 
L 265.450213 254.344776 
L 262.644976 255.370753 
L 261.250969 256.049014 
L 259.862655 256.928338 
L 258.48 257.998366 
L 255.731529 260.580916 
L 253.005283 263.186807 
L 251.65041 264.2153 
L 250.300993 264.972566 
L 248.956999 265.461038 
L 247.618396 265.725591 
L 244.95723 265.860915 
L 242.317241 265.724158 
L 235.808273 264.847433 
L 233.240445 264.441641 
L 231.964073 264.548195 
L 230.692691 265.017516 
L 228.164776 266.412734 
L 223.167547 269.460504 
L 219.470013 272.11102 
L 218.246952 272.764451 
L 217.028571 273.147321 
L 215.814844 273.214753 
L 214.605743 272.824804 
L 213.401243 271.8663 
L 212.201316 270.450034 
L 211.005938 268.73265 
L 208.628722 264.966919 
L 207.446834 263.68325 
L 206.269392 263.105334 
L 205.09637 262.966098 
L 201.603584 262.828641 
L 200.448 262.635055 
L 199.296714 262.290516 
L 198.149703 261.761497 
L 195.868409 260.320931 
L 194.73408 259.388695 
L 193.603931 258.240677 
L 191.356083 255.410548 
L 189.124683 252.409663 
L 188.015094 251.063282 
L 186.90955 249.938643 
L 185.808029 249.12834 
L 184.710508 248.70217 
L 183.616967 248.78261 
L 182.527382 249.517783 
L 181.441734 250.884996 
L 179.28216 254.591143 
L 176.07179 260.250623 
L 173.95063 263.450289 
L 172.895715 264.720945 
L 170.797114 266.824165 
L 169.753388 267.783274 
L 168.713353 268.566432 
L 167.676988 268.96238 
L 166.644275 268.809564 
L 165.615193 268.111179 
L 163.56785 266.115942 
L 162.549551 265.543137 
L 161.534808 265.49944 
L 160.523603 265.9148 
L 159.515916 266.667614 
L 158.511731 267.706723 
L 157.511029 269.065164 
L 156.513791 270.757801 
L 154.529638 274.554512 
L 153.542687 276.211118 
L 152.559129 277.500005 
L 151.578947 278.335146 
L 150.602125 278.647882 
L 149.628643 278.414256 
L 148.658486 277.71564 
L 145.767792 274.940074 
L 144.810763 274.288986 
L 143.856975 273.793221 
L 142.906411 273.45918 
L 141.959055 273.368497 
L 141.014891 273.622601 
L 140.073901 274.261762 
L 139.136072 275.231923 
L 137.269827 277.530185 
L 136.341381 278.487597 
L 134.493762 279.895133 
L 131.74529 282.078781 
L 129.928101 283.413273 
L 128.122874 284.403154 
L 127.22471 284.675459 
L 125.437205 284.835694 
L 123.661371 285.018055 
L 122.777795 285.308954 
L 120.144259 286.575923 
L 119.272099 286.541535 
L 118.402759 286.089395 
L 114.953319 283.145965 
L 114.097873 282.739257 
L 113.245165 282.662888 
L 112.395184 282.967554 
L 111.547915 283.647057 
L 108.185708 287.319965 
L 107.35181 287.78858 
L 106.520548 287.978378 
L 105.69191 287.818116 
L 104.865882 287.223933 
L 102.403346 284.133307 
L 101.587641 283.682292 
L 100.774487 283.79495 
L 99.963871 284.346762 
L 98.350207 286.116196 
L 96.746556 287.856269 
L 95.948456 288.434041 
L 91.994754 290.331505 
L 91.211294 290.364824 
L 90.430235 290.120953 
L 88.875275 289.41725 
L 87.329787 288.951176 
L 86.560568 288.580259 
L 85.793684 287.953151 
L 85.029126 287.044442 
L 83.506942 284.57887 
L 81.240843 280.479767 
L 80.490015 279.467026 
L 79.74144 278.740812 
L 78.251007 277.750031 
L 77.509129 277.319032 
L 76.769463 277.112897 
L 76.032 277.285986 
L 72.377379 279.65132 
L 71.652927 280.325509 
L 70.210417 282.308244 
L 68.776372 284.132754 
L 68.0625 284.633368 
L 67.350717 284.749955 
L 65.227806 284.189802 
L 64.524285 284.389388 
L 63.123364 285.261506 
L 62.425946 285.462067 
L 61.730545 285.121978 
L 61.037151 284.146355 
L 58.283483 278.444307 
L 57.6 277.986638 
L 57.6 277.986638 
" clip-path="url(#pff3643a578)" style="fill: none; stroke: #000000; stroke-width: 1.5; stroke-linecap: square"/>
   </g>
   <g id="line2d_15">
    <path d="M 414.72 264.220097 
L 412.635063 264.097333 
L 410.560532 264.106864 
L 408.496332 264.386417 
L 406.442384 265.031664 
L 404.398613 265.987716 
L 398.327607 269.455549 
L 396.323794 270.235554 
L 394.329788 270.540169 
L 392.345517 270.233727 
L 390.370909 269.378159 
L 386.450404 267.33139 
L 384.504367 266.724218 
L 382.567717 266.552463 
L 380.640385 266.786083 
L 378.722304 267.356599 
L 374.913631 269.095242 
L 371.141173 270.83173 
L 369.268364 271.486193 
L 367.404416 271.920432 
L 365.549268 272.148316 
L 363.702857 272.208144 
L 360.036 271.963179 
L 356.403359 271.269251 
L 349.238829 269.568606 
L 347.468347 269.26898 
L 345.706012 269.101441 
L 342.205557 269.157513 
L 340.467327 269.235533 
L 338.737021 269.196187 
L 337.014587 268.924625 
L 335.29997 268.471514 
L 333.593117 268.184961 
L 331.893976 268.460082 
L 330.202494 269.322155 
L 328.518621 270.369882 
L 326.842304 271.126514 
L 325.173493 271.39423 
L 323.512137 271.24224 
L 321.858187 270.701299 
L 320.211594 269.645536 
L 318.572308 267.997621 
L 316.94028 265.813531 
L 315.315464 263.171709 
L 312.087273 257.422767 
L 307.297888 249.746737 
L 301.008866 238.07704 
L 299.453602 235.406005 
L 297.905047 232.459618 
L 296.363156 228.919649 
L 294.827888 224.724483 
L 291.777049 215.097077 
L 290.261394 210.25465 
L 288.752193 205.867434 
L 287.249405 202.241474 
L 285.752989 199.5828 
L 284.262906 197.930414 
L 282.779113 197.128435 
L 281.301573 196.927586 
L 276.906071 197.353188 
L 274.006282 197.178617 
L 272.565437 196.902851 
L 271.130574 196.273438 
L 269.701657 194.875657 
L 268.278649 192.510716 
L 265.450213 186.742789 
L 262.644976 181.900976 
L 259.862655 177.5187 
L 258.48 175.5811 
L 257.102969 173.867907 
L 255.731529 172.436499 
L 254.365645 171.357717 
L 253.005283 170.613538 
L 250.300993 169.598468 
L 248.956999 169.225305 
L 247.618396 169.028304 
L 244.95723 169.077881 
L 242.317241 169.086978 
L 239.698177 168.732589 
L 238.396414 168.393764 
L 237.099789 167.898523 
L 235.808273 167.257883 
L 234.521835 166.436182 
L 233.240445 165.287817 
L 229.426268 160.929395 
L 228.164776 159.986425 
L 226.908187 159.462967 
L 225.656471 159.457455 
L 224.4096 160.004348 
L 223.167547 161.043086 
L 221.930283 162.477759 
L 220.697781 164.216123 
L 219.470013 166.208522 
L 217.028571 170.771238 
L 214.605743 175.757085 
L 213.401243 177.69933 
L 212.201316 178.720244 
L 211.005938 179.270995 
L 209.815082 180.098736 
L 208.628722 181.25854 
L 207.446834 182.25089 
L 206.269392 182.791561 
L 203.927745 183.161002 
L 202.763491 183.605156 
L 201.603584 184.60403 
L 200.448 186.41784 
L 199.296714 189.275251 
L 198.149703 193.116756 
L 195.868409 202.269643 
L 193.603931 212.372465 
L 188.015094 238.263859 
L 185.808029 247.572237 
L 184.710508 251.824771 
L 183.616967 255.4604 
L 182.527382 258.28071 
L 181.441734 260.362376 
L 180.36 261.920676 
L 179.28216 263.114677 
L 178.208192 264.027945 
L 177.138075 264.712482 
L 176.07179 265.207003 
L 172.895715 266.265522 
L 171.84455 266.872745 
L 170.797114 267.736467 
L 168.713353 269.942032 
L 166.644275 272.44193 
L 164.589725 275.475335 
L 162.549551 278.886284 
L 161.534808 280.36422 
L 160.523603 281.42426 
L 159.515916 282.004761 
L 156.513791 282.60516 
L 155.52 283.144769 
L 153.542687 284.618577 
L 152.559129 285.162915 
L 151.578947 285.378173 
L 150.602125 285.203655 
L 149.628643 284.6456 
L 148.658486 283.778921 
L 145.767792 280.843347 
L 144.810763 280.222722 
L 143.856975 279.927065 
L 142.906411 279.96894 
L 141.959055 280.301891 
L 139.136072 281.8482 
L 134.493762 283.552389 
L 133.57456 284.038643 
L 132.658407 284.658991 
L 131.74529 285.515149 
L 129.024 288.656255 
L 128.122874 289.335783 
L 125.437205 290.735781 
L 123.661371 291.54933 
L 122.777795 291.78273 
L 121.897093 291.848337 
L 120.144259 291.604687 
L 111.547915 289.814767 
L 109.861463 289.173567 
L 109.022255 289.155761 
L 108.185708 289.39553 
L 103.221613 291.781072 
L 101.587641 292.771575 
L 100.774487 292.968452 
L 99.963871 292.917161 
L 98.350207 292.611665 
L 97.547136 292.715431 
L 96.746556 293.148609 
L 95.948456 293.907635 
L 94.35965 296.062367 
L 93.568921 297.171016 
L 92.780626 298.044162 
L 91.994754 298.554984 
L 91.211294 298.684909 
L 90.430235 298.478198 
L 88.875275 297.448596 
L 87.329787 296.414261 
L 85.793684 295.82331 
L 84.266882 295.212405 
L 83.506942 294.745165 
L 82.749296 294.128077 
L 81.240843 292.516413 
L 79.74144 290.974262 
L 78.995107 290.530979 
L 78.251007 290.438758 
L 77.509129 290.733981 
L 76.769463 291.354545 
L 73.832727 294.478447 
L 73.103976 294.974054 
L 72.377379 295.2748 
L 71.652927 295.354831 
L 70.930609 295.243034 
L 69.492341 294.683823 
L 68.776372 294.299434 
L 68.0625 293.789608 
L 67.350717 293.064237 
L 65.933379 290.987945 
L 65.227806 289.919902 
L 64.524285 289.161212 
L 63.822807 288.943636 
L 63.123364 289.422873 
L 62.425946 290.605969 
L 61.037151 293.646856 
L 60.345757 294.646376 
L 59.656353 295.089145 
L 58.968931 295.015483 
L 58.283483 294.503848 
L 57.6 293.598616 
L 57.6 293.598616 
" clip-path="url(#pff3643a578)" style="fill: none; stroke: #000000; stroke-width: 1.5; stroke-linecap: square"/>
   </g>
   <g id="line2d_16">
    <path d="M 414.72 298.474222 
L 412.635063 298.058705 
L 408.496332 296.909763 
L 402.364942 295.089432 
L 398.327607 294.142243 
L 390.370909 292.649719 
L 388.405895 292.368295 
L 384.504367 292.203409 
L 380.640385 292.371288 
L 376.813408 292.934838 
L 373.022907 293.875918 
L 367.404416 295.281406 
L 363.702857 295.899265 
L 358.215433 296.699371 
L 354.599721 297.318727 
L 352.804458 297.453112 
L 351.017514 297.389823 
L 349.238829 297.133454 
L 347.468347 296.707488 
L 342.205557 295.084794 
L 340.467327 294.726871 
L 338.737021 294.509358 
L 337.014587 294.442496 
L 331.893976 294.717847 
L 330.202494 294.878679 
L 328.518621 295.186457 
L 326.842304 295.680475 
L 321.858187 297.474675 
L 320.211594 297.912575 
L 318.572308 298.193394 
L 315.315464 298.385882 
L 313.69781 298.314254 
L 310.483804 297.803021 
L 305.715349 296.824391 
L 297.905047 295.297892 
L 294.827888 295.164423 
L 293.2992 295.124283 
L 291.777049 294.950026 
L 288.752193 294.219943 
L 287.249405 293.855123 
L 285.752989 293.617255 
L 284.262906 293.543001 
L 281.301573 293.647101 
L 279.830245 293.552879 
L 278.365091 293.20185 
L 276.906071 292.562924 
L 275.453148 291.687337 
L 272.565437 289.70424 
L 271.130574 289.009974 
L 269.701657 288.885712 
L 268.278649 289.365649 
L 265.450213 290.795993 
L 259.862655 292.964941 
L 258.48 293.504264 
L 257.102969 293.847469 
L 255.731529 293.880119 
L 254.365645 293.595785 
L 253.005283 293.078784 
L 250.300993 291.716286 
L 248.956999 290.904995 
L 247.618396 289.928007 
L 244.95723 287.467076 
L 242.317241 284.927388 
L 241.005109 283.905068 
L 239.698177 283.121977 
L 238.396414 282.559938 
L 237.099789 282.17478 
L 235.808273 281.997714 
L 234.521835 282.191311 
L 233.240445 282.835917 
L 231.964073 283.691805 
L 230.692691 284.396127 
L 229.426268 284.811508 
L 228.164776 284.991892 
L 226.908187 284.986284 
L 225.656471 284.815022 
L 224.4096 284.455018 
L 223.167547 283.804468 
L 221.930283 282.765955 
L 220.697781 281.307184 
L 219.470013 279.442323 
L 217.028571 274.901827 
L 215.814844 272.612712 
L 214.605743 270.789036 
L 213.401243 269.872693 
L 212.201316 269.982365 
L 211.005938 270.939389 
L 209.815082 272.598924 
L 206.269392 278.854969 
L 205.09637 280.357668 
L 203.927745 281.552439 
L 202.763491 282.394847 
L 201.603584 282.811921 
L 200.448 282.710073 
L 199.296714 281.944496 
L 198.149703 280.483993 
L 197.006943 278.517606 
L 191.356083 267.67366 
L 189.124683 263.594142 
L 188.015094 261.309591 
L 186.90955 258.778122 
L 184.710508 252.950795 
L 181.441734 243.956892 
L 179.28216 238.496724 
L 178.208192 236.230273 
L 177.138075 234.435444 
L 176.07179 233.168682 
L 175.009315 232.397423 
L 173.95063 231.912107 
L 172.895715 231.295615 
L 171.84455 230.105239 
L 170.797114 228.126178 
L 169.753388 225.41658 
L 168.713353 222.156719 
L 166.644275 214.684996 
L 163.56785 202.612469 
L 161.534808 194.321058 
L 160.523603 190.749287 
L 159.515916 187.886866 
L 158.511731 185.689028 
L 155.52 180.09102 
L 153.542687 176.070227 
L 152.559129 174.526965 
L 151.578947 173.605333 
L 150.602125 173.453227 
L 149.628643 174.077759 
L 146.728077 177.727195 
L 145.767792 178.313662 
L 144.810763 178.298003 
L 143.856975 177.662814 
L 142.906411 176.396758 
L 141.959055 174.507606 
L 141.014891 172.081488 
L 135.416031 155.959345 
L 133.57456 151.663661 
L 130.835193 145.863997 
L 129.928101 144.350869 
L 129.024 143.307423 
L 128.122874 142.76865 
L 127.22471 142.624031 
L 125.437205 142.667525 
L 123.661371 142.445674 
L 121.019253 141.627221 
L 120.144259 141.769917 
L 119.272099 142.456113 
L 118.402759 143.687766 
L 114.953319 149.95919 
L 114.097873 150.711555 
L 113.245165 150.721271 
L 112.395184 150.109774 
L 111.547915 149.097795 
L 110.703346 147.77782 
L 109.022255 144.392281 
L 108.185708 142.706267 
L 107.35181 141.413777 
L 106.520548 140.823784 
L 105.69191 141.221828 
L 104.865882 142.718701 
L 102.403346 149.759576 
L 101.587641 151.273072 
L 100.774487 152.170074 
L 99.963871 152.566142 
L 99.155782 152.508738 
L 98.350207 152.011894 
L 97.547136 151.147768 
L 95.948456 148.758882 
L 94.35965 146.030795 
L 93.568921 144.92814 
L 92.780626 144.261842 
L 91.994754 144.153837 
L 91.211294 144.686067 
L 90.430235 145.868117 
L 88.101352 150.981993 
L 87.329787 152.213865 
L 86.560568 152.959286 
L 84.266882 153.965877 
L 83.506942 154.760478 
L 82.749296 155.933529 
L 81.240843 159.075519 
L 79.74144 162.258714 
L 78.251007 164.925873 
L 77.509129 166.061608 
L 76.769463 166.833605 
L 76.032 167.112584 
L 73.832727 166.847136 
L 73.103976 167.07143 
L 72.377379 167.532786 
L 71.652927 168.216669 
L 70.930609 169.191157 
L 70.210417 170.537195 
L 69.492341 172.295365 
L 68.776372 174.566138 
L 68.0625 177.61595 
L 67.350717 181.797897 
L 65.933379 193.291274 
L 65.227806 199.141322 
L 64.524285 203.910556 
L 63.822807 207.214102 
L 63.123364 209.202121 
L 62.425946 210.392367 
L 61.037151 212.308762 
L 60.345757 213.583038 
L 57.6 219.899126 
L 57.6 219.899126 
" clip-path="url(#pff3643a578)" style="fill: none; stroke: #000000; stroke-width: 1.5; stroke-linecap: square"/>
   </g>
   <g id="line2d_17">
    <path d="M 414.72 165.223095 
L 410.560532 162.82641 
L 408.496332 161.419202 
L 402.364942 156.777283 
L 400.341298 155.405442 
L 398.327607 154.262277 
L 396.323794 153.402134 
L 394.329788 152.836672 
L 392.345517 152.626614 
L 390.370909 152.584867 
L 388.405895 152.32052 
L 386.450404 151.647392 
L 384.504367 150.567434 
L 382.567717 149.142014 
L 376.813408 144.392105 
L 374.913631 143.063299 
L 373.022907 142.03227 
L 371.141173 141.265477 
L 369.268364 140.768549 
L 367.404416 140.572927 
L 365.549268 140.673079 
L 363.702857 141.106887 
L 361.865121 141.890716 
L 360.036 142.950167 
L 354.599721 146.852188 
L 352.804458 148.108265 
L 351.017514 149.52752 
L 349.238829 151.206122 
L 343.951767 156.809913 
L 342.205557 158.172193 
L 338.737021 160.415284 
L 333.593117 164.430872 
L 331.893976 165.240159 
L 330.202494 165.464407 
L 326.842304 164.899364 
L 325.173493 164.910097 
L 323.512137 165.407886 
L 321.858187 166.248009 
L 320.211594 167.359948 
L 318.572308 168.924971 
L 316.94028 171.234343 
L 315.315464 174.441433 
L 312.087273 182.47283 
L 307.297888 194.7716 
L 304.139695 204.008384 
L 299.453602 217.94158 
L 297.905047 221.889298 
L 296.363156 225.160596 
L 294.827888 227.771153 
L 293.2992 229.912452 
L 291.777049 231.77182 
L 290.261394 233.3851 
L 288.752193 234.676882 
L 287.249405 235.59188 
L 285.752989 236.161288 
L 282.779113 236.944271 
L 281.301573 237.734281 
L 279.830245 239.18138 
L 278.365091 241.43063 
L 276.906071 244.369121 
L 274.006282 250.731535 
L 272.565437 253.30921 
L 271.130574 255.241323 
L 269.701657 256.699893 
L 268.278649 257.876689 
L 266.861513 258.736721 
L 265.450213 259.205966 
L 262.644976 259.712014 
L 261.250969 260.168196 
L 259.862655 260.838076 
L 258.48 261.713904 
L 255.731529 263.962805 
L 253.005283 266.343145 
L 251.65041 267.286813 
L 250.300993 267.964179 
L 248.956999 268.370148 
L 247.618396 268.559285 
L 244.95723 268.606874 
L 242.317241 268.468345 
L 235.808273 267.782953 
L 233.240445 267.710134 
L 231.964073 267.960548 
L 230.692691 268.516734 
L 224.4096 272.154368 
L 218.246952 275.711672 
L 217.028571 276.073053 
L 215.814844 276.202383 
L 214.605743 275.975504 
L 213.401243 275.281536 
L 212.201316 274.220429 
L 208.628722 270.289428 
L 207.446834 269.534469 
L 206.269392 269.437358 
L 205.09637 269.765022 
L 200.448 271.557381 
L 199.296714 271.760919 
L 198.149703 271.755014 
L 195.868409 271.387653 
L 194.73408 271.075449 
L 193.603931 270.623619 
L 191.356083 269.351815 
L 188.015094 267.258707 
L 186.90955 266.699791 
L 185.808029 266.285366 
L 184.710508 266.058677 
L 183.616967 266.092345 
L 182.527382 266.46938 
L 181.441734 267.172748 
L 175.009315 272.441429 
L 172.895715 273.695193 
L 169.753388 275.257164 
L 168.713353 275.772792 
L 167.676988 276.045975 
L 166.644275 275.917856 
L 165.615193 275.365274 
L 163.56785 273.765021 
L 162.549551 273.29422 
L 161.534808 273.245316 
L 160.523603 273.563292 
L 159.515916 274.149555 
L 158.511731 274.963285 
L 157.511029 276.028076 
L 155.52 278.821112 
L 153.542687 281.533632 
L 152.559129 282.506396 
L 151.578947 283.110453 
L 150.602125 283.270304 
L 149.628643 282.945895 
L 148.658486 282.194792 
L 145.767792 279.239515 
L 144.810763 278.494251 
L 143.856975 277.899269 
L 142.906411 277.457872 
L 141.959055 277.234411 
L 141.014891 277.314849 
L 140.073901 277.74247 
L 139.136072 278.483419 
L 136.341381 281.150979 
L 129.024 285.9414 
L 128.122874 286.28322 
L 127.22471 286.476977 
L 123.661371 286.653574 
L 122.777795 286.906646 
L 120.144259 287.999518 
L 119.272099 287.902619 
L 118.402759 287.400981 
L 114.953319 284.454873 
L 114.097873 284.106289 
L 113.245165 284.100619 
L 112.395184 284.467371 
L 111.547915 285.171367 
L 109.022255 287.959462 
L 108.185708 288.625213 
L 107.35181 289.060425 
L 106.520548 289.244351 
L 105.69191 289.108087 
L 104.865882 288.566491 
L 102.403346 285.705131 
L 101.587641 285.311497 
L 100.774487 285.456675 
L 99.963871 286.012148 
L 98.350207 287.691602 
L 96.746556 289.281051 
L 95.948456 289.809858 
L 93.568921 290.89295 
L 92.780626 291.397214 
L 91.994754 291.763539 
L 91.211294 291.832744 
L 90.430235 291.638096 
L 88.875275 291.024447 
L 87.329787 290.599607 
L 86.560568 290.242214 
L 85.793684 289.636611 
L 85.029126 288.76602 
L 83.506942 286.442674 
L 81.240843 282.686632 
L 80.490015 281.799152 
L 79.74144 281.201736 
L 78.251007 280.503886 
L 77.509129 280.249944 
L 76.769463 280.23096 
L 76.032 280.584409 
L 72.377379 283.767138 
L 71.652927 284.576648 
L 68.776372 288.610506 
L 68.0625 289.198118 
L 67.350717 289.483294 
L 65.227806 289.705994 
L 63.822807 290.530435 
L 63.123364 290.932911 
L 62.425946 291.04109 
L 61.730545 290.650465 
L 61.037151 289.716219 
L 58.968931 285.525666 
L 58.283483 284.600705 
L 57.6 284.255826 
L 57.6 284.255826 
" clip-path="url(#pff3643a578)" style="fill: none; stroke-dasharray: 5.55,2.4; stroke-dashoffset: 0; stroke: #000000; stroke-width: 1.5"/>
   </g>
   <g id="line2d_18">
    <path d="M 414.72 267.818665 
L 412.635063 267.465074 
L 410.560532 267.2535 
L 408.496332 267.313052 
L 406.442384 267.74785 
L 404.398613 268.510565 
L 400.341298 270.570014 
L 398.327607 271.567428 
L 396.323794 272.291617 
L 394.329788 272.582128 
L 392.345517 272.291921 
L 390.370909 271.444494 
L 386.450404 269.296632 
L 384.504367 268.595812 
L 382.567717 268.326113 
L 380.640385 268.473571 
L 378.722304 268.965148 
L 376.813408 269.703438 
L 371.141173 272.179899 
L 369.268364 272.789701 
L 367.404416 273.196947 
L 365.549268 273.416579 
L 361.865121 273.478418 
L 358.215433 273.182384 
L 352.804458 272.226798 
L 349.238829 271.561282 
L 347.468347 271.345286 
L 345.706012 271.278617 
L 342.205557 271.555919 
L 340.467327 271.737261 
L 338.737021 271.797407 
L 337.014587 271.643532 
L 335.29997 271.348891 
L 333.593117 271.24221 
L 331.893976 271.658319 
L 326.842304 274.308579 
L 325.173493 274.584388 
L 323.512137 274.508453 
L 321.858187 274.096331 
L 320.211594 273.21494 
L 318.572308 271.798946 
L 316.94028 269.932431 
L 312.087273 263.304017 
L 308.887358 259.707234 
L 307.297888 257.618906 
L 299.453602 246.186834 
L 297.905047 243.471314 
L 296.363156 240.020259 
L 294.827888 235.810667 
L 291.777049 225.939606 
L 290.261394 220.914819 
L 288.752193 216.318583 
L 287.249405 212.464412 
L 285.752989 209.563427 
L 284.262906 207.649307 
L 282.779113 206.570737 
L 281.301573 206.099943 
L 279.830245 206.010641 
L 278.365091 206.121026 
L 276.906071 206.371682 
L 275.453148 206.797963 
L 272.565437 207.829046 
L 271.130574 207.758472 
L 269.701657 206.617369 
L 268.278649 204.203671 
L 265.450213 197.77661 
L 262.644976 192.35087 
L 259.862655 187.557484 
L 258.48 185.472308 
L 257.102969 183.647898 
L 255.731529 182.160412 
L 254.365645 181.079261 
L 253.005283 180.351204 
L 248.956999 178.780677 
L 247.618396 178.408126 
L 246.28515 178.231879 
L 241.005109 178.024848 
L 238.396414 177.505844 
L 234.521835 176.592818 
L 233.240445 176.068269 
L 231.964073 175.19611 
L 230.692691 174.1856 
L 229.426268 173.3253 
L 228.164776 172.734249 
L 226.908187 172.485873 
L 225.656471 172.662451 
L 224.4096 173.252388 
L 223.167547 174.175018 
L 221.930283 175.343392 
L 220.697781 176.704539 
L 219.470013 178.300565 
L 218.246952 180.192967 
L 217.028571 182.394816 
L 213.401243 190.118574 
L 212.201316 191.80442 
L 211.005938 193.206187 
L 209.815082 194.966854 
L 207.446834 198.955648 
L 205.09637 201.98187 
L 203.927745 203.463725 
L 202.763491 205.26016 
L 201.603584 207.563009 
L 200.448 210.469216 
L 199.296714 214.012396 
L 197.006943 222.437066 
L 193.603931 236.266254 
L 190.238338 250.057285 
L 188.015094 258.126825 
L 185.808029 265.185987 
L 184.710508 268.260834 
L 183.616967 270.804351 
L 182.527382 272.674096 
L 181.441734 273.92759 
L 180.36 274.731707 
L 179.28216 275.215914 
L 178.208192 275.455722 
L 177.138075 275.506422 
L 175.009315 275.226377 
L 172.895715 274.916382 
L 171.84455 275.030041 
L 170.797114 275.427897 
L 169.753388 276.076498 
L 167.676988 277.830146 
L 165.615193 280.073033 
L 161.534808 285.374158 
L 160.523603 286.225949 
L 159.515916 286.682162 
L 156.513791 287.074818 
L 155.52 287.453399 
L 153.542687 288.514738 
L 152.559129 288.894092 
L 151.578947 289.003602 
L 150.602125 288.77882 
L 149.628643 288.209175 
L 148.658486 287.348805 
L 145.767792 284.365284 
L 144.810763 283.678537 
L 143.856975 283.287766 
L 142.906411 283.204828 
L 141.959055 283.384421 
L 138.201385 284.660342 
L 136.341381 285.041687 
L 134.493762 285.664807 
L 133.57456 286.096331 
L 132.658407 286.667252 
L 131.74529 287.452592 
L 129.024 290.238831 
L 128.122874 290.815792 
L 124.547837 292.38143 
L 123.661371 292.71148 
L 122.777795 292.916086 
L 121.897093 292.964732 
L 120.144259 292.687511 
L 114.953319 291.508577 
L 111.547915 290.946317 
L 109.861463 290.376152 
L 109.022255 290.351551 
L 108.185708 290.567087 
L 103.221613 292.832238 
L 101.587641 293.78123 
L 100.774487 293.989385 
L 99.963871 293.968316 
L 98.350207 293.710404 
L 97.547136 293.800082 
L 96.746556 294.191166 
L 95.948456 294.890205 
L 94.35965 296.916588 
L 93.568921 297.972288 
L 92.780626 298.808671 
L 91.994754 299.304433 
L 91.211294 299.443549 
L 90.430235 299.269286 
L 88.875275 298.345267 
L 87.329787 297.402439 
L 83.506942 295.785327 
L 81.993933 294.514839 
L 80.490015 292.995423 
L 79.74144 292.391419 
L 78.995107 292.039694 
L 78.251007 292.021366 
L 77.509129 292.365767 
L 76.769463 293.015281 
L 73.832727 296.20124 
L 73.103976 296.730347 
L 72.377379 297.088533 
L 71.652927 297.262049 
L 70.210417 297.192414 
L 68.776372 296.835973 
L 68.0625 296.533234 
L 67.350717 296.074083 
L 64.524285 293.670853 
L 63.822807 293.628139 
L 63.123364 294.037012 
L 62.425946 294.88773 
L 61.037151 296.958963 
L 60.345757 297.601655 
L 59.656353 297.837928 
L 58.968931 297.705775 
L 58.283483 297.267316 
L 57.6 296.560941 
L 57.6 296.560941 
" clip-path="url(#pff3643a578)" style="fill: none; stroke-dasharray: 5.55,2.4; stroke-dashoffset: 0; stroke: #000000; stroke-width: 1.5"/>
   </g>
   <g id="line2d_19">
    <path d="M 414.72 299.2302 
L 410.560532 298.255425 
L 402.364942 295.815226 
L 398.327607 294.886763 
L 390.370909 293.457428 
L 388.405895 293.156345 
L 384.504367 292.907922 
L 380.640385 293.000518 
L 376.813408 293.50417 
L 373.022907 294.388402 
L 367.404416 295.721755 
L 363.702857 296.324719 
L 358.215433 297.158273 
L 354.599721 297.804654 
L 352.804458 297.95275 
L 351.017514 297.909043 
L 349.238829 297.681247 
L 345.706012 296.801331 
L 342.205557 295.864937 
L 340.467327 295.565628 
L 338.737021 295.395316 
L 337.014587 295.366736 
L 333.593117 295.613031 
L 330.202494 295.958171 
L 328.518621 296.260496 
L 325.173493 297.285725 
L 321.858187 298.405233 
L 320.211594 298.822502 
L 318.572308 299.095137 
L 315.315464 299.33141 
L 312.087273 299.222671 
L 307.297888 298.546555 
L 301.008866 297.618232 
L 297.905047 297.098784 
L 291.777049 296.431146 
L 285.752989 294.907953 
L 284.262906 294.787492 
L 279.830245 294.689201 
L 278.365091 294.357208 
L 276.906071 293.791868 
L 271.130574 290.926444 
L 269.701657 290.833659 
L 268.278649 291.216873 
L 265.450213 292.32888 
L 261.250969 293.586134 
L 258.48 294.559283 
L 257.102969 294.852159 
L 255.731529 294.866118 
L 254.365645 294.594029 
L 253.005283 294.110006 
L 250.300993 292.830308 
L 248.956999 292.056885 
L 247.618396 291.123267 
L 244.95723 288.791049 
L 242.317241 286.412677 
L 241.005109 285.454515 
L 239.698177 284.717705 
L 238.396414 284.198136 
L 237.099789 283.865365 
L 235.808273 283.755203 
L 234.521835 284.018504 
L 233.240445 284.710848 
L 231.964073 285.586242 
L 230.692691 286.302308 
L 229.426268 286.736341 
L 228.164776 286.943145 
L 226.908187 286.973091 
L 225.656471 286.844802 
L 224.4096 286.531278 
L 223.167547 285.935417 
L 221.930283 284.96641 
L 220.697781 283.596092 
L 219.470013 281.84932 
L 215.814844 275.652675 
L 214.605743 274.124265 
L 213.401243 273.478553 
L 212.201316 273.800245 
L 211.005938 274.919108 
L 209.815082 276.679099 
L 207.446834 281.056502 
L 206.269392 282.94486 
L 205.09637 284.506446 
L 203.927745 285.800139 
L 202.763491 286.794559 
L 201.603584 287.43659 
L 200.448 287.647525 
L 199.296714 287.305453 
L 198.149703 286.394285 
L 195.868409 283.629963 
L 193.603931 280.776509 
L 191.356083 278.338102 
L 189.124683 275.95599 
L 188.015094 274.569042 
L 186.90955 272.969075 
L 184.710508 269.054941 
L 182.527382 264.610515 
L 177.138075 252.852359 
L 176.07179 251.091206 
L 175.009315 249.687955 
L 172.895715 247.268132 
L 171.84455 245.629624 
L 170.797114 243.463245 
L 169.753388 240.846205 
L 167.676988 234.860419 
L 164.589725 225.324985 
L 160.523603 212.194607 
L 159.515916 209.774597 
L 158.511731 207.870542 
L 156.513791 204.527212 
L 154.529638 200.435597 
L 153.542687 198.381976 
L 152.559129 196.669488 
L 151.578947 195.479327 
L 150.602125 194.880046 
L 149.628643 194.818501 
L 146.728077 195.603494 
L 145.767792 195.339498 
L 144.810763 194.62723 
L 143.856975 193.450039 
L 142.906411 191.769069 
L 141.959055 189.543537 
L 140.073901 183.757682 
L 137.269827 174.704489 
L 135.416031 169.508792 
L 133.57456 165.289929 
L 129.928101 158.352621 
L 129.024 157.042823 
L 128.122874 156.135886 
L 127.22471 155.596412 
L 121.897093 153.606106 
L 121.019253 153.208413 
L 120.144259 153.006171 
L 119.272099 153.137041 
L 118.402759 153.688606 
L 117.536224 154.625588 
L 115.811517 157.134088 
L 114.953319 158.401618 
L 114.097873 159.343145 
L 113.245165 159.770885 
L 112.395184 159.704274 
L 111.547915 159.190236 
L 110.703346 158.185736 
L 109.861463 156.712028 
L 108.185708 153.326379 
L 107.35181 152.090122 
L 106.520548 151.591814 
L 105.69191 152.079039 
L 104.865882 153.590046 
L 102.403346 160.338031 
L 101.587641 161.927647 
L 100.774487 163.026126 
L 99.963871 163.676092 
L 99.155782 163.827935 
L 98.350207 163.428492 
L 97.547136 162.55967 
L 94.35965 158.008453 
L 93.568921 157.444391 
L 92.780626 157.350236 
L 91.994754 157.719272 
L 91.211294 158.572974 
L 90.430235 159.917563 
L 88.101352 164.873778 
L 87.329787 165.959335 
L 86.560568 166.481854 
L 85.793684 166.53543 
L 85.029126 166.447255 
L 84.266882 166.580179 
L 83.506942 167.141763 
L 82.749296 168.155947 
L 81.993933 169.5377 
L 79.74144 174.657987 
L 76.769463 181.236386 
L 76.032 182.405143 
L 73.832727 185.347722 
L 73.103976 186.641797 
L 72.377379 188.169018 
L 71.652927 189.951911 
L 70.210417 194.393632 
L 68.776372 199.964404 
L 68.0625 203.465855 
L 67.350717 207.872482 
L 64.524285 229.288366 
L 63.822807 232.438025 
L 63.123364 234.197691 
L 62.425946 234.903531 
L 61.730545 235.007036 
L 61.037151 234.950546 
L 60.345757 235.055225 
L 59.656353 235.49257 
L 58.968931 236.303917 
L 57.6 238.472163 
L 57.6 238.472163 
" clip-path="url(#pff3643a578)" style="fill: none; stroke-dasharray: 5.55,2.4; stroke-dashoffset: 0; stroke: #000000; stroke-width: 1.5"/>
   </g>
   <g id="patch_3">
    <path d="M 57.6 307.584 
L 57.6 41.472 
" style="fill: none; stroke: #000000; stroke-width: 0.8; stroke-linejoin: miter; stroke-linecap: square"/>
   </g>
   <g id="patch_4">
    <path d="M 414.72 307.584 
L 414.72 41.472 
" style="fill: none; stroke: #000000; stroke-width: 0.8; stroke-linejoin: miter; stroke-linecap: square"/>
   </g>
   <g id="patch_5">
    <path d="M 57.6 307.584 
L 414.72 307.584 
" style="fill: none; stroke: #000000; stroke-width: 0.8; stroke-linejoin: miter; stroke-linecap: square"/>
   </g>
   <g id="patch_6">
    <path d="M 57.6 41.472 
L 414.72 41.472 
" style="fill: none; stroke: #000000; stroke-width: 0.8; stroke-linejoin: miter; stroke-linecap: square"/>
   </g>
  </g>
 </g>
 <defs>
  <clipPath id="pff3643a578">
   <rect x="57.6" y="41.472" width="357.12" height="266.112"/>
  </clipPath>
 </defs>
</svg>
