<?xml version="1.0" encoding="utf-8" standalone="no"?>
<!DOCTYPE svg PUBLIC "-//W3C//DTD SVG 1.1//EN"
  "http://www.w3.org/Graphics/SVG/1.1/DTD/svg11.dtd">
<svg xmlns:xlink="http://www.w3.org/1999/xlink" width="460.8pt" height="345.6pt" viewBox="0 0 460.8 345.6" xmlns="http://www.w3.org/2000/svg" version="1.1">
 <metadata>
  <rdf:RDF xmlns:dc="http://purl.org/dc/elements/1.1/" xmlns:cc="http://creativecommons.org/ns#" xmlns:rdf="http://www.w3.org/1999/02/22-rdf-syntax-ns#">
   <cc:Work>
    <dc:type rdf:resource="http://purl.org/dc/dcmitype/StillImage"/>
    <dc:date>2024-05-07T17:39:38.260547</dc:date>
    <dc:format>image/svg+xml</dc:format>
    <dc:creator>
     <cc:Agent>
      <dc:title>Matplotlib v3.7.1, https://matplotlib.org/</dc:title>
     </cc:Agent>
    </dc:creator>
   </cc:Work>
  </rdf:RDF>
 </metadata>
 <defs>
  <style type="text/css">*{stroke-linejoin: round; stroke-linecap: butt}</style>
 </defs>
 <g id="figure_1">
  <g id="patch_1">
   <path d="M 0 345.6 
L 460.8 345.6 
L 460.8 0 
L 0 0 
L 0 345.6 
z
" style="fill: none"/>
  </g>
  <g id="axes_1">
   <g id="patch_2">
    <path d="M 57.6 307.584 
L 414.72 307.584 
L 414.72 41.472 
L 57.6 41.472 
L 57.6 307.584 
z
" style="fill: none"/>
   </g>
   <g id="matplotlib.axis_1">
    <g id="xtick_1">
     <g id="line2d_1">
      <defs>
       <path id="m8f39caac26" d="M 0 0 
L 0 -3.5 
" style="stroke: #000000; stroke-width: 0.8"/>
      </defs>
      <g>
       <use xlink:href="#m8f39caac26" x="57.6" y="307.584" style="stroke: #000000; stroke-width: 0.8"/>
      </g>
     </g>
     <g id="text_1">
      <!-- 0.40 -->
      <g transform="translate(46.467188 323.182437) scale(0.1 -0.1)">
       <defs>
        <path id="DejaVuSans-30" d="M 2034 4250 
Q 1547 4250 1301 3770 
Q 1056 3291 1056 2328 
Q 1056 1369 1301 889 
Q 1547 409 2034 409 
Q 2525 409 2770 889 
Q 3016 1369 3016 2328 
Q 3016 3291 2770 3770 
Q 2525 4250 2034 4250 
z
M 2034 4750 
Q 2819 4750 3233 4129 
Q 3647 3509 3647 2328 
Q 3647 1150 3233 529 
Q 2819 -91 2034 -91 
Q 1250 -91 836 529 
Q 422 1150 422 2328 
Q 422 3509 836 4129 
Q 1250 4750 2034 4750 
z
" transform="scale(0.015625)"/>
        <path id="DejaVuSans-2e" d="M 684 794 
L 1344 794 
L 1344 0 
L 684 0 
L 684 794 
z
" transform="scale(0.015625)"/>
        <path id="DejaVuSans-34" d="M 2419 4116 
L 825 1625 
L 2419 1625 
L 2419 4116 
z
M 2253 4666 
L 3047 4666 
L 3047 1625 
L 3713 1625 
L 3713 1100 
L 3047 1100 
L 3047 0 
L 2419 0 
L 2419 1100 
L 313 1100 
L 313 1709 
L 2253 4666 
z
" transform="scale(0.015625)"/>
       </defs>
       <use xlink:href="#DejaVuSans-30"/>
       <use xlink:href="#DejaVuSans-2e" x="63.623047"/>
       <use xlink:href="#DejaVuSans-34" x="95.410156"/>
       <use xlink:href="#DejaVuSans-30" x="159.033203"/>
      </g>
     </g>
    </g>
    <g id="xtick_2">
     <g id="line2d_2">
      <g>
       <use xlink:href="#m8f39caac26" x="117.12" y="307.584" style="stroke: #000000; stroke-width: 0.8"/>
      </g>
     </g>
     <g id="text_2">
      <!-- 0.45 -->
      <g transform="translate(105.987188 323.182437) scale(0.1 -0.1)">
       <defs>
        <path id="DejaVuSans-35" d="M 691 4666 
L 3169 4666 
L 3169 4134 
L 1269 4134 
L 1269 2991 
Q 1406 3038 1543 3061 
Q 1681 3084 1819 3084 
Q 2600 3084 3056 2656 
Q 3513 2228 3513 1497 
Q 3513 744 3044 326 
Q 2575 -91 1722 -91 
Q 1428 -91 1123 -41 
Q 819 9 494 109 
L 494 744 
Q 775 591 1075 516 
Q 1375 441 1709 441 
Q 2250 441 2565 725 
Q 2881 1009 2881 1497 
Q 2881 1984 2565 2268 
Q 2250 2553 1709 2553 
Q 1456 2553 1204 2497 
Q 953 2441 691 2322 
L 691 4666 
z
" transform="scale(0.015625)"/>
       </defs>
       <use xlink:href="#DejaVuSans-30"/>
       <use xlink:href="#DejaVuSans-2e" x="63.623047"/>
       <use xlink:href="#DejaVuSans-34" x="95.410156"/>
       <use xlink:href="#DejaVuSans-35" x="159.033203"/>
      </g>
     </g>
    </g>
    <g id="xtick_3">
     <g id="line2d_3">
      <g>
       <use xlink:href="#m8f39caac26" x="176.64" y="307.584" style="stroke: #000000; stroke-width: 0.8"/>
      </g>
     </g>
     <g id="text_3">
      <!-- 0.50 -->
      <g transform="translate(165.507188 323.182437) scale(0.1 -0.1)">
       <use xlink:href="#DejaVuSans-30"/>
       <use xlink:href="#DejaVuSans-2e" x="63.623047"/>
       <use xlink:href="#DejaVuSans-35" x="95.410156"/>
       <use xlink:href="#DejaVuSans-30" x="159.033203"/>
      </g>
     </g>
    </g>
    <g id="xtick_4">
     <g id="line2d_4">
      <g>
       <use xlink:href="#m8f39caac26" x="236.16" y="307.584" style="stroke: #000000; stroke-width: 0.8"/>
      </g>
     </g>
     <g id="text_4">
      <!-- 0.55 -->
      <g transform="translate(225.027188 323.182437) scale(0.1 -0.1)">
       <use xlink:href="#DejaVuSans-30"/>
       <use xlink:href="#DejaVuSans-2e" x="63.623047"/>
       <use xlink:href="#DejaVuSans-35" x="95.410156"/>
       <use xlink:href="#DejaVuSans-35" x="159.033203"/>
      </g>
     </g>
    </g>
    <g id="xtick_5">
     <g id="line2d_5">
      <g>
       <use xlink:href="#m8f39caac26" x="295.68" y="307.584" style="stroke: #000000; stroke-width: 0.8"/>
      </g>
     </g>
     <g id="text_5">
      <!-- 0.60 -->
      <g transform="translate(284.547188 323.182437) scale(0.1 -0.1)">
       <defs>
        <path id="DejaVuSans-36" d="M 2113 2584 
Q 1688 2584 1439 2293 
Q 1191 2003 1191 1497 
Q 1191 994 1439 701 
Q 1688 409 2113 409 
Q 2538 409 2786 701 
Q 3034 994 3034 1497 
Q 3034 2003 2786 2293 
Q 2538 2584 2113 2584 
z
M 3366 4563 
L 3366 3988 
Q 3128 4100 2886 4159 
Q 2644 4219 2406 4219 
Q 1781 4219 1451 3797 
Q 1122 3375 1075 2522 
Q 1259 2794 1537 2939 
Q 1816 3084 2150 3084 
Q 2853 3084 3261 2657 
Q 3669 2231 3669 1497 
Q 3669 778 3244 343 
Q 2819 -91 2113 -91 
Q 1303 -91 875 529 
Q 447 1150 447 2328 
Q 447 3434 972 4092 
Q 1497 4750 2381 4750 
Q 2619 4750 2861 4703 
Q 3103 4656 3366 4563 
z
" transform="scale(0.015625)"/>
       </defs>
       <use xlink:href="#DejaVuSans-30"/>
       <use xlink:href="#DejaVuSans-2e" x="63.623047"/>
       <use xlink:href="#DejaVuSans-36" x="95.410156"/>
       <use xlink:href="#DejaVuSans-30" x="159.033203"/>
      </g>
     </g>
    </g>
    <g id="xtick_6">
     <g id="line2d_6">
      <g>
       <use xlink:href="#m8f39caac26" x="355.2" y="307.584" style="stroke: #000000; stroke-width: 0.8"/>
      </g>
     </g>
     <g id="text_6">
      <!-- 0.65 -->
      <g transform="translate(344.067188 323.182437) scale(0.1 -0.1)">
       <use xlink:href="#DejaVuSans-30"/>
       <use xlink:href="#DejaVuSans-2e" x="63.623047"/>
       <use xlink:href="#DejaVuSans-36" x="95.410156"/>
       <use xlink:href="#DejaVuSans-35" x="159.033203"/>
      </g>
     </g>
    </g>
    <g id="xtick_7">
     <g id="line2d_7">
      <g>
       <use xlink:href="#m8f39caac26" x="414.72" y="307.584" style="stroke: #000000; stroke-width: 0.8"/>
      </g>
     </g>
     <g id="text_7">
      <!-- 0.70 -->
      <g transform="translate(403.587188 323.182437) scale(0.1 -0.1)">
       <defs>
        <path id="DejaVuSans-37" d="M 525 4666 
L 3525 4666 
L 3525 4397 
L 1831 0 
L 1172 0 
L 2766 4134 
L 525 4134 
L 525 4666 
z
" transform="scale(0.015625)"/>
       </defs>
       <use xlink:href="#DejaVuSans-30"/>
       <use xlink:href="#DejaVuSans-2e" x="63.623047"/>
       <use xlink:href="#DejaVuSans-37" x="95.410156"/>
       <use xlink:href="#DejaVuSans-30" x="159.033203"/>
      </g>
     </g>
    </g>
    <g id="text_8">
     <!-- wavelength (μm) -->
     <g transform="translate(193.49125 336.860562) scale(0.1 -0.1)">
      <defs>
       <path id="DejaVuSans-77" d="M 269 3500 
L 844 3500 
L 1563 769 
L 2278 3500 
L 2956 3500 
L 3675 769 
L 4391 3500 
L 4966 3500 
L 4050 0 
L 3372 0 
L 2619 2869 
L 1863 0 
L 1184 0 
L 269 3500 
z
" transform="scale(0.015625)"/>
       <path id="DejaVuSans-61" d="M 2194 1759 
Q 1497 1759 1228 1600 
Q 959 1441 959 1056 
Q 959 750 1161 570 
Q 1363 391 1709 391 
Q 2188 391 2477 730 
Q 2766 1069 2766 1631 
L 2766 1759 
L 2194 1759 
z
M 3341 1997 
L 3341 0 
L 2766 0 
L 2766 531 
Q 2569 213 2275 61 
Q 1981 -91 1556 -91 
Q 1019 -91 701 211 
Q 384 513 384 1019 
Q 384 1609 779 1909 
Q 1175 2209 1959 2209 
L 2766 2209 
L 2766 2266 
Q 2766 2663 2505 2880 
Q 2244 3097 1772 3097 
Q 1472 3097 1187 3025 
Q 903 2953 641 2809 
L 641 3341 
Q 956 3463 1253 3523 
Q 1550 3584 1831 3584 
Q 2591 3584 2966 3190 
Q 3341 2797 3341 1997 
z
" transform="scale(0.015625)"/>
       <path id="DejaVuSans-76" d="M 191 3500 
L 800 3500 
L 1894 563 
L 2988 3500 
L 3597 3500 
L 2284 0 
L 1503 0 
L 191 3500 
z
" transform="scale(0.015625)"/>
       <path id="DejaVuSans-65" d="M 3597 1894 
L 3597 1613 
L 953 1613 
Q 991 1019 1311 708 
Q 1631 397 2203 397 
Q 2534 397 2845 478 
Q 3156 559 3463 722 
L 3463 178 
Q 3153 47 2828 -22 
Q 2503 -91 2169 -91 
Q 1331 -91 842 396 
Q 353 884 353 1716 
Q 353 2575 817 3079 
Q 1281 3584 2069 3584 
Q 2775 3584 3186 3129 
Q 3597 2675 3597 1894 
z
M 3022 2063 
Q 3016 2534 2758 2815 
Q 2500 3097 2075 3097 
Q 1594 3097 1305 2825 
Q 1016 2553 972 2059 
L 3022 2063 
z
" transform="scale(0.015625)"/>
       <path id="DejaVuSans-6c" d="M 603 4863 
L 1178 4863 
L 1178 0 
L 603 0 
L 603 4863 
z
" transform="scale(0.015625)"/>
       <path id="DejaVuSans-6e" d="M 3513 2113 
L 3513 0 
L 2938 0 
L 2938 2094 
Q 2938 2591 2744 2837 
Q 2550 3084 2163 3084 
Q 1697 3084 1428 2787 
Q 1159 2491 1159 1978 
L 1159 0 
L 581 0 
L 581 3500 
L 1159 3500 
L 1159 2956 
Q 1366 3272 1645 3428 
Q 1925 3584 2291 3584 
Q 2894 3584 3203 3211 
Q 3513 2838 3513 2113 
z
" transform="scale(0.015625)"/>
       <path id="DejaVuSans-67" d="M 2906 1791 
Q 2906 2416 2648 2759 
Q 2391 3103 1925 3103 
Q 1463 3103 1205 2759 
Q 947 2416 947 1791 
Q 947 1169 1205 825 
Q 1463 481 1925 481 
Q 2391 481 2648 825 
Q 2906 1169 2906 1791 
z
M 3481 434 
Q 3481 -459 3084 -895 
Q 2688 -1331 1869 -1331 
Q 1566 -1331 1297 -1286 
Q 1028 -1241 775 -1147 
L 775 -588 
Q 1028 -725 1275 -790 
Q 1522 -856 1778 -856 
Q 2344 -856 2625 -561 
Q 2906 -266 2906 331 
L 2906 616 
Q 2728 306 2450 153 
Q 2172 0 1784 0 
Q 1141 0 747 490 
Q 353 981 353 1791 
Q 353 2603 747 3093 
Q 1141 3584 1784 3584 
Q 2172 3584 2450 3431 
Q 2728 3278 2906 2969 
L 2906 3500 
L 3481 3500 
L 3481 434 
z
" transform="scale(0.015625)"/>
       <path id="DejaVuSans-74" d="M 1172 4494 
L 1172 3500 
L 2356 3500 
L 2356 3053 
L 1172 3053 
L 1172 1153 
Q 1172 725 1289 603 
Q 1406 481 1766 481 
L 2356 481 
L 2356 0 
L 1766 0 
Q 1100 0 847 248 
Q 594 497 594 1153 
L 594 3053 
L 172 3053 
L 172 3500 
L 594 3500 
L 594 4494 
L 1172 4494 
z
" transform="scale(0.015625)"/>
       <path id="DejaVuSans-68" d="M 3513 2113 
L 3513 0 
L 2938 0 
L 2938 2094 
Q 2938 2591 2744 2837 
Q 2550 3084 2163 3084 
Q 1697 3084 1428 2787 
Q 1159 2491 1159 1978 
L 1159 0 
L 581 0 
L 581 4863 
L 1159 4863 
L 1159 2956 
Q 1366 3272 1645 3428 
Q 1925 3584 2291 3584 
Q 2894 3584 3203 3211 
Q 3513 2838 3513 2113 
z
" transform="scale(0.015625)"/>
       <path id="DejaVuSans-20" transform="scale(0.015625)"/>
       <path id="DejaVuSans-28" d="M 1984 4856 
Q 1566 4138 1362 3434 
Q 1159 2731 1159 2009 
Q 1159 1288 1364 580 
Q 1569 -128 1984 -844 
L 1484 -844 
Q 1016 -109 783 600 
Q 550 1309 550 2009 
Q 550 2706 781 3412 
Q 1013 4119 1484 4856 
L 1984 4856 
z
" transform="scale(0.015625)"/>
       <path id="DejaVuSans-3bc" d="M 544 -1331 
L 544 3500 
L 1119 3500 
L 1119 1325 
Q 1119 872 1334 640 
Q 1550 409 1972 409 
Q 2434 409 2667 671 
Q 2900 934 2900 1459 
L 2900 3500 
L 3475 3500 
L 3475 806 
Q 3475 619 3529 530 
Q 3584 441 3700 441 
Q 3728 441 3778 458 
Q 3828 475 3916 513 
L 3916 50 
Q 3788 -22 3673 -56 
Q 3559 -91 3450 -91 
Q 3234 -91 3106 31 
Q 2978 153 2931 403 
Q 2775 156 2548 32 
Q 2322 -91 2016 -91 
Q 1697 -91 1473 31 
Q 1250 153 1119 397 
L 1119 -1331 
L 544 -1331 
z
" transform="scale(0.015625)"/>
       <path id="DejaVuSans-6d" d="M 3328 2828 
Q 3544 3216 3844 3400 
Q 4144 3584 4550 3584 
Q 5097 3584 5394 3201 
Q 5691 2819 5691 2113 
L 5691 0 
L 5113 0 
L 5113 2094 
Q 5113 2597 4934 2840 
Q 4756 3084 4391 3084 
Q 3944 3084 3684 2787 
Q 3425 2491 3425 1978 
L 3425 0 
L 2847 0 
L 2847 2094 
Q 2847 2600 2669 2842 
Q 2491 3084 2119 3084 
Q 1678 3084 1418 2786 
Q 1159 2488 1159 1978 
L 1159 0 
L 581 0 
L 581 3500 
L 1159 3500 
L 1159 2956 
Q 1356 3278 1631 3431 
Q 1906 3584 2284 3584 
Q 2666 3584 2933 3390 
Q 3200 3197 3328 2828 
z
" transform="scale(0.015625)"/>
       <path id="DejaVuSans-29" d="M 513 4856 
L 1013 4856 
Q 1481 4119 1714 3412 
Q 1947 2706 1947 2009 
Q 1947 1309 1714 600 
Q 1481 -109 1013 -844 
L 513 -844 
Q 928 -128 1133 580 
Q 1338 1288 1338 2009 
Q 1338 2731 1133 3434 
Q 928 4138 513 4856 
z
" transform="scale(0.015625)"/>
      </defs>
      <use xlink:href="#DejaVuSans-77"/>
      <use xlink:href="#DejaVuSans-61" x="81.787109"/>
      <use xlink:href="#DejaVuSans-76" x="143.066406"/>
      <use xlink:href="#DejaVuSans-65" x="202.246094"/>
      <use xlink:href="#DejaVuSans-6c" x="263.769531"/>
      <use xlink:href="#DejaVuSans-65" x="291.552734"/>
      <use xlink:href="#DejaVuSans-6e" x="353.076172"/>
      <use xlink:href="#DejaVuSans-67" x="416.455078"/>
      <use xlink:href="#DejaVuSans-74" x="479.931641"/>
      <use xlink:href="#DejaVuSans-68" x="519.140625"/>
      <use xlink:href="#DejaVuSans-20" x="582.519531"/>
      <use xlink:href="#DejaVuSans-28" x="614.306641"/>
      <use xlink:href="#DejaVuSans-3bc" x="653.320312"/>
      <use xlink:href="#DejaVuSans-6d" x="716.943359"/>
      <use xlink:href="#DejaVuSans-29" x="814.355469"/>
     </g>
    </g>
   </g>
   <g id="matplotlib.axis_2">
    <g id="ytick_1">
     <g id="line2d_8">
      <defs>
       <path id="m3611980a85" d="M 0 0 
L 3.5 0 
" style="stroke: #000000; stroke-width: 0.8"/>
      </defs>
      <g>
       <use xlink:href="#m3611980a85" x="57.6" y="307.584" style="stroke: #000000; stroke-width: 0.8"/>
      </g>
     </g>
     <g id="text_9">
      <!-- 0.0 -->
      <g transform="translate(31.696875 311.383219) scale(0.1 -0.1)">
       <use xlink:href="#DejaVuSans-30"/>
       <use xlink:href="#DejaVuSans-2e" x="63.623047"/>
       <use xlink:href="#DejaVuSans-30" x="95.410156"/>
      </g>
     </g>
    </g>
    <g id="ytick_2">
     <g id="line2d_9">
      <g>
       <use xlink:href="#m3611980a85" x="57.6" y="254.3616" style="stroke: #000000; stroke-width: 0.8"/>
      </g>
     </g>
     <g id="text_10">
      <!-- 0.2 -->
      <g transform="translate(31.696875 258.160819) scale(0.1 -0.1)">
       <defs>
        <path id="DejaVuSans-32" d="M 1228 531 
L 3431 531 
L 3431 0 
L 469 0 
L 469 531 
Q 828 903 1448 1529 
Q 2069 2156 2228 2338 
Q 2531 2678 2651 2914 
Q 2772 3150 2772 3378 
Q 2772 3750 2511 3984 
Q 2250 4219 1831 4219 
Q 1534 4219 1204 4116 
Q 875 4013 500 3803 
L 500 4441 
Q 881 4594 1212 4672 
Q 1544 4750 1819 4750 
Q 2544 4750 2975 4387 
Q 3406 4025 3406 3419 
Q 3406 3131 3298 2873 
Q 3191 2616 2906 2266 
Q 2828 2175 2409 1742 
Q 1991 1309 1228 531 
z
" transform="scale(0.015625)"/>
       </defs>
       <use xlink:href="#DejaVuSans-30"/>
       <use xlink:href="#DejaVuSans-2e" x="63.623047"/>
       <use xlink:href="#DejaVuSans-32" x="95.410156"/>
      </g>
     </g>
    </g>
    <g id="ytick_3">
     <g id="line2d_10">
      <g>
       <use xlink:href="#m3611980a85" x="57.6" y="201.1392" style="stroke: #000000; stroke-width: 0.8"/>
      </g>
     </g>
     <g id="text_11">
      <!-- 0.4 -->
      <g transform="translate(31.696875 204.938419) scale(0.1 -0.1)">
       <use xlink:href="#DejaVuSans-30"/>
       <use xlink:href="#DejaVuSans-2e" x="63.623047"/>
       <use xlink:href="#DejaVuSans-34" x="95.410156"/>
      </g>
     </g>
    </g>
    <g id="ytick_4">
     <g id="line2d_11">
      <g>
       <use xlink:href="#m3611980a85" x="57.6" y="147.9168" style="stroke: #000000; stroke-width: 0.8"/>
      </g>
     </g>
     <g id="text_12">
      <!-- 0.6 -->
      <g transform="translate(31.696875 151.716019) scale(0.1 -0.1)">
       <use xlink:href="#DejaVuSans-30"/>
       <use xlink:href="#DejaVuSans-2e" x="63.623047"/>
       <use xlink:href="#DejaVuSans-36" x="95.410156"/>
      </g>
     </g>
    </g>
    <g id="ytick_5">
     <g id="line2d_12">
      <g>
       <use xlink:href="#m3611980a85" x="57.6" y="94.6944" style="stroke: #000000; stroke-width: 0.8"/>
      </g>
     </g>
     <g id="text_13">
      <!-- 0.8 -->
      <g transform="translate(31.696875 98.493619) scale(0.1 -0.1)">
       <defs>
        <path id="DejaVuSans-38" d="M 2034 2216 
Q 1584 2216 1326 1975 
Q 1069 1734 1069 1313 
Q 1069 891 1326 650 
Q 1584 409 2034 409 
Q 2484 409 2743 651 
Q 3003 894 3003 1313 
Q 3003 1734 2745 1975 
Q 2488 2216 2034 2216 
z
M 1403 2484 
Q 997 2584 770 2862 
Q 544 3141 544 3541 
Q 544 4100 942 4425 
Q 1341 4750 2034 4750 
Q 2731 4750 3128 4425 
Q 3525 4100 3525 3541 
Q 3525 3141 3298 2862 
Q 3072 2584 2669 2484 
Q 3125 2378 3379 2068 
Q 3634 1759 3634 1313 
Q 3634 634 3220 271 
Q 2806 -91 2034 -91 
Q 1263 -91 848 271 
Q 434 634 434 1313 
Q 434 1759 690 2068 
Q 947 2378 1403 2484 
z
M 1172 3481 
Q 1172 3119 1398 2916 
Q 1625 2713 2034 2713 
Q 2441 2713 2670 2916 
Q 2900 3119 2900 3481 
Q 2900 3844 2670 4047 
Q 2441 4250 2034 4250 
Q 1625 4250 1398 4047 
Q 1172 3844 1172 3481 
z
" transform="scale(0.015625)"/>
       </defs>
       <use xlink:href="#DejaVuSans-30"/>
       <use xlink:href="#DejaVuSans-2e" x="63.623047"/>
       <use xlink:href="#DejaVuSans-38" x="95.410156"/>
      </g>
     </g>
    </g>
    <g id="ytick_6">
     <g id="line2d_13">
      <g>
       <use xlink:href="#m3611980a85" x="57.6" y="41.472" style="stroke: #000000; stroke-width: 0.8"/>
      </g>
     </g>
     <g id="text_14">
      <!-- 1.0 -->
      <g transform="translate(31.696875 45.271219) scale(0.1 -0.1)">
       <defs>
        <path id="DejaVuSans-31" d="M 794 531 
L 1825 531 
L 1825 4091 
L 703 3866 
L 703 4441 
L 1819 4666 
L 2450 4666 
L 2450 531 
L 3481 531 
L 3481 0 
L 794 0 
L 794 531 
z
" transform="scale(0.015625)"/>
       </defs>
       <use xlink:href="#DejaVuSans-31"/>
       <use xlink:href="#DejaVuSans-2e" x="63.623047"/>
       <use xlink:href="#DejaVuSans-30" x="95.410156"/>
      </g>
     </g>
    </g>
    <g id="text_15">
     <!-- Optical efficiency -->
     <g transform="translate(25.617187 217.856906) rotate(-90) scale(0.1 -0.1)">
      <defs>
       <path id="DejaVuSans-4f" d="M 2522 4238 
Q 1834 4238 1429 3725 
Q 1025 3213 1025 2328 
Q 1025 1447 1429 934 
Q 1834 422 2522 422 
Q 3209 422 3611 934 
Q 4013 1447 4013 2328 
Q 4013 3213 3611 3725 
Q 3209 4238 2522 4238 
z
M 2522 4750 
Q 3503 4750 4090 4092 
Q 4678 3434 4678 2328 
Q 4678 1225 4090 567 
Q 3503 -91 2522 -91 
Q 1538 -91 948 565 
Q 359 1222 359 2328 
Q 359 3434 948 4092 
Q 1538 4750 2522 4750 
z
" transform="scale(0.015625)"/>
       <path id="DejaVuSans-70" d="M 1159 525 
L 1159 -1331 
L 581 -1331 
L 581 3500 
L 1159 3500 
L 1159 2969 
Q 1341 3281 1617 3432 
Q 1894 3584 2278 3584 
Q 2916 3584 3314 3078 
Q 3713 2572 3713 1747 
Q 3713 922 3314 415 
Q 2916 -91 2278 -91 
Q 1894 -91 1617 61 
Q 1341 213 1159 525 
z
M 3116 1747 
Q 3116 2381 2855 2742 
Q 2594 3103 2138 3103 
Q 1681 3103 1420 2742 
Q 1159 2381 1159 1747 
Q 1159 1113 1420 752 
Q 1681 391 2138 391 
Q 2594 391 2855 752 
Q 3116 1113 3116 1747 
z
" transform="scale(0.015625)"/>
       <path id="DejaVuSans-69" d="M 603 3500 
L 1178 3500 
L 1178 0 
L 603 0 
L 603 3500 
z
M 603 4863 
L 1178 4863 
L 1178 4134 
L 603 4134 
L 603 4863 
z
" transform="scale(0.015625)"/>
       <path id="DejaVuSans-63" d="M 3122 3366 
L 3122 2828 
Q 2878 2963 2633 3030 
Q 2388 3097 2138 3097 
Q 1578 3097 1268 2742 
Q 959 2388 959 1747 
Q 959 1106 1268 751 
Q 1578 397 2138 397 
Q 2388 397 2633 464 
Q 2878 531 3122 666 
L 3122 134 
Q 2881 22 2623 -34 
Q 2366 -91 2075 -91 
Q 1284 -91 818 406 
Q 353 903 353 1747 
Q 353 2603 823 3093 
Q 1294 3584 2113 3584 
Q 2378 3584 2631 3529 
Q 2884 3475 3122 3366 
z
" transform="scale(0.015625)"/>
       <path id="DejaVuSans-66" d="M 2375 4863 
L 2375 4384 
L 1825 4384 
Q 1516 4384 1395 4259 
Q 1275 4134 1275 3809 
L 1275 3500 
L 2222 3500 
L 2222 3053 
L 1275 3053 
L 1275 0 
L 697 0 
L 697 3053 
L 147 3053 
L 147 3500 
L 697 3500 
L 697 3744 
Q 697 4328 969 4595 
Q 1241 4863 1831 4863 
L 2375 4863 
z
" transform="scale(0.015625)"/>
       <path id="DejaVuSans-79" d="M 2059 -325 
Q 1816 -950 1584 -1140 
Q 1353 -1331 966 -1331 
L 506 -1331 
L 506 -850 
L 844 -850 
Q 1081 -850 1212 -737 
Q 1344 -625 1503 -206 
L 1606 56 
L 191 3500 
L 800 3500 
L 1894 763 
L 2988 3500 
L 3597 3500 
L 2059 -325 
z
" transform="scale(0.015625)"/>
      </defs>
      <use xlink:href="#DejaVuSans-4f"/>
      <use xlink:href="#DejaVuSans-70" x="78.710938"/>
      <use xlink:href="#DejaVuSans-74" x="142.1875"/>
      <use xlink:href="#DejaVuSans-69" x="181.396484"/>
      <use xlink:href="#DejaVuSans-63" x="209.179688"/>
      <use xlink:href="#DejaVuSans-61" x="264.160156"/>
      <use xlink:href="#DejaVuSans-6c" x="325.439453"/>
      <use xlink:href="#DejaVuSans-20" x="353.222656"/>
      <use xlink:href="#DejaVuSans-65" x="385.009766"/>
      <use xlink:href="#DejaVuSans-66" x="446.533203"/>
      <use xlink:href="#DejaVuSans-66" x="481.738281"/>
      <use xlink:href="#DejaVuSans-69" x="516.943359"/>
      <use xlink:href="#DejaVuSans-63" x="544.726562"/>
      <use xlink:href="#DejaVuSans-69" x="599.707031"/>
      <use xlink:href="#DejaVuSans-65" x="627.490234"/>
      <use xlink:href="#DejaVuSans-6e" x="689.013672"/>
      <use xlink:href="#DejaVuSans-63" x="752.392578"/>
      <use xlink:href="#DejaVuSans-79" x="807.373047"/>
     </g>
    </g>
   </g>
   <g id="line2d_14">
    <path d="M 414.72 198.557261 
L 412.635063 191.278948 
L 410.560532 187.449747 
L 408.496332 179.35218 
L 406.442384 168.08685 
L 404.398613 160.161037 
L 402.364942 153.167896 
L 400.341298 143.994137 
L 398.327607 137.12422 
L 396.323794 134.138904 
L 394.329788 130.83532 
L 392.345517 127.094869 
L 390.370909 126.151593 
L 388.405895 126.410769 
L 386.450404 124.69362 
L 384.504367 122.105952 
L 382.567717 120.10156 
L 380.640385 117.481303 
L 378.722304 114.643084 
L 376.813408 113.278528 
L 374.913631 112.078235 
L 373.022907 109.538582 
L 371.141173 107.546002 
L 367.404416 107.10741 
L 365.549268 106.601035 
L 363.702857 107.575535 
L 361.865121 109.357568 
L 360.036 109.746343 
L 358.215433 108.738781 
L 356.403359 107.033853 
L 354.599721 103.594699 
L 352.804458 98.544053 
L 351.017514 94.780317 
L 349.238829 93.679045 
L 347.468347 93.555964 
L 345.706012 93.687564 
L 343.951767 95.109339 
L 342.205557 97.784667 
L 340.467327 100.995676 
L 337.014587 108.987612 
L 335.29997 110.863639 
L 333.593117 110.143066 
L 331.893976 109.591858 
L 330.202494 111.173104 
L 328.518621 113.87479 
L 326.842304 116.786772 
L 325.173493 120.889316 
L 323.512137 126.827223 
L 321.858187 133.845341 
L 320.211594 141.810844 
L 318.572308 151.666024 
L 315.315464 173.75047 
L 313.69781 182.155045 
L 310.483804 196.313183 
L 308.887358 205.34997 
L 307.297888 216.505855 
L 305.715349 228.596251 
L 304.139695 239.207028 
L 302.570883 246.973172 
L 299.453602 259.407806 
L 296.363156 273.208962 
L 294.827888 279.048802 
L 293.2992 283.877262 
L 291.777049 287.417701 
L 290.261394 289.072018 
L 288.752193 288.734939 
L 287.249405 287.3963 
L 285.752989 286.578658 
L 284.262906 286.968823 
L 282.779113 287.960077 
L 281.301573 288.696963 
L 279.830245 289.130897 
L 278.365091 289.773653 
L 276.906071 290.838049 
L 272.565437 294.774925 
L 271.130574 295.456522 
L 268.278649 295.926166 
L 266.861513 296.915103 
L 264.044712 300.202427 
L 262.644976 301.33439 
L 261.250969 301.785747 
L 259.862655 301.73912 
L 258.48 301.429288 
L 257.102969 300.94913 
L 251.65041 298.377618 
L 248.956999 297.530425 
L 247.618396 297.45914 
L 246.28515 297.716045 
L 243.634605 298.689099 
L 242.317241 299.218828 
L 241.005109 299.520429 
L 239.698177 299.357904 
L 237.099789 298.272471 
L 235.808273 297.942997 
L 231.964073 297.539979 
L 230.692691 297.011923 
L 228.164776 295.450099 
L 226.908187 294.856155 
L 225.656471 294.051394 
L 224.4096 292.73832 
L 221.930283 289.781268 
L 219.470013 287.553849 
L 218.246952 286.577801 
L 217.028571 285.925428 
L 215.814844 285.715754 
L 214.605743 286.01228 
L 213.401243 286.94591 
L 211.005938 289.926202 
L 209.815082 290.31487 
L 208.628722 288.913017 
L 207.446834 285.86661 
L 206.269392 282.227208 
L 205.09637 279.646663 
L 203.927745 279.580612 
L 201.603584 284.324645 
L 200.448 283.695013 
L 199.296714 279.250537 
L 198.149703 273.236518 
L 197.006943 268.31865 
L 195.868409 265.047188 
L 194.73408 263.410665 
L 193.603931 264.543544 
L 192.47794 268.265249 
L 191.356083 271.410623 
L 190.238338 271.844794 
L 189.124683 270.717875 
L 188.015094 270.147117 
L 186.90955 270.900384 
L 184.710508 273.980515 
L 183.616967 274.781596 
L 182.527382 274.625429 
L 181.441734 274.112253 
L 180.36 274.046538 
L 179.28216 274.821786 
L 178.208192 276.690375 
L 176.07179 282.777497 
L 175.009315 284.13639 
L 173.95063 283.160364 
L 172.895715 280.846106 
L 171.84455 278.010642 
L 169.753388 271.729629 
L 168.713353 270.278402 
L 167.676988 270.806099 
L 166.644275 272.54109 
L 163.56785 279.185769 
L 162.549551 280.789805 
L 161.534808 281.420762 
L 160.523603 281.070873 
L 159.515916 280.266105 
L 158.511731 279.941094 
L 157.511029 280.763657 
L 156.513791 282.579614 
L 154.529638 287.451847 
L 153.542687 289.3086 
L 152.559129 289.660931 
L 151.578947 288.892088 
L 150.602125 288.382284 
L 149.628643 288.559202 
L 148.658486 288.260224 
L 147.691636 286.659198 
L 146.728077 284.752543 
L 145.767792 284.178696 
L 144.810763 285.17785 
L 143.856975 286.414775 
L 142.906411 286.510941 
L 141.959055 285.221011 
L 141.014891 283.354485 
L 140.073901 282.158559 
L 139.136072 282.524237 
L 138.201385 284.35763 
L 137.269827 286.780012 
L 136.341381 288.857719 
L 135.416031 290.243829 
L 134.493762 291.159287 
L 133.57456 291.703282 
L 132.658407 291.613663 
L 130.835193 290.347759 
L 129.928101 290.28913 
L 129.024 290.666436 
L 128.122874 291.224727 
L 126.329492 292.571669 
L 125.437205 292.751863 
L 124.547837 292.720625 
L 123.661371 293.198616 
L 122.777795 293.940232 
L 121.897093 293.432438 
L 121.019253 290.67286 
L 120.144259 286.746625 
L 119.272099 283.910535 
L 118.402759 283.122074 
L 117.536224 283.640685 
L 115.811517 285.198484 
L 114.097873 286.409794 
L 112.395184 287.723684 
L 111.547915 287.83455 
L 110.703346 286.991491 
L 109.861463 285.008779 
L 109.022255 282.536484 
L 108.185708 280.897483 
L 107.35181 280.860137 
L 106.520548 281.70369 
L 105.69191 282.216466 
L 104.865882 282.312745 
L 104.042454 282.558615 
L 103.221613 282.588078 
L 102.403346 281.412967 
L 100.774487 276.617767 
L 99.963871 275.963913 
L 99.155782 277.466816 
L 98.350207 279.782075 
L 97.547136 281.158781 
L 96.746556 281.262021 
L 95.152825 281.011802 
L 94.35965 279.319778 
L 93.568921 276.510084 
L 92.780626 275.376706 
L 91.994754 276.484548 
L 91.211294 277.245939 
L 90.430235 276.557474 
L 89.651566 276.165445 
L 88.875275 276.459649 
L 88.101352 275.430774 
L 87.329787 273.128357 
L 86.560568 272.0795 
L 85.793684 271.889003 
L 85.029126 269.782058 
L 84.266882 265.782806 
L 83.506942 263.298399 
L 82.749296 264.094777 
L 80.490015 271.18923 
L 79.74144 270.866059 
L 78.251007 264.539898 
L 77.509129 265.101174 
L 76.769463 267.681087 
L 76.032 268.972092 
L 75.296729 268.832964 
L 74.563642 269.170929 
L 73.832727 270.081514 
L 73.103976 270.182054 
L 72.377379 269.636453 
L 71.652927 269.935309 
L 70.930609 271.553913 
L 68.776372 278.972308 
L 68.0625 279.327578 
L 66.641013 275.808203 
L 65.933379 276.020843 
L 65.227806 276.791571 
L 64.524285 275.278077 
L 62.425946 264.109686 
L 61.730545 259.98094 
L 61.037151 258.901287 
L 59.656353 265.414265 
L 58.968931 264.382624 
L 58.283483 262.725804 
L 57.6 264.931524 
L 57.6 264.931524 
" clip-path="url(#pd885cf0de2)" style="fill: none; stroke: #000000; stroke-width: 1.5; stroke-linecap: square"/>
   </g>
   <g id="line2d_15">
    <path d="M 414.72 227.00816 
L 412.635063 233.879936 
L 410.560532 238.876703 
L 406.442384 249.936237 
L 404.398613 254.00105 
L 402.364942 257.522194 
L 398.327607 266.253063 
L 396.323794 269.133572 
L 394.329788 270.956459 
L 392.345517 272.127949 
L 390.370909 272.782542 
L 386.450404 273.698621 
L 380.640385 274.02912 
L 378.722304 273.996789 
L 376.813408 273.638035 
L 374.913631 273.602808 
L 373.022907 274.516827 
L 369.268364 277.906721 
L 367.404416 279.055483 
L 365.549268 279.448462 
L 363.702857 279.559727 
L 361.865121 280.032606 
L 358.215433 281.412676 
L 356.403359 282.453562 
L 354.599721 284.620928 
L 352.804458 287.259738 
L 351.017514 288.819383 
L 349.238829 288.860664 
L 347.468347 288.046781 
L 345.706012 286.546167 
L 343.951767 284.081882 
L 342.205557 281.018162 
L 340.467327 278.210558 
L 338.737021 276.277771 
L 337.014587 275.568273 
L 335.29997 276.12424 
L 333.593117 277.065833 
L 331.893976 276.797226 
L 330.202494 274.711161 
L 328.518621 271.922704 
L 326.842304 269.786874 
L 323.512137 267.02456 
L 321.858187 264.744087 
L 320.211594 260.681355 
L 318.572308 253.888458 
L 316.94028 244.410475 
L 315.315464 233.870176 
L 313.69781 224.193471 
L 310.483804 207.775085 
L 308.887358 198.541451 
L 307.297888 187.524538 
L 304.139695 164.347086 
L 302.570883 155.521525 
L 301.008866 149.08478 
L 299.453602 144.529417 
L 297.905047 141.43965 
L 296.363156 138.873434 
L 294.827888 135.399191 
L 293.2992 130.502601 
L 291.777049 125.149317 
L 290.261394 120.582175 
L 288.752193 117.182331 
L 287.249405 114.724986 
L 285.752989 113.014859 
L 284.262906 111.785283 
L 282.779113 110.353016 
L 281.301573 107.930201 
L 278.365091 101.139533 
L 276.906071 98.771694 
L 272.565437 94.367156 
L 271.130574 93.071373 
L 269.701657 92.504387 
L 268.278649 92.362058 
L 266.861513 91.746196 
L 265.450213 90.15383 
L 262.644976 85.867505 
L 261.250969 84.047033 
L 259.862655 82.526132 
L 258.48 81.622646 
L 257.102969 81.60105 
L 254.365645 82.666048 
L 253.005283 83.010424 
L 251.65041 83.163924 
L 250.300993 82.991426 
L 248.956999 82.568163 
L 247.618396 82.394683 
L 246.28515 82.841606 
L 244.95723 83.813864 
L 243.634605 85.168513 
L 239.698177 90.181914 
L 238.396414 90.894363 
L 237.099789 90.980389 
L 235.808273 90.764216 
L 234.521835 90.824535 
L 233.240445 91.910019 
L 230.692691 96.609886 
L 229.426268 98.214452 
L 228.164776 99.219214 
L 226.908187 100.983684 
L 225.656471 104.289919 
L 223.167547 112.304465 
L 221.930283 115.2665 
L 220.697781 117.47642 
L 219.470013 118.773513 
L 218.246952 118.679136 
L 217.028571 117.309827 
L 214.605743 113.857591 
L 213.401243 112.792556 
L 212.201316 113.127025 
L 211.005938 115.937356 
L 209.815082 121.2953 
L 208.628722 128.709582 
L 207.446834 138.809092 
L 205.09637 166.117796 
L 203.927745 175.123082 
L 202.763491 176.201531 
L 201.603584 172.574757 
L 200.448 170.577262 
L 199.296714 173.233783 
L 198.149703 178.241159 
L 197.006943 182.204566 
L 195.868409 185.426886 
L 194.73408 190.682034 
L 192.47794 207.481594 
L 191.356083 213.981978 
L 188.015094 229.681527 
L 186.90955 233.368354 
L 185.808029 235.585365 
L 184.710508 237.064999 
L 183.616967 238.12028 
L 182.527382 238.570139 
L 181.441734 238.122007 
L 180.36 236.351547 
L 178.208192 230.017008 
L 177.138075 228.684305 
L 176.07179 230.300044 
L 173.95063 237.318405 
L 171.84455 241.538811 
L 170.797114 244.899424 
L 169.753388 249.776508 
L 168.713353 253.971188 
L 167.676988 254.817466 
L 166.644275 251.870004 
L 165.615193 247.261284 
L 164.589725 243.254624 
L 163.56785 239.893668 
L 161.534808 232.385864 
L 160.523603 231.113321 
L 159.515916 232.863709 
L 158.511731 235.669946 
L 157.511029 237.869694 
L 156.513791 240.532259 
L 155.52 245.080935 
L 154.529638 250.272897 
L 153.542687 253.709344 
L 152.559129 255.541408 
L 151.578947 258.087593 
L 150.602125 261.88373 
L 149.628643 265.029817 
L 148.658486 266.418139 
L 146.728077 267.343645 
L 145.767792 268.103835 
L 144.810763 269.672645 
L 143.856975 272.069448 
L 142.906411 273.832727 
L 141.959055 273.517461 
L 140.073901 269.80512 
L 139.136072 269.150935 
L 138.201385 270.003263 
L 137.269827 272.715898 
L 136.341381 276.753676 
L 135.416031 280.05056 
L 134.493762 280.700297 
L 133.57456 278.951648 
L 132.658407 276.73768 
L 131.74529 275.320972 
L 129.928101 273.543056 
L 129.024 272.980033 
L 128.122874 273.167797 
L 127.22471 273.49903 
L 126.329492 272.862912 
L 125.437205 271.276817 
L 124.547837 269.995336 
L 123.661371 269.829431 
L 122.777795 269.891533 
L 121.897093 268.712991 
L 121.019253 266.362438 
L 120.144259 264.973666 
L 119.272099 266.585656 
L 117.536224 274.169542 
L 116.672481 276.056737 
L 115.811517 276.971811 
L 114.097873 279.350031 
L 113.245165 279.4287 
L 112.395184 278.189392 
L 111.547915 276.002196 
L 109.861463 270.179495 
L 109.022255 268.644394 
L 108.185708 268.507816 
L 107.35181 268.160485 
L 106.520548 266.893071 
L 105.69191 266.351159 
L 104.865882 267.864917 
L 104.042454 270.018464 
L 103.221613 270.799451 
L 102.403346 270.259068 
L 101.587641 269.000586 
L 100.774487 266.520109 
L 99.963871 262.957209 
L 99.155782 260.069114 
L 98.350207 258.894395 
L 97.547136 258.828725 
L 96.746556 258.913842 
L 95.948456 258.355301 
L 95.152825 256.377053 
L 94.35965 253.083851 
L 93.568921 250.314255 
L 92.780626 249.975325 
L 91.994754 251.823353 
L 90.430235 257.156594 
L 89.651566 259.22623 
L 88.875275 260.203799 
L 88.101352 259.944792 
L 86.560568 258.117835 
L 85.029126 257.367281 
L 84.266882 256.345198 
L 83.506942 253.953474 
L 81.993933 246.763226 
L 78.251007 227.452133 
L 77.509129 222.681883 
L 76.769463 219.688534 
L 76.032 219.648403 
L 75.296729 220.342979 
L 74.563642 219.761082 
L 73.832727 219.007444 
L 73.103976 220.265412 
L 72.377379 224.603491 
L 70.930609 240.776832 
L 70.210417 245.988136 
L 69.492341 246.305138 
L 68.776372 245.331062 
L 68.0625 247.20745 
L 67.350717 251.347007 
L 66.641013 254.515899 
L 65.933379 255.231361 
L 65.227806 254.158957 
L 64.524285 251.451371 
L 63.123364 242.417828 
L 62.425946 240.830914 
L 61.730545 241.984893 
L 61.037151 242.183607 
L 60.345757 238.24336 
L 59.656353 231.873894 
L 58.968931 227.312791 
L 58.283483 227.260722 
L 57.6 229.859333 
L 57.6 229.859333 
" clip-path="url(#pd885cf0de2)" style="fill: none; stroke: #000000; stroke-width: 1.5; stroke-linecap: square"/>
   </g>
   <g id="line2d_16">
    <path d="M 414.72 285.988458 
L 410.560532 289.967703 
L 408.496332 291.279907 
L 402.364942 293.188391 
L 400.341298 293.05103 
L 398.327607 292.62718 
L 396.323794 292.506356 
L 394.329788 292.504856 
L 390.370909 292.168222 
L 386.450404 292.687238 
L 384.504367 292.586482 
L 382.567717 292.602622 
L 380.640385 293.366642 
L 376.813408 295.999499 
L 373.022907 298.678541 
L 371.141173 299.040701 
L 365.549268 297.15369 
L 363.702857 296.135149 
L 361.865121 294.804621 
L 360.036 293.866898 
L 358.215433 293.640519 
L 356.403359 293.936987 
L 354.599721 294.432291 
L 352.804458 294.667754 
L 351.017514 294.443109 
L 349.238829 294.438687 
L 347.468347 295.341466 
L 345.706012 296.642408 
L 343.951767 297.42064 
L 342.205557 297.65543 
L 340.467327 297.587217 
L 338.737021 296.917185 
L 337.014587 295.707391 
L 335.29997 294.770754 
L 331.893976 294.176412 
L 328.518621 293.030044 
L 326.842304 292.041666 
L 325.173493 290.269681 
L 323.512137 288.170943 
L 321.858187 286.762069 
L 320.211594 286.397532 
L 318.572308 286.67437 
L 316.94028 287.249289 
L 308.887358 291.147512 
L 305.715349 293.784563 
L 304.139695 294.605565 
L 302.570883 294.612897 
L 301.008866 294.288913 
L 299.453602 294.21495 
L 296.363156 294.797401 
L 294.827888 295.065751 
L 293.2992 295.108085 
L 290.261394 294.757553 
L 288.752193 295.20418 
L 287.249405 295.988259 
L 285.752989 296.349347 
L 284.262906 295.932074 
L 282.779113 295.113335 
L 281.301573 294.467517 
L 279.830245 294.19841 
L 278.365091 294.053872 
L 275.453148 293.51738 
L 274.006282 293.728692 
L 272.565437 294.495743 
L 271.130574 295.411391 
L 265.450213 298.300566 
L 264.044712 299.094296 
L 257.102969 301.778506 
L 254.365645 302.326093 
L 253.005283 302.668836 
L 251.65041 302.728004 
L 248.956999 302.183095 
L 247.618396 301.860438 
L 246.28515 301.333507 
L 243.634605 299.850106 
L 242.317241 298.826191 
L 239.698177 296.147536 
L 238.396414 295.553416 
L 237.099789 295.818094 
L 235.808273 296.455871 
L 234.521835 296.817405 
L 233.240445 296.648801 
L 231.964073 296.314864 
L 230.692691 296.399408 
L 229.426268 296.971156 
L 228.164776 297.391361 
L 226.908187 296.995188 
L 225.656471 295.768647 
L 224.4096 294.235651 
L 223.167547 292.961308 
L 221.930283 292.221814 
L 220.697781 291.988139 
L 219.470013 292.183337 
L 218.246952 292.82933 
L 215.814844 294.603535 
L 214.605743 294.906924 
L 213.401243 294.682334 
L 212.201316 293.848812 
L 211.005938 292.017164 
L 209.815082 289.109176 
L 207.446834 282.0809 
L 205.09637 274.868206 
L 203.927745 271.882808 
L 202.763491 269.658558 
L 201.603584 268.064234 
L 200.448 267.08278 
L 199.296714 266.986154 
L 198.149703 268.165996 
L 197.006943 270.663878 
L 195.868409 273.459695 
L 194.73408 274.432586 
L 193.603931 271.799128 
L 190.238338 255.470838 
L 188.015094 243.928165 
L 186.90955 240.49641 
L 184.710508 237.237129 
L 183.616967 234.977817 
L 182.527382 233.058091 
L 179.28216 229.676353 
L 178.208192 228.828849 
L 177.138075 229.340425 
L 176.07179 231.866743 
L 175.009315 235.687609 
L 173.95063 238.983481 
L 172.895715 240.491736 
L 171.84455 240.023983 
L 170.797114 237.686066 
L 169.753388 234.255349 
L 168.713353 231.78218 
L 167.676988 231.644593 
L 166.644275 232.469116 
L 165.615193 231.786068 
L 164.589725 229.188134 
L 162.549551 223.148689 
L 161.534808 218.936323 
L 158.511731 200.775158 
L 157.511029 197.530965 
L 156.513791 193.819611 
L 154.529638 181.27063 
L 153.542687 178.790648 
L 152.559129 179.05057 
L 151.578947 176.022685 
L 150.602125 168.200371 
L 149.628643 162.041092 
L 148.658486 162.829931 
L 147.691636 167.520907 
L 146.728077 169.783438 
L 145.767792 167.274571 
L 144.810763 161.479304 
L 143.856975 154.562835 
L 142.906411 149.147152 
L 141.959055 147.798852 
L 140.073901 153.01373 
L 139.136072 152.622912 
L 138.201385 148.921576 
L 136.341381 138.848808 
L 135.416031 135.690385 
L 134.493762 134.003589 
L 133.57456 133.125714 
L 132.658407 134.101406 
L 131.74529 138.732045 
L 130.835193 146.116535 
L 129.928101 152.219486 
L 129.024 153.195149 
L 128.122874 148.957232 
L 127.22471 143.074958 
L 126.329492 139.179196 
L 125.437205 138.314676 
L 123.661371 139.836191 
L 122.777795 141.973701 
L 121.897093 148.931087 
L 120.144259 173.284555 
L 119.272099 177.582122 
L 118.402759 173.058224 
L 116.672481 156.751522 
L 115.811517 151.113501 
L 113.245165 138.28715 
L 112.395184 136.453988 
L 111.547915 137.592065 
L 110.703346 140.902223 
L 109.022255 149.383056 
L 107.35181 158.439467 
L 106.520548 161.892443 
L 105.69191 163.663119 
L 104.865882 163.639514 
L 104.042454 162.683819 
L 103.221613 162.52811 
L 102.403346 164.622881 
L 101.587641 169.436511 
L 99.155782 190.948351 
L 98.350207 194.688615 
L 97.547136 195.319023 
L 96.746556 193.441314 
L 95.948456 191.878052 
L 95.152825 194.284552 
L 94.35965 200.460531 
L 93.568921 204.742225 
L 92.780626 202.507471 
L 91.994754 196.763647 
L 91.211294 193.40813 
L 90.430235 193.838626 
L 88.875275 197.152893 
L 88.101352 200.443493 
L 86.560568 209.901701 
L 85.029126 216.754635 
L 81.993933 228.22407 
L 81.240843 228.255246 
L 80.490015 227.058025 
L 79.74144 228.331071 
L 78.995107 233.156235 
L 78.251007 238.75105 
L 77.509129 242.898175 
L 76.769463 245.491323 
L 76.032 246.186484 
L 75.296729 244.662855 
L 74.563642 242.614026 
L 73.832727 242.632328 
L 73.103976 244.670925 
L 72.377379 245.822352 
L 71.652927 244.052748 
L 70.210417 236.315223 
L 69.492341 234.961941 
L 68.776372 236.455694 
L 68.0625 238.458362 
L 67.350717 238.731008 
L 66.641013 238.197245 
L 65.227806 239.400832 
L 63.822807 237.791544 
L 63.123364 238.922405 
L 62.425946 240.288892 
L 61.730545 240.363532 
L 61.037151 241.463224 
L 60.345757 245.623682 
L 59.656353 250.774428 
L 58.968931 254.13533 
L 58.283483 253.965506 
L 57.6 250.34501 
L 57.6 250.34501 
" clip-path="url(#pd885cf0de2)" style="fill: none; stroke: #000000; stroke-width: 1.5; stroke-linecap: square"/>
   </g>
   <g id="line2d_17">
    <path d="M 414.72 215.15238 
L 412.635063 205.406934 
L 410.560532 201.172314 
L 408.496332 195.231434 
L 406.442384 183.877677 
L 404.398613 174.198569 
L 402.364942 168.127981 
L 400.341298 159.918717 
L 398.327607 150.477217 
L 396.323794 145.614955 
L 394.329788 143.980821 
L 392.345517 141.496603 
L 390.370909 140.034027 
L 388.405895 141.139226 
L 386.450404 141.022693 
L 384.504367 138.193305 
L 382.567717 135.919144 
L 380.640385 134.871281 
L 378.722304 132.77284 
L 376.813408 130.200197 
L 373.022907 127.475107 
L 371.141173 125.3862 
L 369.268364 124.472651 
L 367.404416 124.848909 
L 365.549268 124.2079 
L 363.702857 122.789304 
L 361.865121 123.065656 
L 360.036 124.82491 
L 358.215433 125.570927 
L 356.403359 124.345518 
L 354.599721 121.65787 
L 352.804458 118.036189 
L 351.017514 114.749043 
L 349.238829 113.256241 
L 347.468347 113.21579 
L 345.706012 113.417593 
L 343.951767 113.933711 
L 342.205557 115.317053 
L 340.467327 117.369886 
L 338.737021 119.987839 
L 337.014587 122.937609 
L 335.29997 124.593041 
L 333.593117 123.759591 
L 331.893976 122.223387 
L 330.202494 122.628555 
L 328.518621 125.14396 
L 326.842304 128.79864 
L 325.173493 133.933972 
L 323.512137 140.861418 
L 320.211594 156.722025 
L 318.572308 166.597529 
L 315.315464 189.560166 
L 313.69781 198.883317 
L 308.887358 222.701347 
L 305.715349 242.185137 
L 304.139695 250.560693 
L 302.570883 256.610987 
L 301.008866 261.677878 
L 299.453602 267.334601 
L 296.363156 279.206429 
L 294.827888 283.975941 
L 293.2992 287.890382 
L 291.777049 290.746078 
L 290.261394 292.031041 
L 288.752193 291.624584 
L 287.249405 290.308973 
L 285.752989 289.392799 
L 284.262906 289.613065 
L 282.779113 290.542334 
L 281.301573 291.328299 
L 278.365091 292.203826 
L 276.906071 292.992827 
L 274.006282 295.306684 
L 272.565437 296.401619 
L 271.130574 297.061711 
L 268.278649 297.580519 
L 266.861513 298.42142 
L 264.044712 301.206242 
L 262.644976 302.171022 
L 261.250969 302.547096 
L 259.862655 302.483668 
L 258.48 302.182012 
L 257.102969 301.736906 
L 251.65041 299.565319 
L 248.956999 298.785228 
L 247.618396 298.664837 
L 246.28515 298.82686 
L 243.634605 299.590268 
L 242.317241 299.999529 
L 241.005109 300.205364 
L 239.698177 300.014704 
L 237.099789 299.053348 
L 235.808273 298.818635 
L 231.964073 298.533548 
L 230.692691 298.054631 
L 228.164776 296.622989 
L 226.908187 296.053713 
L 225.656471 295.350253 
L 224.4096 294.288487 
L 223.167547 293.081253 
L 221.930283 292.07505 
L 218.246952 289.815109 
L 217.028571 289.354923 
L 215.814844 289.344029 
L 214.605743 289.889785 
L 213.401243 291.038633 
L 212.201316 292.598382 
L 211.005938 293.966693 
L 209.815082 294.3486 
L 208.628722 293.240204 
L 207.446834 290.751309 
L 206.269392 287.687115 
L 205.09637 285.446784 
L 203.927745 285.357432 
L 201.603584 289.585554 
L 200.448 289.63661 
L 199.296714 287.039687 
L 198.149703 283.280252 
L 197.006943 280.005009 
L 195.868409 277.991764 
L 194.73408 277.664344 
L 193.603931 279.116953 
L 192.47794 281.275576 
L 191.356083 282.335451 
L 190.238338 281.643574 
L 189.124683 280.359808 
L 188.015094 279.990961 
L 186.90955 280.982918 
L 184.710508 284.431038 
L 183.616967 285.242765 
L 182.527382 285.165601 
L 181.441734 284.765389 
L 180.36 284.533042 
L 179.28216 284.703127 
L 178.208192 285.680441 
L 176.07179 289.950739 
L 175.009315 290.954765 
L 173.95063 290.203044 
L 172.895715 288.368095 
L 171.84455 286.015169 
L 169.753388 280.336968 
L 168.713353 278.526025 
L 167.676988 278.342681 
L 166.644275 279.41361 
L 165.615193 281.105606 
L 163.56785 284.936978 
L 162.549551 286.253627 
L 161.534808 286.691664 
L 160.523603 286.415757 
L 159.515916 285.958791 
L 158.511731 285.833134 
L 157.511029 286.268099 
L 156.513791 287.322984 
L 155.52 289.039669 
L 154.529638 291.141084 
L 153.542687 292.759849 
L 152.559129 293.123482 
L 151.578947 292.571272 
L 150.602125 292.193772 
L 149.628643 292.297909 
L 148.658486 292.002418 
L 146.728077 289.248726 
L 145.767792 288.909089 
L 143.856975 290.891312 
L 142.906411 291.053398 
L 141.959055 290.221777 
L 141.014891 288.998624 
L 140.073901 288.104968 
L 139.136072 288.101696 
L 138.201385 289.153394 
L 136.341381 292.40422 
L 135.416031 293.561269 
L 134.493762 294.389628 
L 133.57456 294.823636 
L 132.658407 294.575326 
L 131.74529 293.815752 
L 130.835193 293.301406 
L 129.928101 293.494975 
L 128.122874 294.567725 
L 127.22471 294.928732 
L 126.329492 295.155913 
L 124.547837 294.942601 
L 123.661371 295.246856 
L 122.777795 295.839903 
L 121.897093 295.529764 
L 121.019253 293.493128 
L 120.144259 290.500618 
L 119.272099 288.147893 
L 118.402759 287.234584 
L 117.536224 287.397228 
L 113.245165 290.089456 
L 112.395184 290.446991 
L 111.547915 290.491364 
L 110.703346 289.757506 
L 109.861463 288.046983 
L 109.022255 286.069644 
L 108.185708 285.131791 
L 107.35181 285.787363 
L 106.520548 287.214684 
L 105.69191 288.358676 
L 104.042454 289.755286 
L 103.221613 290.039036 
L 102.403346 289.454447 
L 100.774487 286.636525 
L 99.963871 285.816371 
L 99.155782 286.168279 
L 97.547136 288.451405 
L 96.746556 288.691834 
L 95.152825 288.715462 
L 94.35965 287.768784 
L 93.568921 285.868776 
L 92.780626 284.790085 
L 91.211294 285.787779 
L 90.430235 285.309008 
L 89.651566 285.156518 
L 88.875275 285.811689 
L 88.101352 285.537336 
L 86.560568 282.06465 
L 85.793684 281.385299 
L 85.029126 280.285857 
L 84.266882 278.614256 
L 83.506942 278.169078 
L 82.749296 279.415623 
L 81.240843 282.386895 
L 80.490015 283.734438 
L 79.74144 283.790827 
L 78.251007 279.853695 
L 77.509129 280.360888 
L 76.769463 282.229913 
L 76.032 283.181911 
L 75.296729 283.41573 
L 74.563642 284.276331 
L 73.832727 285.362145 
L 73.103976 285.510679 
L 72.377379 284.941622 
L 71.652927 284.598752 
L 70.930609 284.823727 
L 70.210417 285.689217 
L 68.776372 288.480869 
L 68.0625 288.471858 
L 67.350717 287.375034 
L 66.641013 286.748056 
L 65.227806 288.187051 
L 64.524285 287.528556 
L 62.425946 281.364231 
L 61.730545 279.9144 
L 61.037151 279.631922 
L 59.656353 282.838283 
L 58.968931 282.921321 
L 58.283483 282.263889 
L 57.6 283.117099 
L 57.6 283.117099 
" clip-path="url(#pd885cf0de2)" style="fill: none; stroke-dasharray: 5.55,2.4; stroke-dashoffset: 0; stroke: #000000; stroke-width: 1.5"/>
   </g>
   <g id="line2d_18">
    <path d="M 414.72 239.272727 
L 412.635063 242.83303 
L 410.560532 246.724927 
L 408.496332 252.139672 
L 406.442384 256.46186 
L 404.398613 259.103189 
L 402.364942 262.372264 
L 400.341298 266.406874 
L 398.327607 269.49073 
L 396.323794 271.677657 
L 394.329788 273.680595 
L 392.345517 274.957087 
L 390.370909 275.445401 
L 386.450404 276.724022 
L 382.567717 276.714495 
L 380.640385 277.098612 
L 378.722304 277.152822 
L 376.813408 276.59432 
L 374.913631 276.515392 
L 373.022907 277.511646 
L 369.268364 280.447541 
L 367.404416 281.58016 
L 365.549268 281.913242 
L 363.702857 281.691411 
L 361.865121 281.937887 
L 356.403359 284.622844 
L 354.599721 286.654298 
L 352.804458 289.154894 
L 351.017514 290.580186 
L 349.238829 290.574278 
L 347.468347 289.841398 
L 345.706012 288.486719 
L 343.951767 286.164072 
L 340.467327 280.5387 
L 338.737021 278.601421 
L 337.014587 277.817152 
L 335.29997 278.319863 
L 333.593117 279.17052 
L 331.893976 278.761365 
L 330.202494 276.628434 
L 328.518621 273.997325 
L 326.842304 272.166437 
L 323.512137 270.173649 
L 321.858187 268.371543 
L 320.211594 264.900215 
L 318.572308 259.030618 
L 313.69781 235.315141 
L 310.483804 223.918401 
L 308.887358 217.048384 
L 307.297888 208.310533 
L 304.139695 188.130881 
L 302.570883 179.701199 
L 301.008866 174.132817 
L 299.453602 171.358024 
L 297.905047 170.008976 
L 296.363156 168.308634 
L 294.827888 165.130138 
L 293.2992 160.479259 
L 291.777049 155.259524 
L 290.261394 150.473234 
L 287.249405 142.550608 
L 285.752989 139.081802 
L 284.262906 136.899754 
L 281.301573 135.745912 
L 279.830245 133.33524 
L 278.365091 129.308318 
L 276.906071 125.640521 
L 275.453148 123.454556 
L 274.006282 122.224577 
L 272.565437 121.444722 
L 271.130574 121.464204 
L 269.701657 122.299399 
L 268.278649 122.904014 
L 266.861513 122.219841 
L 265.450213 120.26657 
L 262.644976 115.548577 
L 258.48 109.257819 
L 257.102969 108.43264 
L 255.731529 109.109225 
L 254.365645 110.571869 
L 253.005283 111.732743 
L 251.65041 112.116001 
L 250.300993 111.737225 
L 248.956999 110.652755 
L 247.618396 109.210864 
L 246.28515 108.14039 
L 244.95723 107.77957 
L 243.634605 107.702075 
L 241.005109 107.334732 
L 239.698177 107.540049 
L 238.396414 108.15312 
L 237.099789 109.14505 
L 234.521835 111.870763 
L 233.240445 113.367308 
L 231.964073 115.269275 
L 230.692691 117.417954 
L 229.426268 118.868146 
L 228.164776 119.360208 
L 226.908187 120.422634 
L 225.656471 123.802069 
L 221.930283 140.045531 
L 220.697781 144.090695 
L 219.470013 146.84938 
L 218.246952 147.791647 
L 217.028571 147.438506 
L 215.814844 147.356877 
L 214.605743 148.679806 
L 213.401243 151.421489 
L 212.201316 155.210218 
L 211.005938 159.790309 
L 208.628722 170.165512 
L 207.446834 176.770126 
L 206.269392 185.645035 
L 205.09637 195.487853 
L 203.927745 202.448451 
L 202.763491 204.106911 
L 201.603584 203.111778 
L 200.448 204.653168 
L 198.149703 216.063002 
L 197.006943 219.52065 
L 195.868409 222.601088 
L 194.73408 228.403504 
L 193.603931 235.696321 
L 192.47794 240.604849 
L 191.356083 242.251 
L 190.238338 243.434901 
L 189.124683 246.285476 
L 186.90955 253.766611 
L 185.808029 256.739207 
L 184.710508 258.996071 
L 183.616967 260.273282 
L 182.527382 260.640816 
L 181.441734 260.229849 
L 180.36 258.624532 
L 178.208192 252.589056 
L 177.138075 251.351146 
L 176.07179 252.648077 
L 175.009315 255.313288 
L 173.95063 257.579847 
L 172.895715 258.695661 
L 171.84455 259.415053 
L 170.797114 261.010753 
L 169.753388 263.653998 
L 168.713353 265.824054 
L 167.676988 265.630462 
L 166.644275 262.796481 
L 165.615193 259.00793 
L 164.589725 255.99324 
L 163.56785 253.602311 
L 161.534808 247.535443 
L 160.523603 246.529341 
L 159.515916 248.434423 
L 158.511731 250.998308 
L 156.513791 253.252076 
L 155.52 256.397428 
L 154.529638 260.775213 
L 153.542687 263.883395 
L 152.559129 265.595495 
L 151.578947 267.830118 
L 150.602125 270.955109 
L 149.628643 273.392463 
L 148.658486 274.390216 
L 147.691636 274.769208 
L 146.728077 275.268151 
L 145.767792 276.083082 
L 144.810763 277.540086 
L 143.856975 279.57951 
L 142.906411 281.108069 
L 141.959055 281.135352 
L 141.014891 279.990166 
L 140.073901 278.640707 
L 139.136072 277.704841 
L 138.201385 277.762905 
L 137.269827 279.494815 
L 135.416031 285.318129 
L 134.493762 285.987666 
L 133.57456 284.577532 
L 132.658407 282.458061 
L 131.74529 280.877657 
L 130.835193 280.104769 
L 129.928101 279.853018 
L 129.024 279.946188 
L 128.122874 280.200706 
L 127.22471 280.021526 
L 126.329492 278.839851 
L 125.437205 277.007417 
L 124.547837 275.614591 
L 123.661371 275.205054 
L 122.777795 275.139591 
L 121.897093 274.473852 
L 121.019253 273.236952 
L 120.144259 272.650205 
L 119.272099 273.924026 
L 117.536224 279.412043 
L 116.672481 280.807489 
L 115.811517 281.593795 
L 114.097873 283.672291 
L 113.245165 283.513303 
L 112.395184 282.220071 
L 111.547915 280.250768 
L 109.861463 275.213444 
L 109.022255 274.137148 
L 108.185708 274.707973 
L 107.35181 275.429216 
L 106.520548 275.557862 
L 105.69191 276.334816 
L 104.042454 280.821367 
L 103.221613 281.764445 
L 102.403346 281.727767 
L 101.587641 281.294939 
L 100.774487 279.805845 
L 99.155782 273.797124 
L 98.350207 272.260208 
L 97.547136 272.283823 
L 96.746556 272.651797 
L 95.948456 272.386657 
L 95.152825 271.222679 
L 93.568921 267.562481 
L 92.780626 266.812887 
L 91.994754 267.625535 
L 89.651566 273.064812 
L 88.875275 274.44029 
L 88.101352 274.918984 
L 87.329787 273.890243 
L 86.560568 272.029511 
L 85.793684 270.96285 
L 85.029126 271.320699 
L 84.266882 272.073651 
L 83.506942 271.962089 
L 82.749296 270.602767 
L 81.993933 268.193932 
L 80.490015 262.625609 
L 78.995107 258.694201 
L 77.509129 253.178489 
L 76.769463 251.735714 
L 76.032 252.010153 
L 74.563642 254.296213 
L 73.103976 256.051624 
L 72.377379 258.071549 
L 70.930609 265.381787 
L 70.210417 267.514157 
L 69.492341 267.145672 
L 68.776372 266.019662 
L 68.0625 266.746374 
L 66.641013 272.786321 
L 65.933379 274.104491 
L 65.227806 273.930181 
L 64.524285 272.736992 
L 63.123364 267.545662 
L 62.425946 267.324584 
L 61.730545 269.454076 
L 61.037151 270.033157 
L 60.345757 266.973376 
L 59.656353 263.156382 
L 58.968931 261.759001 
L 58.283483 262.245701 
L 57.6 262.998506 
L 57.6 262.998506 
" clip-path="url(#pd885cf0de2)" style="fill: none; stroke-dasharray: 5.55,2.4; stroke-dashoffset: 0; stroke: #000000; stroke-width: 1.5"/>
   </g>
   <g id="line2d_19">
    <path d="M 414.72 289.275547 
L 412.635063 290.308414 
L 410.560532 291.979958 
L 408.496332 293.298882 
L 402.364942 294.583062 
L 400.341298 294.465735 
L 398.327607 293.798825 
L 396.323794 293.503973 
L 394.329788 293.626351 
L 390.370909 293.347771 
L 386.450404 294.017271 
L 382.567717 293.866576 
L 380.640385 294.6672 
L 373.022907 299.485089 
L 371.141173 299.802627 
L 365.549268 298.067425 
L 363.702857 297.006013 
L 361.865121 295.688362 
L 360.036 294.912373 
L 358.215433 294.820828 
L 356.403359 295.115009 
L 354.599721 295.59687 
L 352.804458 295.872142 
L 351.017514 295.676203 
L 349.238829 295.641784 
L 347.468347 296.46602 
L 345.706012 297.651672 
L 343.951767 298.321071 
L 342.205557 298.485135 
L 340.467327 298.379563 
L 338.737021 297.708911 
L 337.014587 296.541639 
L 335.29997 295.665009 
L 331.893976 295.031791 
L 328.518621 293.876731 
L 326.842304 293.020152 
L 325.173493 291.47946 
L 323.512137 289.678198 
L 321.858187 288.525159 
L 320.211594 288.30324 
L 318.572308 288.676784 
L 316.94028 289.386625 
L 310.483804 293.064119 
L 308.887358 293.937148 
L 305.715349 296.158589 
L 304.139695 296.760572 
L 302.570883 296.675451 
L 301.008866 296.38997 
L 299.453602 296.414661 
L 294.827888 297.227262 
L 293.2992 297.22003 
L 290.261394 296.807779 
L 288.752193 297.102061 
L 287.249405 297.661288 
L 285.752989 297.854484 
L 284.262906 297.426629 
L 282.779113 296.754315 
L 281.301573 296.294902 
L 278.365091 295.900021 
L 275.453148 295.267704 
L 274.006282 295.450402 
L 272.565437 296.157892 
L 271.130574 297.022554 
L 269.701657 297.7005 
L 266.861513 298.849231 
L 264.044712 300.248805 
L 257.102969 302.467808 
L 254.365645 302.978447 
L 253.005283 303.297471 
L 251.65041 303.354468 
L 248.956999 302.857191 
L 247.618396 302.542016 
L 246.28515 302.037112 
L 243.634605 300.633649 
L 242.317241 299.643536 
L 239.698177 297.060663 
L 238.396414 296.51162 
L 237.099789 296.804799 
L 235.808273 297.466577 
L 234.521835 297.862786 
L 233.240445 297.736739 
L 231.964073 297.429623 
L 230.692691 297.502528 
L 229.426268 298.018082 
L 228.164776 298.376603 
L 226.908187 297.991486 
L 225.656471 296.902684 
L 224.4096 295.629468 
L 223.167547 294.664845 
L 221.930283 294.201146 
L 220.697781 294.171495 
L 219.470013 294.473395 
L 218.246952 295.103202 
L 215.814844 296.757192 
L 214.605743 297.185621 
L 213.401243 297.240853 
L 212.201316 296.821297 
L 211.005938 295.579197 
L 209.815082 293.424532 
L 207.446834 287.817085 
L 205.09637 281.660392 
L 203.927745 279.247609 
L 202.763491 277.713847 
L 201.603584 277.002999 
L 200.448 277.156122 
L 199.296714 278.146905 
L 198.149703 279.692429 
L 197.006943 281.652238 
L 195.868409 283.844221 
L 194.73408 285.129755 
L 193.603931 283.915811 
L 192.47794 280.053382 
L 189.124683 264.690617 
L 188.015094 260.666153 
L 186.90955 258.935512 
L 184.710508 259.11467 
L 183.616967 258.132996 
L 182.527382 256.891524 
L 181.441734 255.974035 
L 180.36 254.853469 
L 179.28216 253.173911 
L 178.208192 251.746652 
L 177.138075 251.818772 
L 176.07179 253.761737 
L 175.009315 256.594497 
L 173.95063 258.76479 
L 172.895715 259.366345 
L 171.84455 258.310238 
L 170.797114 255.651388 
L 169.753388 251.858908 
L 168.713353 248.540652 
L 167.676988 247.206208 
L 166.644275 247.200442 
L 165.615193 246.546204 
L 164.589725 244.712222 
L 162.549551 240.36658 
L 161.534808 236.795475 
L 159.515916 227.19477 
L 157.511029 220.117574 
L 156.513791 215.400888 
L 155.52 209.350023 
L 154.529638 204.417679 
L 153.542687 203.112847 
L 152.559129 203.881892 
L 151.578947 201.91829 
L 150.602125 195.86764 
L 149.628643 190.642834 
L 148.658486 190.86264 
L 147.691636 194.64678 
L 146.728077 196.920408 
L 145.767792 195.632193 
L 144.810763 191.799245 
L 143.856975 186.921361 
L 142.906411 183.299413 
L 141.959055 183.529683 
L 141.014891 186.928462 
L 140.073901 189.164061 
L 139.136072 187.112032 
L 138.201385 181.682073 
L 137.269827 175.543874 
L 136.341381 170.804942 
L 135.416031 168.576269 
L 134.493762 168.142626 
L 133.57456 167.404493 
L 132.658407 166.273364 
L 131.74529 167.813541 
L 130.835193 173.786017 
L 129.928101 181.018459 
L 129.024 184.275305 
L 128.122874 181.372418 
L 126.329492 168.168644 
L 125.437205 165.031561 
L 124.547837 164.247622 
L 123.661371 163.72069 
L 122.777795 165.032221 
L 121.897093 172.444173 
L 120.144259 197.479503 
L 119.272099 200.851399 
L 118.402759 195.674538 
L 117.536224 186.992322 
L 116.672481 179.48003 
L 115.811517 174.738212 
L 114.953319 171.488168 
L 114.097873 167.546571 
L 113.245165 162.847729 
L 112.395184 159.919858 
L 111.547915 160.460391 
L 110.703346 163.291158 
L 109.861463 166.89816 
L 109.022255 171.698612 
L 108.185708 178.36047 
L 106.520548 192.916234 
L 105.69191 198.510504 
L 104.865882 202.330678 
L 104.042454 204.353465 
L 103.221613 205.767378 
L 102.403346 208.550035 
L 99.963871 222.828831 
L 99.155782 224.646744 
L 98.350207 225.679596 
L 97.547136 226.30103 
L 96.746556 225.659971 
L 95.948456 224.857014 
L 95.152825 227.131683 
L 94.35965 232.482882 
L 93.568921 235.715615 
L 92.780626 233.218689 
L 91.994754 228.16937 
L 91.211294 225.554945 
L 90.430235 225.922349 
L 89.651566 227.529458 
L 88.875275 230.334506 
L 88.101352 234.120428 
L 87.329787 236.709446 
L 86.560568 237.373497 
L 85.793684 238.54524 
L 85.029126 241.992845 
L 83.506942 250.976783 
L 82.749296 254.494357 
L 81.993933 256.187202 
L 81.240843 255.620359 
L 80.490015 254.815175 
L 79.74144 256.228217 
L 77.509129 266.133144 
L 76.769463 268.130662 
L 76.032 268.781782 
L 75.296729 268.341302 
L 74.563642 268.162557 
L 73.832727 269.097308 
L 73.103976 270.454904 
L 72.377379 270.732327 
L 71.652927 268.796952 
L 70.210417 261.221656 
L 69.492341 259.660221 
L 68.776372 260.093857 
L 68.0625 260.828646 
L 67.350717 261.236452 
L 66.641013 262.085895 
L 65.933379 263.552615 
L 65.227806 264.633655 
L 64.524285 264.740166 
L 63.822807 264.639559 
L 63.123364 265.398061 
L 61.730545 268.511649 
L 61.037151 269.619536 
L 60.345757 271.295798 
L 58.968931 277.071376 
L 58.283483 277.319157 
L 57.6 274.749782 
L 57.6 274.749782 
" clip-path="url(#pd885cf0de2)" style="fill: none; stroke-dasharray: 5.55,2.4; stroke-dashoffset: 0; stroke: #000000; stroke-width: 1.5"/>
   </g>
   <g id="patch_3">
    <path d="M 57.6 307.584 
L 57.6 41.472 
" style="fill: none; stroke: #000000; stroke-width: 0.8; stroke-linejoin: miter; stroke-linecap: square"/>
   </g>
   <g id="patch_4">
    <path d="M 414.72 307.584 
L 414.72 41.472 
" style="fill: none; stroke: #000000; stroke-width: 0.8; stroke-linejoin: miter; stroke-linecap: square"/>
   </g>
   <g id="patch_5">
    <path d="M 57.6 307.584 
L 414.72 307.584 
" style="fill: none; stroke: #000000; stroke-width: 0.8; stroke-linejoin: miter; stroke-linecap: square"/>
   </g>
   <g id="patch_6">
    <path d="M 57.6 41.472 
L 414.72 41.472 
" style="fill: none; stroke: #000000; stroke-width: 0.8; stroke-linejoin: miter; stroke-linecap: square"/>
   </g>
  </g>
 </g>
 <defs>
  <clipPath id="pd885cf0de2">
   <rect x="57.6" y="41.472" width="357.12" height="266.112"/>
  </clipPath>
 </defs>
</svg>
