<?xml version="1.0" encoding="UTF-8"?>
<svg xmlns="http://www.w3.org/2000/svg" xmlns:xlink="http://www.w3.org/1999/xlink"
     width="453.90000000000026" height="1043.9000000000003" viewBox="1093.05 -6.950000000000003 453.90000000000026 1043.9000000000003">
<defs>
<style type="text/css">
.l0d0 {stroke: rgb(255, 0, 0); fill: rgb(255, 0, 0); fill-opacity: 0.5;}
</style>
</defs>
<rect x="1093.05" y="-6.950000000000003" width="453.90000000000026" height="1043.9000000000003" fill="#222" stroke="none"/>
<g id="TOP" transform="scale(1 -1)">
<polygon class="l0d0" points="1320.5000000000005,-70.00000000000001 1319.5000000000002,-70.00000000000001 1319.5000000000002,-89.50000000000001 1319.5000000000002,-230.50000000000006 1319.5000000000002,-489.5000000000001 1309.5000000000002,-609.5000000000001 1299.5000000000002,-679.5000000000002 1289.5000000000002,-719.5000000000002 1279.5000000000002,-759.5000000000002 1269.5000000000002,-789.5000000000002 1259.5000000000002,-809.5000000000002 1249.5000000000002,-819.5000000000002 1239.5000000000002,-829.5000000000002 1229.5000000000002,-839.5000000000002 1209.5000000000002,-849.5000000000002 1199.5000000000002,-859.5000000000002 1189.5000000000002,-869.5000000000002 1169.5000000000002,-879.5000000000002 1159.5000000000002,-889.5000000000002 1149.5000000000002,-909.5000000000002 1149.5000000000002,-960.5000000000001 1159.5000000000002,-970.5000000000001 1179.5000000000002,-980.5000000000001 1250.5,-980.5000000000001 1270.5,-970.5000000000001 1290.5000000000005,-960.5000000000001 1310.5000000000005,-950.5000000000001 1320.5000000000005,-940.5000000000001 1330.5000000000005,-930.5000000000001 1350.5000000000005,-920.5000000000001 1360.5000000000005,-910.5000000000001 1380.5000000000005,-900.5000000000001 1400.5000000000005,-890.5000000000001 1420.5000000000005,-880.5000000000001 1440.5000000000005,-870.5000000000001 1450.5000000000005,-860.5000000000001 1460.5000000000005,-850.5000000000001 1470.5000000000005,-840.5000000000001 1480.5000000000005,-820.5000000000001 1490.5000000000005,-780.5000000000001 1490.5000000000005,-279.5 1480.5000000000005,-229.50000000000003 1470.5000000000005,-199.50000000000003 1460.5000000000005,-189.50000000000003 1450.5000000000005,-179.50000000000003 1440.5000000000005,-169.50000000000003 1430.5000000000005,-149.5 1420.5000000000005,-139.5 1410.5000000000005,-109.50000000000001 1400.5000000000005,-59.500000000000014 1380.5000000000005,-49.500000000000014 1349.5000000000002,-49.500000000000014 1329.5000000000002,-70.00000000000001 1330.5000000000005,-70.00000000000001 1330.5000000000005,-50.50000000000001 1350.5000000000005,-40.50000000000001 1379.5000000000002,-40.50000000000001 1399.5000000000002,-50.50000000000001 1409.5000000000002,-60.50000000000001 1419.5000000000002,-110.50000000000003 1429.5000000000002,-140.50000000000003 1439.5000000000002,-150.50000000000003 1449.5000000000002,-170.50000000000006 1459.5000000000002,-180.50000000000006 1469.5000000000002,-190.50000000000006 1479.5000000000002,-200.50000000000006 1489.5000000000002,-230.50000000000006 1499.5000000000002,-280.50000000000006 1499.5000000000002,-779.5000000000003 1489.5000000000002,-819.5000000000002 1479.5000000000002,-839.5000000000002 1469.5000000000002,-849.5000000000002 1459.5000000000002,-859.5000000000002 1449.5000000000002,-869.5000000000002 1439.5000000000002,-879.5000000000002 1419.5000000000002,-889.5000000000002 1399.5000000000002,-899.5000000000002 1379.5000000000002,-909.5000000000002 1359.5000000000002,-919.5000000000002 1349.5000000000002,-929.5000000000002 1329.5000000000002,-939.5000000000002 1319.5000000000002,-949.5000000000002 1309.5000000000002,-959.5000000000002 1289.5000000000002,-969.5000000000002 1269.5000000000002,-979.5000000000002 1249.5000000000002,-989.5000000000002 1180.5,-989.5000000000002 1160.5,-979.5000000000002 1150.5,-969.5000000000002 1140.5,-959.5000000000002 1140.5,-910.5000000000001 1150.5,-890.5000000000001 1160.5,-880.5000000000001 1170.5,-870.5000000000001 1190.5,-860.5000000000001 1200.5,-850.5000000000001 1210.5,-840.5000000000001 1230.5,-830.5000000000001 1240.5,-820.5000000000001 1250.5,-810.5000000000001 1260.5,-790.5000000000001 1270.5,-760.5000000000001 1280.5000000000005,-720.5000000000001 1290.5000000000005,-680.5000000000001 1300.5000000000005,-610.5 1310.5000000000005,-490.50000000000006 1310.5000000000005,-229.50000000000003 1310.5000000000005,-90.50000000000003"/>
</g>
</svg>