<?xml version="1.0" encoding="UTF-8"?>
<svg xmlns="http://www.w3.org/2000/svg" xmlns:xlink="http://www.w3.org/1999/xlink"
     width="1639.0" height="1149.0" viewBox="-69.5 -74.5 1639.0 1149.0">
<defs>
<style type="text/css">
.l0d0 {stroke: rgb(255, 0, 0); fill: rgb(255, 0, 0); fill-opacity: 0.5;}
</style>
</defs>
<rect x="-69.5" y="-74.5" width="1639.0" height="1149.0" fill="#222" stroke="none"/>
<g id="TOP" transform="scale(1 -1)">
<polygon class="l0d0" points="535.0,-1000.0 530.0,-995.0 520.0,-995.0 510.0,-995.0 505.0,-990.0 500.0,-985.0 490.0,-985.0 485.0,-980.0 480.0,-975.0 475.0,-970.0 470.0,-965.0 465.0,-960.0 460.0,-955.0 455.0,-950.0 450.0,-945.0 445.0,-940.0 445.0,-930.0 445.0,-920.0 445.0,-910.0 445.0,-900.0 445.0,-890.0 445.0,-880.0 445.0,-870.0 445.0,-860.0 445.0,-850.0 445.0,-840.0 445.0,-830.0 445.0,-820.0 440.0,-815.0 435.0,-810.0 435.0,-800.0 435.0,-790.0 435.0,-780.0 435.0,-770.0 435.0,-760.0 430.0,-755.0 425.0,-750.0 425.0,-740.0 425.0,-730.0 425.0,-720.0 425.0,-710.0 425.0,-700.0 420.0,-695.0 415.0,-690.0 415.0,-680.0 415.0,-670.0 415.0,-660.0 415.0,-650.0 415.0,-640.0 415.0,-630.0 410.0,-625.0 405.0,-620.0 405.0,-610.0 405.0,-600.0 405.0,-590.0 405.0,-580.0 405.0,-570.0 405.0,-560.0 405.0,-550.0 405.0,-540.0 405.0,-530.0 405.0,-520.0 405.0,-510.0 405.0,-500.0 405.0,-490.0 405.0,-480.0 405.0,-470.0 405.0,-460.0 405.0,-450.0 405.0,-440.0 405.0,-430.0 400.0,-425.0 395.0,-420.0 395.0,-410.0 395.0,-400.0 395.0,-390.0 395.0,-380.0 395.0,-370.0 395.0,-360.0 395.0,-350.0 395.0,-340.0 395.0,-330.0 390.0,-325.0 385.0,-320.0 385.0,-310.0 385.0,-300.0 385.0,-290.0 385.0,-280.0 390.0,-275.0 395.0,-270.0 395.0,-260.0 395.0,-250.0 395.0,-240.0 395.0,-230.0 400.0,-225.0 405.0,-220.0 405.0,-210.0 405.0,-200.0 410.0,-195.0 415.0,-190.0 415.0,-180.0 420.0,-175.0 425.0,-170.0 425.0,-160.0 425.0,-150.0 430.0,-145.0 435.0,-140.0 435.0,-130.0 435.0,-120.0 435.0,-110.0 435.0,-100.0 435.0,-90.0 440.0,-85.0 445.0,-80.0 450.0,-75.0 460.0,-75.0 470.0,-75.0 480.0,-75.0 490.0,-75.0 500.0,-75.0 510.0,-75.0 520.0,-75.0 525.0,-70.0 530.0,-65.0 540.0,-65.0 550.0,-65.0 555.0,-60.0 560.0,-55.0 570.0,-55.0 580.0,-55.0 585.0,-60.0 590.0,-65.0 595.0,-70.0 600.0,-75.0 605.0,-80.0 605.0,-90.0 610.0,-95.0 615.0,-100.0 615.0,-110.0 615.0,-120.0 620.0,-125.0 625.0,-130.0 625.0,-140.0 625.0,-150.0 620.0,-155.0 615.0,-160.0 615.0,-170.0 615.0,-180.0 615.0,-190.0 615.0,-200.0 615.0,-210.0 615.0,-220.0 615.0,-230.0 615.0,-240.0 610.0,-245.0 605.0,-250.0 605.0,-260.0 605.0,-270.0 605.0,-280.0 605.0,-290.0 605.0,-300.0 605.0,-310.0 605.0,-320.0 600.0,-325.0 595.0,-330.0 595.0,-340.0 595.0,-350.0 595.0,-360.0 595.0,-370.0 595.0,-380.0 595.0,-390.0 595.0,-400.0 595.0,-410.0 590.0,-415.0 585.0,-420.0 585.0,-430.0 585.0,-440.0 585.0,-450.0 585.0,-460.0 585.0,-470.0 585.0,-480.0 585.0,-490.0 580.0,-495.0 575.0,-500.0 575.0,-510.0 575.0,-520.0 575.0,-530.0 575.0,-540.0 575.0,-550.0 575.0,-560.0 575.0,-570.0 575.0,-580.0 570.0,-585.0 565.0,-590.0 565.0,-600.0 565.0,-610.0 565.0,-620.0 565.0,-630.0 570.0,-635.0 575.0,-640.0 575.0,-650.0 575.0,-660.0 575.0,-670.0 575.0,-680.0 575.0,-690.0 575.0,-700.0 575.0,-710.0 575.0,-720.0 580.0,-725.0 585.0,-730.0 585.0,-740.0 585.0,-750.0 585.0,-760.0 590.0,-765.0 595.0,-770.0 595.0,-780.0 595.0,-790.0 595.0,-800.0 595.0,-810.0 600.0,-815.0 605.0,-820.0 605.0,-830.0 605.0,-840.0 605.0,-850.0 605.0,-860.0 610.0,-865.0 615.0,-870.0 615.0,-880.0 615.0,-890.0 615.0,-900.0 620.0,-905.0 625.0,-910.0 625.0,-920.0 630.0,-925.0 635.0,-930.0 640.0,-935.0 645.0,-940.0 650.0,-945.0 660.0,-945.0 665.0,-950.0 670.0,-955.0 675.0,-950.0 680.0,-945.0 690.0,-945.0 695.0,-940.0 700.0,-935.0 705.0,-930.0 710.0,-925.0 715.0,-920.0 715.0,-910.0 715.0,-900.0 715.0,-890.0 715.0,-880.0 715.0,-870.0 715.0,-860.0 715.0,-850.0 715.0,-840.0 715.0,-830.0 715.0,-820.0 715.0,-810.0 715.0,-800.0 715.0,-790.0 715.0,-780.0 715.0,-770.0 715.0,-760.0 715.0,-750.0 715.0,-740.0 715.0,-730.0 715.0,-720.0 715.0,-710.0 715.0,-700.0 715.0,-690.0 715.0,-680.0 715.0,-670.0 715.0,-660.0 715.0,-650.0 715.0,-640.0 715.0,-630.0 715.0,-620.0 715.0,-610.0 715.0,-600.0 715.0,-590.0 715.0,-580.0 715.0,-570.0 715.0,-560.0 715.0,-550.0 715.0,-540.0 715.0,-530.0 715.0,-520.0 715.0,-510.0 715.0,-500.0 715.0,-490.0 715.0,-480.0 715.0,-470.0 715.0,-460.0 715.0,-450.0 710.0,-445.0 705.0,-440.0 705.0,-430.0 705.0,-420.0 705.0,-410.0 705.0,-400.0 705.0,-390.0 705.0,-380.0 705.0,-370.0 705.0,-360.0 705.0,-350.0 705.0,-340.0 705.0,-330.0 705.0,-320.0 705.0,-310.0 705.0,-300.0 705.0,-290.0 705.0,-280.0 705.0,-270.0 705.0,-260.0 705.0,-250.0 705.0,-240.0 705.0,-230.0 705.0,-220.0 705.0,-210.0 705.0,-200.0 705.0,-190.0 705.0,-180.0 705.0,-170.0 705.0,-160.0 705.0,-150.0 710.0,-145.0 715.0,-140.0 715.0,-130.0 715.0,-120.0 715.0,-110.0 715.0,-100.0 715.0,-90.0 720.0,-85.0 725.0,-80.0 725.0,-70.0 725.0,-60.0 720.0,-55.0 715.0,-50.0 710.0,-45.0 705.0,-40.0 700.0,-35.0 695.0,-30.0 690.0,-25.0 680.0,-25.0 670.0,-25.0 665.0,-20.0 660.0,-15.0 650.0,-15.0 640.0,-15.0 635.0,-20.0 630.0,-25.0 620.0,-25.0 610.0,-25.0 600.0,-25.0 590.0,-25.0 585.0,-20.0 580.0,-15.0 575.0,-10.0 575.0,-0.0"/>
<polygon class="l0d0" points="925.0,-0.0 925.0,-10.0 920.0,-15.0 915.0,-20.0 910.0,-25.0 900.0,-25.0 890.0,-25.0 880.0,-25.0 870.0,-25.0 865.0,-20.0 860.0,-15.0 850.0,-15.0 840.0,-15.0 835.0,-20.0 830.0,-25.0 820.0,-25.0 810.0,-25.0 805.0,-30.0 800.0,-35.0 795.0,-40.0 790.0,-45.0 785.0,-50.0 780.0,-55.0 775.0,-60.0 775.0,-70.0 775.0,-80.0 780.0,-85.0 785.0,-90.0 785.0,-100.0 785.0,-110.0 785.0,-120.0 785.0,-130.0 785.0,-140.0 790.0,-145.0 795.0,-150.0 795.0,-160.0 795.0,-170.0 795.0,-180.0 795.0,-190.0 795.0,-200.0 795.0,-210.0 795.0,-220.0 795.0,-230.0 795.0,-240.0 795.0,-250.0 795.0,-260.0 795.0,-270.0 795.0,-280.0 795.0,-290.0 795.0,-300.0 795.0,-310.0 795.0,-320.0 795.0,-330.0 795.0,-340.0 795.0,-350.0 795.0,-360.0 795.0,-370.0 795.0,-380.0 795.0,-390.0 795.0,-400.0 795.0,-410.0 795.0,-420.0 795.0,-430.0 795.0,-440.0 790.0,-445.0 785.0,-450.0 785.0,-460.0 785.0,-470.0 785.0,-480.0 785.0,-490.0 785.0,-500.0 785.0,-510.0 785.0,-520.0 785.0,-530.0 785.0,-540.0 785.0,-550.0 785.0,-560.0 785.0,-570.0 785.0,-580.0 785.0,-590.0 785.0,-600.0 785.0,-610.0 785.0,-620.0 785.0,-630.0 785.0,-640.0 785.0,-650.0 785.0,-660.0 785.0,-670.0 785.0,-680.0 785.0,-690.0 785.0,-700.0 785.0,-710.0 785.0,-720.0 785.0,-730.0 785.0,-740.0 785.0,-750.0 785.0,-760.0 785.0,-770.0 785.0,-780.0 785.0,-790.0 785.0,-800.0 785.0,-810.0 785.0,-820.0 785.0,-830.0 785.0,-840.0 785.0,-850.0 785.0,-860.0 785.0,-870.0 785.0,-880.0 785.0,-890.0 785.0,-900.0 785.0,-910.0 785.0,-920.0 790.0,-925.0 795.0,-930.0 800.0,-935.0 805.0,-940.0 810.0,-945.0 820.0,-945.0 825.0,-950.0 830.0,-955.0 835.0,-950.0 840.0,-945.0 850.0,-945.0 855.0,-940.0 860.0,-935.0 865.0,-930.0 870.0,-925.0 875.0,-920.0 875.0,-910.0 880.0,-905.0 885.0,-900.0 885.0,-890.0 885.0,-880.0 885.0,-870.0 890.0,-865.0 895.0,-860.0 895.0,-850.0 895.0,-840.0 895.0,-830.0 895.0,-820.0 900.0,-815.0 905.0,-810.0 905.0,-800.0 905.0,-790.0 905.0,-780.0 905.0,-770.0 910.0,-765.0 915.0,-760.0 915.0,-750.0 915.0,-740.0 915.0,-730.0 920.0,-725.0 925.0,-720.0 925.0,-710.0 925.0,-700.0 925.0,-690.0 925.0,-680.0 925.0,-670.0 925.0,-660.0 925.0,-650.0 925.0,-640.0 930.0,-635.0 935.0,-630.0 935.0,-620.0 935.0,-610.0 935.0,-600.0 935.0,-590.0 930.0,-585.0 925.0,-580.0 925.0,-570.0 925.0,-560.0 925.0,-550.0 925.0,-540.0 925.0,-530.0 925.0,-520.0 925.0,-510.0 925.0,-500.0 920.0,-495.0 915.0,-490.0 915.0,-480.0 915.0,-470.0 915.0,-460.0 915.0,-450.0 915.0,-440.0 915.0,-430.0 915.0,-420.0 910.0,-415.0 905.0,-410.0 905.0,-400.0 905.0,-390.0 905.0,-380.0 905.0,-370.0 905.0,-360.0 905.0,-350.0 905.0,-340.0 905.0,-330.0 900.0,-325.0 895.0,-320.0 895.0,-310.0 895.0,-300.0 895.0,-290.0 895.0,-280.0 895.0,-270.0 895.0,-260.0 895.0,-250.0 890.0,-245.0 885.0,-240.0 885.0,-230.0 885.0,-220.0 885.0,-210.0 885.0,-200.0 885.0,-190.0 885.0,-180.0 885.0,-170.0 885.0,-160.0 880.0,-155.0 875.0,-150.0 875.0,-140.0 875.0,-130.0 880.0,-125.0 885.0,-120.0 885.0,-110.0 885.0,-100.0 890.0,-95.0 895.0,-90.0 895.0,-80.0 900.0,-75.0 905.0,-70.0 910.0,-65.0 915.0,-60.0 920.0,-55.0 930.0,-55.0 940.0,-55.0 945.0,-60.0 950.0,-65.0 960.0,-65.0 970.0,-65.0 975.0,-70.0 980.0,-75.0 990.0,-75.0 1000.0,-75.0 1010.0,-75.0 1020.0,-75.0 1030.0,-75.0 1040.0,-75.0 1050.0,-75.0 1055.0,-80.0 1060.0,-85.0 1065.0,-90.0 1065.0,-100.0 1065.0,-110.0 1065.0,-120.0 1065.0,-130.0 1065.0,-140.0 1070.0,-145.0 1075.0,-150.0 1075.0,-160.0 1075.0,-170.0 1080.0,-175.0 1085.0,-180.0 1085.0,-190.0 1090.0,-195.0 1095.0,-200.0 1095.0,-210.0 1095.0,-220.0 1100.0,-225.0 1105.0,-230.0 1105.0,-240.0 1105.0,-250.0 1105.0,-260.0 1105.0,-270.0 1110.0,-275.0 1115.0,-280.0 1115.0,-290.0 1115.0,-300.0 1115.0,-310.0 1115.0,-320.0 1110.0,-325.0 1105.0,-330.0 1105.0,-340.0 1105.0,-350.0 1105.0,-360.0 1105.0,-370.0 1105.0,-380.0 1105.0,-390.0 1105.0,-400.0 1105.0,-410.0 1105.0,-420.0 1100.0,-425.0 1095.0,-430.0 1095.0,-440.0 1095.0,-450.0 1095.0,-460.0 1095.0,-470.0 1095.0,-480.0 1095.0,-490.0 1095.0,-500.0 1095.0,-510.0 1095.0,-520.0 1095.0,-530.0 1095.0,-540.0 1095.0,-550.0 1095.0,-560.0 1095.0,-570.0 1095.0,-580.0 1095.0,-590.0 1095.0,-600.0 1095.0,-610.0 1095.0,-620.0 1090.0,-625.0 1085.0,-630.0 1085.0,-640.0 1085.0,-650.0 1085.0,-660.0 1085.0,-670.0 1085.0,-680.0 1085.0,-690.0 1080.0,-695.0 1075.0,-700.0 1075.0,-710.0 1075.0,-720.0 1075.0,-730.0 1075.0,-740.0 1075.0,-750.0 1070.0,-755.0 1065.0,-760.0 1065.0,-770.0 1065.0,-780.0 1065.0,-790.0 1065.0,-800.0 1065.0,-810.0 1060.0,-815.0 1055.0,-820.0 1055.0,-830.0 1055.0,-840.0 1055.0,-850.0 1055.0,-860.0 1055.0,-870.0 1055.0,-880.0 1055.0,-890.0 1055.0,-900.0 1055.0,-910.0 1055.0,-920.0 1055.0,-930.0 1055.0,-940.0 1050.0,-945.0 1045.0,-950.0 1040.0,-955.0 1035.0,-960.0 1030.0,-965.0 1025.0,-970.0 1020.0,-975.0 1015.0,-980.0 1010.0,-985.0 1000.0,-985.0 995.0,-990.0 990.0,-995.0 980.0,-995.0 970.0,-995.0 965.0,-1000.0"/>
<polygon class="l0d0" points="320.0,-985.0 310.0,-985.0 300.0,-985.0 290.0,-985.0 280.0,-985.0 270.0,-985.0 260.0,-985.0 255.0,-980.0 250.0,-975.0 240.0,-975.0 235.0,-970.0 230.0,-965.0 220.0,-965.0 215.0,-960.0 210.0,-955.0 200.0,-955.0 195.0,-950.0 190.0,-945.0 185.0,-940.0 180.0,-935.0 175.0,-930.0 170.0,-925.0 160.0,-925.0 155.0,-920.0 150.0,-915.0 145.0,-910.0 140.0,-905.0 130.0,-905.0 125.0,-900.0 120.0,-895.0 110.0,-895.0 105.0,-890.0 100.0,-885.0 90.0,-885.0 85.0,-880.0 80.0,-875.0 70.0,-875.0 65.0,-870.0 60.0,-865.0 55.0,-860.0 50.0,-855.0 45.0,-850.0 40.0,-845.0 35.0,-840.0 30.0,-835.0 25.0,-830.0 25.0,-820.0 20.0,-815.0 15.0,-810.0 15.0,-800.0 15.0,-790.0 15.0,-780.0 10.0,-775.0 5.0,-770.0 5.0,-760.0 5.0,-750.0 5.0,-740.0 5.0,-730.0 5.0,-720.0 5.0,-710.0 5.0,-700.0 5.0,-690.0 5.0,-680.0 5.0,-670.0 5.0,-660.0 5.0,-650.0 5.0,-640.0 5.0,-630.0 5.0,-620.0 5.0,-610.0 5.0,-600.0 5.0,-590.0 5.0,-580.0 5.0,-570.0 5.0,-560.0 5.0,-550.0 5.0,-540.0 5.0,-530.0 5.0,-520.0 5.0,-510.0 5.0,-500.0 5.0,-490.0 5.0,-480.0 5.0,-470.0 5.0,-460.0 5.0,-450.0 5.0,-440.0 5.0,-430.0 5.0,-420.0 5.0,-410.0 5.0,-400.0 5.0,-390.0 5.0,-380.0 5.0,-370.0 5.0,-360.0 5.0,-350.0 5.0,-340.0 5.0,-330.0 5.0,-320.0 5.0,-310.0 5.0,-300.0 5.0,-290.0 5.0,-280.0 10.0,-275.0 15.0,-270.0 15.0,-260.0 15.0,-250.0 15.0,-240.0 15.0,-230.0 20.0,-225.0 25.0,-220.0 25.0,-210.0 25.0,-200.0 30.0,-195.0 35.0,-190.0 40.0,-185.0 45.0,-180.0 50.0,-175.0 55.0,-170.0 60.0,-165.0 65.0,-160.0 65.0,-150.0 70.0,-145.0 75.0,-140.0 80.0,-135.0 85.0,-130.0 85.0,-120.0 85.0,-110.0 90.0,-105.0 95.0,-100.0 95.0,-90.0 95.0,-80.0 95.0,-70.0 95.0,-60.0 100.0,-55.0 105.0,-50.0 110.0,-45.0 120.0,-45.0 125.0,-40.0 130.0,-35.0 140.0,-35.0 150.0,-35.0 155.0,-40.0 160.0,-45.0 170.0,-45.0 175.0,-50.0 175.0,-60.0 180.0,-65.0 185.0,-70.0 185.0,-80.0 190.0,-85.0 195.0,-90.0 195.0,-100.0 195.0,-110.0 195.0,-120.0 195.0,-130.0 195.0,-140.0 195.0,-150.0 195.0,-160.0 195.0,-170.0 195.0,-180.0 195.0,-190.0 195.0,-200.0 195.0,-210.0 195.0,-220.0 190.0,-225.0 185.0,-230.0 185.0,-240.0 185.0,-250.0 185.0,-260.0 185.0,-270.0 185.0,-280.0 185.0,-290.0 185.0,-300.0 185.0,-310.0 185.0,-320.0 185.0,-330.0 185.0,-340.0 185.0,-350.0 185.0,-360.0 185.0,-370.0 185.0,-380.0 185.0,-390.0 185.0,-400.0 185.0,-410.0 185.0,-420.0 185.0,-430.0 185.0,-440.0 185.0,-450.0 185.0,-460.0 185.0,-470.0 185.0,-480.0 190.0,-485.0 195.0,-490.0 195.0,-500.0 195.0,-510.0 195.0,-520.0 195.0,-530.0 195.0,-540.0 195.0,-550.0 195.0,-560.0 195.0,-570.0 195.0,-580.0 195.0,-590.0 195.0,-600.0 200.0,-605.0 205.0,-610.0 205.0,-620.0 205.0,-630.0 205.0,-640.0 205.0,-650.0 205.0,-660.0 205.0,-670.0 210.0,-675.0 215.0,-680.0 215.0,-690.0 215.0,-700.0 215.0,-710.0 220.0,-715.0 225.0,-720.0 225.0,-730.0 225.0,-740.0 225.0,-750.0 230.0,-755.0 235.0,-760.0 235.0,-770.0 235.0,-780.0 240.0,-785.0 245.0,-790.0 245.0,-800.0 250.0,-805.0 255.0,-810.0 260.0,-815.0 265.0,-820.0 270.0,-825.0 275.0,-830.0 280.0,-835.0 290.0,-835.0 295.0,-840.0 300.0,-845.0 305.0,-850.0 310.0,-855.0 315.0,-860.0 320.0,-865.0 330.0,-865.0 335.0,-870.0 340.0,-875.0 345.0,-880.0 350.0,-885.0 355.0,-890.0 355.0,-900.0 360.0,-905.0 365.0,-910.0 365.0,-920.0 365.0,-930.0 365.0,-940.0 365.0,-950.0 360.0,-955.0 355.0,-960.0 350.0,-965.0 345.0,-970.0 340.0,-975.0 330.0,-975.0 325.0,-980.0 320.0,-985.0"/>
<polygon class="l0d0" points="1240.0,-985.0 1230.0,-985.0 1220.0,-985.0 1210.0,-985.0 1200.0,-985.0 1190.0,-985.0 1180.0,-985.0 1175.0,-980.0 1170.0,-975.0 1160.0,-975.0 1155.0,-970.0 1150.0,-965.0 1145.0,-960.0 1140.0,-955.0 1135.0,-950.0 1135.0,-940.0 1135.0,-930.0 1135.0,-920.0 1135.0,-910.0 1140.0,-905.0 1145.0,-900.0 1145.0,-890.0 1150.0,-885.0 1155.0,-880.0 1160.0,-875.0 1165.0,-870.0 1170.0,-865.0 1180.0,-865.0 1185.0,-860.0 1190.0,-855.0 1195.0,-850.0 1200.0,-845.0 1205.0,-840.0 1210.0,-835.0 1220.0,-835.0 1225.0,-830.0 1230.0,-825.0 1235.0,-820.0 1240.0,-815.0 1245.0,-810.0 1250.0,-805.0 1255.0,-800.0 1255.0,-790.0 1260.0,-785.0 1265.0,-780.0 1265.0,-770.0 1265.0,-760.0 1270.0,-755.0 1275.0,-750.0 1275.0,-740.0 1275.0,-730.0 1275.0,-720.0 1280.0,-715.0 1285.0,-710.0 1285.0,-700.0 1285.0,-690.0 1285.0,-680.0 1290.0,-675.0 1295.0,-670.0 1295.0,-660.0 1295.0,-650.0 1295.0,-640.0 1295.0,-630.0 1295.0,-620.0 1295.0,-610.0 1300.0,-605.0 1305.0,-600.0 1305.0,-590.0 1305.0,-580.0 1305.0,-570.0 1305.0,-560.0 1305.0,-550.0 1305.0,-540.0 1305.0,-530.0 1305.0,-520.0 1305.0,-510.0 1305.0,-500.0 1305.0,-490.0 1310.0,-485.0 1315.0,-480.0 1315.0,-470.0 1315.0,-460.0 1315.0,-450.0 1315.0,-440.0 1315.0,-430.0 1315.0,-420.0 1315.0,-410.0 1315.0,-400.0 1315.0,-390.0 1315.0,-380.0 1315.0,-370.0 1315.0,-360.0 1315.0,-350.0 1315.0,-340.0 1315.0,-330.0 1315.0,-320.0 1315.0,-310.0 1315.0,-300.0 1315.0,-290.0 1315.0,-280.0 1315.0,-270.0 1315.0,-260.0 1315.0,-250.0 1315.0,-240.0 1315.0,-230.0 1310.0,-225.0 1305.0,-220.0 1305.0,-210.0 1305.0,-200.0 1305.0,-190.0 1305.0,-180.0 1305.0,-170.0 1305.0,-160.0 1305.0,-150.0 1305.0,-140.0 1305.0,-130.0 1305.0,-120.0 1305.0,-110.0 1305.0,-100.0 1305.0,-90.0 1310.0,-85.0 1315.0,-80.0 1315.0,-70.0 1320.0,-65.0 1325.0,-60.0 1325.0,-50.0 1330.0,-45.0 1340.0,-45.0 1345.0,-40.0 1350.0,-35.0 1360.0,-35.0 1370.0,-35.0 1375.0,-40.0 1380.0,-45.0 1390.0,-45.0 1395.0,-50.0 1400.0,-55.0 1405.0,-60.0 1405.0,-70.0 1405.0,-80.0 1405.0,-90.0 1405.0,-100.0 1410.0,-105.0 1415.0,-110.0 1415.0,-120.0 1415.0,-130.0 1420.0,-135.0 1425.0,-140.0 1430.0,-145.0 1435.0,-150.0 1435.0,-160.0 1440.0,-165.0 1445.0,-170.0 1450.0,-175.0 1455.0,-180.0 1460.0,-185.0 1465.0,-190.0 1470.0,-195.0 1475.0,-200.0 1475.0,-210.0 1475.0,-220.0 1480.0,-225.0 1485.0,-230.0 1485.0,-240.0 1485.0,-250.0 1485.0,-260.0 1485.0,-270.0 1490.0,-275.0 1495.0,-280.0 1495.0,-290.0 1495.0,-300.0 1495.0,-310.0 1495.0,-320.0 1495.0,-330.0 1495.0,-340.0 1495.0,-350.0 1495.0,-360.0 1495.0,-370.0 1495.0,-380.0 1495.0,-390.0 1495.0,-400.0 1495.0,-410.0 1495.0,-420.0 1495.0,-430.0 1495.0,-440.0 1495.0,-450.0 1495.0,-460.0 1495.0,-470.0 1495.0,-480.0 1495.0,-490.0 1495.0,-500.0 1495.0,-510.0 1495.0,-520.0 1495.0,-530.0 1495.0,-540.0 1495.0,-550.0 1495.0,-560.0 1495.0,-570.0 1495.0,-580.0 1495.0,-590.0 1495.0,-600.0 1495.0,-610.0 1495.0,-620.0 1495.0,-630.0 1495.0,-640.0 1495.0,-650.0 1495.0,-660.0 1495.0,-670.0 1495.0,-680.0 1495.0,-690.0 1495.0,-700.0 1495.0,-710.0 1495.0,-720.0 1495.0,-730.0 1495.0,-740.0 1495.0,-750.0 1495.0,-760.0 1495.0,-770.0 1490.0,-775.0 1485.0,-780.0 1485.0,-790.0 1485.0,-800.0 1485.0,-810.0 1480.0,-815.0 1475.0,-820.0 1475.0,-830.0 1470.0,-835.0 1465.0,-840.0 1460.0,-845.0 1455.0,-850.0 1450.0,-855.0 1445.0,-860.0 1440.0,-865.0 1435.0,-870.0 1430.0,-875.0 1420.0,-875.0 1415.0,-880.0 1410.0,-885.0 1400.0,-885.0 1395.0,-890.0 1390.0,-895.0 1380.0,-895.0 1375.0,-900.0 1370.0,-905.0 1360.0,-905.0 1355.0,-910.0 1350.0,-915.0 1345.0,-920.0 1340.0,-925.0 1330.0,-925.0 1325.0,-930.0 1320.0,-935.0 1315.0,-940.0 1310.0,-945.0 1305.0,-950.0 1300.0,-955.0 1290.0,-955.0 1285.0,-960.0 1280.0,-965.0 1270.0,-965.0 1265.0,-970.0 1260.0,-975.0 1250.0,-975.0 1245.0,-980.0 1240.0,-985.0"/>
</g>
</svg>