<?xml version="1.0" encoding="UTF-8"?>
<svg xmlns="http://www.w3.org/2000/svg" xmlns:xlink="http://www.w3.org/1999/xlink"
     width="1639.0000000000002" height="1159.0000000000002" viewBox="-64.50000000000001 -74.50000000000001 1639.0000000000002 1159.0000000000002">
<defs>
<style type="text/css">
.l0d0 {stroke: rgb(255, 0, 0); fill: rgb(255, 0, 0); fill-opacity: 0.5;}
</style>
</defs>
<rect x="-64.50000000000001" y="-74.50000000000001" width="1639.0000000000002" height="1159.0000000000002" fill="#222" stroke="none"/>
<g id="TOP" transform="scale(1 -1)">
<polygon class="l0d0" points="1250.0000000000002,-980.0000000000001 1270.0000000000002,-980.0000000000001 1270.0000000000002,-970.0000000000001 1290.0000000000002,-970.0000000000001 1290.0000000000002,-960.0000000000001 1310.0000000000002,-960.0000000000001 1310.0000000000002,-950.0000000000001 1320.0000000000002,-950.0000000000001 1320.0000000000002,-940.0000000000001 1330.0000000000002,-940.0000000000001 1330.0000000000002,-930.0000000000001 1350.0000000000002,-930.0000000000001 1350.0000000000002,-920.0000000000001 1360.0000000000002,-920.0000000000001 1360.0000000000002,-910.0000000000001 1380.0000000000002,-910.0000000000001 1380.0000000000002,-900.0000000000001 1400.0000000000002,-900.0000000000001 1400.0000000000002,-890.0000000000001 1420.0000000000002,-890.0000000000001 1420.0000000000002,-880.0000000000001 1440.0000000000002,-880.0000000000001 1440.0000000000002,-870.0000000000001 1450.0000000000002,-870.0000000000001 1450.0000000000002,-860.0000000000001 1460.0000000000002,-860.0000000000001 1460.0000000000002,-850.0000000000001 1470.0000000000002,-850.0000000000001 1470.0000000000002,-840.0000000000001 1480.0000000000002,-840.0000000000001 1480.0000000000002,-820.0000000000001 1490.0000000000002,-820.0000000000001 1490.0000000000002,-780.0000000000001 1500.0000000000002,-780.0000000000001 1500.0000000000002,-280.00000000000006 1490.0000000000002,-280.00000000000006 1490.0000000000002,-230.00000000000003 1480.0000000000002,-230.00000000000003 1480.0000000000002,-200.00000000000003 1470.0000000000002,-200.00000000000003 1470.0000000000002,-190.00000000000003 1460.0000000000002,-190.00000000000003 1460.0000000000002,-180.00000000000003 1450.0000000000002,-180.00000000000003 1450.0000000000002,-170.00000000000003 1440.0000000000002,-170.00000000000003 1440.0000000000002,-150.00000000000003 1430.0000000000002,-150.00000000000003 1430.0000000000002,-140.00000000000003 1420.0000000000002,-140.00000000000003 1420.0000000000002,-110.00000000000001 1410.0000000000002,-110.00000000000001 1410.0000000000002,-60.00000000000001 1400.0000000000002,-60.00000000000001 1400.0000000000002,-50.00000000000001 1380.0000000000002,-50.00000000000001 1380.0000000000002,-40.00000000000001 1350.0000000000002,-40.00000000000001 1350.0000000000002,-50.00000000000001 1330.0000000000002,-50.00000000000001 1330.0000000000002,-70.00000000000001 1320.0000000000002,-70.00000000000001 1320.0000000000002,-90.00000000000001 1310.0000000000002,-90.00000000000001 1310.0000000000002,-230.00000000000003 1320.0000000000002,-230.00000000000003 1320.0000000000002,-490.00000000000006 1310.0000000000002,-490.00000000000006 1310.0000000000002,-610.0000000000001 1300.0000000000002,-610.0000000000001 1300.0000000000002,-680.0000000000001 1290.0000000000002,-680.0000000000001 1290.0000000000002,-720.0000000000001 1280.0000000000002,-720.0000000000001 1280.0000000000002,-760.0000000000001 1270.0000000000002,-760.0000000000001 1270.0000000000002,-790.0000000000001 1260.0000000000002,-790.0000000000001 1260.0000000000002,-810.0000000000001 1250.0000000000002,-810.0000000000001 1250.0000000000002,-820.0000000000001 1240.0000000000002,-820.0000000000001 1240.0000000000002,-830.0000000000001 1230.0000000000002,-830.0000000000001 1230.0000000000002,-840.0000000000001 1210.0000000000002,-840.0000000000001 1210.0000000000002,-850.0000000000001 1200.0000000000002,-850.0000000000001 1200.0000000000002,-860.0000000000001 1190.0000000000002,-860.0000000000001 1190.0000000000002,-870.0000000000001 1170.0000000000002,-870.0000000000001 1170.0000000000002,-880.0000000000001 1160.0000000000002,-880.0000000000001 1160.0000000000002,-890.0000000000001 1150.0000000000002,-890.0000000000001 1150.0000000000002,-910.0000000000001 1140.0000000000002,-910.0000000000001 1140.0000000000002,-960.0000000000001 1150.0000000000002,-960.0000000000001 1150.0000000000002,-970.0000000000001 1160.0000000000002,-970.0000000000001 1160.0000000000002,-980.0000000000001 1180.0000000000002,-980.0000000000001 1180.0000000000002,-990.0000000000001 1250.0000000000002,-990.0000000000001"/>
<polygon class="l0d0" points="330.00000000000006,-980.0000000000001 350.00000000000006,-980.0000000000001 350.00000000000006,-970.0000000000001 360.00000000000006,-970.0000000000001 360.00000000000006,-960.0000000000001 370.00000000000006,-960.0000000000001 370.00000000000006,-910.0000000000001 360.00000000000006,-910.0000000000001 360.00000000000006,-890.0000000000001 350.00000000000006,-890.0000000000001 350.00000000000006,-880.0000000000001 340.00000000000006,-880.0000000000001 340.00000000000006,-870.0000000000001 320.00000000000006,-870.0000000000001 320.00000000000006,-860.0000000000001 310.00000000000006,-860.0000000000001 310.00000000000006,-850.0000000000001 300.00000000000006,-850.0000000000001 300.00000000000006,-840.0000000000001 280.00000000000006,-840.0000000000001 280.00000000000006,-830.0000000000001 270.00000000000006,-830.0000000000001 270.00000000000006,-820.0000000000001 260.00000000000006,-820.0000000000001 260.00000000000006,-810.0000000000001 250.00000000000003,-810.0000000000001 250.00000000000003,-790.0000000000001 240.00000000000003,-790.0000000000001 240.00000000000003,-760.0000000000001 230.00000000000003,-760.0000000000001 230.00000000000003,-720.0000000000001 220.00000000000003,-720.0000000000001 220.00000000000003,-680.0000000000001 210.00000000000003,-680.0000000000001 210.00000000000003,-610.0000000000001 200.00000000000003,-610.0000000000001 200.00000000000003,-490.00000000000006 190.00000000000003,-490.00000000000006 190.00000000000003,-230.00000000000003 200.00000000000003,-230.00000000000003 200.00000000000003,-90.00000000000001 190.00000000000003,-90.00000000000001 190.00000000000003,-70.00000000000001 180.00000000000003,-70.00000000000001 180.00000000000003,-50.00000000000001 160.00000000000003,-50.00000000000001 160.00000000000003,-40.00000000000001 130.00000000000003,-40.00000000000001 130.00000000000003,-50.00000000000001 110.00000000000001,-50.00000000000001 110.00000000000001,-60.00000000000001 100.00000000000001,-60.00000000000001 100.00000000000001,-110.00000000000001 90.00000000000001,-110.00000000000001 90.00000000000001,-140.00000000000003 80.00000000000001,-140.00000000000003 80.00000000000001,-150.00000000000003 70.00000000000001,-150.00000000000003 70.00000000000001,-170.00000000000003 60.00000000000001,-170.00000000000003 60.00000000000001,-180.00000000000003 50.00000000000001,-180.00000000000003 50.00000000000001,-190.00000000000003 40.00000000000001,-190.00000000000003 40.00000000000001,-200.00000000000003 30.000000000000004,-200.00000000000003 30.000000000000004,-230.00000000000003 20.000000000000004,-230.00000000000003 20.000000000000004,-280.00000000000006 10.000000000000002,-280.00000000000006 10.000000000000002,-780.0000000000001 20.000000000000004,-780.0000000000001 20.000000000000004,-820.0000000000001 30.000000000000004,-820.0000000000001 30.000000000000004,-840.0000000000001 40.00000000000001,-840.0000000000001 40.00000000000001,-850.0000000000001 50.00000000000001,-850.0000000000001 50.00000000000001,-860.0000000000001 60.00000000000001,-860.0000000000001 60.00000000000001,-870.0000000000001 70.00000000000001,-870.0000000000001 70.00000000000001,-880.0000000000001 90.00000000000001,-880.0000000000001 90.00000000000001,-890.0000000000001 110.00000000000001,-890.0000000000001 110.00000000000001,-900.0000000000001 130.00000000000003,-900.0000000000001 130.00000000000003,-910.0000000000001 150.00000000000003,-910.0000000000001 150.00000000000003,-920.0000000000001 160.00000000000003,-920.0000000000001 160.00000000000003,-930.0000000000001 180.00000000000003,-930.0000000000001 180.00000000000003,-940.0000000000001 190.00000000000003,-940.0000000000001 190.00000000000003,-950.0000000000001 200.00000000000003,-950.0000000000001 200.00000000000003,-960.0000000000001 220.00000000000003,-960.0000000000001 220.00000000000003,-970.0000000000001 240.00000000000003,-970.0000000000001 240.00000000000003,-980.0000000000001 260.00000000000006,-980.0000000000001 260.00000000000006,-990.0000000000001 330.00000000000006,-990.0000000000001"/>
<polygon class="l0d0" points="970.0000000000001,-1000.0000000000001 1000.0000000000001,-1000.0000000000001 1000.0000000000001,-990.0000000000001 1020.0000000000001,-990.0000000000001 1020.0000000000001,-980.0000000000001 1030.0000000000002,-980.0000000000001 1030.0000000000002,-970.0000000000001 1040.0000000000002,-970.0000000000001 1040.0000000000002,-960.0000000000001 1050.0000000000002,-960.0000000000001 1050.0000000000002,-950.0000000000001 1060.0000000000002,-950.0000000000001 1060.0000000000002,-820.0000000000001 1070.0000000000002,-820.0000000000001 1070.0000000000002,-760.0000000000001 1080.0000000000002,-760.0000000000001 1080.0000000000002,-700.0000000000001 1090.0000000000002,-700.0000000000001 1090.0000000000002,-630.0000000000001 1100.0000000000002,-630.0000000000001 1100.0000000000002,-430.00000000000006 1110.0000000000002,-430.00000000000006 1110.0000000000002,-420.00000000000006 920.0000000000001,-420.00000000000006 920.0000000000001,-500.00000000000006 930.0000000000001,-500.00000000000006 930.0000000000001,-590.0000000000001 940.0000000000001,-590.0000000000001 940.0000000000001,-640.0000000000001 930.0000000000001,-640.0000000000001 930.0000000000001,-730.0000000000001 920.0000000000001,-730.0000000000001 920.0000000000001,-770.0000000000001 910.0000000000001,-770.0000000000001 910.0000000000001,-820.0000000000001 900.0000000000001,-820.0000000000001 900.0000000000001,-870.0000000000001 890.0000000000001,-870.0000000000001 890.0000000000001,-910.0000000000001 880.0000000000001,-910.0000000000001 880.0000000000001,-930.0000000000001 870.0000000000001,-930.0000000000001 870.0000000000001,-940.0000000000001 860.0000000000001,-940.0000000000001 860.0000000000001,-950.0000000000001 840.0000000000001,-950.0000000000001 840.0000000000001,-960.0000000000001 830.0000000000001,-960.0000000000001 830.0000000000001,-950.0000000000001 810.0000000000001,-950.0000000000001 810.0000000000001,-940.0000000000001 800.0000000000001,-940.0000000000001 800.0000000000001,-930.0000000000001 790.0000000000001,-930.0000000000001 790.0000000000001,-450.00000000000006 800.0000000000001,-450.00000000000006 800.0000000000001,-420.00000000000006 710.0000000000001,-420.00000000000006 710.0000000000001,-450.00000000000006 720.0000000000001,-450.00000000000006 720.0000000000001,-930.0000000000001 710.0000000000001,-930.0000000000001 710.0000000000001,-940.0000000000001 700.0000000000001,-940.0000000000001 700.0000000000001,-950.0000000000001 680.0000000000001,-950.0000000000001 680.0000000000001,-960.0000000000001 670.0000000000001,-960.0000000000001 670.0000000000001,-950.0000000000001 650.0000000000001,-950.0000000000001 650.0000000000001,-940.0000000000001 640.0000000000001,-940.0000000000001 640.0000000000001,-930.0000000000001 630.0000000000001,-930.0000000000001 630.0000000000001,-910.0000000000001 620.0000000000001,-910.0000000000001 620.0000000000001,-870.0000000000001 610.0000000000001,-870.0000000000001 610.0000000000001,-820.0000000000001 600.0000000000001,-820.0000000000001 600.0000000000001,-770.0000000000001 590.0000000000001,-770.0000000000001 590.0000000000001,-730.0000000000001 580.0000000000001,-730.0000000000001 580.0000000000001,-640.0000000000001 570.0000000000001,-640.0000000000001 570.0000000000001,-590.0000000000001 580.0000000000001,-590.0000000000001 580.0000000000001,-500.00000000000006 590.0000000000001,-500.00000000000006 590.0000000000001,-420.00000000000006 400.00000000000006,-420.00000000000006 400.00000000000006,-430.00000000000006 410.00000000000006,-430.00000000000006 410.00000000000006,-630.0000000000001 420.00000000000006,-630.0000000000001 420.00000000000006,-700.0000000000001 430.00000000000006,-700.0000000000001 430.00000000000006,-760.0000000000001 440.00000000000006,-760.0000000000001 440.00000000000006,-820.0000000000001 450.00000000000006,-820.0000000000001 450.00000000000006,-950.0000000000001 460.00000000000006,-950.0000000000001 460.00000000000006,-960.0000000000001 470.00000000000006,-960.0000000000001 470.00000000000006,-970.0000000000001 480.00000000000006,-970.0000000000001 480.00000000000006,-980.0000000000001 490.00000000000006,-980.0000000000001 490.00000000000006,-990.0000000000001 510.00000000000006,-990.0000000000001 510.00000000000006,-1000.0000000000001 540.0000000000001,-1000.0000000000001 540.0000000000001,-1010.0000000000001 970.0000000000001,-1010.0000000000001"/>
<polygon class="l0d0" points="800.0000000000001,-150.00000000000003 790.0000000000001,-150.00000000000003 790.0000000000001,-90.00000000000001 780.0000000000001,-90.00000000000001 780.0000000000001,-60.00000000000001 790.0000000000001,-60.00000000000001 790.0000000000001,-50.00000000000001 800.0000000000001,-50.00000000000001 800.0000000000001,-40.00000000000001 810.0000000000001,-40.00000000000001 810.0000000000001,-30.000000000000004 840.0000000000001,-30.000000000000004 840.0000000000001,-20.000000000000004 870.0000000000001,-20.000000000000004 870.0000000000001,-30.000000000000004 920.0000000000001,-30.000000000000004 920.0000000000001,-20.000000000000004 930.0000000000001,-20.000000000000004 930.0000000000001,0.0 580.0000000000001,0.0 580.0000000000001,-20.000000000000004 590.0000000000001,-20.000000000000004 590.0000000000001,-30.000000000000004 640.0000000000001,-30.000000000000004 640.0000000000001,-20.000000000000004 670.0000000000001,-20.000000000000004 670.0000000000001,-30.000000000000004 700.0000000000001,-30.000000000000004 700.0000000000001,-40.00000000000001 710.0000000000001,-40.00000000000001 710.0000000000001,-50.00000000000001 720.0000000000001,-50.00000000000001 720.0000000000001,-60.00000000000001 730.0000000000001,-60.00000000000001 730.0000000000001,-90.00000000000001 720.0000000000001,-90.00000000000001 720.0000000000001,-150.00000000000003 710.0000000000001,-150.00000000000003 710.0000000000001,-420.00000000000006 800.0000000000001,-420.00000000000006"/>
<polygon class="l0d0" points="1110.0000000000002,-330.00000000000006 1120.0000000000002,-330.00000000000006 1120.0000000000002,-280.00000000000006 1110.0000000000002,-280.00000000000006 1110.0000000000002,-230.00000000000003 1100.0000000000002,-230.00000000000003 1100.0000000000002,-200.00000000000003 1090.0000000000002,-200.00000000000003 1090.0000000000002,-180.00000000000003 1080.0000000000002,-180.00000000000003 1080.0000000000002,-150.00000000000003 1070.0000000000002,-150.00000000000003 1070.0000000000002,-90.00000000000001 1060.0000000000002,-90.00000000000001 1060.0000000000002,-80.00000000000001 980.0000000000001,-80.00000000000001 980.0000000000001,-70.00000000000001 950.0000000000001,-70.00000000000001 950.0000000000001,-60.00000000000001 920.0000000000001,-60.00000000000001 920.0000000000001,-70.00000000000001 910.0000000000001,-70.00000000000001 910.0000000000001,-80.00000000000001 900.0000000000001,-80.00000000000001 900.0000000000001,-100.00000000000001 890.0000000000001,-100.00000000000001 890.0000000000001,-130.00000000000003 880.0000000000001,-130.00000000000003 880.0000000000001,-160.00000000000003 890.0000000000001,-160.00000000000003 890.0000000000001,-250.00000000000003 900.0000000000001,-250.00000000000003 900.0000000000001,-330.00000000000006 910.0000000000001,-330.00000000000006 910.0000000000001,-420.00000000000006 1110.0000000000002,-420.00000000000006"/>
<polygon class="l0d0" points="600.0000000000001,-330.00000000000006 610.0000000000001,-330.00000000000006 610.0000000000001,-250.00000000000003 620.0000000000001,-250.00000000000003 620.0000000000001,-160.00000000000003 630.0000000000001,-160.00000000000003 630.0000000000001,-130.00000000000003 620.0000000000001,-130.00000000000003 620.0000000000001,-100.00000000000001 610.0000000000001,-100.00000000000001 610.0000000000001,-80.00000000000001 600.0000000000001,-80.00000000000001 600.0000000000001,-70.00000000000001 590.0000000000001,-70.00000000000001 590.0000000000001,-60.00000000000001 560.0000000000001,-60.00000000000001 560.0000000000001,-70.00000000000001 530.0000000000001,-70.00000000000001 530.0000000000001,-80.00000000000001 450.00000000000006,-80.00000000000001 450.00000000000006,-90.00000000000001 440.00000000000006,-90.00000000000001 440.00000000000006,-150.00000000000003 430.00000000000006,-150.00000000000003 430.00000000000006,-180.00000000000003 420.00000000000006,-180.00000000000003 420.00000000000006,-200.00000000000003 410.00000000000006,-200.00000000000003 410.00000000000006,-230.00000000000003 400.00000000000006,-230.00000000000003 400.00000000000006,-280.00000000000006 390.00000000000006,-280.00000000000006 390.00000000000006,-330.00000000000006 400.00000000000006,-330.00000000000006 400.00000000000006,-420.00000000000006 600.0000000000001,-420.00000000000006"/>
</g>
</svg>