<?xml version="1.0" encoding="UTF-8"?>
<svg xmlns="http://www.w3.org/2000/svg" xmlns:xlink="http://www.w3.org/1999/xlink"
     width="455.0" height="1045.0000000000002" viewBox="1092.5000000000002 -7.5 455.0 1045.0000000000002">
<defs>
<style type="text/css">
.l0d0 {stroke: rgb(255, 0, 0); fill: rgb(255, 0, 0); fill-opacity: 0.5;}
</style>
</defs>
<rect x="1092.5000000000002" y="-7.5" width="455.0" height="1045.0000000000002" fill="#222" stroke="none"/>
<g id="TOP" transform="scale(1 -1)">
<polygon class="l0d0" points="1320.0000000000002,-70.00000000000001 1320.0000000000002,-80.00000000000001 1320.0000000000002,-90.00000000000001 1315.0000000000002,-90.00000000000001 1310.0000000000002,-90.00000000000001 1310.0000000000002,-160.00000000000003 1310.0000000000002,-230.00000000000003 1315.0000000000002,-230.00000000000003 1320.0000000000002,-230.00000000000003 1320.0000000000002,-360.00000000000006 1320.0000000000002,-490.00000000000006 1315.0000000000002,-490.00000000000006 1310.0000000000002,-490.00000000000006 1310.0000000000002,-550.0000000000001 1310.0000000000002,-610.0000000000001 1305.0000000000002,-610.0000000000001 1300.0000000000002,-610.0000000000001 1300.0000000000002,-645.0000000000001 1300.0000000000002,-680.0000000000001 1295.0000000000002,-680.0000000000001 1290.0000000000002,-680.0000000000001 1290.0000000000002,-700.0000000000001 1290.0000000000002,-720.0000000000001 1285.0000000000002,-720.0000000000001 1280.0000000000002,-720.0000000000001 1280.0000000000002,-740.0000000000001 1280.0000000000002,-760.0000000000001 1275.0000000000002,-760.0000000000001 1270.0000000000002,-760.0000000000001 1270.0000000000002,-775.0000000000001 1270.0000000000002,-790.0000000000001 1265.0000000000002,-790.0000000000001 1260.0000000000002,-790.0000000000001 1260.0000000000002,-800.0000000000001 1260.0000000000002,-810.0000000000001 1255.0000000000002,-810.0000000000001 1250.0000000000002,-810.0000000000001 1250.0000000000002,-815.0000000000001 1250.0000000000002,-820.0000000000001 1245.0000000000002,-820.0000000000001 1240.0000000000002,-820.0000000000001 1240.0000000000002,-825.0000000000001 1240.0000000000002,-830.0000000000001 1235.0000000000002,-830.0000000000001 1230.0000000000002,-830.0000000000001 1230.0000000000002,-835.0000000000001 1230.0000000000002,-840.0000000000001 1220.0000000000002,-840.0000000000001 1210.0000000000002,-840.0000000000001 1210.0000000000002,-845.0000000000001 1210.0000000000002,-850.0000000000001 1205.0000000000002,-850.0000000000001 1200.0000000000002,-850.0000000000001 1200.0000000000002,-855.0000000000001 1200.0000000000002,-860.0000000000001 1195.0000000000002,-860.0000000000001 1190.0000000000002,-860.0000000000001 1190.0000000000002,-865.0000000000001 1190.0000000000002,-870.0000000000001 1180.0000000000002,-870.0000000000001 1170.0000000000002,-870.0000000000001 1170.0000000000002,-875.0000000000001 1170.0000000000002,-880.0000000000001 1165.0000000000002,-880.0000000000001 1160.0000000000002,-880.0000000000001 1160.0000000000002,-885.0000000000001 1160.0000000000002,-890.0000000000001 1155.0000000000002,-890.0000000000001 1150.0000000000002,-890.0000000000001 1150.0000000000002,-900.0000000000001 1150.0000000000002,-910.0000000000001 1145.0000000000002,-910.0000000000001 1140.0000000000002,-910.0000000000001 1140.0000000000002,-935.0000000000001 1140.0000000000002,-960.0000000000001 1145.0000000000002,-960.0000000000001 1150.0000000000002,-960.0000000000001 1150.0000000000002,-965.0000000000001 1150.0000000000002,-970.0000000000001 1155.0000000000002,-970.0000000000001 1160.0000000000002,-970.0000000000001 1160.0000000000002,-975.0000000000001 1160.0000000000002,-980.0000000000001 1170.0000000000002,-980.0000000000001 1180.0000000000002,-980.0000000000001 1180.0000000000002,-985.0000000000001 1180.0000000000002,-990.0000000000001 1215.0000000000002,-990.0000000000001 1250.0000000000002,-990.0000000000001 1250.0000000000002,-985.0000000000001 1250.0000000000002,-980.0000000000001 1260.0000000000002,-980.0000000000001 1270.0000000000002,-980.0000000000001 1270.0000000000002,-975.0000000000001 1270.0000000000002,-970.0000000000001 1280.0000000000002,-970.0000000000001 1290.0000000000002,-970.0000000000001 1290.0000000000002,-965.0000000000001 1290.0000000000002,-960.0000000000001 1300.0000000000002,-960.0000000000001 1310.0000000000002,-960.0000000000001 1310.0000000000002,-955.0000000000001 1310.0000000000002,-950.0000000000001 1315.0000000000002,-950.0000000000001 1320.0000000000002,-950.0000000000001 1320.0000000000002,-945.0000000000001 1320.0000000000002,-940.0000000000001 1325.0000000000002,-940.0000000000001 1330.0000000000002,-940.0000000000001 1330.0000000000002,-935.0000000000001 1330.0000000000002,-930.0000000000001 1340.0000000000002,-930.0000000000001 1350.0000000000002,-930.0000000000001 1350.0000000000002,-925.0000000000001 1350.0000000000002,-920.0000000000001 1355.0000000000002,-920.0000000000001 1360.0000000000002,-920.0000000000001 1360.0000000000002,-915.0000000000001 1360.0000000000002,-910.0000000000001 1370.0000000000002,-910.0000000000001 1380.0000000000002,-910.0000000000001 1380.0000000000002,-905.0000000000001 1380.0000000000002,-900.0000000000001 1390.0000000000002,-900.0000000000001 1400.0000000000002,-900.0000000000001 1400.0000000000002,-895.0000000000001 1400.0000000000002,-890.0000000000001 1410.0000000000002,-890.0000000000001 1420.0000000000002,-890.0000000000001 1420.0000000000002,-885.0000000000001 1420.0000000000002,-880.0000000000001 1430.0000000000002,-880.0000000000001 1440.0000000000002,-880.0000000000001 1440.0000000000002,-875.0000000000001 1440.0000000000002,-870.0000000000001 1445.0000000000002,-870.0000000000001 1450.0000000000002,-870.0000000000001 1450.0000000000002,-865.0000000000001 1450.0000000000002,-860.0000000000001 1455.0000000000002,-860.0000000000001 1460.0000000000002,-860.0000000000001 1460.0000000000002,-855.0000000000001 1460.0000000000002,-850.0000000000001 1465.0000000000002,-850.0000000000001 1470.0000000000002,-850.0000000000001 1470.0000000000002,-845.0000000000001 1470.0000000000002,-840.0000000000001 1475.0000000000002,-840.0000000000001 1480.0000000000002,-840.0000000000001 1480.0000000000002,-830.0000000000001 1480.0000000000002,-820.0000000000001 1485.0000000000002,-820.0000000000001 1490.0000000000002,-820.0000000000001 1490.0000000000002,-800.0000000000001 1490.0000000000002,-780.0000000000001 1495.0000000000002,-780.0000000000001 1500.0000000000002,-780.0000000000001 1500.0000000000002,-530.0000000000001 1500.0000000000002,-280.00000000000006 1495.0000000000002,-280.00000000000006 1490.0000000000002,-280.00000000000006 1490.0000000000002,-255.00000000000003 1490.0000000000002,-230.00000000000003 1485.0000000000002,-230.00000000000003 1480.0000000000002,-230.00000000000003 1480.0000000000002,-215.00000000000003 1480.0000000000002,-200.00000000000003 1475.0000000000002,-200.00000000000003 1470.0000000000002,-200.00000000000003 1470.0000000000002,-195.00000000000003 1470.0000000000002,-190.00000000000003 1465.0000000000002,-190.00000000000003 1460.0000000000002,-190.00000000000003 1460.0000000000002,-185.00000000000003 1460.0000000000002,-180.00000000000003 1455.0000000000002,-180.00000000000003 1450.0000000000002,-180.00000000000003 1450.0000000000002,-175.00000000000003 1450.0000000000002,-170.00000000000003 1445.0000000000002,-170.00000000000003 1440.0000000000002,-170.00000000000003 1440.0000000000002,-160.00000000000003 1440.0000000000002,-150.00000000000003 1435.0000000000002,-150.00000000000003 1430.0000000000002,-150.00000000000003 1430.0000000000002,-145.00000000000003 1430.0000000000002,-140.00000000000003 1425.0000000000002,-140.00000000000003 1420.0000000000002,-140.00000000000003 1420.0000000000002,-125.00000000000001 1420.0000000000002,-110.00000000000001 1415.0000000000002,-110.00000000000001 1410.0000000000002,-110.00000000000001 1410.0000000000002,-85.00000000000001 1410.0000000000002,-60.00000000000001 1405.0000000000002,-60.00000000000001 1400.0000000000002,-60.00000000000001 1400.0000000000002,-55.00000000000001 1400.0000000000002,-50.00000000000001 1390.0000000000002,-50.00000000000001 1380.0000000000002,-50.00000000000001 1380.0000000000002,-45.00000000000001 1380.0000000000002,-40.00000000000001 1365.0000000000002,-40.00000000000001 1350.0000000000002,-40.00000000000001 1350.0000000000002,-45.00000000000001 1350.0000000000002,-50.00000000000001 1340.0000000000002,-50.00000000000001 1330.0000000000002,-50.00000000000001 1330.0000000000002,-60.00000000000001"/>
</g>
</svg>