<?xml version="1.0" encoding="UTF-8"?>
<svg xmlns="http://www.w3.org/2000/svg" xmlns:xlink="http://www.w3.org/1999/xlink"
     width="120.0" height="220.0" viewBox="-20.0 -20.0 120.0 220.0">
<defs>
<style type="text/css">
.l0d0 {stroke: rgb(255, 0, 0); fill: rgb(255, 0, 0); fill-opacity: 0.5;}
</style>
</defs>
<rect x="-20.0" y="-20.0" width="120.0" height="220.0" fill="#222" stroke="none"/>
<g id="TOP" transform="scale(1 -1)">
<polygon class="l0d0" points="30.0,-100.0 30.1026135321621,-97.97663356025134 30.409401174950112,-95.97402959822679 30.917214871999022,-94.01273754053284 31.62084376759539,-92.11288289773363 32.51306767710836,-90.29396074937837 33.58473117585447,-88.57463569810415 34.82483754614418,-86.97255034555555 36.22066161848627,-85.5041442554176 37.757880349046744,-84.18448526124604 39.42071979346075,-83.02711485010498 41.19211696884732,-82.04390920858516 43.0538949431036,-81.24495735705838 44.9869493548256,-80.63845762267592 46.97144444990847,-80.23063351343778 48.98701662322574,-80.02566985657894 51.01298337677426,-80.02566985657894 53.02855555009153,-80.23063351343778 55.0130506451744,-80.63845762267592 56.9461050568964,-81.24495735705838 58.807883031152684,-82.04390920858516 60.57928020653925,-83.02711485010498 62.242119650953256,-84.18448526124604 63.779338381513725,-85.5041442554176 65.17516245385582,-86.97255034555555 66.41526882414553,-88.57463569810415 67.48693232289165,-90.29396074937837 68.37915623240461,-92.11288289773363 69.08278512800098,-94.01273754053284 69.5905988250499,-95.9740295982268 69.8973864678379,-97.97663356025137 70.0,-100.0 70.0,-100.0 69.8973864678379,-97.97663356025137 69.5905988250499,-95.9740295982268 69.08278512800098,-94.01273754053284 68.37915623240461,-92.11288289773363 67.48693232289165,-90.29396074937837 66.41526882414553,-88.57463569810415 65.17516245385582,-86.97255034555555 63.779338381513725,-85.5041442554176 62.242119650953256,-84.18448526124604 60.57928020653925,-83.02711485010498 58.807883031152684,-82.04390920858516 56.9461050568964,-81.24495735705838 55.0130506451744,-80.63845762267592 53.02855555009153,-80.23063351343778 51.01298337677426,-80.02566985657894 48.98701662322574,-80.02566985657894 46.97144444990847,-80.23063351343778 44.9869493548256,-80.63845762267592 43.0538949431036,-81.24495735705838 41.192116968847316,-82.04390920858516 39.42071979346075,-83.02711485010498 37.757880349046744,-84.18448526124604 36.22066161848627,-85.5041442554176 34.82483754614418,-86.97255034555555 33.58473117585447,-88.57463569810415 32.51306767710836,-90.29396074937837 31.62084376759539,-92.11288289773363 30.917214871999022,-94.01273754053284 30.409401174950112,-95.97402959822679 30.1026135321621,-97.97663356025134 30.0,-100.0"/>
<polygon class="l0d0" points="0.0,10.0 0.0,-10.0 90.0,-10.0 90.0,-190.0 10.0,-190.0 10.0,0.0 -10.0,0.0"/>
</g>
</svg>