<?xml version="1.0" encoding="UTF-8"?>
<svg xmlns="http://www.w3.org/2000/svg" xmlns:xlink="http://www.w3.org/1999/xlink"
     width="3932.1" height="4412.1" viewBox="38.94999999999999 -201.05 3932.1 4412.1">
<defs>
<style type="text/css">
.l0d0 {stroke: rgb(255, 0, 0); fill: rgb(255, 0, 0); fill-opacity: 0.5;}
</style>
</defs>
<rect x="38.94999999999999" y="-201.05" width="3932.1" height="4412.1" fill="#222" stroke="none"/>
<g id="TOP" transform="scale(1 -1)">
<polygon class="l0d0" points="2640.5,-3853.0 2640.5,-3848.0 2640.5,-3844.25 2640.5,-3841.75 2643.0,-3836.6875000000005 2648.0,-3829.0625 2650.5,-3817.625 2650.5,-3802.375 2650.5,-3790.9375 2650.5,-3783.3124999999995 2648.0,-3777.625 2643.0,-3773.875 2640.5,-3768.25 2640.5,-3760.75 2640.5,-3755.125 2640.5,-3751.375 2640.5,-3749.5 2630.5,-3749.5 2630.5,-3739.5 2618.625,-3737.0 2614.875,-3732.0 2609.25,-3729.5 2601.75,-3729.5 2596.125,-3729.5 2592.375,-3729.5 2590.5,-3729.5 2590.5,-3719.5 2580.5,-3719.5 2580.5,-3709.5 2570.5,-3709.5 2568.0,-3690.125 2563.0,-3671.375 2560.5,-3643.25 2560.5,-3605.75 2560.5,-3577.625 2560.5,-3558.875 2558.0,-3547.0 2553.0,-3542.0 2550.5,-3534.5 2550.5,-3524.5 2550.5,-3517.0 2550.5,-3512.0 2548.0,-3506.375 2543.0,-3500.125 2540.5,-3490.75 2540.5,-3478.25 2540.5,-3468.875 2540.5,-3462.625 2538.0,-3457.0 2533.0,-3452.0 2530.5,-3444.5 2530.5,-3434.5 2530.5,-3427.0 2530.5,-3422.0 2528.0,-3417.625 2523.0,-3413.875 2520.5,-3408.25 2520.5,-3400.75 2520.5,-3395.125 2520.5,-3391.375 2518.0,-3388.25 2513.0,-3385.75 2510.5,-3382.0 2510.5,-3377.0 2510.5,-3373.25 2510.5,-3370.75 2510.5,-3369.5 2500.5,-3369.5 2498.0,-3358.25 2493.0,-3355.75 2490.5,-3352.0 2490.5,-3347.0 2490.5,-3343.25 2490.5,-3340.75 2488.0,-3337.625 2483.0,-3333.875 2480.5,-3328.25 2480.5,-3320.75 2480.5,-3315.125 2480.5,-3311.375 2478.0,-3307.625 2473.0,-3303.875 2470.5,-3298.25 2470.5,-3290.75 2470.5,-3285.125 2470.5,-3281.375 2468.0,-3275.75 2463.0,-3268.25 2460.5,-3257.0 2460.5,-3242.0 2460.5,-3230.75 2460.5,-3223.25 2458.0,-3211.375 2453.0,-3195.125 2450.5,-3170.75 2450.5,-3138.25 2450.5,-3113.875 2450.5,-3097.625 2448.0,-3080.125 2443.0,-3061.375 2440.5,-3033.25 2440.5,-2995.75 2440.5,-2967.625 2440.5,-2948.875 2438.0,-2822.6874999999995 2433.0,-2589.0625 2430.5,-2238.625 2430.5,-1771.375 2430.5,-1420.9374999999998 2430.5,-1187.3125 2433.0,-1061.125 2438.0,-1042.375 2440.5,-1014.25 2440.5,-976.75 2440.5,-948.625 2440.5,-929.875 2443.0,-912.375 2448.0,-896.125 2450.5,-871.75 2450.5,-839.25 2450.5,-814.875 2450.5,-798.625 2453.0,-786.75 2458.0,-779.25 2460.5,-768.0 2460.5,-753.0 2460.5,-741.75 2460.5,-734.25 2463.0,-728.625 2468.0,-724.875 2470.5,-719.25 2470.5,-711.75 2470.5,-706.125 2470.5,-702.375 2473.0,-698.625 2478.0,-694.875 2480.5,-689.25 2480.5,-681.75 2480.5,-676.125 2480.5,-672.375 2483.0,-669.25 2488.0,-666.75 2490.5,-663.0 2490.5,-658.0 2490.5,-654.25 2490.5,-651.75 2490.5,-650.5 2500.5,-650.5 2503.0,-639.25 2508.0,-636.75 2510.5,-633.0 2510.5,-628.0 2510.5,-624.25 2510.5,-621.75 2513.0,-618.625 2518.0,-614.875 2520.5,-609.25 2520.5,-601.75 2520.5,-596.125 2520.5,-592.375 2523.0,-588.0 2528.0,-583.0 2530.5,-575.5 2530.5,-565.5 2530.5,-558.0 2530.5,-553.0 2533.0,-547.375 2538.0,-541.125 2540.5,-531.75 2540.5,-519.25 2540.5,-509.875 2540.5,-503.625 2543.0,-498.0 2548.0,-493.0 2550.5,-485.5 2550.5,-475.5 2550.5,-468.0 2550.5,-463.0 2553.0,-451.125 2558.0,-432.375 2560.5,-404.25 2560.5,-366.75 2560.5,-338.625 2560.5,-319.875 2560.5,-310.5 2570.5,-310.5 2570.5,-300.5 2580.5,-300.5 2580.5,-290.5 2592.375,-288.0 2596.125,-283.0 2601.75,-280.5 2609.25,-280.5 2614.875,-280.5 2618.625,-280.5 2620.5,-280.5 2620.5,-270.5 2630.5,-270.5 2633.0,-258.625 2638.0,-254.875 2640.5,-249.25 2640.5,-241.75 2640.5,-236.125 2640.5,-232.375 2643.0,-226.68750000000003 2648.0,-219.0625 2650.5,-207.625 2650.5,-192.375 2650.5,-180.9375 2650.5,-173.31249999999997 2648.0,-168.25 2643.0,-165.75 2640.5,-162.0 2640.5,-157.0 2640.5,-153.25 2640.5,-150.75 2638.0,-140.125 2633.0,-121.375 2630.5,-93.25 2630.5,-55.74999999999999 2552.3125000000005,-27.624999999999996 2395.9375,-8.875 2161.375,0.5 1848.625,0.5 1614.0625,-8.875 1457.6874999999998,-27.624999999999996 1379.5,-55.74999999999999 1379.5,-93.25 1379.5,-121.375 1379.5,-140.125 1377.0,-150.75 1372.0,-153.25 1369.5,-157.0 1369.5,-162.0 1369.5,-165.75 1369.5,-168.25 1367.0,-172.0 1362.0,-177.0 1359.5,-184.5 1359.5,-194.5 1359.5,-202.0 1359.5,-207.0 1359.5,-209.5 1349.5,-209.5 1349.5,-219.5 1339.5,-219.5 1339.5,-229.5 1326.375,-232.0 1320.125,-237.0 1310.75,-239.5 1298.25,-239.5 1288.875,-239.5 1282.625,-239.5 1277.625,-242.0 1273.875,-247.0 1268.25,-249.5 1260.75,-249.5 1255.125,-249.5 1251.375,-249.5 1249.5,-249.5 1247.0,-262.0625 1242.0,-267.1875 1239.5,-274.875 1239.5,-285.125 1239.5,-292.8125 1239.5,-297.9375 1239.5,-300.5 1249.5,-300.5 1249.5,-310.5 1259.5,-310.5 1259.5,-320.5 1269.5,-320.5 1269.5,-330.5 1279.5,-330.5 1282.0,-342.375 1287.0,-346.125 1289.5,-351.75 1289.5,-359.25 1289.5,-364.875 1289.5,-368.625 1292.0,-382.93749999999994 1297.0,-407.8125 1299.5,-445.125 1299.5,-494.87500000000006 1299.5,-532.1875 1299.5,-557.0625000000001 1297.0,-578.3125000000001 1292.0,-595.9375 1289.5,-622.375 1289.5,-657.625 1289.5,-684.0625 1289.5,-701.6874999999999 1292.0,-716.75 1297.0,-729.25 1299.5,-748.0 1299.5,-773.0 1299.5,-791.75 1299.5,-804.25 1302.0,-813.0 1307.0,-818.0 1309.5,-825.5 1309.5,-835.5 1309.5,-843.0 1309.5,-848.0 1312.0,-853.0 1317.0,-858.0 1319.5,-865.5 1319.5,-875.5 1319.5,-883.0 1319.5,-888.0 1322.0,-896.125 1327.0,-907.375 1329.5,-924.25 1329.5,-946.75 1329.5,-963.625 1329.5,-974.875 1332.0,-984.25 1337.0,-991.75 1339.5,-1003.0 1339.5,-1018.0 1339.5,-1029.25 1339.5,-1036.75 1342.0,-1043.0 1347.0,-1048.0 1349.5,-1055.5 1349.5,-1065.5 1349.5,-1073.0 1349.5,-1078.0 1352.0,-1087.375 1357.0,-1101.125 1359.5,-1121.75 1359.5,-1149.25 1359.5,-1169.875 1359.5,-1183.625 1362.0,-1196.75 1367.0,-1209.25 1369.5,-1228.0 1369.5,-1253.0 1369.5,-1271.75 1369.5,-1284.25 1372.0,-1294.25 1377.0,-1301.75 1379.5,-1313.0 1379.5,-1328.0 1379.5,-1339.25 1379.5,-1346.75 1382.0,-1356.125 1387.0,-1367.375 1389.5,-1384.25 1389.5,-1406.75 1389.5,-1423.625 1389.5,-1434.875 1392.0,-1444.25 1397.0,-1451.75 1399.5,-1463.0 1399.5,-1478.0 1399.5,-1489.25 1399.5,-1496.75 1402.0,-1504.25 1407.0,-1511.75 1409.5,-1523.0 1409.5,-1538.0 1409.5,-1549.25 1409.5,-1556.75 1412.0,-1565.5 1417.0,-1575.5 1419.5,-1590.5 1419.5,-1610.5 1419.5,-1625.5 1419.5,-1635.5 1422.0,-1649.25 1427.0,-1666.75 1429.5,-1693.0 1429.5,-1728.0 1429.5,-1754.25 1429.5,-1771.75 1432.0,-1804.8125000000005 1437.0,-1853.4375 1439.5,-1926.375 1439.5,-2023.625 1468.3124999999998,-2096.5625 1525.9375,-2145.1874999999995 1612.375,-2169.5 1727.6250000000002,-2169.5 1814.0625,-2148.9374999999995 1871.6875000000005,-2107.8125 1900.5,-2046.125 1900.5,-1963.875 1900.5,-1902.1875 1900.5,-1861.0625000000005 1903.0,-1828.0 1908.0,-1803.0 1910.5,-1765.5 1910.5,-1715.5 1910.5,-1678.0 1910.5,-1653.0 1913.0,-1628.625 1918.0,-1604.875 1920.5,-1569.25 1920.5,-1521.75 1920.5,-1486.125 1920.5,-1462.375 1923.0,-1443.625 1928.0,-1429.875 1930.5,-1409.25 1930.5,-1381.75 1930.5,-1361.125 1930.5,-1347.375 1933.0,-1331.75 1938.0,-1314.25 1940.5,-1288.0 1940.5,-1253.0 1940.5,-1226.75 1940.5,-1209.25 1943.0,-1190.5 1948.0,-1170.5 1950.5,-1140.5 1950.5,-1100.5 1950.5,-1070.5 1950.5,-1050.5 1953.0,-1037.375 1958.0,-1031.125 1960.5,-1021.75 1960.5,-1009.25 1960.5,-999.875 1960.5,-993.625 1963.0,-978.625 1968.0,-954.875 1970.5,-919.25 1970.5,-871.75 1970.5,-836.125 1970.5,-812.375 1970.5,-800.5 1980.5,-800.5 1980.5,-790.5 1990.5,-790.5 1993.0,-779.25 1998.0,-776.75 2000.5,-773.0 2000.5,-768.0 2000.5,-764.25 2000.5,-761.75 2003.0,-759.1874999999999 2008.0,-756.5625 2010.5,-752.625 2010.5,-747.375 2010.5,-743.4375 2010.5,-740.8125000000001 2008.0,-737.625 2003.0,-733.875 2000.5,-728.25 2000.5,-720.75 2000.5,-715.125 2000.5,-711.375 1998.0,-703.25 1993.0,-690.75 1990.5,-672.0 1990.5,-647.0 1990.5,-628.25 1990.5,-615.75 1988.0,-607.0 1983.0,-602.0 1980.5,-594.5 1980.5,-584.5 1980.5,-577.0 1980.5,-572.0 1978.0,-562.625 1973.0,-548.875 1970.5,-528.25 1970.5,-500.75 1970.5,-480.125 1970.5,-466.375 1968.0,-457.0 1963.0,-452.0 1960.5,-444.5 1960.5,-434.5 1960.5,-427.0 1960.5,-422.0 1958.0,-417.625 1953.0,-413.875 1950.5,-408.25 1950.5,-400.75 1950.5,-395.125 1950.5,-391.375 1948.0,-384.56250000000006 1943.0,-374.6875 1940.5,-359.87500000000006 1940.5,-340.125 1940.5,-325.31250000000006 1940.5,-315.4375 1940.5,-310.5 1950.5,-310.5 1950.5,-300.5 1960.5,-300.5 1960.5,-290.5 1976.6875000000005,-288.0 1989.0625,-283.0 2007.625,-280.5 2032.375,-280.5 2050.9375,-280.5 2063.3124999999995,-280.5 2069.5,-280.5 2069.5,-290.5 2079.5,-290.5 2079.5,-300.5 2089.5,-300.5 2092.0,-314.875 2097.0,-323.625 2099.5,-336.75 2099.5,-354.25 2099.5,-367.375 2099.5,-376.125 2102.0,-383.0 2107.0,-388.0 2109.5,-395.5 2109.5,-405.5 2109.5,-413.0 2109.5,-418.0 2112.0,-422.375 2117.0,-426.125 2119.5,-431.75 2119.5,-439.25 2119.5,-444.875 2119.5,-448.625 2122.0,-456.125 2127.0,-467.375 2129.5,-484.25 2129.5,-506.75 2129.5,-523.625 2129.5,-534.875 2132.0,-543.0 2137.0,-548.0 2139.5,-555.5 2139.5,-565.5 2139.5,-573.0 2139.5,-578.0 2142.0,-583.0 2147.0,-588.0 2149.5,-595.5 2149.5,-605.5 2149.5,-613.0 2149.5,-618.0 2152.0,-622.375 2157.0,-626.125 2159.5,-631.75 2159.5,-639.25 2159.5,-644.875 2159.5,-648.625 2162.0,-652.375 2167.0,-656.125 2169.5,-661.75 2169.5,-669.25 2169.5,-674.875 2169.5,-678.625 2172.0,-682.375 2177.0,-686.125 2179.5,-691.75 2179.5,-699.25 2179.5,-704.875 2179.5,-708.625 2182.0,-716.75 2187.0,-729.25 2189.5,-748.0 2189.5,-773.0 2189.5,-791.75 2189.5,-804.25 2192.0,-820.5 2197.0,-840.5 2199.5,-870.5 2199.5,-910.5 2199.5,-940.5 2199.5,-960.5 2202.0,-984.875 2207.0,-1013.625 2209.5,-1056.75 2209.5,-1114.25 2209.5,-1157.375 2209.5,-1186.125 2212.0,-1216.125 2217.0,-1247.375 2219.5,-1294.25 2219.5,-1356.75 2219.5,-1403.625 2219.5,-1434.875 2222.0,-1519.8125000000002 2227.0,-1658.4375 2229.5,-1866.375 2229.5,-2143.625 2229.5,-2351.5625 2229.5,-2490.1874999999995 2227.0,-2575.125 2222.0,-2606.375 2219.5,-2653.25 2219.5,-2715.75 2219.5,-2762.625 2219.5,-2793.875 2217.0,-2823.875 2212.0,-2852.625 2209.5,-2895.75 2209.5,-2953.25 2209.5,-2996.375 2209.5,-3025.125 2207.0,-3049.5 2202.0,-3069.5 2199.5,-3099.5 2199.5,-3139.5 2199.5,-3169.5 2199.5,-3189.5 2197.0,-3205.75 2192.0,-3218.25 2189.5,-3237.0 2189.5,-3262.0 2189.5,-3280.75 2189.5,-3293.25 2187.0,-3301.375 2182.0,-3305.125 2179.5,-3310.75 2179.5,-3318.25 2179.5,-3323.875 2179.5,-3327.625 2177.0,-3331.375 2172.0,-3335.125 2169.5,-3340.75 2169.5,-3348.25 2169.5,-3353.875 2169.5,-3357.625 2167.0,-3361.375 2162.0,-3365.125 2159.5,-3370.75 2159.5,-3378.25 2159.5,-3383.875 2159.5,-3387.625 2157.0,-3392.0 2152.0,-3397.0 2149.5,-3404.5 2149.5,-3414.5 2149.5,-3422.0 2149.5,-3427.0 2147.0,-3432.0 2142.0,-3437.0 2139.5,-3444.5 2139.5,-3454.5 2139.5,-3462.0 2139.5,-3467.0 2137.0,-3475.125 2132.0,-3486.375 2129.5,-3503.25 2129.5,-3525.75 2129.5,-3542.625 2129.5,-3553.875 2127.0,-3561.375 2122.0,-3565.125 2119.5,-3570.75 2119.5,-3578.25 2119.5,-3583.875 2119.5,-3587.625 2117.0,-3592.0 2112.0,-3597.0 2109.5,-3604.5 2109.5,-3614.5 2109.5,-3622.0 2109.5,-3627.0 2107.0,-3633.875 2102.0,-3642.625 2099.5,-3655.75 2099.5,-3673.25 2099.5,-3686.375 2099.5,-3695.125 2099.5,-3699.5 2089.5,-3699.5 2089.5,-3709.5 2079.5,-3709.5 2079.5,-3719.5 2063.3124999999995,-3722.0 2050.9375,-3727.0 2032.375,-3729.5 2007.625,-3729.5 1989.0625,-3729.5 1976.6875000000005,-3729.5 1970.5,-3729.5 1970.5,-3719.5 1960.5,-3719.5 1960.5,-3709.5 1950.5,-3709.5 1948.0,-3694.5624999999995 1943.0,-3684.6875 1940.5,-3669.875 1940.5,-3650.125 1940.5,-3635.3125 1940.5,-3625.4375000000005 1943.0,-3618.625 1948.0,-3614.875 1950.5,-3609.25 1950.5,-3601.75 1950.5,-3596.125 1950.5,-3592.375 1953.0,-3588.0 1958.0,-3583.0 1960.5,-3575.5 1960.5,-3565.5 1960.5,-3558.0 1960.5,-3553.0 1963.0,-3543.625 1968.0,-3529.875 1970.5,-3509.25 1970.5,-3481.75 1970.5,-3461.125 1970.5,-3447.375 1973.0,-3438.0 1978.0,-3433.0 1980.5,-3425.5 1980.5,-3415.5 1980.5,-3408.0 1980.5,-3403.0 1983.0,-3394.25 1988.0,-3381.75 1990.5,-3363.0 1990.5,-3338.0 1990.5,-3319.25 1990.5,-3306.75 1993.0,-3298.625 1998.0,-3294.875 2000.5,-3289.25 2000.5,-3281.75 2000.5,-3276.125 2000.5,-3272.375 2003.0,-3269.1875000000005 2008.0,-3266.5625 2010.5,-3262.625 2010.5,-3257.375 2010.5,-3253.4375 2010.5,-3250.8124999999995 2008.0,-3248.25 2003.0,-3245.75 2000.5,-3242.0 2000.5,-3237.0 2000.5,-3233.25 2000.5,-3230.75 2000.5,-3229.5 1990.5,-3229.5 1990.5,-3219.5 1980.5,-3219.5 1978.0,-3197.625 1973.0,-3173.875 1970.5,-3138.25 1970.5,-3090.75 1970.5,-3055.125 1970.5,-3031.375 1968.0,-3016.375 1963.0,-3010.125 1960.5,-3000.75 1960.5,-2988.25 1960.5,-2978.875 1960.5,-2972.625 1958.0,-2959.5 1953.0,-2939.5 1950.5,-2909.5 1950.5,-2869.5 1950.5,-2839.5 1950.5,-2819.5 1948.0,-2800.75 1943.0,-2783.25 1940.5,-2757.0 1940.5,-2722.0 1940.5,-2695.75 1940.5,-2678.25 1938.0,-2662.625 1933.0,-2648.875 1930.5,-2628.25 1930.5,-2600.75 1930.5,-2580.125 1930.5,-2566.375 1928.0,-2547.625 1923.0,-2523.875 1920.5,-2488.25 1920.5,-2440.75 1920.5,-2405.125 1920.5,-2381.375 1918.0,-2357.0 1913.0,-2332.0 1910.5,-2294.5 1910.5,-2244.5 1910.5,-2207.0 1910.5,-2182.0 1879.1875000000005,-2169.5 1816.5625,-2169.5 1727.6250000000002,-2169.5 1612.375,-2169.5 1525.9375,-2173.25 1468.3124999999998,-2180.75 1439.5,-2192.0 1439.5,-2207.0 1439.5,-2218.25 1439.5,-2225.75 1437.0,-2238.25 1432.0,-2255.75 1429.5,-2282.0 1429.5,-2317.0 1429.5,-2343.25 1429.5,-2360.75 1427.0,-2374.5 1422.0,-2384.5 1419.5,-2399.5 1419.5,-2419.5 1419.5,-2434.5 1419.5,-2444.5 1417.0,-2453.25 1412.0,-2460.75 1409.5,-2472.0 1409.5,-2487.0 1409.5,-2498.25 1409.5,-2505.75 1407.0,-2513.25 1402.0,-2520.75 1399.5,-2532.0 1399.5,-2547.0 1399.5,-2558.25 1399.5,-2565.75 1397.0,-2575.125 1392.0,-2586.375 1389.5,-2603.25 1389.5,-2625.75 1389.5,-2642.625 1389.5,-2653.875 1387.0,-2663.25 1382.0,-2670.75 1379.5,-2682.0 1379.5,-2697.0 1379.5,-2708.25 1379.5,-2715.75 1377.0,-2725.75 1372.0,-2738.25 1369.5,-2757.0 1369.5,-2782.0 1369.5,-2800.75 1369.5,-2813.25 1367.0,-2826.375 1362.0,-2840.125 1359.5,-2860.75 1359.5,-2888.25 1359.5,-2908.875 1359.5,-2922.625 1357.0,-2932.0 1352.0,-2937.0 1349.5,-2944.5 1349.5,-2954.5 1349.5,-2962.0 1349.5,-2967.0 1347.0,-2973.25 1342.0,-2980.75 1339.5,-2992.0 1339.5,-3007.0 1339.5,-3018.25 1339.5,-3025.75 1337.0,-3035.125 1332.0,-3046.375 1329.5,-3063.25 1329.5,-3085.75 1329.5,-3102.625 1329.5,-3113.875 1327.0,-3122.0 1322.0,-3127.0 1319.5,-3134.5 1319.5,-3144.5 1319.5,-3152.0 1319.5,-3157.0 1317.0,-3162.0 1312.0,-3167.0 1309.5,-3174.5 1309.5,-3184.5 1309.5,-3192.0 1309.5,-3197.0 1307.0,-3205.75 1302.0,-3218.25 1299.5,-3237.0 1299.5,-3262.0 1299.5,-3280.75 1299.5,-3293.25 1297.0,-3308.3124999999995 1292.0,-3325.9375 1289.5,-3352.375 1289.5,-3387.625 1289.5,-3414.0625 1289.5,-3431.6875000000005 1292.0,-3452.9375000000005 1297.0,-3477.8125 1299.5,-3515.125 1299.5,-3564.875 1299.5,-3602.1875 1299.5,-3627.0624999999995 1297.0,-3641.375 1292.0,-3645.125 1289.5,-3650.75 1289.5,-3658.25 1289.5,-3663.875 1289.5,-3667.625 1289.5,-3669.5 1279.5,-3669.5 1279.5,-3679.5 1269.5,-3679.5 1269.5,-3689.5 1259.5,-3689.5 1259.5,-3699.5 1249.5,-3699.5 1247.0,-3712.0624999999995 1242.0,-3717.1875 1239.5,-3724.875 1239.5,-3735.125 1239.5,-3742.8125 1239.5,-3747.9375000000005 1239.5,-3750.5 1251.375,-3753.0 1255.125,-3758.0 1260.75,-3760.5 1268.25,-3760.5 1273.875,-3760.5 1277.625,-3760.5 1282.625,-3763.0 1288.875,-3768.0 1298.25,-3770.5 1310.75,-3770.5 1320.125,-3770.5 1326.375,-3770.5 1329.5,-3770.5 1329.5,-3780.5 1339.5,-3780.5 1339.5,-3790.5 1349.5,-3790.5 1352.0,-3803.0 1357.0,-3808.0 1359.5,-3815.5 1359.5,-3825.5 1359.5,-3833.0 1359.5,-3838.0 1362.0,-3841.75 1367.0,-3844.25 1369.5,-3848.0 1369.5,-3853.0 1369.5,-3856.75 1369.5,-3859.25 1372.0,-3869.875 1377.0,-3888.625 1379.5,-3916.75 1379.5,-3954.25 1457.6874999999998,-3982.375 1614.0625,-4001.125 1848.625,-4010.5 2161.375,-4010.5 2395.9375,-4001.125 2552.3125000000005,-3982.375 2630.5,-3954.25 2630.5,-3916.75 2630.5,-3888.625 2630.5,-3869.875 2630.5,-3860.5"/>
<polygon class="l0d0" points="2980.5,-332.0 2980.5,-327.0 2979.25,-323.25 2976.75,-320.75 2973.0,-319.5 2968.0,-319.5 2964.25,-319.5 2961.75,-319.5 2959.1875000000005,-317.0 2956.5625,-312.0 2952.625,-309.5 2947.375,-309.5 2943.4375,-309.5 2940.8124999999995,-309.5 2939.5,-309.5 2937.0,-320.125 2932.0,-321.375 2929.5,-323.25 2929.5,-325.75 2929.5,-327.625 2929.5,-328.875 2927.0,-332.68750000000006 2922.0,-339.0625 2919.5,-348.62500000000006 2919.5,-361.37499999999994 2919.5,-370.9375 2919.5,-377.31249999999994 2922.0,-382.375 2927.0,-386.125 2929.5,-391.75 2929.5,-399.25 2929.5,-404.875 2929.5,-408.625 2932.0,-411.75 2937.0,-414.25 2939.5,-418.0 2939.5,-423.0 2939.5,-426.75 2939.5,-429.25 2939.5,-430.5 2950.8124999999995,-433.0 2953.4375,-438.0 2957.375,-440.5 2962.625,-440.5 2966.5625,-440.5 2969.1875000000005,-440.5 2970.5,-440.5 2970.5,-430.5 2980.5,-430.5 2983.0,-415.43749999999994 2988.0,-405.3125 2990.5,-390.12499999999994 2990.5,-369.87500000000006 2990.5,-354.6875 2990.5,-344.56250000000006 2990.5,-339.5"/>
<polygon class="l0d0" points="2909.1875000000005,-527.0 2906.5625,-522.0 2902.625,-519.5 2897.375,-519.5 2893.4375,-519.5 2890.8124999999995,-519.5 2889.5,-519.5 2889.5,-529.5 2879.5,-529.5 2877.0,-543.3125000000001 2872.0,-550.9375 2869.5,-562.375 2869.5,-577.625 2869.5,-589.0625 2869.5,-596.6874999999999 2869.5,-600.5 2879.5,-600.5 2879.5,-610.5 2890.8124999999995,-613.0 2893.4375,-618.0 2897.375,-620.5 2902.625,-620.5 2906.5625,-620.5 2909.1875000000005,-620.5 2910.5,-620.5 2913.0,-605.4374999999999 2918.0,-595.3125 2920.5,-580.125 2920.5,-559.875 2920.5,-544.6875 2920.5,-534.5625000000001 2920.5,-529.5"/>
<polygon class="l0d0" points="909.1874999999999,-547.0 906.5625,-542.0 902.625,-539.5 897.375,-539.5 893.4375,-539.5 890.8125000000001,-539.5 889.5,-539.5 887.0,-551.4375000000001 882.0,-555.3125 879.5,-561.125 879.5,-568.875 879.5,-574.6875 879.5,-578.5624999999999 879.5,-580.5 890.1875000000001,-583.0 891.5625,-588.0 893.625,-590.5 896.375,-590.5 898.4375,-590.5 899.8124999999999,-590.5 900.5,-590.5 900.5,-580.5 910.5,-580.5 913.0,-569.1874999999999 918.0,-566.5625 920.5,-562.625 920.5,-557.375 920.5,-553.4375 920.5,-550.8125000000001 920.5,-549.5"/>
<polygon class="l0d0" points="2909.1875000000005,-3397.0 2906.5625,-3392.0 2902.625,-3389.5 2897.375,-3389.5 2893.4375,-3389.5 2890.8124999999995,-3389.5 2889.5,-3389.5 2889.5,-3399.5 2879.5,-3399.5 2877.0,-3413.3124999999995 2872.0,-3420.9375 2869.5,-3432.375 2869.5,-3447.625 2869.5,-3459.0625 2869.5,-3466.6875000000005 2869.5,-3470.5 2879.5,-3470.5 2879.5,-3480.5 2890.8124999999995,-3483.0 2893.4375,-3488.0 2897.375,-3490.5 2902.625,-3490.5 2906.5625,-3490.5 2909.1875000000005,-3490.5 2910.5,-3490.5 2913.0,-3475.4375000000005 2918.0,-3465.3125 2920.5,-3450.125 2920.5,-3429.875 2920.5,-3414.6875 2920.5,-3404.5624999999995 2920.5,-3399.5"/>
<polygon class="l0d0" points="910.5,-3439.5 910.5,-3429.5 899.8124999999999,-3427.0 898.4375,-3422.0 896.375,-3419.5 893.625,-3419.5 891.5625,-3419.5 890.1875000000001,-3419.5 889.5,-3419.5 887.0,-3431.4374999999995 882.0,-3435.3125 879.5,-3441.125 879.5,-3448.875 879.5,-3454.6875 879.5,-3458.5625000000005 879.5,-3460.5 890.8125000000001,-3463.0 893.4375,-3468.0 897.375,-3470.5 902.625,-3470.5 906.5625,-3470.5 909.1874999999999,-3470.5 910.5,-3470.5 913.0,-3459.1875000000005 918.0,-3456.5625 920.5,-3452.625 920.5,-3447.375 920.5,-3443.4375 920.5,-3440.8124999999995 920.5,-3439.5"/>
<polygon class="l0d0" points="2983.0,-3665.4375000000005 2988.0,-3655.3125 2990.5,-3640.125 2990.5,-3619.875 2990.5,-3604.6875 2990.5,-3594.5624999999995 2990.5,-3589.5 2980.5,-3589.5 2980.5,-3579.5 2969.1875000000005,-3577.0 2966.5625,-3572.0 2962.625,-3569.5 2957.375,-3569.5 2953.4375,-3569.5 2950.8124999999995,-3569.5 2949.5,-3569.5 2947.0,-3580.75 2942.0,-3583.25 2939.5,-3587.0 2939.5,-3592.0 2939.5,-3595.75 2939.5,-3598.25 2937.0,-3601.375 2932.0,-3605.125 2929.5,-3610.75 2929.5,-3618.25 2929.5,-3623.875 2929.5,-3627.625 2927.0,-3632.6874999999995 2922.0,-3639.0625 2919.5,-3648.625 2919.5,-3661.375 2919.5,-3670.9375 2919.5,-3677.3125000000005 2919.5,-3680.5 2929.5,-3680.5 2929.5,-3690.5 2940.8124999999995,-3693.0 2943.4375,-3698.0 2947.375,-3700.5 2952.625,-3700.5 2956.5625,-3700.5 2959.1875000000005,-3700.5 2961.75,-3698.0 2964.25,-3693.0 2968.0,-3690.5 2973.0,-3690.5 2976.75,-3690.5 2979.25,-3690.5 2980.5,-3690.5"/>
<polygon class="l0d0" points="2959.5,-2667.375 2959.5,-2672.625 2959.5,-2676.5625 2959.5,-2679.1875000000005 2962.0,-2693.0 2967.0,-2718.0 2969.5,-2755.5 2969.5,-2805.5 2969.5,-2843.0 2969.5,-2868.0 2972.0,-2883.0 2977.0,-2888.0 2979.5,-2895.5 2979.5,-2905.5 2979.5,-2913.0 2979.5,-2918.0 2982.0,-2922.375 2987.0,-2926.125 2989.5,-2931.75 2989.5,-2939.25 2989.5,-2944.875 2989.5,-2948.625 2992.0,-2952.375 2997.0,-2956.125 2999.5,-2961.75 2999.5,-2969.25 2999.5,-2974.875 2999.5,-2978.625 3002.0,-2983.0 3007.0,-2988.0 3009.5,-2995.5 3009.5,-3005.5 3009.5,-3013.0 3009.5,-3018.0 3012.0,-3023.0 3017.0,-3028.0 3019.5,-3035.5 3019.5,-3045.5 3019.5,-3053.0 3019.5,-3058.0 3022.0,-3063.0 3027.0,-3068.0 3029.5,-3075.5 3029.5,-3085.5 3029.5,-3093.0 3029.5,-3098.0 3032.0,-3102.375 3037.0,-3106.125 3039.5,-3111.75 3039.5,-3119.25 3039.5,-3124.875 3039.5,-3128.625 3042.0,-3132.375 3047.0,-3136.125 3049.5,-3141.75 3049.5,-3149.25 3049.5,-3154.875 3049.5,-3158.625 3052.0,-3163.0 3057.0,-3168.0 3059.5,-3175.5 3059.5,-3185.5 3059.5,-3193.0 3059.5,-3198.0 3062.0,-3203.0 3067.0,-3208.0 3069.5,-3215.5 3069.5,-3225.5 3069.5,-3233.0 3069.5,-3238.0 3072.0,-3242.375 3077.0,-3246.125 3079.5,-3251.75 3079.5,-3259.25 3079.5,-3264.875 3079.5,-3268.625 3079.5,-3270.5 3089.5,-3270.5 3089.5,-3280.5 3100.75,-3283.0 3103.25,-3288.0 3107.0,-3290.5 3112.0,-3290.5 3115.75,-3290.5 3118.25,-3290.5 3120.75,-3293.0 3123.25,-3298.0 3127.0,-3300.5 3132.0,-3300.5 3135.75,-3300.5 3138.25,-3300.5 3139.5,-3300.5 3139.5,-3310.5 3149.5,-3310.5 3149.5,-3320.5 3159.5,-3320.5 3159.5,-3330.5 3169.5,-3330.5 3172.0,-3343.5625000000005 3177.0,-3349.6875 3179.5,-3358.875 3179.5,-3371.125 3179.5,-3380.3125 3179.5,-3386.4374999999995 3177.0,-3390.75 3172.0,-3393.25 3169.5,-3397.0 3169.5,-3402.0 3169.5,-3405.75 3169.5,-3408.25 3169.5,-3409.5 3159.5,-3409.5 3157.0,-3421.375 3152.0,-3425.125 3149.5,-3430.75 3149.5,-3438.25 3149.5,-3443.875 3149.5,-3447.625 3147.0,-3450.8124999999995 3142.0,-3453.4375 3139.5,-3457.375 3139.5,-3462.625 3139.5,-3466.5625 3139.5,-3469.1875000000005 3142.0,-3472.375 3147.0,-3476.125 3149.5,-3481.75 3149.5,-3489.25 3149.5,-3494.875 3149.5,-3498.625 3149.5,-3500.5 3159.5,-3500.5 3159.5,-3510.5 3169.5,-3510.5 3172.0,-3525.4375000000005 3177.0,-3535.3125 3179.5,-3550.125 3179.5,-3569.875 3179.5,-3584.6875 3179.5,-3594.5624999999995 3179.5,-3599.5 3169.5,-3599.5 3169.5,-3609.5 3159.5,-3609.5 3157.0,-3620.75 3152.0,-3623.25 3149.5,-3627.0 3149.5,-3632.0 3149.5,-3635.75 3149.5,-3638.25 3147.0,-3642.0 3142.0,-3647.0 3139.5,-3654.5 3139.5,-3664.5 3139.5,-3672.0 3139.5,-3677.0 3137.0,-3683.9374999999995 3132.0,-3692.8125 3129.5,-3706.125 3129.5,-3723.875 3129.5,-3737.1875 3129.5,-3746.0625000000005 3129.5,-3750.5 3142.0,-3753.0 3147.0,-3758.0 3154.5,-3760.5 3164.5,-3760.5 3172.0,-3760.5 3177.0,-3760.5 3183.9374999999995,-3763.0 3192.8125,-3768.0 3206.125,-3770.5 3223.875,-3770.5 3237.1875,-3770.5 3246.0625000000005,-3770.5 3253.0,-3768.0 3258.0,-3763.0 3265.5,-3760.5 3275.5,-3760.5 3283.0,-3760.5 3288.0,-3760.5 3292.375,-3758.0 3296.125,-3753.0 3301.75,-3750.5 3309.25,-3750.5 3314.875,-3750.5 3318.625,-3750.5 3321.75,-3748.0 3324.25,-3743.0 3328.0,-3740.5 3333.0,-3740.5 3336.75,-3740.5 3339.25,-3740.5 3341.75,-3738.0 3344.25,-3733.0 3348.0,-3730.5 3353.0,-3730.5 3356.75,-3730.5 3359.25,-3730.5 3365.4375000000005,-3728.0 3375.3125,-3723.0 3390.125,-3720.5 3409.875,-3720.5 3424.6875,-3720.5 3434.5624999999995,-3720.5 3439.5,-3720.5 3439.5,-3730.5 3449.5,-3730.5 3449.5,-3740.5 3460.75,-3743.0 3463.25,-3748.0 3467.0,-3750.5 3472.0,-3750.5 3475.75,-3750.5 3478.25,-3750.5 3482.0,-3753.0 3487.0,-3758.0 3494.5,-3760.5 3504.5,-3760.5 3512.0,-3760.5 3517.0,-3760.5 3531.4374999999995,-3763.0 3555.3125,-3768.0 3591.125,-3770.5 3638.875,-3770.5 3674.6875,-3770.5 3698.5625000000005,-3770.5 3712.375,-3768.0 3716.125,-3763.0 3721.75,-3760.5 3729.25,-3760.5 3734.875,-3760.5 3738.625,-3760.5 3740.5,-3760.5 3740.5,-3750.5 3750.5,-3750.5 3753.0,-3737.9375000000005 3758.0,-3732.8125 3760.5,-3725.125 3760.5,-3714.875 3760.5,-3707.1875 3760.5,-3702.0624999999995 3760.5,-3699.5 3748.625,-3697.0 3744.875,-3692.0 3739.25,-3689.5 3731.75,-3689.5 3726.125,-3689.5 3722.375,-3689.5 3718.625,-3687.0 3714.875,-3682.0 3709.25,-3679.5 3701.75,-3679.5 3696.125,-3679.5 3692.375,-3679.5 3690.5,-3679.5 3690.5,-3669.5 3680.5,-3669.5 3680.5,-3659.5 3670.5,-3659.5 3668.0,-3643.9374999999995 3663.0,-3632.8125 3660.5,-3616.125 3660.5,-3593.875 3660.5,-3577.1875 3660.5,-3566.0625000000005 3660.5,-3560.5 3670.5,-3560.5 3670.5,-3550.5 3680.5,-3550.5 3680.5,-3540.5 3690.5,-3540.5 3690.5,-3530.5 3701.75,-3528.0 3704.25,-3523.0 3708.0,-3520.5 3713.0,-3520.5 3716.75,-3520.5 3719.25,-3520.5 3720.5,-3520.5 3720.5,-3510.5 3730.5,-3510.5 3730.5,-3500.5 3740.5,-3500.5 3743.0,-3488.0 3748.0,-3483.0 3750.5,-3475.5 3750.5,-3465.5 3750.5,-3458.0 3750.5,-3453.0 3753.0,-3448.0 3758.0,-3443.0 3760.5,-3435.5 3760.5,-3425.5 3760.5,-3418.0 3760.5,-3413.0 3763.0,-3384.8125000000005 3768.0,-3333.4375 3770.5,-3256.375 3770.5,-3153.625 3770.5,-3076.5625 3770.5,-3025.1874999999995 3768.0,-2997.625 3763.0,-2993.875 3760.5,-2988.25 3760.5,-2980.75 3757.9375000000005,-2975.125 3752.8125,-2971.375 3745.125,-2969.5 3734.875,-2969.5 3727.1875,-2969.5 3722.0624999999995,-2969.5 3719.5,-2969.5 3719.5,-2979.5 3709.5,-2979.5 3707.0,-2995.75 3702.0,-3008.25 3699.5,-3027.0 3699.5,-3052.0 3699.5,-3070.75 3699.5,-3083.25 3697.0,-3091.375 3692.0,-3095.125 3689.5,-3100.75 3689.5,-3108.25 3689.5,-3113.875 3689.5,-3117.625 3687.0,-3120.75 3682.0,-3123.25 3679.5,-3127.0 3679.5,-3132.0 3679.5,-3135.75 3679.5,-3138.25 3679.5,-3139.5 3669.5,-3139.5 3669.5,-3149.5 3659.5,-3149.5 3659.5,-3159.5 3643.3124999999995,-3162.0 3630.9375,-3167.0 3612.375,-3169.5 3587.625,-3169.5 3569.0625,-3169.5 3556.6875000000005,-3169.5 3549.25,-3167.0 3546.75,-3162.0 3543.0,-3159.5 3538.0,-3159.5 3534.25,-3159.5 3531.75,-3159.5 3530.5,-3159.5 3530.5,-3149.5 3520.5,-3149.5 3520.5,-3139.5 3510.5,-3139.5 3508.0,-3124.5624999999995 3503.0,-3114.6875 3500.5,-3099.875 3500.5,-3080.125 3500.5,-3065.3125 3500.5,-3055.4375000000005 3500.5,-3050.5 3510.5,-3050.5 3510.5,-3040.5 3520.5,-3040.5 3520.5,-3030.5 3531.75,-3028.0 3534.25,-3023.0 3538.0,-3020.5 3543.0,-3020.5 3546.75,-3020.5 3549.25,-3020.5 3550.5,-3020.5 3550.5,-3010.5 3560.5,-3010.5 3560.5,-3000.5 3570.5,-3000.5 3570.5,-2990.5 3580.5,-2990.5 3583.0,-2978.5625000000005 3588.0,-2974.6875 3590.5,-2968.875 3590.5,-2961.125 3590.5,-2955.3125 3590.5,-2951.4374999999995 3588.0,-2948.25 3583.0,-2945.75 3580.5,-2942.0 3580.5,-2937.0 3580.5,-2933.25 3580.5,-2930.75 3580.5,-2929.5 3570.5,-2929.5 3568.0,-2915.1874999999995 3563.0,-2906.5625 3560.5,-2893.625 3560.5,-2876.375 3560.5,-2863.4375 3560.5,-2854.8125000000005 3560.5,-2850.5 3570.5,-2850.5 3570.5,-2840.5 3580.5,-2840.5 3580.5,-2830.5 3590.5,-2830.5 3590.5,-2820.5 3600.5,-2820.5 3600.5,-2810.5 3611.75,-2808.0 3614.25,-2803.0 3618.0,-2800.5 3623.0,-2800.5 3626.75,-2800.5 3629.25,-2800.5 3630.5,-2800.5 3630.5,-2790.5 3640.5,-2790.5 3640.5,-2780.5 3650.5,-2780.5 3650.5,-2770.5 3660.5,-2770.5 3660.5,-2760.5 3670.5,-2760.5 3673.0,-2748.625 3678.0,-2744.875 3680.5,-2739.25 3680.5,-2731.75 3680.5,-2726.125 3680.5,-2722.375 3683.0,-2718.0 3688.0,-2713.0 3690.5,-2705.5 3690.5,-2695.5 3690.5,-2688.0 3690.5,-2683.0 3693.0,-2675.5 3698.0,-2665.5 3700.5,-2650.5 3700.5,-2630.5 3700.5,-2615.5 3700.5,-2605.5 3700.5,-2600.5 3710.5,-2600.5 3710.5,-2590.5 3720.5,-2590.5 3720.5,-2580.5 3730.5,-2580.5 3733.0,-2569.25 3738.0,-2566.75 3740.5,-2563.0 3740.5,-2558.0 3740.5,-2554.25 3740.5,-2551.75 3743.0,-2548.0 3748.0,-2543.0 3750.5,-2535.5 3750.5,-2525.5 3750.5,-2518.0 3750.5,-2513.0 3753.0,-2508.0 3758.0,-2503.0 3760.5,-2495.5 3760.5,-2485.5 3760.5,-2478.0 3760.5,-2473.0 3763.0,-2443.5625000000005 3768.0,-2389.6875 3770.5,-2308.875 3770.5,-2201.125 3766.6875000000005,-2120.3125 3759.0625,-2066.4374999999995 3747.625,-2039.5 3732.375,-2039.5 3720.9375,-2050.75 3713.3124999999995,-2073.25 3709.5,-2107.0 3709.5,-2152.0 3709.5,-2185.75 3709.5,-2208.25 3709.5,-2219.5 3699.5,-2219.5 3699.5,-2229.5 3689.5,-2229.5 3689.5,-2239.5 3679.5,-2239.5 3679.5,-2249.5 3666.4374999999995,-2252.0 3660.3125,-2257.0 3651.125,-2259.5 3638.875,-2259.5 3629.6875,-2259.5 3623.5625000000005,-2259.5 3619.25,-2257.0 3616.75,-2252.0 3613.0,-2249.5 3608.0,-2249.5 3604.25,-2249.5 3601.75,-2249.5 3600.5,-2249.5 3600.5,-2239.5 3590.5,-2239.5 3590.5,-2229.5 3580.5,-2229.5 3580.5,-2219.5 3570.5,-2219.5 3570.5,-2209.5 3560.5,-2209.5 3560.5,-2199.5 3550.5,-2199.5 3548.0,-2180.75 3543.0,-2163.25 3540.5,-2137.0 3540.5,-2102.0 3540.5,-2075.75 3540.5,-2058.25 3540.5,-2049.5 3527.3125000000005,-2047.0 3520.9375,-2042.0 3511.375,-2039.5 3498.625,-2039.5 3489.0625,-2039.5 3482.6874999999995,-2039.5 3479.5,-2039.5 3477.0,-2051.375 3472.0,-2055.125 3469.5,-2060.75 3469.5,-2068.25 3469.5,-2073.875 3469.5,-2077.625 3467.0,-2083.3124999999995 3462.0,-2090.9375 3459.5,-2102.375 3459.5,-2117.625 3459.5,-2129.0625 3459.5,-2136.6875000000005 3462.0,-2141.75 3467.0,-2144.25 3469.5,-2148.0 3469.5,-2153.0 3469.5,-2156.75 3469.5,-2159.25 3469.5,-2160.5 3479.5,-2160.5 3482.0,-2175.4375000000005 3487.0,-2185.3125 3489.5,-2200.125 3489.5,-2219.875 3489.5,-2234.6875 3489.5,-2244.5624999999995 3487.0,-2250.75 3482.0,-2253.25 3479.5,-2257.0 3479.5,-2262.0 3479.5,-2265.75 3479.5,-2268.25 3477.0,-2270.75 3472.0,-2273.25 3469.5,-2277.0 3469.5,-2282.0 3469.5,-2285.75 3469.5,-2288.25 3467.0,-2291.375 3462.0,-2295.125 3459.5,-2300.75 3459.5,-2308.25 3459.5,-2313.875 3459.5,-2317.625 3457.0,-2323.3124999999995 3452.0,-2330.9375 3449.5,-2342.375 3449.5,-2357.625 3449.5,-2369.0625 3449.5,-2376.6875000000005 3452.0,-2381.75 3457.0,-2384.25 3459.5,-2388.0 3459.5,-2393.0 3459.5,-2396.75 3459.5,-2399.25 3462.0,-2405.4375000000005 3467.0,-2415.3125 3469.5,-2430.125 3469.5,-2449.875 3469.5,-2464.6875 3469.5,-2474.5624999999995 3469.5,-2479.5 3459.5,-2479.5 3459.5,-2489.5 3449.5,-2489.5 3447.0,-2500.75 3442.0,-2503.25 3439.5,-2507.0 3439.5,-2512.0 3439.5,-2515.75 3439.5,-2518.25 3437.0,-2520.75 3432.0,-2523.25 3429.5,-2527.0 3429.5,-2532.0 3429.5,-2535.75 3429.5,-2538.25 3427.0,-2542.6874999999995 3422.0,-2549.0625 3419.5,-2558.625 3419.5,-2571.375 3419.5,-2580.9375 3419.5,-2587.3125000000005 3422.0,-2591.75 3427.0,-2594.25 3429.5,-2598.0 3429.5,-2603.0 3429.5,-2606.75 3429.5,-2609.25 3429.5,-2610.5 3439.5,-2610.5 3442.0,-2625.4375000000005 3447.0,-2635.3125 3449.5,-2650.125 3449.5,-2669.875 3449.5,-2684.6875 3449.5,-2694.5624999999995 3449.5,-2699.5 3439.5,-2699.5 3439.5,-2709.5 3429.5,-2709.5 3429.5,-2719.5 3419.5,-2719.5 3419.5,-2729.5 3409.5,-2729.5 3409.5,-2739.5 3399.5,-2739.5 3399.5,-2749.5 3385.1874999999995,-2752.0 3376.5625,-2757.0 3363.625,-2759.5 3346.375,-2759.5 3333.4375,-2759.5 3324.8125000000005,-2759.5 3320.5,-2759.5 3320.5,-2749.5 3310.5,-2749.5 3310.5,-2739.5 3300.5,-2739.5 3300.5,-2729.5 3290.5,-2729.5 3290.5,-2719.5 3280.5,-2719.5 3278.0,-2698.875 3273.0,-2677.625 3270.5,-2645.75 3270.5,-2603.25 3270.5,-2571.375 3270.5,-2550.125 3268.0,-2530.8124999999995 3263.0,-2513.4375 3260.5,-2487.375 3260.5,-2452.625 3260.5,-2426.5625 3260.5,-2409.1875000000005 3263.0,-2398.5625000000005 3268.0,-2394.6875 3270.5,-2388.875 3270.5,-2381.125 3270.5,-2375.3125 3270.5,-2371.4374999999995 3268.0,-2367.0 3263.0,-2362.0 3260.5,-2354.5 3260.5,-2344.5 3260.5,-2337.0 3260.5,-2332.0 3258.0,-2311.375 3253.0,-2275.125 3250.5,-2220.75 3250.5,-2148.25 3232.9375000000005,-2093.875 3197.8125,-2057.625 3145.125,-2039.5 3074.875,-2039.5 3022.1875,-2078.25 2987.0624999999995,-2155.75 2969.5,-2272.0 2969.5,-2427.0 2969.5,-2543.25 2969.5,-2620.75 2969.5,-2659.5"/>
<polygon class="l0d0" points="3533.0,-1951.75 3538.0,-1934.25 3540.5,-1908.0 3540.5,-1873.0 3540.5,-1846.75 3540.5,-1829.25 3540.5,-1820.5 3550.5,-1820.5 3550.5,-1810.5 3560.5,-1810.5 3560.5,-1800.5 3570.5,-1800.5 3570.5,-1790.5 3580.5,-1790.5 3580.5,-1780.5 3590.5,-1780.5 3590.5,-1770.5 3601.75,-1768.0 3604.25,-1763.0 3608.0,-1760.5 3613.0,-1760.5 3616.75,-1760.5 3619.25,-1760.5 3623.5625000000005,-1758.0 3629.6875,-1753.0 3638.875,-1750.5 3651.125,-1750.5 3660.3125,-1750.5 3666.4374999999995,-1750.5 3669.5,-1750.5 3669.5,-1760.5 3679.5,-1760.5 3679.5,-1770.5 3689.5,-1770.5 3689.5,-1780.5 3699.5,-1780.5 3702.0,-1806.0625000000005 3707.0,-1837.1875 3709.5,-1883.875 3709.5,-1946.125 3713.3124999999995,-1992.8125 3720.9375,-2023.9374999999995 3732.375,-2039.5 3747.625,-2039.5 3759.0625,-2008.25 3766.6875000000005,-1945.75 3770.5,-1852.0 3770.5,-1727.0 3770.5,-1633.25 3770.5,-1570.75 3768.0,-1537.0 3763.0,-1532.0 3760.5,-1524.5 3760.5,-1514.5 3760.5,-1507.0 3760.5,-1502.0 3758.0,-1497.0 3753.0,-1492.0 3750.5,-1484.5 3750.5,-1474.5 3750.5,-1467.0 3750.5,-1462.0 3748.0,-1458.25 3743.0,-1455.75 3740.5,-1452.0 3740.5,-1447.0 3740.5,-1443.25 3740.5,-1440.75 3740.5,-1439.5 3730.5,-1439.5 3730.5,-1429.5 3720.5,-1429.5 3720.5,-1419.5 3710.5,-1419.5 3708.0,-1404.5 3703.0,-1394.5 3700.5,-1379.5 3700.5,-1359.5 3700.5,-1344.5 3700.5,-1334.5 3698.0,-1327.0 3693.0,-1322.0 3690.5,-1314.5 3690.5,-1304.5 3690.5,-1297.0 3690.5,-1292.0 3688.0,-1287.625 3683.0,-1283.875 3680.5,-1278.25 3680.5,-1270.75 3680.5,-1265.125 3680.5,-1261.375 3680.5,-1259.5 3670.5,-1259.5 3670.5,-1249.5 3660.5,-1249.5 3660.5,-1239.5 3650.5,-1239.5 3650.5,-1229.5 3640.5,-1229.5 3640.5,-1219.5 3629.25,-1217.0 3626.75,-1212.0 3623.0,-1209.5 3618.0,-1209.5 3614.25,-1209.5 3611.75,-1209.5 3610.5,-1209.5 3610.5,-1199.5 3600.5,-1199.5 3600.5,-1189.5 3590.5,-1189.5 3590.5,-1179.5 3580.5,-1179.5 3580.5,-1169.5 3570.5,-1169.5 3568.0,-1155.1875 3563.0,-1146.5625 3560.5,-1133.625 3560.5,-1116.375 3560.5,-1103.4375 3560.5,-1094.8125 3560.5,-1090.5 3570.5,-1090.5 3573.0,-1079.25 3578.0,-1076.75 3580.5,-1073.0 3580.5,-1068.0 3580.5,-1064.25 3580.5,-1061.75 3583.0,-1058.5625 3588.0,-1054.6875 3590.5,-1048.875 3590.5,-1041.125 3590.5,-1035.3125 3590.5,-1031.4375 3590.5,-1029.5 3580.5,-1029.5 3580.5,-1019.5 3570.5,-1019.5 3570.5,-1009.5 3560.5,-1009.5 3560.5,-999.5 3549.25,-997.0 3546.75,-992.0 3543.0,-989.5 3538.0,-989.5 3534.25,-989.5 3531.75,-989.5 3530.5,-989.5 3530.5,-979.5 3520.5,-979.5 3520.5,-969.5 3510.5,-969.5 3508.0,-954.5625000000001 3503.0,-944.6875 3500.5,-929.875 3500.5,-910.125 3500.5,-895.3125 3500.5,-885.4374999999999 3500.5,-880.5 3510.5,-880.5 3510.5,-870.5 3520.5,-870.5 3520.5,-860.5 3531.75,-858.0 3534.25,-853.0 3538.0,-850.5 3543.0,-850.5 3546.75,-850.5 3549.25,-850.5 3556.6875000000005,-848.0 3569.0625,-843.0 3587.625,-840.5 3612.375,-840.5 3630.9375,-840.5 3643.3124999999995,-840.5 3649.5,-840.5 3649.5,-850.5 3659.5,-850.5 3659.5,-860.5 3669.5,-860.5 3672.0,-871.75 3677.0,-874.25 3679.5,-878.0 3679.5,-883.0 3679.5,-886.75 3679.5,-889.25 3682.0,-892.375 3687.0,-896.125 3689.5,-901.75 3689.5,-909.25 3689.5,-914.875 3689.5,-918.625 3692.0,-926.75 3697.0,-939.25 3699.5,-958.0 3699.5,-983.0 3699.5,-1001.75 3699.5,-1014.25 3699.5,-1020.5 3709.5,-1020.5 3709.5,-1030.5 3722.0624999999995,-1033.0 3727.1875,-1038.0 3734.875,-1040.5 3745.125,-1040.5 3752.8125,-1038.625 3757.9375000000005,-1034.875 3760.5,-1029.25 3760.5,-1021.75 3760.5,-1016.125 3760.5,-1012.375 3763.0,-984.8124999999999 3768.0,-933.4375 3770.5,-856.375 3770.5,-753.625 3770.5,-676.5625 3770.5,-625.1875000000001 3768.0,-597.0 3763.0,-592.0 3760.5,-584.5 3760.5,-574.5 3760.5,-567.0 3760.5,-562.0 3758.0,-557.0 3753.0,-552.0 3750.5,-544.5 3750.5,-534.5 3750.5,-527.0 3750.5,-522.0 3750.5,-519.5 3740.5,-519.5 3740.5,-509.5 3730.5,-509.5 3730.5,-499.5 3719.25,-497.0 3716.75,-492.0 3713.0,-489.5 3708.0,-489.5 3704.25,-489.5 3701.75,-489.5 3700.5,-489.5 3700.5,-479.5 3690.5,-479.5 3690.5,-469.5 3680.5,-469.5 3680.5,-459.5 3670.5,-459.5 3668.0,-443.9375000000001 3663.0,-432.8125 3660.5,-416.12500000000006 3660.5,-393.875 3660.5,-377.1875 3660.5,-366.06249999999994 3660.5,-360.5 3670.5,-360.5 3670.5,-350.5 3680.5,-350.5 3680.5,-340.5 3692.375,-338.0 3696.125,-333.0 3701.75,-330.5 3709.25,-330.5 3714.875,-330.5 3718.625,-330.5 3722.375,-328.0 3726.125,-323.0 3731.75,-320.5 3739.25,-320.5 3744.875,-320.5 3748.625,-320.5 3750.5,-320.5 3753.0,-307.9375 3758.0,-302.8125 3760.5,-295.125 3760.5,-284.875 3760.5,-277.1875 3760.5,-272.0625 3760.5,-269.5 3750.5,-269.5 3750.5,-259.5 3738.625,-257.0 3734.875,-252.0 3729.25,-249.5 3721.75,-249.5 3716.125,-249.5 3712.375,-249.5 3698.5625000000005,-247.0 3674.6875,-242.0 3638.875,-239.5 3591.125,-239.5 3555.3125,-239.5 3531.4374999999995,-239.5 3517.0,-242.0 3512.0,-247.0 3504.5,-249.5 3494.5,-249.5 3487.0,-249.5 3482.0,-249.5 3478.25,-252.0 3475.75,-257.0 3472.0,-259.5 3467.0,-259.5 3463.25,-259.5 3460.75,-259.5 3459.5,-259.5 3459.5,-269.5 3449.5,-269.5 3449.5,-279.5 3434.5624999999995,-282.0 3424.6875,-287.0 3409.875,-289.5 3390.125,-289.5 3375.3125,-289.5 3365.4375000000005,-289.5 3359.25,-287.0 3356.75,-282.0 3353.0,-279.5 3348.0,-279.5 3344.25,-279.5 3341.75,-279.5 3339.25,-277.0 3336.75,-272.0 3333.0,-269.5 3328.0,-269.5 3324.25,-269.5 3321.75,-269.5 3318.625,-267.0 3314.875,-262.0 3309.25,-259.5 3301.75,-259.5 3296.125,-259.5 3292.375,-259.5 3288.0,-257.0 3283.0,-252.0 3275.5,-249.5 3265.5,-249.5 3258.0,-249.5 3253.0,-249.5 3246.0625000000005,-247.0 3237.1875,-242.0 3223.875,-239.5 3206.125,-239.5 3192.8125,-239.5 3183.9374999999995,-239.5 3177.0,-242.0 3172.0,-247.0 3164.5,-249.5 3154.5,-249.5 3147.0,-249.5 3142.0,-249.5 3139.5,-249.5 3137.0,-263.9375 3132.0,-272.8125 3129.5,-286.125 3129.5,-303.87499999999994 3129.5,-317.18749999999994 3129.5,-326.06249999999994 3132.0,-333.0 3137.0,-338.0 3139.5,-345.5 3139.5,-355.5 3139.5,-363.0 3139.5,-368.0 3142.0,-371.75 3147.0,-374.25 3149.5,-378.0 3149.5,-383.0 3149.5,-386.75 3149.5,-389.25 3149.5,-390.5 3159.5,-390.5 3159.5,-400.5 3169.5,-400.5 3172.0,-415.43749999999994 3177.0,-425.3125 3179.5,-440.125 3179.5,-459.87500000000006 3179.5,-474.6875 3179.5,-484.5625000000001 3179.5,-489.5 3169.5,-489.5 3169.5,-499.5 3159.5,-499.5 3157.0,-511.375 3152.0,-515.125 3149.5,-520.75 3149.5,-528.25 3149.5,-533.875 3149.5,-537.625 3147.0,-540.8125000000001 3142.0,-543.4375 3139.5,-547.375 3139.5,-552.625 3139.5,-556.5625 3139.5,-559.1874999999999 3142.0,-562.375 3147.0,-566.125 3149.5,-571.75 3149.5,-579.25 3149.5,-584.875 3149.5,-588.625 3149.5,-590.5 3159.5,-590.5 3162.0,-601.75 3167.0,-604.25 3169.5,-608.0 3169.5,-613.0 3169.5,-616.75 3169.5,-619.25 3172.0,-623.5624999999999 3177.0,-629.6875 3179.5,-638.875 3179.5,-651.125 3179.5,-660.3125 3179.5,-666.4375000000001 3179.5,-669.5 3169.5,-669.5 3169.5,-679.5 3159.5,-679.5 3159.5,-689.5 3149.5,-689.5 3149.5,-699.5 3138.25,-702.0 3135.75,-707.0 3132.0,-709.5 3127.0,-709.5 3123.25,-709.5 3120.75,-709.5 3118.25,-712.0 3115.75,-717.0 3112.0,-719.5 3107.0,-719.5 3103.25,-719.5 3100.75,-719.5 3099.5,-719.5 3099.5,-729.5 3089.5,-729.5 3087.0,-741.375 3082.0,-745.125 3079.5,-750.75 3079.5,-758.25 3079.5,-763.875 3079.5,-767.625 3077.0,-772.0 3072.0,-777.0 3069.5,-784.5 3069.5,-794.5 3069.5,-802.0 3069.5,-807.0 3067.0,-812.0 3062.0,-817.0 3059.5,-824.5 3059.5,-834.5 3059.5,-842.0 3059.5,-847.0 3057.0,-851.375 3052.0,-855.125 3049.5,-860.75 3049.5,-868.25 3049.5,-873.875 3049.5,-877.625 3047.0,-881.375 3042.0,-885.125 3039.5,-890.75 3039.5,-898.25 3039.5,-903.875 3039.5,-907.625 3037.0,-912.0 3032.0,-917.0 3029.5,-924.5 3029.5,-934.5 3029.5,-942.0 3029.5,-947.0 3027.0,-952.0 3022.0,-957.0 3019.5,-964.5 3019.5,-974.5 3019.5,-982.0 3019.5,-987.0 3017.0,-992.0 3012.0,-997.0 3009.5,-1004.5 3009.5,-1014.5 3009.5,-1022.0 3009.5,-1027.0 3007.0,-1031.375 3002.0,-1035.125 2999.5,-1040.75 2999.5,-1048.25 2999.5,-1053.875 2999.5,-1057.625 2997.0,-1061.375 2992.0,-1065.125 2989.5,-1070.75 2989.5,-1078.25 2989.5,-1083.875 2989.5,-1087.625 2987.0,-1092.0 2982.0,-1097.0 2979.5,-1104.5 2979.5,-1114.5 2979.5,-1122.0 2979.5,-1127.0 2977.0,-1142.0 2972.0,-1167.0 2969.5,-1204.5 2969.5,-1254.5 2969.5,-1292.0 2969.5,-1317.0 2967.0,-1330.8124999999998 2962.0,-1333.4375 2959.5,-1337.3749999999998 2959.5,-1342.6250000000002 2959.5,-1346.5625 2959.5,-1349.1875000000002 2962.0,-1393.5625000000002 2967.0,-1479.6875 2969.5,-1608.875 2969.5,-1781.1249999999998 2987.0624999999995,-1910.3125 3022.1875,-1996.4374999999995 3074.875,-2039.5 3145.125,-2039.5 3197.8125,-2017.0624999999995 3232.9375000000005,-1972.1875 3250.5,-1904.8749999999998 3250.5,-1815.125 3250.5,-1747.8125 3250.5,-1702.9375000000002 3253.0,-1678.0 3258.0,-1673.0 3260.5,-1665.5 3260.5,-1655.5 3260.5,-1648.0 3260.5,-1643.0 3263.0,-1638.5625000000002 3268.0,-1634.6875 3270.5,-1628.8750000000002 3270.5,-1621.1249999999998 3270.5,-1615.3125 3270.5,-1611.4374999999998 3268.0,-1600.8124999999998 3263.0,-1583.4375 3260.5,-1557.3749999999998 3260.5,-1522.6250000000002 3260.5,-1496.5625 3260.5,-1479.1875000000002 3263.0,-1459.875 3268.0,-1438.625 3270.5,-1406.75 3270.5,-1364.25 3270.5,-1332.375 3270.5,-1311.125 3270.5,-1300.5 3280.5,-1300.5 3280.5,-1290.5 3290.5,-1290.5 3293.0,-1279.875 3298.0,-1278.625 3300.5,-1276.75 3300.5,-1274.25 3300.5,-1272.375 3300.5,-1271.125 3300.5,-1270.5 3310.5,-1270.5 3310.5,-1260.5 3324.8125000000005,-1258.0 3333.4375,-1253.0 3346.375,-1250.5 3363.625,-1250.5 3376.5625,-1250.5 3385.1874999999995,-1250.5 3389.5,-1250.5 3389.5,-1260.5 3399.5,-1260.5 3402.0,-1271.125 3407.0,-1272.375 3409.5,-1274.25 3409.5,-1276.75 3409.5,-1278.625 3409.5,-1279.875 3409.5,-1280.5 3419.5,-1280.5 3419.5,-1290.5 3429.5,-1290.5 3429.5,-1300.5 3439.5,-1300.5 3442.0,-1315.4375000000002 3447.0,-1325.3125 3449.5,-1340.1250000000002 3449.5,-1359.8749999999998 3449.5,-1374.6875 3449.5,-1384.5624999999998 3449.5,-1389.5 3439.5,-1389.5 3437.0,-1400.75 3432.0,-1403.25 3429.5,-1407.0 3429.5,-1412.0 3429.5,-1415.75 3429.5,-1418.25 3427.0,-1422.6874999999998 3422.0,-1429.0625 3419.5,-1438.6249999999998 3419.5,-1451.3750000000002 3419.5,-1460.9375 3419.5,-1467.3125000000002 3422.0,-1471.75 3427.0,-1474.25 3429.5,-1478.0 3429.5,-1483.0 3429.5,-1486.75 3429.5,-1489.25 3432.0,-1491.75 3437.0,-1494.25 3439.5,-1498.0 3439.5,-1503.0 3439.5,-1506.75 3439.5,-1509.25 3439.5,-1510.5 3449.5,-1510.5 3449.5,-1520.5 3459.5,-1520.5 3462.0,-1535.4375000000002 3467.0,-1545.3125 3469.5,-1560.1250000000002 3469.5,-1579.8749999999998 3469.5,-1594.6875 3469.5,-1604.5624999999998 3467.0,-1610.75 3462.0,-1613.25 3459.5,-1617.0 3459.5,-1622.0 3459.5,-1625.75 3459.5,-1628.25 3457.0,-1633.3124999999998 3452.0,-1640.9375 3449.5,-1652.3749999999998 3449.5,-1667.6250000000002 3449.5,-1679.0625 3449.5,-1686.6875000000002 3452.0,-1692.375 3457.0,-1696.125 3459.5,-1701.75 3459.5,-1709.25 3459.5,-1714.875 3459.5,-1718.625 3462.0,-1721.75 3467.0,-1724.25 3469.5,-1728.0 3469.5,-1733.0 3469.5,-1736.75 3469.5,-1739.25 3472.0,-1741.75 3477.0,-1744.25 3479.5,-1748.0 3479.5,-1753.0 3479.5,-1756.75 3479.5,-1759.25 3482.0,-1765.4375000000005 3487.0,-1775.3125 3489.5,-1790.125 3489.5,-1809.875 3489.5,-1824.6875 3489.5,-1834.5624999999995 3489.5,-1839.5 3479.5,-1839.5 3477.0,-1850.75 3472.0,-1853.25 3469.5,-1857.0 3469.5,-1862.0 3469.5,-1865.75 3469.5,-1868.25 3467.0,-1873.3124999999995 3462.0,-1880.9375 3459.5,-1892.375 3459.5,-1907.625 3459.5,-1919.0625 3459.5,-1926.6875000000005 3462.0,-1932.375 3467.0,-1936.125 3469.5,-1941.75 3469.5,-1949.25 3469.5,-1954.875 3469.5,-1958.625 3469.5,-1960.5 3479.5,-1960.5 3482.0,-1974.8125000000005 3487.0,-1983.4375 3489.5,-1996.375 3489.5,-2013.625 3492.0624999999995,-2026.5625 3497.1875,-2035.1874999999995 3504.875,-2039.5 3515.125,-2039.5 3522.8125,-2039.5 3527.9375000000005,-2039.5 3530.5,-2039.5"/>
<polygon class="l0d0" points="855.5,-3760.5 865.5,-3760.5 873.0,-3760.5 878.0,-3760.5 890.5,-3758.0 910.5,-3753.0 940.5,-3750.5 980.5,-3750.5 1010.5,-3750.5 1030.5,-3750.5 1040.5,-3750.5 1043.0,-3739.1875000000005 1048.0,-3736.5625 1050.5,-3732.625 1050.5,-3727.375 1050.5,-3723.4375 1050.5,-3720.8124999999995 1048.0,-3717.625 1043.0,-3713.875 1040.5,-3708.25 1040.5,-3700.75 1040.5,-3695.125 1040.5,-3691.375 1038.0,-3686.375 1033.0,-3680.125 1030.5,-3670.75 1030.5,-3658.25 1030.5,-3648.875 1030.5,-3642.625 1028.0,-3637.625 1023.0,-3633.875 1020.5,-3628.25 1020.5,-3620.75 1020.5,-3615.125 1020.5,-3611.375 1020.5,-3609.5 1008.5624999999999,-3607.0 1004.6875,-3602.0 998.875,-3599.5 991.125,-3599.5 985.3125,-3602.0 981.4375000000001,-3607.0 979.5,-3614.5 979.5,-3624.5 979.5,-3632.0 979.5,-3637.0 977.0,-3642.0 972.0,-3647.0 969.5,-3654.5 969.5,-3664.5 969.5,-3672.0 969.5,-3677.0 969.5,-3679.5 959.5,-3679.5 959.5,-3689.5 949.5,-3689.5 949.5,-3699.5 933.9375000000001,-3702.0 922.8125,-3707.0 906.125,-3709.5 883.875,-3709.5 867.1875,-3709.5 856.0624999999999,-3709.5 850.5,-3709.5 850.5,-3699.5 840.5,-3699.5 840.5,-3689.5 830.5,-3689.5 828.0,-3677.625 823.0,-3673.875 820.5,-3668.25 820.5,-3660.75 820.5,-3655.125 820.5,-3651.375 818.0,-3648.25 813.0,-3645.75 810.5,-3642.0 810.5,-3637.0 810.5,-3633.25 810.5,-3630.75 810.5,-3629.5 799.25,-3627.0 796.75,-3622.0 793.0,-3619.5 788.0,-3619.5 784.25,-3619.5 781.75,-3619.5 780.5,-3619.5 780.5,-3609.5 769.25,-3607.0 766.75,-3602.0 763.0,-3599.5 758.0,-3599.5 754.25,-3599.5 751.75,-3599.5 749.25,-3597.0 746.75,-3592.0 743.0,-3589.5 738.0,-3589.5 734.25,-3589.5 731.75,-3589.5 729.25,-3587.0 726.75,-3582.0 723.0,-3579.5 718.0,-3579.5 714.25,-3579.5 711.75,-3579.5 708.625,-3577.0 704.875,-3572.0 699.25,-3569.5 691.75,-3569.5 686.125,-3569.5 682.375,-3569.5 680.5,-3569.5 680.5,-3559.5 670.5,-3559.5 670.5,-3549.5 660.5,-3549.5 660.5,-3539.5 650.5,-3539.5 648.0,-3524.5624999999995 643.0,-3514.6875 640.5,-3499.875 640.5,-3480.125 640.5,-3465.3125 640.5,-3455.4375000000005 643.0,-3447.3125000000005 648.0,-3440.9375 650.5,-3431.375 650.5,-3418.625 650.5,-3409.0625 650.5,-3402.6874999999995 648.0,-3398.25 643.0,-3395.75 640.5,-3392.0 640.5,-3387.0 640.5,-3383.25 640.5,-3380.75 640.5,-3379.5 630.5,-3379.5 630.5,-3369.5 620.5,-3369.5 620.5,-3359.5 610.5,-3359.5 610.5,-3349.5 600.5,-3349.5 598.0,-3332.6874999999995 593.0,-3319.0625 590.5,-3298.625 590.5,-3271.375 590.5,-3250.9375 590.5,-3237.3125000000005 593.0,-3228.5625000000005 598.0,-3224.6875 600.5,-3218.875 600.5,-3211.125 600.5,-3205.3125 600.5,-3201.4374999999995 600.5,-3199.5 590.5,-3199.5 588.0,-3188.25 583.0,-3185.75 580.5,-3182.0 580.5,-3177.0 580.5,-3173.25 580.5,-3170.75 580.5,-3169.5 570.5,-3169.5 570.5,-3159.5 560.5,-3159.5 560.5,-3149.5 550.5,-3149.5 550.5,-3139.5 540.5,-3139.5 538.0,-3124.5624999999995 533.0,-3114.6875 530.5,-3099.875 530.5,-3080.125 530.5,-3065.3125 530.5,-3055.4375000000005 533.0,-3049.25 538.0,-3046.75 540.5,-3043.0 540.5,-3038.0 540.5,-3034.25 540.5,-3031.75 540.5,-3030.5 550.5,-3030.5 553.0,-3018.5625000000005 558.0,-3014.6875 560.5,-3008.875 560.5,-3001.125 560.5,-2995.3125 560.5,-2991.4374999999995 560.5,-2989.5 550.5,-2989.5 550.5,-2979.5 540.5,-2979.5 540.5,-2969.5 530.5,-2969.5 528.0,-2958.25 523.0,-2955.75 520.5,-2952.0 520.5,-2947.0 520.5,-2943.25 520.5,-2940.75 520.5,-2939.5 510.5,-2939.5 510.5,-2929.5 500.5,-2929.5 498.0,-2915.1874999999995 493.0,-2906.5625 490.5,-2893.625 490.5,-2876.375 490.5,-2863.4375 490.5,-2854.8125000000005 490.5,-2850.5 500.5,-2850.5 500.5,-2840.5 510.5,-2840.5 510.5,-2830.5 520.5,-2830.5 520.5,-2820.5 530.5,-2820.5 530.5,-2810.5 540.5,-2810.5 543.0,-2798.5625000000005 548.0,-2794.6875 550.5,-2788.875 550.5,-2781.125 549.25,-2775.3125 546.75,-2771.4374999999995 543.0,-2769.5 538.0,-2769.5 534.25,-2769.5 531.75,-2769.5 529.25,-2767.0 526.75,-2762.0 523.0,-2759.5 518.0,-2759.5 514.25,-2759.5 511.75,-2759.5 510.5,-2759.5 510.5,-2749.5 500.5,-2749.5 500.5,-2739.5 490.5,-2739.5 490.5,-2729.5 480.5,-2729.5 478.0,-2715.1874999999995 473.0,-2706.5625 470.5,-2693.625 470.5,-2676.375 470.5,-2663.4375 470.5,-2654.8125000000005 470.5,-2650.5 480.5,-2650.5 480.5,-2640.5 490.5,-2640.5 490.5,-2630.5 500.5,-2630.5 500.5,-2620.5 511.75,-2618.0 514.25,-2613.0 518.0,-2610.5 523.0,-2610.5 526.75,-2610.5 529.25,-2610.5 534.1874999999999,-2608.0 541.5625,-2603.0 552.625,-2600.5 567.375,-2600.5 578.4375,-2600.5 585.8125000000001,-2600.5 590.75,-2603.0 593.25,-2608.0 597.0,-2610.5 602.0,-2610.5 605.75,-2610.5 608.25,-2610.5 609.5,-2610.5 609.5,-2620.5 619.5,-2620.5 622.0,-2631.75 627.0,-2634.25 629.5,-2638.0 629.5,-2643.0 629.5,-2646.75 629.5,-2649.25 632.0,-2656.0625000000005 637.0,-2667.1875 639.5,-2683.875 639.5,-2706.125 639.5,-2722.8125 639.5,-2733.9374999999995 639.5,-2739.5 629.5,-2739.5 629.5,-2749.5 619.5,-2749.5 619.5,-2759.5 609.5,-2759.5 607.0,-2770.8124999999995 602.0,-2773.4375 599.5,-2777.375 599.5,-2782.625 600.75,-2786.5625 603.25,-2789.1875000000005 607.0,-2790.5 612.0,-2790.5 615.75,-2790.5 618.25,-2790.5 619.5,-2790.5 619.5,-2800.5 629.5,-2800.5 629.5,-2810.5 639.5,-2810.5 639.5,-2820.5 649.5,-2820.5 652.0,-2831.75 657.0,-2834.25 659.5,-2838.0 659.5,-2843.0 659.5,-2846.75 659.5,-2849.25 662.0,-2857.3125000000005 667.0,-2870.9375 669.5,-2891.375 669.5,-2918.625 669.5,-2939.0625 669.5,-2952.6874999999995 669.5,-2959.5 659.5,-2959.5 659.5,-2969.5 649.5,-2969.5 647.0,-2980.8124999999995 642.0,-2983.4375 639.5,-2987.375 639.5,-2992.625 639.5,-2996.5625 639.5,-2999.1875000000005 639.5,-3000.5 649.5,-3000.5 649.5,-3010.5 659.5,-3010.5 659.5,-3020.5 669.5,-3020.5 669.5,-3030.5 679.5,-3030.5 679.5,-3040.5 689.5,-3040.5 689.5,-3050.5 699.5,-3050.5 699.5,-3060.5 709.5,-3060.5 709.5,-3070.5 719.5,-3070.5 719.5,-3080.5 729.5,-3080.5 732.0,-3095.4375000000005 737.0,-3105.3125 739.5,-3120.125 739.5,-3139.875 739.5,-3154.6875 739.5,-3164.5624999999995 737.0,-3170.75 732.0,-3173.25 729.5,-3177.0 729.5,-3182.0 729.5,-3185.75 729.5,-3188.25 729.5,-3189.5 719.5,-3189.5 717.0,-3200.8124999999995 712.0,-3203.4375 709.5,-3207.375 709.5,-3212.625 709.5,-3216.5625 709.5,-3219.1875000000005 709.5,-3220.5 719.5,-3220.5 719.5,-3230.5 729.5,-3230.5 729.5,-3240.5 739.5,-3240.5 739.5,-3250.5 750.75,-3253.0 753.25,-3258.0 757.0,-3260.5 762.0,-3260.5 765.75,-3260.5 768.25,-3260.5 770.75,-3263.0 773.25,-3268.0 777.0,-3270.5 782.0,-3270.5 785.75,-3270.5 788.25,-3270.5 791.375,-3273.0 795.125,-3278.0 800.75,-3280.5 808.25,-3280.5 813.875,-3280.5 817.625,-3280.5 821.375,-3283.0 825.125,-3288.0 830.75,-3290.5 838.25,-3290.5 843.875,-3290.5 847.625,-3290.5 850.75,-3293.0 853.25,-3298.0 857.0,-3300.5 862.0,-3300.5 865.75,-3300.5 868.25,-3300.5 871.4375000000001,-3303.0 875.3125,-3308.0 881.125,-3310.5 888.875,-3310.5 894.6875,-3310.5 898.5624999999999,-3310.5 900.5,-3310.5 900.5,-3300.5 910.5,-3300.5 913.0,-3289.25 918.0,-3286.75 920.5,-3283.0 920.5,-3278.0 920.5,-3274.25 920.5,-3271.75 923.0,-3267.3125000000005 928.0,-3260.9375 930.5,-3251.375 930.5,-3238.625 930.5,-3229.0625 930.5,-3222.6874999999995 928.0,-3211.4374999999995 923.0,-3195.3125 920.5,-3171.125 920.5,-3138.875 920.5,-3114.6875 920.5,-3098.5625000000005 923.0,-3088.0 928.0,-3083.0 930.5,-3075.5 930.5,-3065.5 930.5,-3058.0 930.5,-3053.0 933.0,-3049.1875000000005 938.0,-3046.5625 940.5,-3042.625 940.5,-3037.375 940.5,-3033.4375 940.5,-3030.8124999999995 938.0,-3015.75 933.0,-2988.25 930.5,-2947.0 930.5,-2892.0 930.5,-2850.75 930.5,-2823.25 928.0,-2796.375 923.0,-2770.125 920.5,-2730.75 920.5,-2678.25 920.5,-2638.875 920.5,-2612.625 918.0,-2588.3124999999995 913.0,-2565.9375 910.5,-2532.375 910.5,-2487.625 910.5,-2454.0625 910.5,-2431.6875000000005 913.0,-2406.75 918.0,-2379.25 920.5,-2338.0 920.5,-2283.0 920.5,-2241.75 920.5,-2214.25 923.0,-2176.0625000000005 928.0,-2127.1875 930.5,-2053.875 930.5,-1956.125 887.3124999999999,-1882.8125 800.9375,-1833.9374999999995 671.3749999999999,-1809.5 498.625,-1809.5 369.06249999999994,-1863.9374999999995 282.6875,-1972.8125 239.5,-2136.125 239.5,-2353.875 239.5,-2517.1875 239.5,-2626.0625000000005 242.0,-2683.0 247.0,-2688.0 249.5,-2695.5 249.5,-2705.5 249.5,-2713.0 249.5,-2718.0 252.0,-2726.125 257.0,-2737.375 259.5,-2754.25 259.5,-2776.75 259.5,-2793.625 259.5,-2804.875 262.0,-2813.0 267.0,-2818.0 269.5,-2825.5 269.5,-2835.5 269.5,-2843.0 269.5,-2848.0 272.0,-2851.75 277.0,-2854.25 279.5,-2858.0 279.5,-2863.0 279.5,-2866.75 279.5,-2869.25 279.5,-2870.5 289.5,-2870.5 292.0,-2886.75 297.0,-2899.25 299.5,-2918.0 299.5,-2943.0 299.5,-2961.75 299.5,-2974.25 302.0,-2984.8125000000005 307.0,-2993.4375 309.5,-3006.375 309.5,-3023.625 309.5,-3036.5625 309.5,-3045.1874999999995 307.0,-3050.75 302.0,-3053.25 299.5,-3057.0 299.5,-3062.0 299.5,-3065.75 299.5,-3068.25 299.5,-3069.5 289.5,-3069.5 289.5,-3079.5 278.25,-3082.0 275.75,-3087.0 272.0,-3089.5 267.0,-3089.5 263.25,-3090.75 260.75,-3093.25 259.5,-3097.0 259.5,-3102.0 259.5,-3105.75 259.5,-3108.25 257.0,-3111.375 252.0,-3115.125 249.5,-3120.75 249.5,-3128.25 249.5,-3133.875 249.5,-3137.625 247.0,-3157.0624999999995 242.0,-3192.1875 239.5,-3244.875 239.5,-3315.125 239.5,-3367.8125 239.5,-3402.9375000000005 242.0,-3423.0 247.0,-3428.0 249.5,-3435.5 249.5,-3445.5 249.5,-3453.0 249.5,-3458.0 252.0,-3466.125 257.0,-3477.375 259.5,-3494.25 259.5,-3516.75 259.5,-3533.625 259.5,-3544.875 262.0,-3559.8125000000005 267.0,-3578.4375 269.5,-3606.375 269.5,-3643.625 269.5,-3671.5625 269.5,-3690.1874999999995 267.0,-3701.375 262.0,-3705.125 259.5,-3710.75 259.5,-3718.25 259.5,-3723.875 259.5,-3727.625 257.0,-3730.8124999999995 252.0,-3733.4375 249.5,-3737.375 249.5,-3742.625 249.5,-3746.5625 249.5,-3749.1875000000005 249.5,-3750.5 261.375,-3753.0 265.125,-3758.0 270.75,-3760.5 278.25,-3760.5 283.875,-3760.5 287.625,-3760.5 323.9375,-3763.0 392.81249999999994,-3768.0 496.125,-3770.5 633.875,-3770.5 737.1875,-3770.5 806.0624999999999,-3770.5 840.5,-3770.5"/>
<polygon class="l0d0" points="918.0,-1578.3124999999998 913.0,-1555.9375 910.5,-1522.3749999999998 910.5,-1477.6250000000002 910.5,-1444.0625 910.5,-1421.6875000000002 913.0,-1397.375 918.0,-1371.125 920.5,-1331.75 920.5,-1279.25 920.5,-1239.875 920.5,-1213.625 923.0,-1186.75 928.0,-1159.25 930.5,-1118.0 930.5,-1063.0 930.5,-1021.75 930.5,-994.25 933.0,-979.1874999999999 938.0,-976.5625 940.5,-972.625 940.5,-967.375 940.5,-963.4375 940.5,-960.8125000000001 938.0,-957.0 933.0,-952.0 930.5,-944.5 930.5,-934.5 930.5,-927.0 930.5,-922.0 928.0,-911.4375000000001 923.0,-895.3125 920.5,-871.125 920.5,-838.875 920.5,-814.6875 920.5,-798.5624999999999 923.0,-787.3124999999999 928.0,-780.9375 930.5,-771.375 930.5,-758.625 930.5,-749.0625 930.5,-742.6875000000001 928.0,-738.25 923.0,-735.75 920.5,-732.0 920.5,-727.0 920.5,-723.25 920.5,-720.75 920.5,-719.5 910.5,-719.5 910.5,-709.5 898.5624999999999,-707.0 894.6875,-702.0 888.875,-699.5 881.125,-699.5 875.3125,-699.5 871.4375000000001,-699.5 868.25,-702.0 865.75,-707.0 862.0,-709.5 857.0,-709.5 853.25,-709.5 850.75,-709.5 847.625,-712.0 843.875,-717.0 838.25,-719.5 830.75,-719.5 825.125,-719.5 821.375,-719.5 817.625,-722.0 813.875,-727.0 808.25,-729.5 800.75,-729.5 795.125,-729.5 791.375,-729.5 788.25,-732.0 785.75,-737.0 782.0,-739.5 777.0,-739.5 773.25,-739.5 770.75,-739.5 768.25,-742.0 765.75,-747.0 762.0,-749.5 757.0,-749.5 753.25,-749.5 750.75,-749.5 749.5,-749.5 749.5,-759.5 739.5,-759.5 739.5,-769.5 729.5,-769.5 729.5,-779.5 719.5,-779.5 717.0,-790.8125000000001 712.0,-793.4375 709.5,-797.375 709.5,-802.625 709.5,-806.5625 709.5,-809.1874999999999 709.5,-810.5 719.5,-810.5 722.0,-821.75 727.0,-824.25 729.5,-828.0 729.5,-833.0 729.5,-836.75 729.5,-839.25 732.0,-845.4374999999999 737.0,-855.3125 739.5,-870.125 739.5,-889.875 739.5,-904.6875 739.5,-914.5625000000001 739.5,-919.5 729.5,-919.5 729.5,-929.5 719.5,-929.5 719.5,-939.5 709.5,-939.5 709.5,-949.5 699.5,-949.5 699.5,-959.5 689.5,-959.5 689.5,-969.5 679.5,-969.5 679.5,-979.5 669.5,-979.5 669.5,-989.5 659.5,-989.5 659.5,-999.5 649.5,-999.5 647.0,-1010.8125000000001 642.0,-1013.4375 639.5,-1017.375 639.5,-1022.625 639.5,-1026.5625 639.5,-1029.1875 639.5,-1030.5 649.5,-1030.5 649.5,-1040.5 659.5,-1040.5 662.0,-1057.3125 667.0,-1070.9375 669.5,-1091.375 669.5,-1118.625 669.5,-1139.0625 669.5,-1152.6875 667.0,-1160.75 662.0,-1163.25 659.5,-1167.0 659.5,-1172.0 659.5,-1175.75 659.5,-1178.25 659.5,-1179.5 649.5,-1179.5 649.5,-1189.5 639.5,-1189.5 639.5,-1199.5 629.5,-1199.5 629.5,-1209.5 618.25,-1212.0 615.75,-1217.0 612.0,-1219.5 607.0,-1219.5 603.25,-1220.8125 600.75,-1223.4375 599.5,-1227.375 599.5,-1232.625 599.5,-1236.5625 599.5,-1239.1875 599.5,-1240.5 609.5,-1240.5 609.5,-1250.5 619.5,-1250.5 619.5,-1260.5 629.5,-1260.5 632.0,-1276.0625 637.0,-1287.1874999999998 639.5,-1303.875 639.5,-1326.1249999999998 639.5,-1342.8125 639.5,-1353.9374999999998 637.0,-1360.75 632.0,-1363.25 629.5,-1367.0 629.5,-1372.0 629.5,-1375.75 629.5,-1378.25 629.5,-1379.5 619.5,-1379.5 619.5,-1389.5 608.25,-1392.0 605.75,-1397.0 602.0,-1399.5 597.0,-1399.5 593.25,-1399.5 590.75,-1399.5 585.8125000000001,-1402.0 578.4375,-1407.0 567.375,-1409.5 552.625,-1409.5 541.5625,-1409.5 534.1874999999999,-1409.5 529.25,-1407.0 526.75,-1402.0 523.0,-1399.5 518.0,-1399.5 514.25,-1399.5 511.75,-1399.5 510.5,-1399.5 510.5,-1389.5 500.5,-1389.5 500.5,-1379.5 490.5,-1379.5 490.5,-1369.5 480.5,-1369.5 478.0,-1355.1874999999998 473.0,-1346.5625 470.5,-1333.6249999999998 470.5,-1316.3750000000002 470.5,-1303.4375 470.5,-1294.8125000000002 470.5,-1290.5 480.5,-1290.5 483.0,-1279.875 488.0,-1278.625 490.5,-1276.75 490.5,-1274.25 490.5,-1272.375 490.5,-1271.125 490.5,-1270.5 500.5,-1270.5 500.5,-1260.5 511.75,-1258.0 514.25,-1253.0 518.0,-1250.5 523.0,-1250.5 526.75,-1250.5 529.25,-1250.5 531.75,-1248.0 534.25,-1243.0 538.0,-1240.5 543.0,-1240.5 546.75,-1238.5625 549.25,-1234.6875 550.5,-1228.875 550.5,-1221.125 550.5,-1215.3125 550.5,-1211.4375 550.5,-1209.5 540.5,-1209.5 540.5,-1199.5 530.5,-1199.5 530.5,-1189.5 520.5,-1189.5 520.5,-1179.5 510.5,-1179.5 510.5,-1169.5 500.5,-1169.5 498.0,-1155.1875 493.0,-1146.5625 490.5,-1133.625 490.5,-1116.375 490.5,-1103.4375 490.5,-1094.8125 490.5,-1090.5 500.5,-1090.5 500.5,-1080.5 510.5,-1080.5 513.0,-1069.25 518.0,-1066.75 520.5,-1063.0 520.5,-1058.0 520.5,-1054.25 520.5,-1051.75 520.5,-1050.5 530.5,-1050.5 530.5,-1040.5 540.5,-1040.5 540.5,-1030.5 550.5,-1030.5 553.0,-1018.5624999999999 558.0,-1014.6875 560.5,-1008.875 560.5,-1001.125 560.5,-995.3125 560.5,-991.4375000000001 560.5,-989.5 550.5,-989.5 548.0,-978.25 543.0,-975.75 540.5,-972.0 540.5,-967.0 540.5,-963.25 540.5,-960.75 538.0,-954.5625000000001 533.0,-944.6875 530.5,-929.875 530.5,-910.125 530.5,-895.3125 530.5,-885.4374999999999 530.5,-880.5 540.5,-880.5 540.5,-870.5 550.5,-870.5 550.5,-860.5 560.5,-860.5 560.5,-850.5 570.5,-850.5 573.0,-839.25 578.0,-836.75 580.5,-833.0 580.5,-828.0 580.5,-824.25 580.5,-821.75 580.5,-820.5 590.5,-820.5 593.0,-808.5624999999999 598.0,-804.6875 600.5,-798.875 600.5,-791.125 600.5,-785.3125 600.5,-781.4375000000001 598.0,-772.6875000000001 593.0,-759.0625 590.5,-738.625 590.5,-711.375 590.5,-690.9375 590.5,-677.3124999999999 590.5,-670.5 600.5,-670.5 600.5,-660.5 610.5,-660.5 610.5,-650.5 620.5,-650.5 620.5,-640.5 630.5,-640.5 633.0,-629.25 638.0,-626.75 640.5,-623.0 640.5,-618.0 640.5,-614.25 640.5,-611.75 643.0,-607.3124999999999 648.0,-600.9375 650.5,-591.375 650.5,-578.625 650.5,-569.0625 650.5,-562.6875000000001 648.0,-554.5625000000001 643.0,-544.6875 640.5,-529.875 640.5,-510.125 640.5,-495.3125 640.5,-485.4374999999999 640.5,-480.5 650.5,-480.5 650.5,-470.5 660.5,-470.5 660.5,-460.5 670.5,-460.5 670.5,-450.5 682.375,-448.0 686.125,-443.0 691.75,-440.5 699.25,-440.5 704.875,-440.5 708.625,-440.5 711.75,-438.0 714.25,-433.0 718.0,-430.5 723.0,-430.5 726.75,-430.5 729.25,-430.5 731.75,-428.0 734.25,-423.0 738.0,-420.5 743.0,-420.5 746.75,-420.5 749.25,-420.5 751.75,-418.0 754.25,-413.0 758.0,-410.5 763.0,-410.5 766.75,-410.5 769.25,-410.5 770.5,-410.5 770.5,-400.5 781.75,-398.0 784.25,-393.0 788.0,-390.5 793.0,-390.5 796.75,-390.5 799.25,-390.5 800.5,-390.5 803.0,-379.25 808.0,-376.75 810.5,-373.0 810.5,-368.0 810.5,-364.25 810.5,-361.75 813.0,-358.625 818.0,-354.875 820.5,-349.25 820.5,-341.75 820.5,-336.125 820.5,-332.375 820.5,-330.5 830.5,-330.5 830.5,-320.5 840.5,-320.5 840.5,-310.5 856.0624999999999,-308.0 867.1875,-303.0 883.875,-300.5 906.125,-300.5 922.8125,-300.5 933.9375000000001,-300.5 939.5,-300.5 939.5,-310.5 949.5,-310.5 949.5,-320.5 959.5,-320.5 962.0,-333.0 967.0,-338.0 969.5,-345.5 969.5,-355.5 969.5,-363.0 969.5,-368.0 972.0,-373.0 977.0,-378.0 979.5,-385.5 979.5,-395.5 981.4375000000001,-403.0 985.3125,-408.0 991.125,-410.5 998.875,-410.5 1004.6875,-410.5 1008.5624999999999,-410.5 1010.5,-410.5 1013.0,-398.625 1018.0,-394.875 1020.5,-389.25 1020.5,-381.75 1020.5,-376.125 1020.5,-372.375 1023.0,-367.375 1028.0,-361.125 1030.5,-351.75 1030.5,-339.25 1030.5,-329.875 1030.5,-323.625 1033.0,-318.625 1038.0,-314.875 1040.5,-309.25 1040.5,-301.75 1040.5,-296.125 1040.5,-292.375 1043.0,-289.1875 1048.0,-286.5625 1050.5,-282.625 1050.5,-277.375 1050.5,-273.4375 1050.5,-270.8125 1050.5,-269.5 1030.5,-267.0 1010.5,-262.0 980.5,-259.5 940.5,-259.5 910.5,-259.5 890.5,-259.5 878.0,-257.0 873.0,-252.0 865.5,-249.5 855.5,-249.5 848.0,-249.5 843.0,-249.5 806.0624999999999,-247.0 737.1875,-242.0 633.875,-239.5 496.125,-239.5 392.81249999999994,-239.5 323.9375,-239.5 287.625,-242.0 283.875,-247.0 278.25,-249.5 270.75,-249.5 265.125,-249.5 261.375,-249.5 259.5,-249.5 257.0,-260.8125 252.0,-263.4375 249.5,-267.375 249.5,-272.625 249.5,-276.5625 249.5,-279.1875 252.0,-282.375 257.0,-286.125 259.5,-291.75 259.5,-299.25 259.5,-304.875 259.5,-308.625 262.0,-319.8125 267.0,-338.43750000000006 269.5,-366.375 269.5,-403.6250000000001 269.5,-431.56250000000006 269.5,-450.1875000000001 267.0,-465.125 262.0,-476.375 259.5,-493.25 259.5,-515.75 259.5,-532.625 259.5,-543.875 257.0,-552.0 252.0,-557.0 249.5,-564.5 249.5,-574.5 249.5,-582.0 249.5,-587.0 247.0,-607.0625000000001 242.0,-642.1875 239.5,-694.875 239.5,-765.125 239.5,-817.8125 239.5,-852.9374999999999 242.0,-872.375 247.0,-876.125 249.5,-881.75 249.5,-889.25 249.5,-894.875 249.5,-898.625 252.0,-901.75 257.0,-904.25 259.5,-908.0 259.5,-913.0 260.75,-916.75 263.25,-919.25 267.0,-920.5 272.0,-920.5 275.75,-920.5 278.25,-920.5 279.5,-920.5 279.5,-930.5 289.5,-930.5 292.0,-941.75 297.0,-944.25 299.5,-948.0 299.5,-953.0 299.5,-956.75 299.5,-959.25 302.0,-964.8124999999999 307.0,-973.4375 309.5,-986.375 309.5,-1003.625 309.5,-1016.5625 309.5,-1025.1875 307.0,-1035.75 302.0,-1048.25 299.5,-1067.0 299.5,-1092.0 299.5,-1110.75 299.5,-1123.25 299.5,-1129.5 289.5,-1129.5 287.0,-1140.75 282.0,-1143.25 279.5,-1147.0 279.5,-1152.0 279.5,-1155.75 279.5,-1158.25 277.0,-1162.0 272.0,-1167.0 269.5,-1174.5 269.5,-1184.5 269.5,-1192.0 269.5,-1197.0 267.0,-1205.125 262.0,-1216.375 259.5,-1233.25 259.5,-1255.75 259.5,-1272.625 259.5,-1283.875 257.0,-1292.0 252.0,-1297.0 249.5,-1304.5 249.5,-1314.5 249.5,-1322.0 249.5,-1327.0 247.0,-1359.5 242.0,-1419.5 239.5,-1509.5 239.5,-1629.5 282.0625,-1719.5 367.18749999999994,-1779.5 494.875,-1809.5 665.1249999999999,-1809.5 792.8125,-1809.5 877.9374999999999,-1809.5 920.5,-1809.5"/>
</g>
</svg>