<?xml version="1.0" encoding="UTF-8"?>
<svg xmlns="http://www.w3.org/2000/svg" xmlns:xlink="http://www.w3.org/1999/xlink"
     width="3932.1" height="4412.1" viewBox="38.94999999999999 -201.05 3932.1 4412.1">
<defs>
<style type="text/css">
.l0d0 {stroke: rgb(255, 0, 0); fill: rgb(255, 0, 0); fill-opacity: 0.5;}
</style>
</defs>
<rect x="38.94999999999999" y="-201.05" width="3932.1" height="4412.1" fill="#222" stroke="none"/>
<g id="TOP" transform="scale(1 -1)">
<polygon class="l0d0" points="2640.5,-3860.5 2640.5,-3840.5 2650.5,-3840.5 2650.5,-3779.5 2640.5,-3779.5 2640.5,-3749.5 2630.5,-3749.5 2630.5,-3739.5 2620.5,-3739.5 2620.5,-3729.5 2590.5,-3729.5 2590.5,-3719.5 2580.5,-3719.5 2580.5,-3709.5 2570.5,-3709.5 2570.5,-3699.5 2560.5,-3699.5 2560.5,-3549.5 2550.5,-3549.5 2550.5,-3509.5 2540.5,-3509.5 2540.5,-3459.5 2530.5,-3459.5 2530.5,-3419.5 2520.5,-3419.5 2520.5,-3389.5 2510.5,-3389.5 2510.5,-3369.5 2500.5,-3369.5 2500.5,-3359.5 2490.5,-3359.5 2490.5,-3339.5 2480.5,-3339.5 2480.5,-3309.5 2470.5,-3309.5 2470.5,-3279.5 2460.5,-3279.5 2460.5,-3219.5 2450.5,-3219.5 2450.5,-3089.5 2440.5,-3089.5 2438.0,-2822.6874999999995 2433.0,-2589.0625 2430.5,-2238.625 2430.5,-1771.375 2430.5,-1420.9374999999998 2430.5,-1187.3125 2430.5,-1070.5 2440.5,-1070.5 2440.5,-920.5 2450.5,-920.5 2450.5,-790.5 2460.5,-790.5 2460.5,-730.5 2470.5,-730.5 2470.5,-700.5 2480.5,-700.5 2480.5,-670.5 2490.5,-670.5 2490.5,-650.5 2500.5,-650.5 2500.5,-640.5 2510.5,-640.5 2510.5,-620.5 2520.5,-620.5 2520.5,-590.5 2530.5,-590.5 2530.5,-550.5 2540.5,-550.5 2540.5,-500.5 2550.5,-500.5 2550.5,-460.5 2560.5,-460.5 2560.5,-310.5 2570.5,-310.5 2570.5,-300.5 2580.5,-300.5 2580.5,-290.5 2590.5,-290.5 2590.5,-280.5 2620.5,-280.5 2620.5,-270.5 2630.5,-270.5 2630.5,-260.5 2640.5,-260.5 2640.5,-230.5 2650.5,-230.5 2650.5,-169.5 2640.5,-169.5 2640.5,-149.5 2552.3125000000005,-112.0 2395.9375,-37.0 2161.375,0.5 1848.625,0.5 1614.0625,0.5 1457.6874999999998,0.5 1379.5,0.5 1379.5,-149.5 1369.5,-149.5 1369.5,-169.5 1359.5,-169.5 1359.5,-209.5 1349.5,-209.5 1349.5,-219.5 1339.5,-219.5 1339.5,-229.5 1329.5,-229.5 1329.5,-239.5 1279.5,-239.5 1279.5,-249.5 1249.5,-249.5 1249.5,-259.5 1239.5,-259.5 1239.5,-300.5 1249.5,-300.5 1249.5,-310.5 1259.5,-310.5 1259.5,-320.5 1269.5,-320.5 1269.5,-330.5 1279.5,-330.5 1279.5,-340.5 1289.5,-340.5 1289.5,-370.5 1299.5,-370.5 1299.5,-569.5 1289.5,-569.5 1289.5,-710.5 1299.5,-710.5 1299.5,-810.5 1309.5,-810.5 1309.5,-850.5 1319.5,-850.5 1319.5,-890.5 1329.5,-890.5 1329.5,-980.5 1339.5,-980.5 1339.5,-1040.5 1349.5,-1040.5 1349.5,-1080.5 1359.5,-1080.5 1359.5,-1190.5 1369.5,-1190.5 1369.5,-1290.5 1379.5,-1290.5 1379.5,-1350.5 1389.5,-1350.5 1389.5,-1440.5 1399.5,-1440.5 1399.5,-1500.5 1409.5,-1500.5 1409.5,-1560.5 1419.5,-1560.5 1419.5,-1640.5 1429.5,-1640.5 1429.5,-1780.5 1439.5,-1877.7500000000005 1439.5,-2072.2499999999995 1554.75,-2169.5 1785.2500000000005,-2169.5 1900.5,-2087.2499999999995 1900.5,-1922.7500000000005 1900.5,-1840.5 1910.5,-1840.5 1910.5,-1640.5 1920.5,-1640.5 1920.5,-1450.5 1930.5,-1450.5 1930.5,-1340.5 1940.5,-1340.5 1940.5,-1200.5 1950.5,-1200.5 1950.5,-1040.5 1960.5,-1040.5 1960.5,-990.5 1970.5,-990.5 1970.5,-800.5 1980.5,-800.5 1980.5,-790.5 1990.5,-790.5 1990.5,-780.5 2000.5,-780.5 2000.5,-760.5 2010.5,-760.5 2010.5,-739.5 2000.5,-739.5 2000.5,-709.5 1990.5,-709.5 1990.5,-609.5 1980.5,-609.5 1980.5,-569.5 1970.5,-569.5 1970.5,-459.5 1960.5,-459.5 1960.5,-419.5 1950.5,-419.5 1950.5,-389.5 1940.5,-389.5 1940.5,-310.5 1950.5,-310.5 1950.5,-300.5 1960.5,-300.5 1960.5,-290.5 1970.5,-290.5 1970.5,-280.5 2069.5,-280.5 2069.5,-290.5 2079.5,-290.5 2079.5,-300.5 2089.5,-300.5 2089.5,-310.5 2099.5,-310.5 2099.5,-380.5 2109.5,-380.5 2109.5,-420.5 2119.5,-420.5 2119.5,-450.5 2129.5,-450.5 2129.5,-540.5 2139.5,-540.5 2139.5,-580.5 2149.5,-580.5 2149.5,-620.5 2159.5,-620.5 2159.5,-650.5 2169.5,-650.5 2169.5,-680.5 2179.5,-680.5 2179.5,-710.5 2189.5,-710.5 2189.5,-810.5 2199.5,-810.5 2199.5,-970.5 2209.5,-970.5 2209.5,-1200.5 2219.5,-1200.5 2219.5,-1450.5 2229.5,-1866.375 2229.5,-2143.625 2229.5,-2282.2499999999995 2229.5,-2559.5 2219.5,-2559.5 2219.5,-2809.5 2209.5,-2809.5 2209.5,-3039.5 2199.5,-3039.5 2199.5,-3199.5 2189.5,-3199.5 2189.5,-3299.5 2179.5,-3299.5 2179.5,-3329.5 2169.5,-3329.5 2169.5,-3359.5 2159.5,-3359.5 2159.5,-3389.5 2149.5,-3389.5 2149.5,-3429.5 2139.5,-3429.5 2139.5,-3469.5 2129.5,-3469.5 2129.5,-3559.5 2119.5,-3559.5 2119.5,-3589.5 2109.5,-3589.5 2109.5,-3629.5 2099.5,-3629.5 2099.5,-3699.5 2089.5,-3699.5 2089.5,-3709.5 2079.5,-3709.5 2079.5,-3719.5 2069.5,-3719.5 2069.5,-3729.5 1970.5,-3729.5 1970.5,-3719.5 1960.5,-3719.5 1960.5,-3709.5 1950.5,-3709.5 1950.5,-3699.5 1940.5,-3699.5 1940.5,-3620.5 1950.5,-3620.5 1950.5,-3590.5 1960.5,-3590.5 1960.5,-3550.5 1970.5,-3550.5 1970.5,-3440.5 1980.5,-3440.5 1980.5,-3400.5 1990.5,-3400.5 1990.5,-3300.5 2000.5,-3300.5 2000.5,-3270.5 2010.5,-3270.5 2010.5,-3249.5 2000.5,-3249.5 2000.5,-3229.5 1990.5,-3229.5 1990.5,-3219.5 1980.5,-3219.5 1980.5,-3209.5 1970.5,-3209.5 1970.5,-3019.5 1960.5,-3019.5 1960.5,-2969.5 1950.5,-2969.5 1950.5,-2809.5 1940.5,-2809.5 1940.5,-2669.5 1930.5,-2669.5 1930.5,-2559.5 1920.5,-2559.5 1920.5,-2369.5 1910.5,-2369.5 1910.5,-2169.5 1785.2500000000005,-2169.5 1554.75,-2169.5 1439.5,-2169.5 1439.5,-2229.5 1429.5,-2229.5 1429.5,-2369.5 1419.5,-2369.5 1419.5,-2449.5 1409.5,-2449.5 1409.5,-2509.5 1399.5,-2509.5 1399.5,-2569.5 1389.5,-2569.5 1389.5,-2659.5 1379.5,-2659.5 1379.5,-2719.5 1369.5,-2719.5 1369.5,-2819.5 1359.5,-2819.5 1359.5,-2929.5 1349.5,-2929.5 1349.5,-2969.5 1339.5,-2969.5 1339.5,-3029.5 1329.5,-3029.5 1329.5,-3119.5 1319.5,-3119.5 1319.5,-3159.5 1309.5,-3159.5 1309.5,-3199.5 1299.5,-3199.5 1299.5,-3299.5 1289.5,-3299.5 1289.5,-3440.5 1299.5,-3440.5 1299.5,-3639.5 1289.5,-3639.5 1289.5,-3669.5 1279.5,-3669.5 1279.5,-3679.5 1269.5,-3679.5 1269.5,-3689.5 1259.5,-3689.5 1259.5,-3699.5 1249.5,-3699.5 1249.5,-3709.5 1239.5,-3709.5 1239.5,-3750.5 1249.5,-3750.5 1249.5,-3760.5 1279.5,-3760.5 1279.5,-3770.5 1329.5,-3770.5 1329.5,-3780.5 1339.5,-3780.5 1339.5,-3790.5 1349.5,-3790.5 1349.5,-3800.5 1359.5,-3800.5 1359.5,-3840.5 1369.5,-3840.5 1369.5,-3860.5 1457.6874999999998,-3898.0 1614.0625,-3973.0 1848.625,-4010.5 2161.375,-4010.5 2395.9375,-4010.5 2552.3125000000005,-4010.5 2630.5,-4010.5 2630.5,-3860.5"/>
<polygon class="l0d0" points="2980.5,-339.5 2980.5,-319.5 2960.5,-319.5 2960.5,-309.5 2939.5,-309.5 2939.5,-319.5 2929.5,-319.5 2929.5,-329.5 2919.5,-329.5 2919.5,-380.5 2929.5,-380.5 2929.5,-410.5 2939.5,-410.5 2939.5,-430.5 2949.5,-430.5 2949.5,-440.5 2970.5,-440.5 2970.5,-430.5 2980.5,-430.5 2980.5,-420.5 2990.5,-420.5 2990.5,-339.5"/>
<polygon class="l0d0" points="2910.5,-529.5 2910.5,-519.5 2889.5,-519.5 2889.5,-529.5 2879.5,-529.5 2879.5,-539.5 2869.5,-539.5 2869.5,-600.5 2879.5,-600.5 2879.5,-610.5 2889.5,-610.5 2889.5,-620.5 2910.5,-620.5 2910.5,-610.5 2920.5,-610.5 2920.5,-529.5"/>
<polygon class="l0d0" points="910.5,-549.5 910.5,-539.5 889.5,-539.5 889.5,-549.5 879.5,-549.5 879.5,-580.5 889.5,-580.5 889.5,-590.5 900.5,-590.5 900.5,-580.5 910.5,-580.5 910.5,-570.5 920.5,-570.5 920.5,-549.5"/>
<polygon class="l0d0" points="2910.5,-3399.5 2910.5,-3389.5 2889.5,-3389.5 2889.5,-3399.5 2879.5,-3399.5 2879.5,-3409.5 2869.5,-3409.5 2869.5,-3470.5 2879.5,-3470.5 2879.5,-3480.5 2889.5,-3480.5 2889.5,-3490.5 2910.5,-3490.5 2910.5,-3480.5 2920.5,-3480.5 2920.5,-3399.5"/>
<polygon class="l0d0" points="910.5,-3439.5 910.5,-3429.5 900.5,-3429.5 900.5,-3419.5 889.5,-3419.5 889.5,-3429.5 879.5,-3429.5 879.5,-3460.5 889.5,-3460.5 889.5,-3470.5 910.5,-3470.5 910.5,-3460.5 920.5,-3460.5 920.5,-3439.5"/>
<polygon class="l0d0" points="2980.5,-3670.5 2990.5,-3670.5 2990.5,-3589.5 2980.5,-3589.5 2980.5,-3579.5 2970.5,-3579.5 2970.5,-3569.5 2949.5,-3569.5 2949.5,-3579.5 2939.5,-3579.5 2939.5,-3599.5 2929.5,-3599.5 2929.5,-3629.5 2919.5,-3629.5 2919.5,-3680.5 2929.5,-3680.5 2929.5,-3690.5 2939.5,-3690.5 2939.5,-3700.5 2960.5,-3700.5 2960.5,-3690.5 2980.5,-3690.5"/>
<polygon class="l0d0" points="2959.5,-2659.5 2959.5,-2680.5 2969.5,-2680.5 2969.5,-2880.5 2979.5,-2880.5 2979.5,-2920.5 2989.5,-2920.5 2989.5,-2950.5 2999.5,-2950.5 2999.5,-2980.5 3009.5,-2980.5 3009.5,-3020.5 3019.5,-3020.5 3019.5,-3060.5 3029.5,-3060.5 3029.5,-3100.5 3039.5,-3100.5 3039.5,-3130.5 3049.5,-3130.5 3049.5,-3160.5 3059.5,-3160.5 3059.5,-3200.5 3069.5,-3200.5 3069.5,-3240.5 3079.5,-3240.5 3079.5,-3270.5 3089.5,-3270.5 3089.5,-3280.5 3099.5,-3280.5 3099.5,-3290.5 3119.5,-3290.5 3119.5,-3300.5 3139.5,-3300.5 3139.5,-3310.5 3149.5,-3310.5 3149.5,-3320.5 3159.5,-3320.5 3159.5,-3330.5 3169.5,-3330.5 3169.5,-3340.5 3179.5,-3340.5 3179.5,-3389.5 3169.5,-3389.5 3169.5,-3409.5 3159.5,-3409.5 3159.5,-3419.5 3149.5,-3419.5 3149.5,-3449.5 3139.5,-3449.5 3139.5,-3470.5 3149.5,-3470.5 3149.5,-3500.5 3159.5,-3500.5 3159.5,-3510.5 3169.5,-3510.5 3169.5,-3520.5 3179.5,-3520.5 3179.5,-3599.5 3169.5,-3599.5 3169.5,-3609.5 3159.5,-3609.5 3159.5,-3619.5 3149.5,-3619.5 3149.5,-3639.5 3139.5,-3639.5 3139.5,-3679.5 3129.5,-3679.5 3129.5,-3750.5 3139.5,-3750.5 3139.5,-3760.5 3179.5,-3760.5 3179.5,-3770.5 3250.5,-3770.5 3250.5,-3760.5 3290.5,-3760.5 3290.5,-3750.5 3320.5,-3750.5 3320.5,-3740.5 3340.5,-3740.5 3340.5,-3730.5 3360.5,-3730.5 3360.5,-3720.5 3439.5,-3720.5 3439.5,-3730.5 3449.5,-3730.5 3449.5,-3740.5 3459.5,-3740.5 3459.5,-3750.5 3479.5,-3750.5 3479.5,-3760.5 3519.5,-3760.5 3519.5,-3770.5 3710.5,-3770.5 3710.5,-3760.5 3740.5,-3760.5 3740.5,-3750.5 3750.5,-3750.5 3750.5,-3740.5 3760.5,-3740.5 3760.5,-3699.5 3750.5,-3699.5 3750.5,-3689.5 3720.5,-3689.5 3720.5,-3679.5 3690.5,-3679.5 3690.5,-3669.5 3680.5,-3669.5 3680.5,-3659.5 3670.5,-3659.5 3670.5,-3649.5 3660.5,-3649.5 3660.5,-3560.5 3670.5,-3560.5 3670.5,-3550.5 3680.5,-3550.5 3680.5,-3540.5 3690.5,-3540.5 3690.5,-3530.5 3700.5,-3530.5 3700.5,-3520.5 3720.5,-3520.5 3720.5,-3510.5 3730.5,-3510.5 3730.5,-3500.5 3740.5,-3500.5 3740.5,-3490.5 3750.5,-3490.5 3750.5,-3450.5 3760.5,-3450.5 3760.5,-3410.5 3770.5,-3307.7500000000005 3770.5,-3102.2499999999995 3770.5,-2999.5 3760.5,-2999.5 3760.5,-2969.5 3719.5,-2969.5 3719.5,-2979.5 3709.5,-2979.5 3709.5,-2989.5 3699.5,-2989.5 3699.5,-3089.5 3689.5,-3089.5 3689.5,-3119.5 3679.5,-3119.5 3679.5,-3139.5 3669.5,-3139.5 3669.5,-3149.5 3659.5,-3149.5 3659.5,-3159.5 3649.5,-3159.5 3649.5,-3169.5 3550.5,-3169.5 3550.5,-3159.5 3530.5,-3159.5 3530.5,-3149.5 3520.5,-3149.5 3520.5,-3139.5 3510.5,-3139.5 3510.5,-3129.5 3500.5,-3129.5 3500.5,-3050.5 3510.5,-3050.5 3510.5,-3040.5 3520.5,-3040.5 3520.5,-3030.5 3530.5,-3030.5 3530.5,-3020.5 3550.5,-3020.5 3550.5,-3010.5 3560.5,-3010.5 3560.5,-3000.5 3570.5,-3000.5 3570.5,-2990.5 3580.5,-2990.5 3580.5,-2980.5 3590.5,-2980.5 3590.5,-2949.5 3580.5,-2949.5 3580.5,-2929.5 3570.5,-2929.5 3570.5,-2919.5 3560.5,-2919.5 3560.5,-2850.5 3570.5,-2850.5 3570.5,-2840.5 3580.5,-2840.5 3580.5,-2830.5 3590.5,-2830.5 3590.5,-2820.5 3600.5,-2820.5 3600.5,-2810.5 3610.5,-2810.5 3610.5,-2800.5 3630.5,-2800.5 3630.5,-2790.5 3640.5,-2790.5 3640.5,-2780.5 3650.5,-2780.5 3650.5,-2770.5 3660.5,-2770.5 3660.5,-2760.5 3670.5,-2760.5 3670.5,-2750.5 3680.5,-2750.5 3680.5,-2720.5 3690.5,-2720.5 3690.5,-2680.5 3700.5,-2680.5 3700.5,-2600.5 3710.5,-2600.5 3710.5,-2590.5 3720.5,-2590.5 3720.5,-2580.5 3730.5,-2580.5 3730.5,-2570.5 3740.5,-2570.5 3740.5,-2550.5 3750.5,-2550.5 3750.5,-2510.5 3760.5,-2510.5 3760.5,-2470.5 3770.5,-2362.7500000000005 3770.5,-2147.2499999999995 3770.5,-2039.5 3709.5,-2039.5 3709.5,-2219.5 3699.5,-2219.5 3699.5,-2229.5 3689.5,-2229.5 3689.5,-2239.5 3679.5,-2239.5 3679.5,-2249.5 3669.5,-2249.5 3669.5,-2259.5 3620.5,-2259.5 3620.5,-2249.5 3600.5,-2249.5 3600.5,-2239.5 3590.5,-2239.5 3590.5,-2229.5 3580.5,-2229.5 3580.5,-2219.5 3570.5,-2219.5 3570.5,-2209.5 3560.5,-2209.5 3560.5,-2199.5 3550.5,-2199.5 3550.5,-2189.5 3540.5,-2189.5 3540.5,-2049.5 3530.5,-2049.5 3530.5,-2039.5 3479.5,-2039.5 3479.5,-2049.5 3469.5,-2049.5 3469.5,-2079.5 3459.5,-2079.5 3459.5,-2140.5 3469.5,-2140.5 3469.5,-2160.5 3479.5,-2160.5 3479.5,-2170.5 3489.5,-2170.5 3489.5,-2249.5 3479.5,-2249.5 3479.5,-2269.5 3469.5,-2269.5 3469.5,-2289.5 3459.5,-2289.5 3459.5,-2319.5 3449.5,-2319.5 3449.5,-2380.5 3459.5,-2380.5 3459.5,-2400.5 3469.5,-2400.5 3469.5,-2479.5 3459.5,-2479.5 3459.5,-2489.5 3449.5,-2489.5 3449.5,-2499.5 3439.5,-2499.5 3439.5,-2519.5 3429.5,-2519.5 3429.5,-2539.5 3419.5,-2539.5 3419.5,-2590.5 3429.5,-2590.5 3429.5,-2610.5 3439.5,-2610.5 3439.5,-2620.5 3449.5,-2620.5 3449.5,-2699.5 3439.5,-2699.5 3439.5,-2709.5 3429.5,-2709.5 3429.5,-2719.5 3419.5,-2719.5 3419.5,-2729.5 3409.5,-2729.5 3409.5,-2739.5 3399.5,-2739.5 3399.5,-2749.5 3389.5,-2749.5 3389.5,-2759.5 3320.5,-2759.5 3320.5,-2749.5 3310.5,-2749.5 3310.5,-2739.5 3300.5,-2739.5 3300.5,-2729.5 3290.5,-2729.5 3290.5,-2719.5 3280.5,-2719.5 3280.5,-2709.5 3270.5,-2709.5 3270.5,-2539.5 3260.5,-2539.5 3260.5,-2400.5 3270.5,-2400.5 3270.5,-2369.5 3260.5,-2369.5 3260.5,-2329.5 3250.5,-2329.5 3180.2500000000005,-2078.25 3039.7499999999995,-2155.75 2969.5,-2272.0 2969.5,-2427.0 2969.5,-2504.5 2969.5,-2659.5"/>
<polygon class="l0d0" points="3530.5,-1960.5 3540.5,-1960.5 3540.5,-1820.5 3550.5,-1820.5 3550.5,-1810.5 3560.5,-1810.5 3560.5,-1800.5 3570.5,-1800.5 3570.5,-1790.5 3580.5,-1790.5 3580.5,-1780.5 3590.5,-1780.5 3590.5,-1770.5 3600.5,-1770.5 3600.5,-1760.5 3620.5,-1760.5 3620.5,-1750.5 3669.5,-1750.5 3669.5,-1760.5 3679.5,-1760.5 3679.5,-1770.5 3689.5,-1770.5 3689.5,-1780.5 3699.5,-1780.5 3699.5,-1790.5 3709.5,-1790.5 3709.5,-2039.5 3770.5,-1914.5 3770.5,-1664.5 3770.5,-1539.5 3760.5,-1539.5 3760.5,-1499.5 3750.5,-1499.5 3750.5,-1459.5 3740.5,-1459.5 3740.5,-1439.5 3730.5,-1439.5 3730.5,-1429.5 3720.5,-1429.5 3720.5,-1419.5 3710.5,-1419.5 3710.5,-1409.5 3700.5,-1409.5 3700.5,-1329.5 3690.5,-1329.5 3690.5,-1289.5 3680.5,-1289.5 3680.5,-1259.5 3670.5,-1259.5 3670.5,-1249.5 3660.5,-1249.5 3660.5,-1239.5 3650.5,-1239.5 3650.5,-1229.5 3640.5,-1229.5 3640.5,-1219.5 3630.5,-1219.5 3630.5,-1209.5 3610.5,-1209.5 3610.5,-1199.5 3600.5,-1199.5 3600.5,-1189.5 3590.5,-1189.5 3590.5,-1179.5 3580.5,-1179.5 3580.5,-1169.5 3570.5,-1169.5 3570.5,-1159.5 3560.5,-1159.5 3560.5,-1090.5 3570.5,-1090.5 3570.5,-1080.5 3580.5,-1080.5 3580.5,-1060.5 3590.5,-1060.5 3590.5,-1029.5 3580.5,-1029.5 3580.5,-1019.5 3570.5,-1019.5 3570.5,-1009.5 3560.5,-1009.5 3560.5,-999.5 3550.5,-999.5 3550.5,-989.5 3530.5,-989.5 3530.5,-979.5 3520.5,-979.5 3520.5,-969.5 3510.5,-969.5 3510.5,-959.5 3500.5,-959.5 3500.5,-880.5 3510.5,-880.5 3510.5,-870.5 3520.5,-870.5 3520.5,-860.5 3530.5,-860.5 3530.5,-850.5 3550.5,-850.5 3550.5,-840.5 3649.5,-840.5 3649.5,-850.5 3659.5,-850.5 3659.5,-860.5 3669.5,-860.5 3669.5,-870.5 3679.5,-870.5 3679.5,-890.5 3689.5,-890.5 3689.5,-920.5 3699.5,-920.5 3699.5,-1020.5 3709.5,-1020.5 3709.5,-1030.5 3719.5,-1030.5 3719.5,-1040.5 3760.5,-1040.5 3760.5,-1010.5 3770.5,-907.7499999999999 3770.5,-702.2500000000001 3770.5,-599.5 3760.5,-599.5 3760.5,-559.5 3750.5,-559.5 3750.5,-519.5 3740.5,-519.5 3740.5,-509.5 3730.5,-509.5 3730.5,-499.5 3720.5,-499.5 3720.5,-489.5 3700.5,-489.5 3700.5,-479.5 3690.5,-479.5 3690.5,-469.5 3680.5,-469.5 3680.5,-459.5 3670.5,-459.5 3670.5,-449.5 3660.5,-449.5 3660.5,-360.5 3670.5,-360.5 3670.5,-350.5 3680.5,-350.5 3680.5,-340.5 3690.5,-340.5 3690.5,-330.5 3720.5,-330.5 3720.5,-320.5 3750.5,-320.5 3750.5,-310.5 3760.5,-310.5 3760.5,-269.5 3750.5,-269.5 3750.5,-259.5 3740.5,-259.5 3740.5,-249.5 3710.5,-249.5 3710.5,-239.5 3519.5,-239.5 3519.5,-249.5 3479.5,-249.5 3479.5,-259.5 3459.5,-259.5 3459.5,-269.5 3449.5,-269.5 3449.5,-279.5 3439.5,-279.5 3439.5,-289.5 3360.5,-289.5 3360.5,-279.5 3340.5,-279.5 3340.5,-269.5 3320.5,-269.5 3320.5,-259.5 3290.5,-259.5 3290.5,-249.5 3250.5,-249.5 3250.5,-239.5 3179.5,-239.5 3179.5,-249.5 3139.5,-249.5 3139.5,-259.5 3129.5,-259.5 3129.5,-330.5 3139.5,-330.5 3139.5,-370.5 3149.5,-370.5 3149.5,-390.5 3159.5,-390.5 3159.5,-400.5 3169.5,-400.5 3169.5,-410.5 3179.5,-410.5 3179.5,-489.5 3169.5,-489.5 3169.5,-499.5 3159.5,-499.5 3159.5,-509.5 3149.5,-509.5 3149.5,-539.5 3139.5,-539.5 3139.5,-560.5 3149.5,-560.5 3149.5,-590.5 3159.5,-590.5 3159.5,-600.5 3169.5,-600.5 3169.5,-620.5 3179.5,-620.5 3179.5,-669.5 3169.5,-669.5 3169.5,-679.5 3159.5,-679.5 3159.5,-689.5 3149.5,-689.5 3149.5,-699.5 3139.5,-699.5 3139.5,-709.5 3119.5,-709.5 3119.5,-719.5 3099.5,-719.5 3099.5,-729.5 3089.5,-729.5 3089.5,-739.5 3079.5,-739.5 3079.5,-769.5 3069.5,-769.5 3069.5,-809.5 3059.5,-809.5 3059.5,-849.5 3049.5,-849.5 3049.5,-879.5 3039.5,-879.5 3039.5,-909.5 3029.5,-909.5 3029.5,-949.5 3019.5,-949.5 3019.5,-989.5 3009.5,-989.5 3009.5,-1029.5 2999.5,-1029.5 2999.5,-1059.5 2989.5,-1059.5 2989.5,-1089.5 2979.5,-1089.5 2979.5,-1129.5 2969.5,-1129.5 2969.5,-1329.5 2959.5,-1329.5 2959.5,-1350.5 2969.5,-1608.875 2969.5,-1781.1249999999998 2969.5,-1867.2499999999995 2969.5,-2039.5 3250.5,-1949.7499999999995 3250.5,-1770.25 3250.5,-1680.5 3260.5,-1680.5 3260.5,-1640.5 3270.5,-1640.5 3270.5,-1609.5 3260.5,-1609.5 3260.5,-1470.5 3270.5,-1470.5 3270.5,-1300.5 3280.5,-1300.5 3280.5,-1290.5 3290.5,-1290.5 3290.5,-1280.5 3300.5,-1280.5 3300.5,-1270.5 3310.5,-1270.5 3310.5,-1260.5 3320.5,-1260.5 3320.5,-1250.5 3389.5,-1250.5 3389.5,-1260.5 3399.5,-1260.5 3399.5,-1270.5 3409.5,-1270.5 3409.5,-1280.5 3419.5,-1280.5 3419.5,-1290.5 3429.5,-1290.5 3429.5,-1300.5 3439.5,-1300.5 3439.5,-1310.5 3449.5,-1310.5 3449.5,-1389.5 3439.5,-1389.5 3439.5,-1399.5 3429.5,-1399.5 3429.5,-1419.5 3419.5,-1419.5 3419.5,-1470.5 3429.5,-1470.5 3429.5,-1490.5 3439.5,-1490.5 3439.5,-1510.5 3449.5,-1510.5 3449.5,-1520.5 3459.5,-1520.5 3459.5,-1530.5 3469.5,-1530.5 3469.5,-1609.5 3459.5,-1609.5 3459.5,-1629.5 3449.5,-1629.5 3449.5,-1690.5 3459.5,-1690.5 3459.5,-1720.5 3469.5,-1720.5 3469.5,-1740.5 3479.5,-1740.5 3479.5,-1760.5 3489.5,-1760.5 3489.5,-1839.5 3479.5,-1839.5 3479.5,-1849.5 3469.5,-1849.5 3469.5,-1869.5 3459.5,-1869.5 3459.5,-1930.5 3469.5,-1930.5 3469.5,-1960.5 3479.5,-1960.5 3479.5,-1970.5 3489.5,-1970.5 3489.5,-2039.5 3530.5,-2039.5"/>
<polygon class="l0d0" points="840.5,-3760.5 880.5,-3760.5 880.5,-3750.5 1040.5,-3750.5 1040.5,-3740.5 1050.5,-3740.5 1050.5,-3719.5 1040.5,-3719.5 1040.5,-3689.5 1030.5,-3689.5 1030.5,-3639.5 1020.5,-3639.5 1020.5,-3609.5 1010.5,-3609.5 1010.5,-3599.5 979.5,-3599.5 979.5,-3639.5 969.5,-3639.5 969.5,-3679.5 959.5,-3679.5 959.5,-3689.5 949.5,-3689.5 949.5,-3699.5 939.5,-3699.5 939.5,-3709.5 850.5,-3709.5 850.5,-3699.5 840.5,-3699.5 840.5,-3689.5 830.5,-3689.5 830.5,-3679.5 820.5,-3679.5 820.5,-3649.5 810.5,-3649.5 810.5,-3629.5 800.5,-3629.5 800.5,-3619.5 780.5,-3619.5 780.5,-3609.5 770.5,-3609.5 770.5,-3599.5 750.5,-3599.5 750.5,-3589.5 730.5,-3589.5 730.5,-3579.5 710.5,-3579.5 710.5,-3569.5 680.5,-3569.5 680.5,-3559.5 670.5,-3559.5 670.5,-3549.5 660.5,-3549.5 660.5,-3539.5 650.5,-3539.5 650.5,-3529.5 640.5,-3529.5 640.5,-3450.5 650.5,-3450.5 650.5,-3399.5 640.5,-3399.5 640.5,-3379.5 630.5,-3379.5 630.5,-3369.5 620.5,-3369.5 620.5,-3359.5 610.5,-3359.5 610.5,-3349.5 600.5,-3349.5 600.5,-3339.5 590.5,-3339.5 590.5,-3230.5 600.5,-3230.5 600.5,-3199.5 590.5,-3199.5 590.5,-3189.5 580.5,-3189.5 580.5,-3169.5 570.5,-3169.5 570.5,-3159.5 560.5,-3159.5 560.5,-3149.5 550.5,-3149.5 550.5,-3139.5 540.5,-3139.5 540.5,-3129.5 530.5,-3129.5 530.5,-3050.5 540.5,-3050.5 540.5,-3030.5 550.5,-3030.5 550.5,-3020.5 560.5,-3020.5 560.5,-2989.5 550.5,-2989.5 550.5,-2979.5 540.5,-2979.5 540.5,-2969.5 530.5,-2969.5 530.5,-2959.5 520.5,-2959.5 520.5,-2939.5 510.5,-2939.5 510.5,-2929.5 500.5,-2929.5 500.5,-2919.5 490.5,-2919.5 490.5,-2850.5 500.5,-2850.5 500.5,-2840.5 510.5,-2840.5 510.5,-2830.5 520.5,-2830.5 520.5,-2820.5 530.5,-2820.5 530.5,-2810.5 540.5,-2810.5 540.5,-2800.5 550.5,-2800.5 550.5,-2769.5 530.5,-2769.5 530.5,-2759.5 510.5,-2759.5 510.5,-2749.5 500.5,-2749.5 500.5,-2739.5 490.5,-2739.5 490.5,-2729.5 480.5,-2729.5 480.5,-2719.5 470.5,-2719.5 470.5,-2650.5 480.5,-2650.5 480.5,-2640.5 490.5,-2640.5 490.5,-2630.5 500.5,-2630.5 500.5,-2620.5 510.5,-2620.5 510.5,-2610.5 530.5,-2610.5 530.5,-2600.5 589.5,-2600.5 589.5,-2610.5 609.5,-2610.5 609.5,-2620.5 619.5,-2620.5 619.5,-2630.5 629.5,-2630.5 629.5,-2650.5 639.5,-2650.5 639.5,-2739.5 629.5,-2739.5 629.5,-2749.5 619.5,-2749.5 619.5,-2759.5 609.5,-2759.5 609.5,-2769.5 599.5,-2769.5 599.5,-2790.5 619.5,-2790.5 619.5,-2800.5 629.5,-2800.5 629.5,-2810.5 639.5,-2810.5 639.5,-2820.5 649.5,-2820.5 649.5,-2830.5 659.5,-2830.5 659.5,-2850.5 669.5,-2850.5 669.5,-2959.5 659.5,-2959.5 659.5,-2969.5 649.5,-2969.5 649.5,-2979.5 639.5,-2979.5 639.5,-3000.5 649.5,-3000.5 649.5,-3010.5 659.5,-3010.5 659.5,-3020.5 669.5,-3020.5 669.5,-3030.5 679.5,-3030.5 679.5,-3040.5 689.5,-3040.5 689.5,-3050.5 699.5,-3050.5 699.5,-3060.5 709.5,-3060.5 709.5,-3070.5 719.5,-3070.5 719.5,-3080.5 729.5,-3080.5 729.5,-3090.5 739.5,-3090.5 739.5,-3169.5 729.5,-3169.5 729.5,-3189.5 719.5,-3189.5 719.5,-3199.5 709.5,-3199.5 709.5,-3220.5 719.5,-3220.5 719.5,-3230.5 729.5,-3230.5 729.5,-3240.5 739.5,-3240.5 739.5,-3250.5 749.5,-3250.5 749.5,-3260.5 769.5,-3260.5 769.5,-3270.5 789.5,-3270.5 789.5,-3280.5 819.5,-3280.5 819.5,-3290.5 849.5,-3290.5 849.5,-3300.5 869.5,-3300.5 869.5,-3310.5 900.5,-3310.5 900.5,-3300.5 910.5,-3300.5 910.5,-3290.5 920.5,-3290.5 920.5,-3270.5 930.5,-3270.5 930.5,-3219.5 920.5,-3219.5 920.5,-3090.5 930.5,-3090.5 930.5,-3050.5 940.5,-3050.5 940.5,-3029.5 930.5,-3029.5 930.5,-2809.5 920.5,-2809.5 920.5,-2599.5 910.5,-2599.5 910.5,-2420.5 920.5,-2420.5 920.5,-2200.5 930.5,-2102.7500000000005 930.5,-1907.2499999999995 671.3749999999999,-1809.5 498.625,-1809.5 412.24999999999994,-1809.5 239.5,-2136.125 239.5,-2353.875 239.5,-2462.7500000000005 239.5,-2680.5 249.5,-2680.5 249.5,-2720.5 259.5,-2720.5 259.5,-2810.5 269.5,-2810.5 269.5,-2850.5 279.5,-2850.5 279.5,-2870.5 289.5,-2870.5 289.5,-2880.5 299.5,-2880.5 299.5,-2980.5 309.5,-2980.5 309.5,-3049.5 299.5,-3049.5 299.5,-3069.5 289.5,-3069.5 289.5,-3079.5 279.5,-3079.5 279.5,-3089.5 259.5,-3089.5 259.5,-3109.5 249.5,-3109.5 249.5,-3139.5 239.5,-3139.5 239.5,-3420.5 249.5,-3420.5 249.5,-3460.5 259.5,-3460.5 259.5,-3550.5 269.5,-3550.5 269.5,-3699.5 259.5,-3699.5 259.5,-3729.5 249.5,-3729.5 249.5,-3750.5 259.5,-3750.5 259.5,-3760.5 289.5,-3760.5 427.24999999999994,-3770.5 702.7499999999999,-3770.5 840.5,-3770.5"/>
<polygon class="l0d0" points="920.5,-1589.5 910.5,-1589.5 910.5,-1410.5 920.5,-1410.5 920.5,-1200.5 930.5,-1200.5 930.5,-980.5 940.5,-980.5 940.5,-959.5 930.5,-959.5 930.5,-919.5 920.5,-919.5 920.5,-790.5 930.5,-790.5 930.5,-739.5 920.5,-739.5 920.5,-719.5 910.5,-719.5 910.5,-709.5 900.5,-709.5 900.5,-699.5 869.5,-699.5 869.5,-709.5 849.5,-709.5 849.5,-719.5 819.5,-719.5 819.5,-729.5 789.5,-729.5 789.5,-739.5 769.5,-739.5 769.5,-749.5 749.5,-749.5 749.5,-759.5 739.5,-759.5 739.5,-769.5 729.5,-769.5 729.5,-779.5 719.5,-779.5 719.5,-789.5 709.5,-789.5 709.5,-810.5 719.5,-810.5 719.5,-820.5 729.5,-820.5 729.5,-840.5 739.5,-840.5 739.5,-919.5 729.5,-919.5 729.5,-929.5 719.5,-929.5 719.5,-939.5 709.5,-939.5 709.5,-949.5 699.5,-949.5 699.5,-959.5 689.5,-959.5 689.5,-969.5 679.5,-969.5 679.5,-979.5 669.5,-979.5 669.5,-989.5 659.5,-989.5 659.5,-999.5 649.5,-999.5 649.5,-1009.5 639.5,-1009.5 639.5,-1030.5 649.5,-1030.5 649.5,-1040.5 659.5,-1040.5 659.5,-1050.5 669.5,-1050.5 669.5,-1159.5 659.5,-1159.5 659.5,-1179.5 649.5,-1179.5 649.5,-1189.5 639.5,-1189.5 639.5,-1199.5 629.5,-1199.5 629.5,-1209.5 619.5,-1209.5 619.5,-1219.5 599.5,-1219.5 599.5,-1240.5 609.5,-1240.5 609.5,-1250.5 619.5,-1250.5 619.5,-1260.5 629.5,-1260.5 629.5,-1270.5 639.5,-1270.5 639.5,-1359.5 629.5,-1359.5 629.5,-1379.5 619.5,-1379.5 619.5,-1389.5 609.5,-1389.5 609.5,-1399.5 589.5,-1399.5 589.5,-1409.5 530.5,-1409.5 530.5,-1399.5 510.5,-1399.5 510.5,-1389.5 500.5,-1389.5 500.5,-1379.5 490.5,-1379.5 490.5,-1369.5 480.5,-1369.5 480.5,-1359.5 470.5,-1359.5 470.5,-1290.5 480.5,-1290.5 480.5,-1280.5 490.5,-1280.5 490.5,-1270.5 500.5,-1270.5 500.5,-1260.5 510.5,-1260.5 510.5,-1250.5 530.5,-1250.5 530.5,-1240.5 550.5,-1240.5 550.5,-1209.5 540.5,-1209.5 540.5,-1199.5 530.5,-1199.5 530.5,-1189.5 520.5,-1189.5 520.5,-1179.5 510.5,-1179.5 510.5,-1169.5 500.5,-1169.5 500.5,-1159.5 490.5,-1159.5 490.5,-1090.5 500.5,-1090.5 500.5,-1080.5 510.5,-1080.5 510.5,-1070.5 520.5,-1070.5 520.5,-1050.5 530.5,-1050.5 530.5,-1040.5 540.5,-1040.5 540.5,-1030.5 550.5,-1030.5 550.5,-1020.5 560.5,-1020.5 560.5,-989.5 550.5,-989.5 550.5,-979.5 540.5,-979.5 540.5,-959.5 530.5,-959.5 530.5,-880.5 540.5,-880.5 540.5,-870.5 550.5,-870.5 550.5,-860.5 560.5,-860.5 560.5,-850.5 570.5,-850.5 570.5,-840.5 580.5,-840.5 580.5,-820.5 590.5,-820.5 590.5,-810.5 600.5,-810.5 600.5,-779.5 590.5,-779.5 590.5,-670.5 600.5,-670.5 600.5,-660.5 610.5,-660.5 610.5,-650.5 620.5,-650.5 620.5,-640.5 630.5,-640.5 630.5,-630.5 640.5,-630.5 640.5,-610.5 650.5,-610.5 650.5,-559.5 640.5,-559.5 640.5,-480.5 650.5,-480.5 650.5,-470.5 660.5,-470.5 660.5,-460.5 670.5,-460.5 670.5,-450.5 680.5,-450.5 680.5,-440.5 710.5,-440.5 710.5,-430.5 730.5,-430.5 730.5,-420.5 750.5,-420.5 750.5,-410.5 770.5,-410.5 770.5,-400.5 780.5,-400.5 780.5,-390.5 800.5,-390.5 800.5,-380.5 810.5,-380.5 810.5,-360.5 820.5,-360.5 820.5,-330.5 830.5,-330.5 830.5,-320.5 840.5,-320.5 840.5,-310.5 850.5,-310.5 850.5,-300.5 939.5,-300.5 939.5,-310.5 949.5,-310.5 949.5,-320.5 959.5,-320.5 959.5,-330.5 969.5,-330.5 969.5,-370.5 979.5,-370.5 979.5,-410.5 1010.5,-410.5 1010.5,-400.5 1020.5,-400.5 1020.5,-370.5 1030.5,-370.5 1030.5,-320.5 1040.5,-320.5 1040.5,-290.5 1050.5,-290.5 1050.5,-269.5 1040.5,-269.5 1040.5,-259.5 880.5,-259.5 880.5,-249.5 840.5,-249.5 702.7499999999999,-239.5 427.24999999999994,-239.5 289.5,-239.5 289.5,-249.5 259.5,-249.5 259.5,-259.5 249.5,-259.5 249.5,-280.5 259.5,-280.5 259.5,-310.5 269.5,-310.5 269.5,-459.5 259.5,-459.5 259.5,-549.5 249.5,-549.5 249.5,-589.5 239.5,-589.5 239.5,-870.5 249.5,-870.5 249.5,-900.5 259.5,-900.5 259.5,-920.5 279.5,-920.5 279.5,-930.5 289.5,-930.5 289.5,-940.5 299.5,-940.5 299.5,-960.5 309.5,-960.5 309.5,-1029.5 299.5,-1029.5 299.5,-1129.5 289.5,-1129.5 289.5,-1139.5 279.5,-1139.5 279.5,-1159.5 269.5,-1159.5 269.5,-1199.5 259.5,-1199.5 259.5,-1289.5 249.5,-1289.5 249.5,-1329.5 239.5,-1449.5 239.5,-1689.5 494.875,-1809.5 665.1249999999999,-1809.5 750.2499999999999,-1809.5 920.5,-1809.5"/>
</g>
</svg>